<?xml version="1.0" encoding="utf-8"?>
<!-- Generator: Adobe Illustrator 22.1.0, SVG Export Plug-In . SVG Version: 6.00 Build 0)  -->
<svg version="1.1" id="图层_1" xmlns="http://www.w3.org/2000/svg" xmlns:xlink="http://www.w3.org/1999/xlink" x="0px" y="0px"
	 viewBox="0 0 64 64" style="enable-background:new 0 0 64 64;" xml:space="preserve">
<style type="text/css">
	.st0{fill:#FFFFFF;}
</style>
<rect class="st0" width="64" height="64"/>
<g>
	<path d="M22.7,29.8c-0.5-1.6-1.5-2.7-3.1-3.4c-1-0.4-2-0.6-3.1-0.6c-1.9,0-3.8,0-5.6,0h-0.1v7.4c-0.5-0.7-1.1-1.1-1.9-1.4
		c0,0,0.1,0,0.1,0c0.5-0.1,0.9-0.4,1.2-0.8c0.4-0.5,0.6-1.2,0.6-1.9c0-1.1-0.4-2-1.3-2.7c-0.8-0.6-1.6-0.9-2.6-1
		c-0.3,0-0.5-0.1-0.8-0.1H5.2c-0.2,0-0.5,0.1-0.7,0.1c-1.1,0.2-2,0.6-2.8,1.3c-0.7,0.7-1,1.4-1.2,2.3c0,0.3-0.1,0.6-0.1,0.9h3.1
		c0-0.2,0-0.4,0.1-0.6c0.1-0.6,0.5-1,1.1-1.2C5.4,28,6.1,28,6.8,28.3c0.4,0.2,0.7,0.5,0.8,1c0.1,0.6-0.2,1.1-0.8,1.3
		c-0.4,0.2-0.9,0.2-1.3,0.3c-0.3,0-0.6,0-0.9,0c0,0-0.1,0-0.1,0v2.3c0.2,0,0.4,0,0.6,0c0.5,0,1.1,0,1.6,0.2c0.7,0.2,1.1,0.7,1.1,1.5
		c0,0.5-0.1,0.9-0.4,1.3c-0.3,0.3-0.6,0.4-0.9,0.5c-0.6,0.2-1.3,0.2-1.9,0c-0.8-0.2-1.2-0.7-1.4-1.5c-0.1-0.3-0.1-0.5-0.1-0.8H0V35
		c0,0.1,0,0.2,0,0.3c0.2,1.5,0.9,2.6,2.2,3.3c0,0,0.1,0,0.2,0c2.1,0,4.3,0,6.4,0c0,0,0.1,0,0.1,0c0.7-0.4,1.4-0.9,1.8-1.7
		c0,0,0-0.1,0.1-0.1c0,0,0,0,0,0v1.8h0.1c2.9,0,5.7,0,8.6,0c0.1,0,0.1,0,0.2,0c1.4-0.6,2.3-1.6,2.9-3c0.4-0.9,0.5-1.9,0.6-2.9
		C23.1,31.7,23,30.7,22.7,29.8z M19.4,34.2c-0.3,1-1,1.6-2,1.8c-0.5,0.1-1,0.2-1.5,0.2c-0.5,0-1,0-1.5,0c0,0-0.1,0-0.1,0v-7.4
		c0,0,0,0,0.1,0c0.6,0,1.3,0,1.9,0c0.6,0,1.2,0.1,1.8,0.4c0.7,0.4,1.2,1,1.4,1.8C19.7,32.1,19.7,33.2,19.4,34.2z"/>
	<path d="M64,29.3v0.4c0,0.2-0.1,0.3-0.1,0.5c-0.3,0.7-1,1-1.7,0.9c0,0-0.1,0-0.1,0v1.5h-1.7c0,0.1,0,0.1,0,0.1c0,1.2,0,2.4,0,3.6
		c0,0.1,0,0.2,0,0.3c0.1,0.4,0.3,0.5,0.7,0.6c0.2,0,0.4,0,0.6,0c0.1,0,0.2,0,0.3,0v1.4c0,0-0.1,0-0.1,0c-1.2,0-2.4,0-3.6,0
		c-0.1,0-0.1,0-0.2-0.1c-0.2-0.3-0.4-0.6-0.4-1c0-0.3-0.1-0.7-0.1-1.1c0-1.2,0-2.5,0-3.7v-0.1h-1.3c0,0.2,0.1,0.4,0.1,0.7h-2.5
		c0,0,0,0,0,0c0-0.4-0.2-0.7-0.7-0.9c-0.4-0.1-0.8-0.1-1.2,0c-0.2,0.1-0.4,0.2-0.5,0.4c0,0.2,0,0.3,0.1,0.5c0.2,0.2,0.3,0.3,0.5,0.3
		c0.5,0.2,1,0.3,1.5,0.4c0.5,0.1,1,0.2,1.4,0.3c0.8,0.3,1.3,0.8,1.6,1.6c0.2,0.9-0.2,2.1-1,2.6c0,0-0.1,0-0.1,0c-1.9,0-3.9,0-5.8,0
		c0,0-0.1,0-0.1-0.1c-0.5-0.4-0.8-1-0.9-1.7c0-0.1,0-0.2,0-0.4c0,0,0-0.1,0-0.1h2.6c0,0.1,0,0.1,0,0.2c0.1,0.4,0.3,0.7,0.7,0.9
		c0.5,0.2,1.1,0.2,1.6,0c0.1-0.1,0.3-0.2,0.3-0.3c0.2-0.3,0.2-0.7-0.2-0.9c-0.2-0.2-0.5-0.2-0.7-0.3c-0.7-0.2-1.5-0.3-2.2-0.5
		c-0.3-0.1-0.6-0.2-0.8-0.3c-0.7-0.3-1.1-0.9-1.2-1.6c-0.1-0.8,0.1-1.4,0.7-2c0.3-0.3,0.8-0.5,1.2-0.7c0.7-0.2,1.5-0.3,2.2-0.3
		c0.6,0,1.3,0.1,1.9,0.3c0.7,0.3,1.3,0.7,1.6,1.4v-1.5h1.4v-2.5h2.7v2.5h1c0,0,0,0,0,0c0,0-0.1,0-0.1-0.1c-0.5-0.5-0.7-1-0.5-1.7
		c0.2-0.6,0.6-1,1.3-1.1C63,27.8,63.8,28.4,64,29.3C64,29.3,64,29.3,64,29.3z"/>
	<path d="M38.3,30.8c-1,0.1-1.8,0.6-2.2,1.5c0,0,0,0,0,0.1c0,0,0,0,0,0v-1.5h-2.7v6.8c0,0,0,0,0,0c0,0,0-0.1,0-0.1
		c-1.1-3-2.3-6.1-3.4-9.1c0-0.1-0.1-0.1-0.2-0.1c-1.1,0-2.3,0-3.4,0h-0.1c-1.3,3.5-2.6,6.9-3.9,10.4c0,0,0,0,0.1,0c1,0,2,0,3,0
		c0.1,0,0.1,0,0.1-0.1c0.2-0.4,0.3-0.9,0.5-1.3c0-0.1,0.1-0.1,0.1-0.1c1.3,0,2.6,0,3.9,0c0.1,0,0.1,0,0.1,0.1
		c0.1,0.4,0.3,0.9,0.4,1.3c0,0.1,0.1,0.1,0.2,0.1c1.8,0,3.5,0,5.3,0h0.1v-0.1c0-1.2,0-2.3,0-3.5c0-0.6,0.3-1.2,0.8-1.5
		c0.5-0.4,1.1-0.4,1.7-0.4c0.2,0,0.4,0.1,0.7,0.1v-2.4C38.9,30.8,38.6,30.7,38.3,30.8z M26.7,34.9c0.4-1.4,0.9-2.7,1.3-4.1
		c0,0,0,0,0,0c0.4,1.3,0.9,2.7,1.3,4.1H26.7z"/>
	<path d="M43.6,32.6v0.1c0,1.2,0,2.4,0,3.7c0,0.1,0,0.2,0,0.3c0.1,0.3,0.3,0.5,0.7,0.5c0.2,0,0.4,0,0.6,0c0.1,0,0.2,0,0.3,0v1.5
		h-0.1c-1.2,0-2.4,0-3.6,0c-0.1,0-0.1,0-0.2-0.1c-0.3-0.3-0.4-0.7-0.4-1.1c0-0.3-0.1-0.7-0.1-1c0-1.2,0-2.5,0-3.7v-0.1h-1.4v-1.8
		h1.4v-2.5h2.7v2.5h1.7v1.8H43.6z"/>
	<rect x="45.6" y="30.8" width="2.7" height="7.8"/>
	<rect x="45.6" y="28.3" width="2.7" height="1.9"/>
</g>
</svg>
