<?xml version="1.0" encoding="utf-8"?>
<!-- Generator: Adobe Illustrator 22.1.0, SVG Export Plug-In . SVG Version: 6.00 Build 0)  -->
<svg version="1.1" id="图层_1" xmlns="http://www.w3.org/2000/svg" xmlns:xlink="http://www.w3.org/1999/xlink" x="0px" y="0px"
	 viewBox="0 0 64 64" style="enable-background:new 0 0 64 64;" xml:space="preserve">
<style type="text/css">
	.st0{fill:#418B96;}
	.st1{fill:#FFFFFF;}
</style>
<g>
	<path class="st0" d="M32,63.8C14.5,63.8,0.2,49.5,0.2,32C0.2,14.5,14.5,0.2,32,0.2c17.5,0,31.8,14.4,31.7,31.9
		C63.8,49.6,49.5,63.8,32,63.8z"/>
	<path class="st1" d="M6.3,26.6c0.5,0.3,0.9,0.6,1.3,0.8c1.3,0.6,2.3,0.1,2.7-1.3c0.2-0.8,0-1.5,0-2.3c-0.1-2.8,1.3-4.9,3.7-5.2
		c2.2-0.3,4.5,1.5,5.1,4.1c0.5,2.6,0.8,5.1,0.9,7.7c0.2,6.1,0,12.3-0.3,18.4c-0.1,0.9-0.1,1.9,0.4,2.8c0.3,0.5,0.6,0.9,1.2,0.9
		c0.6,0,1-0.4,1.2-1c0.4-1,0.2-2,0.1-3.1c-0.6-5.1-1.2-10.2-0.2-15.3c0.3-1.8,1-3.4,2.3-4.7c2.3-2.3,5.8-2.2,8.1,0.3
		c1.3,1.5,2.1,3.2,2.5,5.1c0.6,3.8,0.9,7.7,0.4,11.5c-0.1,0.7-0.2,1.4,0.1,2c0.2,0.5,0.5,1,1.2,1c0.6,0,0.9-0.5,1.1-1
		c0.3-0.6,0.2-1.3,0.1-2c-0.1-1.7,0.2-3.2,1.2-4.6c1.6-2.2,4.8-2.1,6.1,0.3c1,1.7,1,3.6,0.7,5.5c-0.1,0.8-0.3,1.7-0.4,2.5
		c0,1.3,0.7,2.1,1.6,2.1c1.2-0.1,1.6-1,1.5-2c-0.1-1.8-0.5-3.6-0.6-5.3c-0.2-2.4-0.3-4.8,0.2-7.2c0.3-1.4,0.8-2.7,1.9-3.6
		c1.6-1.5,3.5-1,4.3,1c0.5,1.1,0.5,2.3,0.5,3.4c0,1.1,0.2,2,1.5,2.2c0.8,0.2,0.4,0.8,0.3,1.2c-1.6,4.8-4.5,8.8-8.4,11.9
		c-9.8,7.9-24,7.8-33.5-0.5C7.6,46.1,4.6,37.9,5.9,28.2c0-0.3,0.1-0.6,0.2-0.9C6.1,27.1,6.2,26.9,6.3,26.6z"/>
</g>
</svg>
