<?xml version="1.0" encoding="utf-8"?>
<!-- Generator: Adobe Illustrator 22.1.0, SVG Export Plug-In . SVG Version: 6.00 Build 0)  -->
<svg version="1.1" id="图层_1" xmlns="http://www.w3.org/2000/svg" xmlns:xlink="http://www.w3.org/1999/xlink" x="0px" y="0px"
	 viewBox="0 0 64 64" style="enable-background:new 0 0 64 64;" xml:space="preserve">
<style type="text/css">
	.st0{fill:#FFFFFF;}
</style>
<g>
	<g>
		<path class="st0" d="M46.8,6L33.1,1.7c0,0-8.1,1.1-13.8,1.2C34.2,9.4,46.8,6,46.8,6z"/>
		<path class="st0" d="M62.2,7.9c-1.4-0.4-4.2-1.3-7.4-2.1c-22.1,9.5-44.2-4.7-44.2-4.7L2.4,1.7l29.7,16.1L62.2,7.9z"/>
		<path class="st0" d="M19.7,36.5c-1.5-7.3-5-12.1-8.6-15.2c-0.8-0.7-1.7-1.4-2.5-1.9c-1.2-0.8-2.4-1.5-3.4-2
			c0.4,3.8,0.9,7.7,1.3,11.5c0.3,3,0.7,6,1,9.1c1.9,1.9,3.7,3.9,5.6,5.8c2.4,2.4,4.7,4.9,7.1,7.3c0.1-0.5,0.1-1,0.2-1.5
			C20.7,44.6,20.5,40.2,19.7,36.5z"/>
		<path class="st0" d="M31,19.5L0.3,2.9C0.6,6.3,1,9.7,1.4,13.1c4.9,1.4,26.2,9.2,20.6,43c2.1,2.2,4.2,4.4,6.2,6.6L31,19.5z"/>
		<path class="st0" d="M39.1,44.1c0-0.1,0.1-0.3,0.1-0.4C45.1,22.6,57,19.3,60.6,18.8c0.1,0,0.2-0.1,0.3-0.1c0.9-3,1.9-6,2.8-9
			l-30.7,10l-2.8,43.3c2.2-2.1,4.3-4.3,6.5-6.4c0.4-3.7,1-7,1.7-10C38.7,45.7,38.9,44.9,39.1,44.1z"/>
		<path class="st0" d="M39.8,51.3c3.6-3.3,7.1-6.7,10.7-10c0.5-0.5,1.1-1,1.6-1.5c0.2-0.7,0.4-1.3,0.6-2c1.7-5.3,3.3-10.6,5-16
			C51.9,24.7,43.6,32.1,39.8,51.3z"/>
	</g>
</g>
</svg>
