<?xml version="1.0" encoding="utf-8"?>
<!-- Generator: Adobe Illustrator 22.1.0, SVG Export Plug-In . SVG Version: 6.00 Build 0)  -->
<svg version="1.1" id="图层_1" xmlns="http://www.w3.org/2000/svg" xmlns:xlink="http://www.w3.org/1999/xlink" x="0px" y="0px"
	 viewBox="0 0 64 64" style="enable-background:new 0 0 64 64;" xml:space="preserve">
<style type="text/css">
	.st0{fill:#19B955;}
	.st1{fill:#FFFFFF;}
</style>
<path class="st0" d="M59,64H5c-2.8,0-5-2.3-5-5V5c0-2.8,2.3-5,5-5h54c2.8,0,5,2.3,5,5v54C64,61.8,61.8,64,59,64z"/>
<path class="st1" d="M58.2,4.5c-0.8-0.5-1.4-0.4-2,0.5c-1.1,1.6-2.3,3.2-4.5,3.4c-1.3,0.1-2.6,0-4,0c-0.7,0-0.7-0.3-0.4-0.7
	c0.4-0.7,0.9-1.3,1.3-2c0.2-0.3,0.7-0.7,0.3-1.1c-0.3-0.4-0.9-0.5-1.4-0.5C47,4.1,47,4.6,46.9,5c-0.1,0.5-0.3,1-0.4,1.6
	c-0.2,1-0.9,1.3-1.8,1.2c-2.2-0.1-4.3-0.4-6.4-0.8c-0.8-0.2-1-0.5-0.7-1.3c0.5-1,0.9-2,1.3-3c0.2-0.5,0.3-0.9-0.4-1.1
	c-0.5-0.1-0.9,0.1-0.9,0.7c0,0.3-0.1,0.6-0.2,0.9C37,5.4,35.9,7,33.8,7.7c-0.1,0-0.2,0.1-0.3,0.1c0-0.1,0-0.2,0.1-0.3v0
	c0.2-0.4,0.4-0.7,0.6-1.1c0.2-0.4,0.4-0.7,0.6-1.1C35,4.7,35.5,4.2,35,3.5c-0.2-0.3-0.7-0.4-1-0.3c-0.8,0.3-0.7,1.1-0.7,1.7
	C33.2,6,32.7,7.1,32.2,8C31.6,8.8,30.7,9,30,8.8c-0.9-0.1-0.5-1-0.6-1.6c-0.1-1.3,0.2-2.5,1.2-3.4c0.2-0.2,0.6-0.5,0.3-0.8
	c-0.3-0.3-0.7-0.2-1,0c-0.6,0.4-0.9,1-1.1,1.6c-0.4,1.2-0.3,2.4-0.3,3.6c0,0.4,0.5,1.2-0.5,1.3c-0.8,0.1-1.1-0.5-1.2-1.1
	c-0.2-1.1-0.4-2.2,0.3-3.2c0.2-0.3,0.4-0.6,0-0.9c-0.3-0.2-0.6,0-0.9,0.2c-0.5,0.5-0.7,1.1-0.6,1.8c0.1,1.2,0.2,2.5,0.3,3.7
	c0.1,1.1-0.7,1.9-1.5,2.4c-0.6,0.4-1-0.5-1.5-0.8c-1.5-1-2.9-2.2-4.5-3c-0.7-0.4-1.4-0.4-2.1,0.2c-0.6,0.5-0.3,1.1,0,1.7
	c0.5,1.2,1,2.5,1.7,3.6c1.7,2.6,1.3,5-0.5,7.5c-1.2,1.7-2.4,3.4-3.3,5.4c-1.8,3.7-1.2,7.2,1.2,10.5c0.9,1.3,2.1,2.3,3.2,3.4
	c1.4,1.5,2.5,3.2,2.7,5.2c0.6,5,0.9,10.1-1.8,14.7c-0.2,0.4-0.5,0.6,0.3,1c1.1,0.5,2.1,0.3,3.1,0.4c0.8,0.1,1.2-0.2,1.3-1.1
	c0.4-2.2,0.7-4.3,0.7-6.5c0-2.7,0.3-5.3,1-7.9c0.4-1.8,1.1-2.4,2.9-2.5c4.1-0.3,8.2,0.3,12.2,1.3c1.2,0.3,2.4,0.8,3,1.9
	c0.7,1.3,1.8,2.3,2.9,3.4c1.3,1.3,1.8,2.8,1.7,4.6c-0.1,1.5-0.4,3-1,4.5c-0.8,1.8-0.8,1.8,1.2,1.8c0.6,0,1.3,0.2,1.4-0.7
	c0.4-2.2,0.8-4.5,0.4-6.8c-0.1-0.4-0.2-0.7,0-1.2c0.9,1.7,1.2,4.7,0.8,7.1c-0.4,2.1-0.4,2.1,1.7,2.1c0.9,0,1.3-0.3,1.2-1.2
	c-0.1-0.5,0-1,0-1.5c-0.2-3.8-0.6-7.5-3.4-10.5c-0.9-1-0.4-5.6,0.6-6.6c0.1-0.1,0.3-0.2,0.4-0.3c1.1-0.7,1.2-1.2,0.4-2.2
	c-1.5-2-3.4-3.4-5.7-4.3c-2.7-1.1-5.6-1.6-8.6-2c-3-0.4-6-0.8-8.8-2c-3.4-1.4-5.6-5-5-8.3c0.4-2,0.8-4.2,3.5-4.5
	c0.1,0,0.4-0.2,0.4-0.3c0-1.2,0.8-0.7,1.4-0.7c0.6,0,1.2,0.1,1.9,0.1c0.3,0,0.7,0,0.8-0.4c0.1-0.5-0.2-0.7-0.5-0.8
	c-0.8-0.3-1.6-0.5-2.3-0.9c-0.9-0.4-1.5-1-1.2-2.1c0.8-2.8,3.4-4.2,6.1-3.4c2.5,0.7,4.9,1.6,7.4,2.2c3.3,0.9,6.4,0.6,8.7-2.4
	c0.2-0.3,0.5-0.4,0.8-0.4c3.3,0,5.4-2.2,7.4-4.4C58.8,5,58.7,4.8,58.2,4.5z M38.3,10.8c-1.6-0.5-3.2-0.9-5-1.8c2.3-1,4.5-1,6.8-0.7
	c0.3,0,0.5,0.2,0.5,0.6C40.7,10.3,39.6,11.2,38.3,10.8z M47.8,10.7c-1,1.2-2.3,1.3-3.8,1.4c-0.7-0.1-1.5-0.2-2.3-0.3
	c-0.6-0.1-0.8-0.4-0.5-1c1-2,1.1-2.1,3.3-1.7c1,0.2,1.9,0.4,2.9,0.5C48.4,9.7,48.2,10.2,47.8,10.7z"/>
</svg>
