<?xml version="1.0" encoding="utf-8"?>
<!-- Generator: Adobe Illustrator 22.1.0, SVG Export Plug-In . SVG Version: 6.00 Build 0)  -->
<svg version="1.1" id="图层_1" xmlns="http://www.w3.org/2000/svg" xmlns:xlink="http://www.w3.org/1999/xlink" x="0px" y="0px"
	 viewBox="0 0 64 64" style="enable-background:new 0 0 64 64;" xml:space="preserve">
<style type="text/css">
	.st0{fill:#F3D0A7;}
	.st1{fill:#504E50;}
</style>
<g id="Layer_2">
	<g id="Layer_1-2">
		<path class="st0" d="M47.7,29.1V27l0,0v0v0V6.6c0-1.9-1.5-3.4-3.4-3.4c-1.9,0-3.4,1.5-3.4,3.4v19.1c0.8-0.1,1.6-0.1,2.4,0.1
			c1.1,0.3,2.1,0.8,2.9,1.6L47.7,29.1L47.7,29.1z M39.8,38.7l4.8,4.8c0.5,0.5,1.4,0.5,1.9,0c0.5-0.5,0.5-1.4,0-1.9l0,0l-7.3-7.3
			c-1.3-1.3-1.3-3.5,0-4.9l0,0c1.3-1.3,3.5-1.3,4.9,0l11.5,11.5c0.6,0.6,1,1.5,1,2.4c0,0.9-0.4,1.8-1,2.4l0,0h0l0,0l-0.1,0.1
			l-0.1,0.1l0,0L44.2,57l0,0l0,0l0,0l-0.1,0.1l0,0c-0.5,0.5-1.1,1-1.7,1.5c-0.6,0.4-1.1,0.7-1.8,1c-2.8-0.1-5.4-1.2-7.4-3.2
			c-2-2.1-3.1-4.9-3.1-7.8c0-0.4-0.1-0.7-0.4-1l0,0c-0.5-0.5-1.4-0.5-1.9,0c0,0,0,0,0,0l0,0c-0.3,0.3-0.4,0.6-0.4,1
			c0,3.1,1,6.1,2.9,8.6c1.2,1.5,2.7,2.8,4.5,3.7H24.5c-6.9,0-12.5-5.6-12.5-12.5V12.9c0-0.9,0.4-1.8,1-2.4l0,0
			c1.3-1.3,3.5-1.3,4.9,0c0.6,0.6,1,1.5,1,2.4v22.5c0,1.6,0.6,3.2,1.8,4.4l0,0c2.4,2.4,6.3,2.4,8.7,0c0.2-0.2,0.3-0.3,0.4-0.5
			c0.5,0.6,1,1,1.6,1.4c2,1.2,4.6,1.2,6.6-0.2l0,0C38.8,40,39.4,39.4,39.8,38.7L39.8,38.7z M25,19.8c-0.9,0-1.8,0.4-2.4,1l0,0
			c-0.6,0.6-1,1.5-1,2.4v12.1c0,0.9,0.4,1.8,1,2.4l0,0c1.3,1.3,3.5,1.3,4.9,0c0.6-0.6,1-1.5,1-2.4v0l0,0V23.3l0,0v0
			C28.4,21.3,26.9,19.8,25,19.8L25,19.8z M34.6,19.8c-0.9,0-1.8,0.4-2.4,1l0,0c-0.6,0.6-1,1.5-1,2.4v0v0v12.1l0,0v0
			c0,1.9,1.6,3.4,3.5,3.4c1.4,0,2.7-0.9,3.2-2.2l-0.5-0.5c-2.4-2.4-2.4-6.3,0-8.7c0.2-0.2,0.3-0.3,0.5-0.5c0.1-0.1,0.1-0.1,0.2-0.2
			v-3.5c0-0.9-0.4-1.8-1-2.4l0,0C36.4,20.2,35.5,19.8,34.6,19.8L34.6,19.8z"/>
		<path class="st1" d="M27.5,19.4c0.5-0.6,1-1,1.6-1.4l0,0c2-1.2,4.6-1.2,6.6,0.2V6.6c0-1.6,0.6-3.2,1.8-4.4l0,0
			c2.4-2.4,6.3-2.4,8.7,0c0,0,0,0,0,0l0,0c1.2,1.2,1.8,2.7,1.8,4.4v20.3l0,0v4.8l6.9,6.9l0.1,0.1l0,0l0.1,0.1l0,0
			c2.1,2.1,2.4,5.3,0.8,7.8l0,0c-0.1,0.2-0.2,0.3-0.4,0.5l0,0c-0.1,0.2-0.3,0.3-0.4,0.5l0,0l0,0l0,0L43.9,58.9h0l0,0l0,0l-0.1,0l0,0
			l0,0c-2.9,2.9-6.8,4.5-10.8,4.5H22.2C13.8,63.6,7,56.8,7,48.4V12.9c0-1.6,0.6-3.2,1.8-4.4l0,0c2.4-2.4,6.3-2.4,8.7,0c0,0,0,0,0,0
			l0,0c1.2,1.2,1.8,2.7,1.8,4.4v5.3c2-1.3,4.6-1.4,6.6-0.2C26.5,18.4,27.1,18.8,27.5,19.4L27.5,19.4z M45.4,29.1V27l0,0V6.6
			c0-1.9-1.5-3.4-3.4-3.4c-1.9,0-3.4,1.5-3.4,3.4v19.1c0.8-0.1,1.6-0.1,2.4,0.1c1.1,0.3,2.1,0.8,2.9,1.6L45.4,29.1L45.4,29.1z
			 M38.2,61.1h-0.1H38.2L38.2,61.1L38.2,61.1z M37.6,38.7c-0.5,0.7-1.1,1.4-1.8,1.8l0,0c-2,1.3-4.6,1.4-6.6,0.2
			c-0.6-0.4-1.2-0.9-1.6-1.4c-0.5,0.6-1,1-1.6,1.4c-2.4,1.5-5.5,1.1-7.5-0.9l0,0c-1.2-1.2-1.8-2.7-1.8-4.4V12.9
			c0-1.9-1.5-3.4-3.4-3.4c-0.9,0-1.8,0.4-2.4,1l0,0c-0.6,0.6-1,1.5-1,2.4v35.5c0,6.9,5.6,12.5,12.5,12.5h10.4
			c-1.7-0.9-3.3-2.2-4.5-3.7c-1.9-2.4-2.9-5.5-2.9-8.6c0-0.4,0.1-0.7,0.4-1l0,0c0.5-0.5,1.4-0.5,1.9,0c0,0,0,0,0,0l0,0
			c0.3,0.3,0.4,0.6,0.4,1c0,2.9,1.1,5.7,3.1,7.8c1.9,2,4.6,3.2,7.4,3.2c0.6-0.3,1.2-0.6,1.8-1c0.6-0.4,1.2-0.9,1.7-1.5l0,0l0.1-0.1
			l0,0l0,0l0,0l11.1-11.1l0,0l0.1-0.1l0.1-0.1l0,0l0,0l0,0c0.6-0.7,1-1.5,1-2.4c0-0.9-0.3-1.8-1-2.4L41.8,29.4
			c-1.3-1.3-3.5-1.3-4.9,0l0,0c-1.3,1.3-1.3,3.5,0,4.9l7.3,7.3c0.5,0.5,0.5,1.4,0,1.9c-0.5,0.5-1.4,0.5-1.9,0L37.6,38.7L37.6,38.7z
			 M22.7,19.8c-0.9,0-1.8,0.4-2.4,1l0,0c-0.6,0.6-1,1.5-1,2.4v12.1c0,0.9,0.4,1.8,1,2.4l0,0c1.3,1.3,3.5,1.3,4.9,0
			c0.6-0.6,1-1.5,1-2.4V23.2C26.2,21.3,24.6,19.8,22.7,19.8L22.7,19.8z M32.3,19.8c-0.9,0-1.8,0.4-2.4,1l0,0c-0.6,0.6-1,1.5-1,2.4
			v12.2c0,1.9,1.6,3.4,3.5,3.4c1.4,0,2.7-0.9,3.2-2.2l-0.5-0.5c-2.4-2.4-2.4-6.3,0-8.7c0.2-0.2,0.3-0.3,0.5-0.5
			c0.1-0.1,0.1-0.1,0.2-0.2v-3.6c0-0.9-0.4-1.8-1-2.4l0,0C34.1,20.2,33.3,19.8,32.3,19.8L32.3,19.8z"/>
	</g>
</g>
</svg>
