<?xml version="1.0" encoding="utf-8"?>
<!-- Generator: Adobe Illustrator 22.1.0, SVG Export Plug-In . SVG Version: 6.00 Build 0)  -->
<svg version="1.1" id="图层_1" xmlns="http://www.w3.org/2000/svg" xmlns:xlink="http://www.w3.org/1999/xlink" x="0px" y="0px"
	 viewBox="0 0 64 64" style="enable-background:new 0 0 64 64;" xml:space="preserve">
<style type="text/css">
	.st0{fill:#DBDBDB;}
	.st1{fill:#3D3D3D;}
	.st2{fill:#3C3C3C;}
</style>
<rect class="st0" width="64" height="64"/>
<g>
	<path class="st1" d="M7.7,38.4L7.7,38.4L7.7,38.4L7.7,38.4L7.7,38.4z M8.9,18.8L8.9,18.8L8.9,18.8C8.9,18.8,9,18.8,8.9,18.8
		C9,18.8,8.9,18.8,8.9,18.8z M52.8,14.3c0.1,0.4,0.1,0.8,0,1.2h0C53,15.1,52.9,14.7,52.8,14.3z M8.9,18.8L8.9,18.8L8.9,18.8
		C8.9,18.8,9,18.8,8.9,18.8C9,18.8,8.9,18.8,8.9,18.8z"/>
	<path class="st1" d="M43.6,57.8c-0.1,0.8-1.1,0.5-1.6,0.5c-1.5,0-3,0-4.4-0.2c-1.2-0.1-2.4,0-3.5,0.4c-0.2,0.1-0.5,0.2-0.7,0.3
		c-0.9,1.3-1.8,0.7-2.7,0c-0.1,0-0.3,0-0.4-0.1c-1-0.8-2.2-0.7-3.4-0.6c-1.7,0.1-3.4,0.3-5.1,0.1c-0.5,0-1.2,0.1-1.2-0.6
		c-0.1-0.6,0.5-0.8,1-1c3.5-1.9,7.9-0.8,10.6,2.5c2.6-3.2,6.8-4.3,10.2-2.7C42.8,56.8,43.7,57,43.6,57.8z"/>
	<path class="st1" d="M17.1,51c-0.2,0.4-0.5,0.6-0.8,0.7c-2.6,0.8-5.1,0.9-7.4-0.7c-0.3-0.2-0.6-0.4-0.6-0.8
		c0.1-0.4,0.5-0.4,0.8-0.5c2-0.7,3.9-0.6,5.8,0.2c0.3,0.1,0.6,0.2,1,0.4c-0.3-1.1-0.9-2-1-3c0-0.3-0.1-0.6,0.2-0.8
		c0.4-0.2,0.6,0.1,0.9,0.3C16.9,47.6,17.5,50,17.1,51z"/>
	<path class="st1" d="M54.8,51.3c-2.3,1.3-4.7,1.2-7.1,0.5c-0.4-0.1-0.7-0.4-0.8-0.9c-0.3-1,0.3-3.3,1.1-4c0.2-0.2,0.5-0.4,0.8-0.3
		c0.4,0.1,0.2,0.5,0.2,0.8c0,1.1-0.6,2-1.1,3.3c2.3-1.3,4.4-1.6,6.7-1c0.5,0.1,1.1,0.2,1.2,0.6C55.9,50.8,55.2,51.1,54.8,51.3z"/>
	<path class="st1" d="M50.4,55.1c-0.1,0.4-0.7,0.5-1.1,0.6c-2.1,0.4-4.1,0.2-6.1-0.7c-1.2-0.5-1.8-1.4-1.6-2.8
		c0.2-1.3,1.2-2.7,2.3-2.9c0.9-0.2,0.6,0.4,0.4,0.7c-0.5,1-1,2-1.6,3l0,0.3c0.1,0,0.2-0.1,0.3-0.1c2.3-0.3,4.5-0.2,6.5,0.9
		C49.9,54.4,50.5,54.6,50.4,55.1z"/>
	<path class="st1" d="M22.5,53.1c-0.2,1.2-1.2,1.8-2.2,2.2c-1.8,0.7-3.6,0.8-5.5,0.4c-0.4-0.1-1-0.2-1.1-0.7
		c-0.1-0.4,0.5-0.6,0.8-0.8c1.6-0.9,3.3-1.2,5.2-1.1c0.5,0,1,0.1,1.8,0.2c-0.6-1.1-1.1-1.9-1.5-2.8c-0.2-0.4-0.5-0.9-0.1-1.2
		c0.3-0.3,0.8,0.1,1.1,0.4C22,50.6,22.6,51.7,22.5,53.1z"/>
	<path class="st1" d="M59.9,45.3c-1.4,2.1-3.5,2.9-5.9,3.1c-0.4,0-0.9,0.1-1.1-0.2c-0.3-0.4,0.1-0.8,0.4-1.1c1.6-1.8,3.6-2.8,6-2.9
		C60.2,44.1,60.4,44.5,59.9,45.3z"/>
	<path class="st1" d="M11.2,48.2c-0.2,0.4-0.7,0.2-1.1,0.2c-2.3-0.1-4.4-1-5.8-2.9c-0.3-0.3-0.6-0.7-0.4-1.1C4.1,44,4.6,44.2,5,44.2
		c2.3,0.2,4.2,1.2,5.7,2.9C11,47.4,11.4,47.8,11.2,48.2z"/>
	<path class="st1" d="M8.7,42.7c0,0.2,0,0.5,0,0.7c-2,0.2-4.8-1.3-5.6-3c-0.2-0.3-0.4-0.7-0.1-1.1c0.2-0.3,0.6-0.2,1-0.1
		C5.9,39.8,7.9,40.5,8.7,42.7z"/>
	<path class="st1" d="M61.1,39.9c-0.2,0.7-0.6,1.3-1.2,1.8c-1.4,1-2.8,2-4.6,1.8c0-0.3,0-0.6,0-0.9c0.7-1.6,3.7-3.5,5.3-3.3
		C61.2,39.3,61.3,39.4,61.1,39.9z"/>
	<path class="st1" d="M61.8,36c-1.1,1.7-2.8,2.5-4.6,3.1c-0.8,0.2-0.6-0.6-1-0.8c0-0.1,0-0.1,0-0.2c0.6,0.5,0.6-0.2,0.8-0.4
		c1.1-1.3,2.1-2.7,3.9-3.1c0.4-0.1,0.9-0.3,1.2,0C62.3,35.1,62,35.6,61.8,36z"/>
	<path class="st1" d="M7.7,38.4c-0.2,0.3-0.1,0.8-0.7,0.7c-2-0.5-3.8-1.4-4.9-3.3c-0.2-0.3-0.4-0.7-0.2-1c0.2-0.4,0.7-0.2,1-0.2
		c1.9,0.3,3,1.7,4.1,3.1C7.3,38,7.3,38.4,7.7,38.4z"/>
	<path class="st1" d="M7.7,38.4L7.7,38.4C7.7,38.4,7.7,38.4,7.7,38.4L7.7,38.4L7.7,38.4z"/>
	<path class="st1" d="M61.3,27.5c-0.1,1.5-1.8,2.6-3.4,2.4c-1.2-0.1-2.2-0.4-2.7-1.5c-0.1-0.2-0.3-0.5-0.2-0.7
		c0.2-0.3,0.6-0.2,0.8,0c0.8,0.5,1.6,1.1,2.3,2.1c0.4-1.5,1.2-2.3,2.3-3C61,26.5,61.3,26.7,61.3,27.5z"/>
	<path class="st1" d="M6.4,33.9c0,0.5-0.3,0.5-0.6,0.4c-1.6-0.4-3-1.3-3.8-2.8c-0.2-0.3-0.3-0.7-0.1-1.1c0.3-0.3,0.6-0.1,0.9,0
		c1.5,0.5,2.6,1.5,3.3,3C6.3,33.6,6.3,33.7,6.4,33.9z"/>
	<path class="st1" d="M62.2,31c-0.2,1.3-2.7,3.2-4.1,3.2c-0.4,0-0.5-0.1-0.5-0.5c0.1-1.2,2.7-3.5,4-3.5C62.3,30.2,62.3,30.7,62.2,31
		z"/>
	<path class="st1" d="M14,15.4c-0.6,0.7-2.8,1-3.6,0.5c-0.7-0.4-1.1-2-0.7-2.9c0.1-0.4,0.3-1,0.7-0.9c0.4,0,0.6,0.5,0.7,0.9
		c0.3,0.9-0.2,1.8,0,2.7c0.8-0.6,1.7-0.8,2.6-0.9c0.1,0,0.3,0,0.4,0.1C14.2,15.1,14.1,15.3,14,15.4z"/>
	<path class="st1" d="M10.2,21.1c-0.4,1.2-2.1,2-3.3,1.7c-1-0.3-1.9-1.9-1.7-3c0-0.3,0.1-0.7,0.4-0.7c0.2,0,0.5,0.1,0.7,0.3
		c0.8,0.7,0.9,1.8,1.1,2.9C8.4,21.8,9,20.8,10.2,21.1z"/>
	<path class="st1" d="M52.6,47.8c-1.8-0.9-2.7-2.8-2.2-4.4c0.1-0.2,0-0.6,0.3-0.6c0.3-0.1,0.4,0.2,0.6,0.4
		C52.2,44.6,52.5,46.1,52.6,47.8z"/>
	<path class="st1" d="M11.5,47.8c-0.1-2,0.3-3.6,1.8-5.2C14,45.2,13.4,46.8,11.5,47.8z"/>
	<path class="st1" d="M5.8,30.1c-0.2,0.2-0.5,0-0.7-0.1c-1.3-0.4-2.4-1.6-2.4-2.6c0-0.6,0.4-0.9,0.9-0.6c1,0.6,1.8,1.4,2.2,2.5
		C5.9,29.5,6,29.9,5.8,30.1z"/>
	<path class="st1" d="M8.9,18.8C8.9,18.8,8.9,18.8,8.9,18.8C8.9,18.8,8.9,18.8,8.9,18.8c0,0.1-0.1,0.1-0.1,0.2
		c-0.3,0.3-0.6,0.3-1-0.1c-0.8-1-1-2-0.7-3.2c0.1-0.3,0.1-0.6,0.5-0.6c0.3,0,0.5,0.2,0.7,0.5C9,16.5,9,17.7,8.9,18.8L8.9,18.8z"/>
	<path class="st1" d="M11.6,40.8c-0.4,1.5-1.5,2.2-2.9,2.6c0-0.2,0-0.5,0-0.7c0.6-0.9,1.1-1.8,1.7-2.6c0.3-0.4,0.8-1.1,1.3-0.8
		C12.2,39.6,11.8,40.3,11.6,40.8z"/>
	<path class="st1" d="M55.4,43.4c-1.7-0.5-2.9-1.4-3.2-3.3c0-0.3-0.3-0.7,0.1-0.9c0.3-0.2,0.6,0.2,0.9,0.4c0.7,0.7,1.3,1.6,1.7,2.5
		c0.1,0.3,0.2,0.5,0.5,0.3C55.4,42.8,55.4,43.1,55.4,43.4z"/>
	<path class="st1" d="M56.2,18.9c-0.5,0.5-0.8,0.6-1-0.2c-0.2-0.9-0.1-1.9,0.2-2.7c0.2-0.4,0.4-1,1-0.8c0.5,0.1,0.5,0.6,0.5,1.1
		c0,0.2,0,0.3,0,0.6C57,17.5,56.8,18.2,56.2,18.9z"/>
	<path class="st1" d="M6.7,26.3c-0.1,0.3-0.2,0.3-0.4,0.3c-1,0-2.5-1.7-2.3-2.7c0-0.4,0.2-0.5,0.6-0.5C5.3,23.5,6.8,25.4,6.7,26.3z"
		/>
	<path class="st1" d="M60.1,23.8c0,1.3-1.2,2.6-2.2,2.8c-0.5,0.1-0.6-0.2-0.5-0.5c0.2-1.1,0.8-2,1.9-2.5
		C59.8,23.3,60.1,23.5,60.1,23.8z"/>
	<path class="st1" d="M56.9,22.8c0-0.1-0.1-0.3-0.1-0.4c-0.1-1.1,0.1-2.2,1-3c0.6-0.6,0.9-0.3,1.1,0.4
		C59.1,20.9,58.1,22.4,56.9,22.8z"/>
	<path class="st1" d="M54.3,15c-0.3,0.7-0.7,1.3-1.4,0.5c0.2-0.4,0.1-0.8,0-1.2c0-0.1,0-0.1,0-0.2c0-0.3-0.1-0.7,0-1
		c0.1-0.4,0.3-1,0.8-1c0.5,0,0.6,0.6,0.7,1C54.5,13.8,54.5,14.4,54.3,15z"/>
	<path class="st1" d="M56.1,38.3c-1.2,0-2.6-1.8-2.2-3c0.2-0.7,0.6-0.3,0.8,0c0.7,0.9,1.3,1.8,1.4,2.9
		C56.1,38.2,56.1,38.2,56.1,38.3z"/>
	<path class="st1" d="M7.7,38.4L7.7,38.4L7.7,38.4C7.7,38.4,7.7,38.4,7.7,38.4L7.7,38.4L7.7,38.4L7.7,38.4z"/>
	<path class="st1" d="M9.2,37.7C9.2,37.8,9.2,37.8,9.2,37.7c-0.1,0.1-0.1,0.1-0.2,0.1c-0.2,0.2-0.5,0.3-0.8,0.4
		c-0.2,0-0.4,0.1-0.6,0.1c0.4-1.3,1-2.5,2-3.5C10.2,36,9.9,37.1,9.2,37.7z"/>
	<path class="st1" d="M20.2,6.8c0,0.9-0.4,1.6-1.3,1.8c-0.5,0.1-0.3-0.7-0.4-1c0.2-0.8,0.1-1.9,1.2-2C20.3,5.5,20.2,6.3,20.2,6.8z"
		/>
	<path class="st1" d="M13.8,12.7L13.8,12.7c-0.4,0.4-0.7,0.5-1-0.1c0,0,0-0.1-0.1-0.1c-0.4-0.8-0.4-1.7,0-2.5
		c0.1-0.2,0.3-0.4,0.5-0.2c0.7,0.6,0.7,1.4,0.5,2.2C13.7,12.2,13.6,12.5,13.8,12.7z"/>
	<path class="st1" d="M57.4,33.6c0,0.3-0.2,0.3-0.4,0.4c-0.8,0.1-2.4-1.5-2.4-2.3c0-0.2,0.1-0.4,0.4-0.4
		C55.5,31.3,57.3,33.1,57.4,33.6z"/>
	<path class="st1" d="M50.7,13.2c-0.5-1-0.5-1.9-0.3-2.8c0.1-0.3,0.2-0.7,0.6-0.7c0.3,0,0.4,0.4,0.5,0.6
		C51.8,11.4,51.7,12.3,50.7,13.2z"/>
	<path class="st1" d="M9.4,31.8c0,0.7-1.5,2.1-2.3,2.1c-0.4,0-0.6-0.1-0.4-0.5c0.5-0.9,1.2-1.6,2.1-2.1C9.1,31.2,9.4,31.2,9.4,31.8z
		"/>
	<path class="st1" d="M45,8.5c-0.8-0.1-1.2-0.9-1.2-1.7c0-0.5-0.2-1.1,0.5-1.3c0.5-0.1,1,0.8,1.1,2C45.4,7.9,45.7,8.6,45,8.5z"/>
	<path class="st1" d="M9.1,28c0,0.8-1.6,2.1-2.5,1.9c-0.3,0-0.4-0.1-0.3-0.4c0.1-0.5,2-1.9,2.5-1.9C9,27.6,9.1,27.7,9.1,28z"/>
	<path class="st1" d="M47.2,10.1C47.2,10.1,47.2,10.1,47.2,10.1C47.2,10.1,47.2,10.1,47.2,10.1L47.2,10.1z"/>
	<path class="st1" d="M48.6,9.1c-0.1,0.8-0.3,1.6-1.4,1.1c0.3-0.7-0.2-1.4,0-2c0.1-0.3,0.2-0.7,0.6-0.8c0.4-0.1,0.6,0.3,0.7,0.6
		C48.6,8.3,48.7,8.7,48.6,9.1z"/>
	<path class="st1" d="M16.9,8.6c-0.2,0.7-0.1,1.7-0.8,1.8c-0.7,0-0.6-0.9-0.7-1.5c0-0.6,0-1.4,0.7-1.4C16.9,7.3,16.5,8.2,16.9,8.6z"
		/>
	<path class="st1" d="M9.4,24.5c0,0.8-1.4,1.9-2.2,1.8C6.9,26.2,6.9,26,7,25.7c0.4-0.7,1.1-1.2,1.9-1.6C9.2,24.1,9.4,24.2,9.4,24.5z
		"/>
	<path class="st1" d="M56.9,22.8c-0.9,0.3-1.7-0.2-2.5-0.6c-0.4-0.2-0.8-0.6-0.5-1c0.2-0.4,0.8-0.2,1.1,0.1c0.6,0.4,1.2,0.8,1.8,1.1
		C56.8,22.6,56.9,22.7,56.9,22.8z"/>
	<path class="st1" d="M56.6,26.3c-0.2,0-0.4,0-0.6-0.1c-0.8-0.3-1.4-0.8-1.4-1.7c0-0.3,0.3-0.3,0.5-0.2c0.8,0.3,1.5,0.9,1.9,1.7
		C57,26.2,56.9,26.3,56.6,26.3z"/>
	<path class="st1" d="M23.5,4.9c-0.1,0.9-0.5,1.5-1.4,1.7c-0.4,0.1-0.4-0.2-0.4-0.5c0-0.7,0.9-1.9,1.4-1.8
		C23.5,4.4,23.4,4.7,23.5,4.9z"/>
	<path class="st1" d="M52.8,15.5c0,0.4,0,0.8-0.5,0.7c-1-0.1-1.9-0.3-2.5-1.3C50.9,14.6,51.8,15.2,52.8,15.5z"/>
	<path class="st1" d="M52.8,15.5C52.8,15.5,52.8,15.5,52.8,15.5L52.8,15.5L52.8,15.5z"/>
	<path class="st1" d="M9,18.8L9,18.8C9,18.8,9,18.8,9,18.8L9,18.8C8.9,18.8,8.9,18.8,9,18.8C8.9,18.8,9,18.8,9,18.8
		C9,18.8,9,18.8,9,18.8z"/>
	<path class="st1" d="M11.6,18.7C10.7,19,9.9,19.8,9,18.8c0.8-0.4,1.5-1,2.4-0.9c0.2,0,0.5,0.1,0.6,0.2
		C12.1,18.4,11.8,18.6,11.6,18.7z"/>
	<path class="st1" d="M37.2,59.3c-1.5,0.6-2.8,0.4-4-0.4c0.2-0.1,0.5-0.2,0.7-0.3C34.9,59.2,36.1,58.6,37.2,59.3z"/>
	<path class="st1" d="M41.8,6.6c-0.9-0.2-1.3-0.8-1.3-1.6c0-0.3-0.1-0.6,0.4-0.6c0.8,0.3,1.1,0.9,1.2,1.7
		C42.2,6.3,42.2,6.7,41.8,6.6z"/>
	<path class="st1" d="M30.5,58.9c-1.1,1-2.5,1.1-3.7,0.3c1.1-0.4,2.2-0.2,3.3-0.4C30.2,58.8,30.4,58.8,30.5,58.9z"/>
	<path class="st1" d="M54.8,19c0,0.3-0.3,0.3-0.5,0.2c-0.8-0.2-1.8-0.1-2.4-1.2c1.1-0.3,1.8,0,2.5,0.4C54.6,18.6,54.8,18.8,54.8,19z
		"/>
	<path class="st1" d="M13.8,12.7C13.8,12.7,13.8,12.7,13.8,12.7C13.8,12.7,13.8,12.7,13.8,12.7L13.8,12.7L13.8,12.7z"/>
	<path class="st1" d="M15.5,13.1c-0.7,0.2-1.4,0.5-1.7-0.5c0.5-0.1,1-0.3,1.5-0.4c0.3-0.1,0.8-0.2,0.9,0.2
		C16.3,12.9,15.8,13,15.5,13.1z"/>
	<path class="st1" d="M50.1,13c-0.9,0.7-1.6,0.3-2.2-0.2c-0.2-0.2-0.2-0.4,0.1-0.5C48.8,12.2,49.5,12.3,50.1,13z"/>
	<path class="st1" d="M38.8,6.1c-0.5-0.1-0.8-0.4-1-0.9c-0.1-0.3,0.1-0.4,0.3-0.4c0.5,0.1,0.8,0.4,1,0.9C39.3,6,39.1,6.2,38.8,6.1z"
		/>
	<path class="st1" d="M26.1,5.2c-0.1,0.6-0.5,0.9-1,1c-0.3,0-0.4-0.1-0.3-0.4C25,5.3,25.3,5,25.8,4.9C26,4.8,26.2,5,26.1,5.2z"/>
	<path class="st1" d="M18.6,10c-0.6,0.8-0.6,0.8-1.9,0.4C17.4,10,17.9,9.8,18.6,10z"/>
	<path class="st1" d="M45.9,9.9c0.4,0,0.9,0.1,1.3,0.2c-0.3,0.6-1.2,0.8-1.6,0.3c-0.1-0.1-0.1-0.3-0.1-0.3
		C45.6,10,45.7,9.9,45.9,9.9z"/>
	<path class="st1" d="M47.2,10.1C47.2,10.1,47.2,10.1,47.2,10.1C47.2,10.1,47.2,10.1,47.2,10.1L47.2,10.1z"/>
	<path class="st1" d="M42.9,53.3c-0.1,0-0.2,0.1-0.3,0.1l0-0.3C42.8,53.1,42.9,53.2,42.9,53.3z"/>
</g>
<polygon class="st1" points="13.3,30.2 24.1,18.3 28.7,23 36.9,12.7 51.5,30.2 37.2,19.5 22.7,30.6 27.3,25.1 24.3,22.5 "/>
<g>
	<path class="st2" d="M18.5,34.2l1.8,4.9h-0.9L19,37.7h-2l-0.5,1.3h-0.9l1.8-4.9H18.5z M18,34.8c0,0.1-0.1,0.3-0.1,0.4
		s-0.1,0.2-0.1,0.4l-0.5,1.5h1.6l-0.6-1.5C18.2,35.3,18.1,35.1,18,34.8z"/>
	<path class="st2" d="M24.5,37.7c0,0.4-0.2,0.8-0.5,1s-0.8,0.4-1.4,0.4H21v-4.9h1.4c1.2,0,1.8,0.4,1.8,1.2c0,0.3-0.1,0.5-0.2,0.7
		c-0.2,0.2-0.4,0.3-0.7,0.4c0.4,0,0.7,0.2,0.9,0.4C24.4,37.1,24.5,37.4,24.5,37.7z M23.4,35.5c0-0.2-0.1-0.4-0.2-0.5
		c-0.2-0.1-0.4-0.2-0.7-0.2h-0.5v1.5h0.5c0.3,0,0.6-0.1,0.7-0.2C23.3,35.9,23.4,35.7,23.4,35.5z M23.6,37.6c0-0.3-0.1-0.5-0.3-0.6
		c-0.2-0.1-0.5-0.2-0.8-0.2h-0.6v1.7h0.6c0.4,0,0.6-0.1,0.8-0.2C23.5,38.1,23.6,37.9,23.6,37.6z"/>
	<path class="st2" d="M29.8,36.6c0,0.5-0.1,1-0.3,1.4c-0.2,0.4-0.5,0.7-0.8,0.9c-0.4,0.2-0.8,0.3-1.3,0.3c-0.8,0-1.3-0.2-1.7-0.7
		c-0.4-0.4-0.6-1.1-0.6-1.9c0-0.8,0.2-1.4,0.6-1.9c0.4-0.4,1-0.7,1.7-0.7s1.3,0.2,1.7,0.7C29.6,35.2,29.8,35.8,29.8,36.6z M29,36.6
		c0-0.6-0.1-1-0.4-1.4c-0.3-0.3-0.6-0.5-1.1-0.5c-0.5,0-0.9,0.2-1.1,0.5S26,36,26,36.6s0.1,1.1,0.4,1.4s0.6,0.5,1.1,0.5
		c0.5,0,0.9-0.2,1.1-0.5C28.8,37.7,29,37.2,29,36.6z"/>
	<path class="st2" d="M32.6,39.2c-0.6,0-1.1-0.2-1.5-0.5s-0.5-0.8-0.5-1.4v-3.1h0.9v3c0,0.4,0.1,0.7,0.3,0.9
		c0.2,0.2,0.5,0.3,0.8,0.3c0.4,0,0.7-0.1,0.9-0.3c0.2-0.2,0.3-0.6,0.3-1v-3h0.8v3.1c0,0.6-0.2,1.1-0.5,1.4
		C33.8,39,33.3,39.2,32.6,39.2z"/>
	<path class="st2" d="M39.1,34.2v0.7h-1.5v4.2h-0.8v-4.2h-1.5v-0.7H39.1z"/>
	<path class="st2" d="M41.7,39.2c-0.8,0-1.5-0.2-1.9-0.7c-0.5-0.5-0.7-1.1-0.7-1.9c0-0.8,0.2-1.4,0.7-1.9s1.1-0.7,1.9-0.7
		c0.6,0,1,0.1,1.4,0.3c0.4,0.2,0.7,0.5,0.8,1L43,35.6c-0.1-0.3-0.3-0.5-0.5-0.6c-0.2-0.1-0.5-0.2-0.8-0.2c-0.5,0-0.9,0.2-1.1,0.5
		c-0.3,0.3-0.4,0.8-0.4,1.4c0,0.6,0.1,1,0.4,1.4c0.3,0.3,0.7,0.5,1.1,0.5c0.3,0,0.6-0.1,0.8-0.2c0.2-0.2,0.4-0.4,0.5-0.7l0.9,0.3
		C43.6,38.7,42.8,39.2,41.7,39.2z"/>
	<path class="st2" d="M46.6,39.2c-0.8,0-1.5-0.2-2-0.7S44,37.4,44,36.6c0-0.8,0.2-1.4,0.7-1.9c0.5-0.4,1.1-0.6,1.9-0.6
		c0.6,0,1.1,0.1,1.4,0.3s0.6,0.5,0.8,0.9l-0.9,0.2c-0.2-0.5-0.7-0.7-1.3-0.7c-0.5,0-0.9,0.2-1.2,0.5S45,36,45,36.6s0.1,1.1,0.4,1.4
		c0.3,0.3,0.7,0.5,1.2,0.5c0.5,0,1-0.1,1.3-0.4v-0.9h-1.4v-0.6h2.3v1.8c-0.3,0.2-0.6,0.4-1,0.6C47.5,39.1,47.1,39.2,46.6,39.2z"/>
</g>
<g>
	<path class="st2" d="M19,42.6c0,0.2-0.1,0.4-0.2,0.6s-0.3,0.3-0.5,0.4c-0.2,0.1-0.5,0.1-0.8,0.1h-0.8v1.4h-0.4v-3.6h1.2
		c0.5,0,0.9,0.1,1.2,0.3C18.9,42,19,42.3,19,42.6z M18.6,42.6c0-0.2-0.1-0.4-0.3-0.6c-0.2-0.1-0.5-0.2-0.9-0.2h-0.7v1.6h0.7
		c0.4,0,0.7-0.1,0.9-0.2C18.5,43.1,18.6,42.9,18.6,42.6z"/>
	<path class="st2" d="M21.3,45.2c-0.5,0-0.8-0.1-1.1-0.3c-0.3-0.2-0.4-0.5-0.4-1v-2.3h0.4v2.3c0,0.3,0.1,0.6,0.3,0.8
		c0.2,0.2,0.5,0.3,0.8,0.3c0.4,0,0.7-0.1,0.9-0.3c0.2-0.2,0.3-0.5,0.3-0.8v-2.3h0.4v2.3c0,0.4-0.1,0.8-0.4,1
		C22.2,45.1,21.8,45.2,21.3,45.2z"/>
	<path class="st2" d="M26.4,44.2c0,0.3-0.1,0.6-0.4,0.7c-0.3,0.2-0.6,0.3-1.1,0.3h-1.2v-3.6h1c1,0,1.5,0.3,1.5,0.9
		c0,0.2-0.1,0.4-0.2,0.5c-0.1,0.1-0.3,0.2-0.6,0.3c0.3,0,0.6,0.1,0.8,0.3C26.3,43.7,26.4,43.9,26.4,44.2z M25.7,42.5
		c0-0.2-0.1-0.4-0.3-0.5c-0.2-0.1-0.4-0.2-0.8-0.2h-0.6v1.3h0.6c0.3,0,0.6-0.1,0.8-0.2C25.6,42.9,25.7,42.7,25.7,42.5z M26,44.1
		c0-0.2-0.1-0.4-0.3-0.5s-0.5-0.2-0.9-0.2h-0.7v1.5h0.7c0.4,0,0.7-0.1,0.9-0.2S26,44.4,26,44.1z"/>
	<path class="st2" d="M27.5,45.2v-3.6h0.4v3.3h1.8v0.3H27.5z"/>
	<path class="st2" d="M30.5,45.2v-3.6h0.4v3.6H30.5z"/>
	<path class="st2" d="M34.7,44.2c0,0.3-0.1,0.6-0.3,0.8s-0.6,0.3-1,0.3c-0.8,0-1.2-0.3-1.4-0.9l0.4-0.1c0.1,0.2,0.2,0.4,0.3,0.5
		c0.2,0.1,0.4,0.2,0.6,0.2c0.3,0,0.5-0.1,0.7-0.2c0.2-0.1,0.2-0.3,0.2-0.5c0-0.1,0-0.2-0.1-0.3c-0.1-0.1-0.1-0.2-0.2-0.2
		c-0.1-0.1-0.2-0.1-0.3-0.1c-0.1,0-0.3-0.1-0.4-0.1c-0.3-0.1-0.5-0.2-0.7-0.2c-0.1-0.1-0.2-0.2-0.3-0.3c-0.1-0.1-0.1-0.3-0.1-0.4
		c0-0.3,0.1-0.5,0.3-0.7c0.2-0.2,0.5-0.2,0.9-0.2c0.4,0,0.6,0.1,0.8,0.2c0.2,0.1,0.4,0.3,0.4,0.6l-0.4,0.1c-0.1-0.2-0.2-0.3-0.3-0.4
		c-0.1-0.1-0.3-0.1-0.6-0.1c-0.3,0-0.5,0.1-0.6,0.2c-0.1,0.1-0.2,0.3-0.2,0.5c0,0.1,0,0.2,0.1,0.3s0.1,0.2,0.2,0.2s0.3,0.1,0.6,0.2
		c0.3,0.1,0.6,0.2,0.7,0.2c0.1,0.1,0.2,0.1,0.3,0.2c0.1,0.1,0.1,0.2,0.2,0.3S34.7,44.1,34.7,44.2z"/>
	<path class="st2" d="M38,45.2v-1.7H36v1.7h-0.4v-3.6H36v1.6H38v-1.6h0.3v3.6H38z"/>
	<path class="st2" d="M39.7,45.2v-3.6h0.4v3.6H39.7z"/>
	<path class="st2" d="M43.5,45.2l-2-3.2c0,0.3,0,0.5,0,0.7v2.5h-0.3v-3.6h0.4l2,3.2c0-0.2,0-0.5,0-0.7v-2.5h0.3v3.6H43.5z"/>
	<path class="st2" d="M46.7,45.2c-0.6,0-1.1-0.2-1.4-0.5c-0.3-0.3-0.5-0.8-0.5-1.4c0-0.6,0.2-1,0.5-1.4c0.3-0.3,0.8-0.5,1.4-0.5
		c0.8,0,1.3,0.3,1.6,0.8l-0.4,0.1c-0.2-0.4-0.6-0.6-1.2-0.6c-0.5,0-0.8,0.1-1.1,0.4s-0.4,0.6-0.4,1.1c0,0.5,0.1,0.9,0.4,1.2
		c0.3,0.3,0.6,0.4,1.1,0.4c0.5,0,0.9-0.1,1.2-0.4v-0.8h-1.1v-0.3h1.5v1.2C47.8,45,47.3,45.2,46.7,45.2z"/>
</g>
</svg>
