<?xml version="1.0" encoding="utf-8"?>
<!-- Generator: Adobe Illustrator 22.1.0, SVG Export Plug-In . SVG Version: 6.00 Build 0)  -->
<svg version="1.1" id="图层_1" xmlns="http://www.w3.org/2000/svg" xmlns:xlink="http://www.w3.org/1999/xlink" x="0px" y="0px"
	 viewBox="0 0 64 64" style="enable-background:new 0 0 64 64;" xml:space="preserve">
<style type="text/css">
	.st0{fill:#CE4995;}
	.st1{fill:#2C051F;}
	.st2{fill:#F7D6E6;}
</style>
<path class="st0" d="M52.6,63.1H11.4c-6.3,0-11.3-5.1-11.3-11.3V12.2c0-6.3,5.1-11.3,11.3-11.3h41.2c6.3,0,11.3,5.1,11.3,11.3v39.6
	C63.9,58.1,58.9,63.1,52.6,63.1z"/>
<path class="st1" d="M51.6,60.5H12.4c-5.3,0-9.7-4.3-9.7-9.7V13.2c0-5.3,4.3-9.7,9.7-9.7h39.2c5.3,0,9.7,4.3,9.7,9.7v37.6
	C61.3,56.1,56.9,60.5,51.6,60.5z"/>
<path class="st2" d="M25.3,30l7.4,14.3c0.1,0.2,0.1,0.4-0.2,0.4H28c-0.3,0-0.4-0.1-0.6-0.3c-1.7-3.5-3.4-7-5.2-10.8h-0.1
	c-1.6,3.6-3.4,7.3-5.1,10.8c-0.1,0.2-0.3,0.3-0.5,0.3h-4.4c-0.3,0-0.3-0.2-0.2-0.4l7.3-13.9l-7-14c-0.2-0.2,0-0.4,0.2-0.4H17
	c0.3,0,0.4,0.1,0.5,0.3c1.7,3.5,3.4,7.1,5,10.7h0.1c1.5-3.5,3.2-7.2,4.9-10.6c0.1-0.2,0.2-0.3,0.5-0.3h4.3c0.2,0,0.3,0.2,0.2,0.4
	L25.3,30z M34.1,34.3c0-6.2,4.1-11,10.7-11c0.6,0,0.9,0,1.4,0.1v-7c0-0.2,0.1-0.3,0.3-0.3h4.2c0.2,0,0.3,0.1,0.3,0.2v24.4
	c0,0.7,0,1.6,0.1,2.6c0,0.2-0.1,0.2-0.2,0.3c-2.2,1.1-4.6,1.5-6.8,1.5C38.2,45.1,34.1,41.6,34.1,34.3z M46.1,27.5
	c-0.4-0.2-0.9-0.3-1.5-0.3c-3.4,0-5.7,2.6-5.7,6.9c0,4.9,2.4,6.9,5.4,6.9c0.6,0,1.3-0.1,1.8-0.3V27.5z"/>
</svg>
