<?xml version="1.0" encoding="utf-8"?>
<!-- Generator: Adobe Illustrator 22.1.0, SVG Export Plug-In . SVG Version: 6.00 Build 0)  -->
<svg version="1.1" id="图层_1" xmlns="http://www.w3.org/2000/svg" xmlns:xlink="http://www.w3.org/1999/xlink" x="0px" y="0px"
	 viewBox="0 0 64 64" style="enable-background:new 0 0 64 64;" xml:space="preserve">
<style type="text/css">
	.st0{fill:#FE68F3;}
	.st1{fill:#400033;}
	.st2{fill:#FD66F5;}
	.st3{fill:#FDB9FB;}
</style>
<rect class="st0" width="64" height="64"/>
<path class="st1" d="M53.4,61.4H10.6c-4.4,0-8-3.6-8-8V10.6c0-4.4,3.6-8,8-8h42.8c4.4,0,8,3.6,8,8v42.8
	C61.4,57.8,57.8,61.4,53.4,61.4z"/>
<path class="st2" d="M29.8,16.9c-8,0-14.6,6.5-14.6,14.6s6.5,14.6,14.6,14.6c8.1,0,14.6-6.5,14.6-14.6S37.9,16.9,29.8,16.9z
	 M29.8,42.8c-6.2,0-11.3-5.1-11.3-11.3s5-11.3,11.3-11.3c6.2,0,11.3,5.1,11.3,11.3S36.1,42.8,29.8,42.8z"/>
<path class="st3" d="M48.4,46.9c0,2-1.6,3.7-3.7,3.7c-2,0-3.7-1.6-3.7-3.7c0-0.7,0.2-1.3,0.5-1.8l-10-10.4c-0.5,0.3-1.1,0.4-1.7,0.4
	c-2,0-3.7-1.6-3.7-3.7s1.6-3.7,3.7-3.7c0.6,0,1.3,0.2,1.8,0.5l10-10c-0.3-0.5-0.5-1.1-0.5-1.8c0-2,1.6-3.7,3.7-3.7
	c2,0,3.7,1.6,3.7,3.7c0,2-1.6,3.7-3.7,3.7c-0.7,0-1.3-0.2-1.8-0.5l-9.9,10c0.3,0.5,0.5,1.1,0.5,1.8c0,0.7-0.2,1.3-0.5,1.8l10,10.4
	c0.5-0.3,1.1-0.4,1.7-0.4C46.8,43.3,48.4,44.9,48.4,46.9z"/>
</svg>
