<?xml version="1.0" encoding="utf-8"?>
<!-- Generator: Adobe Illustrator 22.1.0, SVG Export Plug-In . SVG Version: 6.00 Build 0)  -->
<svg version="1.1" id="图层_1" xmlns="http://www.w3.org/2000/svg" xmlns:xlink="http://www.w3.org/1999/xlink" x="0px" y="0px"
	 viewBox="0 0 64 64" style="enable-background:new 0 0 64 64;" xml:space="preserve">
<style type="text/css">
	.st0{fill:#2A213F;}
	.st1{fill:#BD9FCA;}
</style>
<path class="st0" d="M2.7,4h58.7v57.1H2.7V4z"/>
<g>
	<path class="st1" d="M2.7,4h58.7v57.1H2.7V4z M0,63.8h64V1.4H0V63.8z M45.3,31.4c1.4,0,1.8,0,2-0.1c0-0.2,0.1-0.3,0.1-0.5
		c0-1.4-0.7-4.1-3.5-4.1c-2.6,0-3.7,2.2-3.9,4.6H45.3z M39.9,35.1c0.1,3.6,1.8,6,5.8,6c1.6,0,2.9-0.2,4.3-0.8
		c0.2-0.1,0.3-0.1,0.3,0.2v3.3c0,0.3-0.1,0.4-0.3,0.5c-1.4,0.7-3.2,1-5.4,1c-7,0-9.7-5.2-9.7-11c0-6.3,3.3-11.4,9-11.4
		c5.8,0,7.8,4.9,7.8,8.9c0,1.3-0.1,2.3-0.2,2.8c-0.1,0.2-0.1,0.3-0.3,0.3c-0.5,0.1-2.1,0.2-4.5,0.2L39.9,35.1L39.9,35.1L39.9,35.1z
		 M25.6,32.4c-0.7-3-2.6-9.4-3.2-12.5h-0.1c-0.6,3.1-2,8.4-3.1,12.5H25.6L25.6,32.4z M18.1,36.7l-2.1,8c-0.1,0.2-0.1,0.3-0.4,0.3
		h-3.9c-0.3,0-0.3-0.1-0.3-0.4L19,18.1c0.1-0.5,0.2-0.9,0.3-2.2c0-0.2,0.1-0.3,0.2-0.3H25c0.2,0,0.3,0.1,0.3,0.3l8.5,28.7
		c0.1,0.2,0,0.3-0.2,0.3h-4.4c-0.2,0-0.3-0.1-0.4-0.3l-2.2-8L18.1,36.7L18.1,36.7z"/>
</g>
</svg>
