<?xml version="1.0" encoding="utf-8"?>
<!-- Generator: Adobe Illustrator 22.1.0, SVG Export Plug-In . SVG Version: 6.00 Build 0)  -->
<svg version="1.1" id="图层_1" xmlns="http://www.w3.org/2000/svg" xmlns:xlink="http://www.w3.org/1999/xlink" x="0px" y="0px"
	 viewBox="0 0 64 64" style="enable-background:new 0 0 64 64;" xml:space="preserve">
<style type="text/css">
	.st0{fill:#E94D25;}
	.st1{fill:#250805;}
</style>
<rect y="0.8" class="st0" width="64" height="62.4"/>
<rect x="2.7" y="3.5" class="st1" width="58.7" height="57.1"/>
<path class="st0" d="M17.9,36.1l-2.1,8c-0.1,0.2-0.1,0.2-0.4,0.2h-3.9c-0.3,0-0.3-0.1-0.3-0.4l7.6-26.6c0.1-0.5,0.2-0.8,0.3-2.1
	c0-0.2,0.1-0.3,0.2-0.3h5.6c0.2,0,0.3,0.1,0.3,0.3L33.7,44c0.1,0.2,0,0.3-0.2,0.3H29c-0.2,0-0.3,0-0.4-0.2l-2.2-8H17.9z M25.3,31.7
	c-0.7-3-2.5-9.4-3.2-12.5h-0.1c-0.6,3.1-2,8.4-3.1,12.5H25.3z M36.2,27c0-0.3,0-1.2-0.1-2.7c0-0.2,0.1-0.2,0.2-0.3
	c2.2-0.8,5.2-1.8,8.2-1.8c3.8,0,7.9,1.5,7.9,7.9V44c0,0.3-0.1,0.3-0.3,0.3h-4c-0.3,0-0.3-0.1-0.3-0.3V30.5c0-2.6-0.9-4-3.5-4
	c-1.1,0-2.2,0.2-3,0.5v17c0,0.2-0.1,0.3-0.3,0.3h-4.3c-0.2,0-0.3-0.1-0.3-0.3L36.2,27L36.2,27z"/>
</svg>
