<?xml version="1.0" encoding="utf-8"?>
<!-- Generator: Adobe Illustrator 22.1.0, SVG Export Plug-In . SVG Version: 6.00 Build 0)  -->
<svg version="1.1" id="图层_1" xmlns="http://www.w3.org/2000/svg" xmlns:xlink="http://www.w3.org/1999/xlink" x="0px" y="0px"
	 viewBox="0 0 64 64" style="enable-background:new 0 0 64 64;" xml:space="preserve">
<style type="text/css">
	.st0{fill:#FDFDFE;}
</style>
<g>
	<path class="st0" d="M45.9,45.5c0,0.1,0.1,0.2,0.1,0.3c-0.7-0.4-1.4-0.8-2.1-1.3c-7.5-4.5-16.8-4.1-23.9,1
		c-0.1,0.1-0.2,0.2-0.3,0.2c-0.1,0-0.1,0.1-0.2,0c-0.1-0.1,0-0.1,0-0.2c1.2-3,2.5-6,3.7-8.9c0.1-0.4,0.3-0.6,0.7-0.7
		c5.9-1.8,11.8-1.8,17.7,0c0.2,0.1,0.4,0.2,0.5,0.4C43.4,39.4,44.7,42.4,45.9,45.5z"/>
	<path class="st0" d="M56.6,47.6C50.7,33.3,44.8,19.1,38.8,4.9c-0.3-0.7-0.7-1.3-1.1-2c-2.2-3-6.2-3.5-9-1.1c-1,0.9-1.7,1.9-2.1,3.1
		c-3.6,8.7-7.2,17.3-10.8,26c-2.3,5.6-4.7,11.2-7,16.8c-0.6,1.5-0.5,3,0.5,4.3c1,1.5,2.2,2.8,3.5,4c5.6,5.1,12.3,7.7,19.9,7.7
		c1.3,0,2.5-0.1,3.8-0.2c8.1-1.1,14.6-4.8,19.5-11.4C57.1,50.7,57.3,49.2,56.6,47.6z M49.1,49.4c-4.7,5-10.4,7.6-17.3,7.3
		c-6.1-0.2-11.1-2.7-15.3-7.1c-0.4-0.4-0.4-0.7-0.2-1.2c5.4-13,10.8-26,16.2-39c0.1-0.1,0.1-0.3,0.3-0.4c0.1,0.2,0.2,0.4,0.3,0.6
		c5.4,13,10.8,26,16.2,39C49.4,48.9,49.4,49.2,49.1,49.4z"/>
	<path class="st0" d="M45.9,45.5c0,0.1,0.1,0.2,0.1,0.3c-0.7-0.4-1.4-0.8-2.1-1.3c-7.5-4.5-16.8-4.1-23.9,1
		c-0.1,0.1-0.2,0.2-0.3,0.2c-0.1,0-0.1,0.1-0.2,0c-0.1-0.1,0-0.1,0-0.2c1.2-3,2.5-6,3.7-8.9c0.1-0.4,0.3-0.6,0.7-0.7
		c5.9-1.8,11.8-1.8,17.7,0c0.2,0.1,0.4,0.2,0.5,0.4C43.4,39.4,44.7,42.4,45.9,45.5z"/>
	<path class="st0" d="M56.6,47.6C50.7,33.3,44.8,19.1,38.8,4.9c-0.3-0.7-0.7-1.3-1.1-2c-2.2-3-6.2-3.5-9-1.1c-1,0.9-1.7,1.9-2.1,3.1
		c-3.6,8.7-7.2,17.3-10.8,26c-2.3,5.6-4.7,11.2-7,16.8c-0.6,1.5-0.5,3,0.5,4.3c1,1.5,2.2,2.8,3.5,4c5.6,5.1,12.3,7.7,19.9,7.7
		c1.3,0,2.5-0.1,3.8-0.2c8.1-1.1,14.6-4.8,19.5-11.4C57.1,50.7,57.3,49.2,56.6,47.6z M49.1,49.4c-4.7,5-10.4,7.6-17.3,7.3
		c-6.1-0.2-11.1-2.7-15.3-7.1c-0.4-0.4-0.4-0.7-0.2-1.2c5.4-13,10.8-26,16.2-39c0.1-0.1,0.1-0.3,0.3-0.4c0.1,0.2,0.2,0.4,0.3,0.6
		c5.4,13,10.8,26,16.2,39C49.4,48.9,49.4,49.2,49.1,49.4z"/>
	<path class="st0" d="M46,45.8c-0.7-0.4-1.4-0.8-2.1-1.3c-7.5-4.5-16.8-4.1-23.9,1c-0.1,0.1-0.2,0.2-0.3,0.2c-0.1,0-0.1,0.1-0.2,0
		c-0.1-0.1,0-0.1,0-0.2c1.2-3,2.5-6,3.7-8.9c0.1-0.4,0.3-0.6,0.7-0.7c5.9-1.8,11.8-1.8,17.7,0c0.2,0.1,0.4,0.2,0.5,0.4
		c1.3,3,2.5,6.1,3.8,9.1C46,45.6,46,45.7,46,45.8z"/>
	<path class="st0" d="M46,45.8c-0.7-0.4-1.4-0.8-2.1-1.3c-7.5-4.5-16.8-4.1-23.9,1c-0.1,0.1-0.2,0.2-0.3,0.2c-0.1,0-0.1,0.1-0.2,0
		c-0.1-0.1,0-0.1,0-0.2c1.2-3,2.5-6,3.7-8.9c0.1-0.4,0.3-0.6,0.7-0.7c5.9-1.8,11.8-1.8,17.7,0c0.2,0.1,0.4,0.2,0.5,0.4
		c1.3,3,2.5,6.1,3.8,9.1C46,45.6,46,45.7,46,45.8z"/>
</g>
</svg>
