<?xml version="1.0" encoding="utf-8"?>
<!-- Generator: Adobe Illustrator 22.1.0, SVG Export Plug-In . SVG Version: 6.00 Build 0)  -->
<svg version="1.1" id="图层_1" xmlns="http://www.w3.org/2000/svg" xmlns:xlink="http://www.w3.org/1999/xlink" x="0px" y="0px"
	 viewBox="0 0 64 64" style="enable-background:new 0 0 64 64;" xml:space="preserve">
<style type="text/css">
	.st0{fill:url(#SVGID_1_);}
	.st1{fill:url(#SVGID_2_);}
	.st2{fill:#D3312E;}
	.st3{fill:url(#SVGID_3_);}
	.st4{fill:#941E23;}
	.st5{fill:url(#SVGID_4_);}
</style>
<g id="Layer_2">
	<g>
		
			<linearGradient id="SVGID_1_" gradientUnits="userSpaceOnUse" x1="3.3552" y1="34.6392" x2="28.4214" y2="34.6392" gradientTransform="matrix(1 0 0 -1 0 66)">
			<stop  offset="0" style="stop-color:#D77B73"/>
			<stop  offset="1" style="stop-color:#922324"/>
		</linearGradient>
		<path class="st0" d="M28.4,0.1C25.8,5,21,14.7,18.2,20.6C15.5,26.2,4.8,58.3,3.5,62.3l-0.1,0.3C3.7,61,9.6,37.3,14,25.7
			c4.6-12,11.2-24.9,11.2-24.9s0.2-0.4,2-0.6C27.6,0.2,28,0.1,28.4,0.1z"/>
		
			<linearGradient id="SVGID_2_" gradientUnits="userSpaceOnUse" x1="3.2803" y1="34.3769" x2="60.7197" y2="34.3769" gradientTransform="matrix(1 0 0 -1 0 66)">
			<stop  offset="0" style="stop-color:#752528"/>
			<stop  offset="1" style="stop-color:#C12624"/>
		</linearGradient>
		<path class="st1" d="M52.2,31.4C52.2,31.4,52.2,31.3,52.2,31.4c-0.3-0.7-0.4-1.4-0.7-1.9c-0.3-0.9-0.6-1.8-1-2.7l0,0
			C46.1,16.2,35.7,0.9,35.7,0.9S35,0.4,33.7,0.2l0,0c-0.6-0.1-1.2-0.2-2-0.2c-5.5,0-4.4,0.3-4.4,0.3c0.3,0,0.7-0.1,1.2-0.1
			c-2.6,4.9-7.5,14.6-10.3,20.5C15.5,26.2,4.8,58.3,3.4,62.3l-0.1,0.3l0,0.1l3.6,0.5c0,0,3.3-9.1,5.1-13.7c1.8-4.6,3-4.9,3-4.9
			s9.9-3.1,15.9-4.9c6-1.8,15.4-4,15.4-4s6,17.5,8.5,23.2c1.4,3.1,2.5,3.9,3.2,4c0.6,0.1,0.9-0.3,0.9-0.3l1.9-1
			C60.8,61.4,55.7,42.2,52.2,31.4z M24.9,34.5l-8.1,4.3c0.1-0.4,4.8-12,7.4-16.5C26.9,17.7,32.1,9,32.1,9l8.9,17l-4.7,2.5L24.9,34.5
			z"/>
		<path class="st2" d="M50.5,26.7C46.1,16.2,35.7,0.9,35.7,0.9S35,0.4,33.7,0.2l0,0l5.5,0.7c0,0,2.4,3.5,5.2,10.2
			C46.2,15.1,48.8,22,50.5,26.7z"/>
		
			<linearGradient id="SVGID_3_" gradientUnits="userSpaceOnUse" x1="32.4679" y1="1.967" x2="32.4679" y2="30.4097" gradientTransform="matrix(1 0 0 -1 0 66)">
			<stop  offset="0" style="stop-color:#D77B73"/>
			<stop  offset="1" style="stop-color:#922324"/>
		</linearGradient>
		<path class="st3" d="M58,62.8c-0.6,0.1-1.9,0.5-3.7,0.7C52,63.8,49,63.2,49,63.2l-5.8-18.1l-22.3,4l-5.7,14.3c0,0-1,0.6-3.9,0.6
			c-2.9,0.1-4.3-0.8-4.3-0.8s3.3-9.1,5.1-13.7c1.8-4.6,3-4.9,3-4.9s9.9-3.1,15.9-4.9c6-1.8,15.4-4,15.4-4s6,17.5,8.5,23.2
			C56.2,61.9,57.3,62.7,58,62.8z"/>
		<polygon class="st4" points="19.5,52.5 19.6,60.5 15.2,63.4 		"/>
		<polygon class="st4" points="46.3,54 49.1,63.2 46.5,61.4 		"/>
		
			<linearGradient id="SVGID_4_" gradientUnits="userSpaceOnUse" x1="28.871" y1="27.1455" x2="28.871" y2="57.0451" gradientTransform="matrix(1 0 0 -1 0 66)">
			<stop  offset="0" style="stop-color:#D77B73"/>
			<stop  offset="1" style="stop-color:#922324"/>
		</linearGradient>
		<path class="st5" d="M41,25.9l-4.7,2.5l0,0c0,0-0.5-1.5-1.5-5.4c-1-3.9-2.5-6.9-2.5-6.9s-2.7,5.5-4.6,9.7
			c-1.9,4.3-2.8,8.7-2.8,8.7l-8.1,4.3c0.1-0.4,4.8-12,7.4-16.5C26.8,17.7,32.1,9,32.1,9L41,25.9z"/>
	</g>
</g>
</svg>
