<?xml version="1.0" encoding="utf-8"?>
<!-- Generator: Adobe Illustrator 22.1.0, SVG Export Plug-In . SVG Version: 6.00 Build 0)  -->
<svg version="1.1" id="图层_1" xmlns="http://www.w3.org/2000/svg" xmlns:xlink="http://www.w3.org/1999/xlink" x="0px" y="0px"
	 viewBox="0 0 64 64" style="enable-background:new 0 0 64 64;" xml:space="preserve">
<style type="text/css">
	.st0{fill:#0092E5;}
	.st1{fill:#FFFFFF;}
</style>
<rect class="st0" width="64" height="64"/>
<g>
	<path class="st1" d="M12.5,23l7.7,18.5h-1.8l-2.6-6.1H8.7l-2.6,6.1H4.3L12.1,23H12.5z M12.3,26.9l-2.8,6.7h5.7L12.3,26.9z"/>
	<path class="st1" d="M17.7,23h1.7l3.4,13.3L27.6,23h0.3l4.7,13.3L36.1,23h1.7L33,41.5h-0.3l-4.9-14l-5,14h-0.3L17.7,23z"/>
	<path class="st1" d="M39,41.5V23h0.4l11,14.2V23H52v18.5h-0.4l-10.9-14v14H39z"/>
</g>
<g>
	<path class="st1" d="M58.7,39.9c0-0.1,0.1-0.3,0.2-0.4s0.2-0.2,0.4-0.2c0.2,0,0.3,0.1,0.4,0.2c0.1,0.1,0.2,0.2,0.2,0.4
		s-0.1,0.3-0.2,0.4c-0.1,0.1-0.2,0.2-0.4,0.2c-0.2,0-0.3-0.1-0.4-0.2S58.7,40.1,58.7,39.9z"/>
	<path class="st1" d="M55.9,34.7l0.3,0.5c-0.6,0.4-0.9,1-0.9,1.7c0,0.6,0.2,1,0.6,1.4c0.4,0.4,0.9,0.6,1.4,0.6c0.4,0,0.7-0.1,1-0.3
		c0.3-0.2,0.6-0.4,0.7-0.7c0.2-0.3,0.3-0.6,0.3-1c0-0.7-0.3-1.2-0.9-1.7l0.3-0.5c0.4,0.2,0.6,0.5,0.8,0.9c0.2,0.4,0.3,0.8,0.3,1.3
		c0,0.7-0.2,1.3-0.7,1.8c-0.5,0.5-1.1,0.7-1.8,0.7c-0.5,0-0.9-0.1-1.3-0.3s-0.7-0.5-1-0.9c-0.2-0.4-0.3-0.8-0.3-1.3
		c0-0.3,0-0.6,0.1-0.9c0.1-0.3,0.2-0.5,0.4-0.7C55.5,35,55.7,34.8,55.9,34.7z"/>
	<path class="st1" d="M54.8,32.4c0-0.7,0.3-1.3,0.8-1.8c0.5-0.4,1.1-0.6,1.8-0.6c0.7,0,1.3,0.2,1.8,0.7c0.5,0.5,0.8,1,0.8,1.7
		c0,0.7-0.3,1.3-0.8,1.7c-0.5,0.5-1.1,0.7-1.8,0.7c-0.7,0-1.3-0.2-1.8-0.6C55.1,33.7,54.8,33.1,54.8,32.4z M55.4,32.4
		c0,0.5,0.2,0.9,0.6,1.3c0.4,0.4,0.9,0.5,1.4,0.5c0.4,0,0.7-0.1,1-0.2c0.3-0.2,0.5-0.4,0.7-0.7c0.2-0.3,0.2-0.6,0.2-0.9
		c0-0.3-0.1-0.6-0.2-0.9s-0.4-0.5-0.7-0.7c-0.3-0.2-0.6-0.2-1-0.2c-0.5,0-1,0.2-1.4,0.5C55.6,31.5,55.4,31.9,55.4,32.4z"/>
	<path class="st1" d="M54.9,29.7v-0.6h0.8c-0.3-0.2-0.5-0.4-0.7-0.6c-0.2-0.3-0.3-0.6-0.3-0.9c0-0.2,0-0.4,0.1-0.6
		c0.1-0.2,0.2-0.4,0.4-0.5s0.4-0.2,0.7-0.3c-0.4-0.2-0.7-0.4-0.9-0.7c-0.2-0.3-0.3-0.6-0.3-0.9c0-0.3,0.1-0.6,0.3-0.8
		c0.2-0.2,0.4-0.4,0.7-0.5c0.3-0.1,0.8-0.2,1.4-0.2h2.6v0.6h-2.6c-0.5,0-0.9,0-1.1,0.1c-0.2,0.1-0.4,0.2-0.5,0.4
		c-0.1,0.2-0.2,0.4-0.2,0.6c0,0.3,0.1,0.5,0.3,0.8c0.2,0.2,0.4,0.4,0.7,0.5c0.3,0.1,0.8,0.2,1.5,0.2h1.9v0.6h-2.5
		c-0.6,0-1,0-1.2,0.1c-0.2,0.1-0.4,0.2-0.5,0.4c-0.1,0.2-0.2,0.4-0.2,0.6c0,0.3,0.1,0.5,0.3,0.7s0.4,0.4,0.7,0.5
		c0.3,0.1,0.7,0.2,1.4,0.2h2.1v0.6H54.9z"/>
</g>
</svg>
