<?xml version="1.0" encoding="utf-8"?>
<!-- Generator: Adobe Illustrator 22.1.0, SVG Export Plug-In . SVG Version: 6.00 Build 0)  -->
<svg version="1.1" id="图层_1" xmlns="http://www.w3.org/2000/svg" xmlns:xlink="http://www.w3.org/1999/xlink" x="0px" y="0px"
	 viewBox="0 0 64 64" style="enable-background:new 0 0 64 64;" xml:space="preserve">
<style type="text/css">
	.st0{fill:#0B63FF;}
	.st1{fill:#FFFFFF;}
</style>
<path class="st0" d="M0,0h64v64H0V0z"/>
<path class="st1" d="M49.5,20.2H39.1v2.5h10.4V20.2z M44.4,28.9c-1.2,0-2.2,0.4-3,1.1c-0.8,0.7-1.2,1.7-1.3,2.9h8.3
	C48.2,30.2,46.8,28.9,44.4,28.9z M44.7,40.7c0.9,0,1.7-0.2,2.5-0.6c0.8-0.4,1.3-1,1.5-1.8h4.5c-1.4,4.2-4.2,6.2-8.7,6.2
	c-2.9,0-5.2-0.9-6.9-2.7c-1.7-1.8-2.6-4.1-2.6-7c0-2.8,0.9-5.1,2.6-7c1.8-1.9,4-2.8,6.8-2.8c1.9,0,3.5,0.5,4.9,1.4
	c1.4,0.9,2.4,2.1,3.1,3.6c0.7,1.5,1,3.2,1,5c0,0.2,0,0.5,0,1H40.1c0,1.5,0.4,2.7,1.2,3.5C42.1,40.3,43.2,40.7,44.7,40.7z M17.6,39.7
	h6c2.8,0,4.2-1.1,4.2-3.4c0-2.4-1.3-3.7-4-3.7h-6.1V39.7z M17.6,28.8h5.7c1.1,0,1.9-0.2,2.5-0.7c0.6-0.5,0.9-1.3,0.9-2.3
	c0-1.9-1.3-2.9-3.9-2.9h-5.3C17.6,22.9,17.6,28.8,17.6,28.8z M12,18.5H24c1.2,0,2.2,0.1,3.1,0.3c0.9,0.2,1.8,0.5,2.6,1
	c0.8,0.5,1.4,1.1,1.8,2c0.4,0.9,0.6,1.9,0.6,3.1c0,2.4-1.2,4.2-3.5,5.3c1.5,0.4,2.7,1.2,3.5,2.3c0.8,1.1,1.2,2.5,1.2,4.1
	c0,1-0.2,1.9-0.5,2.8c-0.3,0.8-0.8,1.5-1.3,2.1c-0.6,0.6-1.2,1-2,1.4s-1.6,0.7-2.5,0.9c-0.9,0.2-1.8,0.3-2.7,0.3H12V18.5z"/>
</svg>
