<?xml version="1.0" encoding="utf-8"?>
<!-- Generator: Adobe Illustrator 22.1.0, SVG Export Plug-In . SVG Version: 6.00 Build 0)  -->
<svg version="1.1" id="图层_1" xmlns="http://www.w3.org/2000/svg" xmlns:xlink="http://www.w3.org/1999/xlink" x="0px" y="0px"
	 viewBox="0 0 64 64" style="enable-background:new 0 0 64 64;" xml:space="preserve">
<style type="text/css">
	.st0{fill:#20B0E3;}
	.st1{fill:#FFFFFF;}
</style>
<circle class="st0" cx="32" cy="32" r="31"/>
<path class="st1" d="M21.2,15.5c0.7-0.3,1.5-0.3,2.2,0c0.5,0.3,1,0.6,1.4,1l5.3,4.6h3.8l5.3-4.6c0.4-0.4,0.9-0.7,1.4-1
	c1.4-0.5,2.9,0.2,3.4,1.6c0.1,0.2,0.1,0.4,0.1,0.6c0,0.6-0.2,1.3-0.6,1.8c-0.4,0.4-0.8,0.7-1.2,1.1c-0.2,0.2-0.5,0.4-0.7,0.6h3.3
	c1.5,0,2.9,0.7,3.9,1.7c1.1,1,1.7,2.4,1.8,3.9v15.2c0,0.8,0,1.5-0.1,2.3c-0.3,1.5-1.3,2.9-2.6,3.7c-0.9,0.6-2,0.9-3,0.8H20.5
	c-0.8,0-1.6,0-2.4-0.1c-1.5-0.4-2.8-1.3-3.6-2.6c-0.6-0.9-0.9-2-0.9-3v-15c-0.1-0.7-0.1-1.5,0-2.2c0.5-2.6,2.7-4.5,5.3-4.7h3.5
	c-0.6-0.4-1-0.9-1.5-1.3c-0.6-0.6-0.9-1.4-0.8-2.2C20,16.7,20.4,15.9,21.2,15.5 M20.6,25.7c-1,0.2-1.8,0.9-2.1,1.9c0,0.3,0,0.7,0,1
	v12.5c-0.1,1.2,0.7,2.3,1.8,2.6c0.4,0.1,0.7,0.2,1.1,0.2h21.5c1.1,0,2.1-0.6,2.5-1.6c0.2-0.6,0.3-1.1,0.3-1.7V29
	c0.1-0.4,0.1-0.8,0-1.3c-0.2-0.8-0.9-1.5-1.7-1.8c-0.5-0.2-1.1-0.3-1.6-0.2H21.8C21.4,25.7,21,25.7,20.6,25.7z"/>
<path class="st1" d="M24.9,29.9c0.7,0,1.3,0.2,1.8,0.6c0.6,0.5,0.9,1.2,0.9,2v2.6c0,0.6-0.2,1.2-0.5,1.7c-0.9,1.1-2.6,1.3-3.7,0.4
	c-0.2-0.2-0.5-0.4-0.6-0.7c-0.3-0.6-0.4-1.2-0.3-1.8V32c0.2-1.2,1.1-2.1,2.3-2.2L24.9,29.9z M38.6,29.9c1.5-0.1,2.7,1,2.8,2.4
	c0,0,0,0,0,0V35c0,0.6-0.1,1.2-0.4,1.7c-0.8,1.2-2.5,1.5-3.7,0.7c-0.3-0.2-0.5-0.4-0.7-0.7c-0.3-0.6-0.5-1.2-0.4-1.9v-2.6
	C36.3,31,37.3,30,38.6,29.9L38.6,29.9z"/>
</svg>
