<?xml version="1.0" encoding="utf-8"?>
<!-- Generator: Adobe Illustrator 22.1.0, SVG Export Plug-In . SVG Version: 6.00 Build 0)  -->
<svg version="1.1" id="图层_1" xmlns="http://www.w3.org/2000/svg" xmlns:xlink="http://www.w3.org/1999/xlink" x="0px" y="0px"
	 viewBox="0 0 64 64" style="enable-background:new 0 0 64 64;" xml:space="preserve">
<style type="text/css">
	.st0{fill:#EF5656;}
	.st1{fill:#CD2329;}
</style>
<path class="st0" d="M63.5,40c-0.2,6.2-2.4,11.7-6.6,16.4c-2.6,2.9-5.9,4.1-9.6,4.6c-8.1,1.1-16.3,1.7-24.5,2.3
	c-0.6,0-0.9,0-0.8-0.8c0.2-1.3,0.4-2.6,0.5-4c0.1-0.7,0.3-0.9,1-0.9c3.1,0.3,6.1,0.4,9.2,0.2c5-0.2,10-0.9,14.7-2.8
	c4.1-1.7,7.5-4.2,9.2-8.4c3.6-8.9-0.8-18-9.9-20.7c-4.4-1.3-8.9-1.5-13.4-1.2c-3.3,0.2-6.5,0.6-9.8,1.3c-0.7,0.1-0.8-0.1-0.8-0.7
	c-0.2-4-0.3-8-0.5-12h0C22,9.5,21.8,5.5,21.6,1.6c0-0.7,0.2-0.9,0.9-0.9c1.7,0,3.5,0,5.2,0c0.7,0,0.9,0.2,0.8,0.9
	C28.4,5.8,28.2,10,28,14.2c-0.1,1.7-0.1,3.4-0.3,5.1c-0.1,0.7,0.2,0.9,0.9,0.8c4.2,0,8.4,0.2,12.6,0.5c2.6,0.2,5.1,0.5,7.6,0.9
	c3,0.5,5.4,2.1,7.7,4C60.9,29.3,63.7,34,63.5,40z"/>
<path class="st1" d="M46.2,51.8c-6.9,2.5-14.1,3.3-21.4,3.2c-4.7-0.1-9.5-0.3-14.1-1.5C10,53.2,9.3,53,8.6,52.7
	c-5.1-1.9-7.6-5.6-8-10.9c-0.1-0.9,0-1.8-0.1-2.7c-0.1-2.6,1.1-4.3,3.2-5.6c3-1.9,6.5-2.7,9.9-3.3c7-1.3,14.1-1.6,21.2-1.5
	c2.7,0,5.5,0,8.2,0c0.7,0,1,0.2,0.9,0.9c-0.1,1.5,0,3,0,4.4c0,0.8-0.2,0.8-0.9,0.6C33,31.4,23.4,33.1,14,37.1
	c-1.3,0.5-2.4,1.3-3.3,2.4c-1.4,1.6-1.4,3.7,0.1,5.3c0.9,1,2,1.6,3.2,2.1c3.4,1.4,7,1.8,10.6,2c6.9,0.4,13.7,0.1,20.4-1.4
	c0.5-0.1,1-0.2,1.4-0.5c0.8-0.5,1-0.1,1,0.6c0,0.7,0,1.4,0.1,2.1C47.8,51,47.2,51.4,46.2,51.8z"/>
</svg>
