<?xml version="1.0" encoding="UTF-8"?>
<svg xmlns="http://www.w3.org/2000/svg" xmlns:xlink="http://www.w3.org/1999/xlink" viewBox="0 0 48 48" version="1.1" width="48px" height="48px">
<g id="surface1">
<path style=" fill:#E74C3C;" d="M 38 26.898438 C 36.101563 29.898438 32 32 28.601563 32 C 28.601563 32 28.601563 32 28.5 32 C 23.800781 32 20 28.199219 20 23.5 C 22.800781 21.800781 22.101563 17.101563 25 15.800781 C 26.101563 15.300781 27.300781 15 28.5 15 C 28.5 15 28.5 15 28.601563 15 C 32 15 36 17 37.898438 19.898438 L 44.699219 12.5 C 41.101563 7.398438 35.199219 4 28.601563 4 C 17.800781 4 9.101563 12.699219 9.101563 23.5 C 9.101563 34.300781 17.800781 43 28.601563 43 C 35.5 43 41.601563 39.398438 45 33.898438 Z "/>
<path style=" fill:#2980B9;" d="M 30 7.398438 C 30 6.601563 29.398438 6 28.601563 6 C 28 6 27.5 6.398438 27.300781 7 L 20.300781 22 L 22.300781 26 C 22.300781 26 29.699219 8.398438 29.800781 8 C 29.898438 7.800781 30 7.601563 30 7.398438 Z "/>
<path style=" fill:#2980B9;" d="M 27 29 L 22 28 L 23.101563 22.5 C 23.300781 22.101563 22.898438 21.199219 23.398438 21.300781 L 27.300781 22.699219 C 27.800781 22.898438 28.101563 23.300781 28 23.800781 Z "/>
<path style=" fill:#F39C12;" d="M 22 28 L 14 34 L 11 41 L 15 41 C 15.398438 40.800781 16 40.300781 16.199219 40 C 16.199219 40 16.101563 40.5 15.699219 41 L 19 41 C 19 41 24.800781 38.101563 27 29 Z "/>
<path style=" fill:#F1C40F;" d="M 14 23 C 14 23 8.5 31 2 31 C 2 31 2.199219 34.398438 6.199219 37.898438 C 7.101563 37.800781 8.199219 37.601563 9 37 C 9 37 8.398438 38.101563 7.601563 39 C 8.601563 39.699219 9.699219 40.398438 11 41 C 11 41 18.699219 36 22 28 Z "/>
<path style=" fill:#3498DB;" d="M 14 23 L 22 28 L 24.199219 22.898438 C 24.5 22.398438 24.199219 21.699219 23.699219 21.5 L 17.800781 19.199219 C 17.398438 19 16.898438 19.199219 16.601563 19.5 Z "/>
</g>
</svg>
