<?xml version="1.0" encoding="utf-8"?>
<!-- Generator: Adobe Illustrator 22.1.0, SVG Export Plug-In . SVG Version: 6.00 Build 0)  -->
<svg version="1.1" id="图层_1" xmlns="http://www.w3.org/2000/svg" xmlns:xlink="http://www.w3.org/1999/xlink" x="0px" y="0px"
	 viewBox="0 0 64 64" style="enable-background:new 0 0 64 64;" xml:space="preserve">
<style type="text/css">
	.st0{fill:#111F29;stroke:#CFCFCF;stroke-width:3;stroke-miterlimit:10;}
	.st1{fill:#CFCFCF;}
</style>
<circle class="st0" cx="32" cy="32" r="30.1"/>
<g>
	<g>
		<path class="st1" d="M29,33.6c-1.1,4.2-3.9,7.8-9.7,7.8c-6.3,0-10.5-4.6-10.5-12.5c0-6.7,3.7-12.8,10.8-12.8c6.5,0,9,4.6,9.4,7.9
			h-3.2c-0.7-2.6-2.4-5.1-6.2-5.1c-4.7,0-7.4,4-7.4,9.8c0,5.6,2.5,9.8,7.2,9.8c3.3,0,5.3-1.7,6.4-5H29V33.6z"/>
		<path class="st1" d="M53.4,39c0,7.7-3.3,12-10.7,12c-6.8,0-9.2-3.8-9.7-7.3h3.3c0.8,3,3.3,4.5,6.6,4.5c5.9,0,7.5-3.8,7.5-9.7v-2.3
			c-1.3,2.9-3.6,4.6-7.8,4.6c-5.8,0-10-4.7-10-12c0-8,4.6-12.7,10.4-12.7c4.8,0,6.8,2.3,7.5,4c0-1.3,0.1-2.9,0.2-3.5h3
			c0,1.1-0.1,4.7-0.1,7V39H53.4z M35.8,28.7c0,5.5,2.9,9.3,7.2,9.3c5.7,0,7.4-3.8,7.4-9.6c0-5.9-1.7-9.3-7.2-9.3
			C38.1,19,35.8,23.3,35.8,28.7z"/>
	</g>
</g>
</svg>
