<?xml version="1.0" encoding="utf-8"?>
<!-- Generator: Adobe Illustrator 22.1.0, SVG Export Plug-In . SVG Version: 6.00 Build 0)  -->
<svg version="1.1" id="图层_1" xmlns="http://www.w3.org/2000/svg" xmlns:xlink="http://www.w3.org/1999/xlink" x="0px" y="0px"
	 viewBox="0 0 217 217" style="enable-background:new 0 0 217 217;" xml:space="preserve">
<style type="text/css">
	.st0{fill:#FFFFFF;}
</style>
<path class="st0" d="M208.7,109.6C200.8,97.8,189.5,88.4,176,83c5.6-13.2,7-27.9,4.2-41.8c-13.6-2.8-27.8-1.5-40.8,3.8
	c-5.4-12.9-14.6-23.9-26.2-31.6c-11.1,7.4-20,17.8-25.5,30.1c-13.6-6.1-28.7-7.7-43.2-4.8c-2.8,14-1.4,28.7,4.3,41.9
	C35.6,86,24.3,95.3,16.4,107.2c7.4,11.2,18,20.2,30.5,25.7c-5.1,12.8-6.3,26.8-3.6,40.2c13.1,2.7,26.8,1.6,39.3-3.2
	c5.3,13.9,14.8,25.8,27.1,33.9c11.9-7.9,21.3-19.3,26.6-32.7c13.2,5.6,27.9,7,41.8,4.2c2.6-12.8,1.6-26.3-3-38.7
	C188.9,131.3,200.7,121.8,208.7,109.6z M104.3,132.3l-4.2,6.8c-10.6-6.2-17.7-17.6-17.7-30.7c0-13.3,7.3-24.9,18.2-31l4.2,6.8
	c-8.6,4.7-14.4,13.8-14.4,24.2C90.5,118.7,96.1,127.6,104.3,132.3z M133.2,138.2c-3-0.7-5.9-1.9-8.5-3.4
	c-9.7-5.6-16.2-16.1-16.2-28.1c0-12.2,6.7-22.8,16.7-28.4c0.4-0.2,0.8-0.4,1.2-0.6l3.7,6.3c-0.4,0.2-0.7,0.4-1.1,0.5
	c-7.8,4.3-13.2,12.6-13.2,22.1c0,8.5,4.2,16,10.7,20.6v-21.8h6.7V138.2z"/>
</svg>
