<?xml version="1.0" encoding="utf-8"?>
<!-- Generator: Adobe Illustrator 22.1.0, SVG Export Plug-In . SVG Version: 6.00 Build 0)  -->
<svg version="1.1" id="图层_1" xmlns="http://www.w3.org/2000/svg" xmlns:xlink="http://www.w3.org/1999/xlink" x="0px" y="0px"
	 viewBox="0 0 64 64" style="enable-background:new 0 0 64 64;" xml:space="preserve">
<style type="text/css">
	.st0{fill:#A2CE52;}
	.st1{fill:#FEFEFD;}
	.st2{fill:#FDFEFD;}
</style>
<circle class="st0" cx="32" cy="32" r="31.3"/>
<path class="st0" d="M30,9.8c0,0.1-0.1,0.2-0.1,0.3C29.9,10,29.9,9.9,30,9.8z M30,9.4L30,9.4c0,0.2,0,0.3,0,0.4
	C30,9.7,30,9.5,30,9.4L30,9.4z M20.9,28.1c0.1,0,0.2,0,0.3,0C21.1,28.1,21,28.1,20.9,28.1z M20.6,28.3c0.1-0.1,0.2-0.1,0.3-0.1
	C20.8,28.2,20.7,28.2,20.6,28.3z M10.5,42.7c1.8-3,3.5-5.9,5.3-8.9c0-0.1,0.1-0.1,0.1-0.2c0,0.1-0.1,0.1-0.1,0.2
	C14,36.8,12.3,39.8,10.5,42.7z"/>
<path class="st1" d="M53.8,22c-0.1,6.9-0.1,13.7-0.2,20.6c0,0.7-0.1,1.4-0.2,2.2c-0.8-0.4-1.5-0.8-2.2-1.2
	c-6-3.4-11.9-6.7-17.9-10.1C32.4,33,32,32.4,32,31.4c0-7.1,0-14.2,0-21.3V9.8c0-1.5,0.3-1.6,1.5-0.9c6.4,3.8,12.8,7.6,19.2,11.4
	C53.5,20.7,53.8,21.2,53.8,22z"/>
<path class="st2" d="M52.2,46.8c-6.4,3.6-12.9,7.3-19.3,10.9c-0.8,0.5-0.9,0.4-0.9-0.5c0-3.6,0-7.2,0-10.9V35.6
	c0-1.2,0.1-1.3,1.1-0.7c6.2,3.5,12.4,7,18.6,10.5c0.2,0.1,0.4,0.2,0.5,0.3C52.9,46.2,52.8,46.5,52.2,46.8z"/>
<path class="st1" d="M30.8,34.8c0,6.8,0,13.7,0,20.5c0,0.1,0,0.3-0.3,0.5c-0.6-1-1.2-2-1.7-3c-3.5-6.2-7-12.4-10.5-18.6
	c-0.4-0.8-0.4-1.4,0-2.1c0.7-1.1,1.4-2.3,2-3.4c0.1-0.2,0.2-0.3,0.3-0.4c0.1-0.1,0.2-0.1,0.3-0.1c0.1,0,0.2,0,0.3,0
	c0.1,0,0.2,0.1,0.3,0.2c2.7,1.5,5.4,3,8,4.5c0.2,0.1,0.4,0.2,0.5,0.3c0.1,0.1,0.3,0.3,0.4,0.4C30.6,34,30.8,34.3,30.8,34.8z"/>
<path class="st2" d="M29.7,57c-0.9-0.2-1.3-0.6-1.8-0.8c-5.5-3.3-11-6.5-16.5-9.8c-1-0.6-1.1-0.8-0.5-1.8c1.8-3.1,3.7-6.2,5.6-9.3
	c0.1-0.2,0.3-0.5,0.5-0.8C21.2,42,25.4,49.4,29.7,57z"/>
<path class="st2" d="M30,9.8c0,0.1-0.1,0.2-0.1,0.3c-0.1,0.2-0.2,0.3-0.3,0.4c-2.9,4.9-5.8,9.7-8.6,14.6c-0.1,0.2-0.2,0.4-0.3,0.5
	c0,0-0.1,0.1-0.1,0.1c-0.3,0.3-0.6,0.2-1.3-0.1c-2.5-1.4-4.9-2.8-7.3-4.2c-0.5-0.3-1-0.6-1.4-1.1c4.8-2.7,9.7-5.5,14.6-8.2
	c1.6-0.9,3.2-1.8,4.9-2.7v0h0C30,9.5,30,9.7,30,9.8z"/>
<path class="st2" d="M30.6,11.9v18.9c0,0.5,0,0.8-0.1,0.9c-0.1,0.1-0.2,0.1-0.5,0c-0.1-0.1-0.3-0.2-0.5-0.3
	c-2.4-1.4-4.8-2.8-7.3-4.1c-0.6-0.3-0.8-0.6-0.4-1.3c2.8-4.6,5.5-9.2,8.2-13.8c0.1-0.1,0.2-0.3,0.3-0.4
	C30.5,11.8,30.6,11.8,30.6,11.9z"/>
<path class="st2" d="M15.9,33.6c0,0.1-0.1,0.1-0.1,0.2c-1.8,3-3.5,5.9-5.3,8.9c0,0-0.1,0.1-0.3,0.2V36c0-4,0-8,0-12
	c0-0.2-0.2-0.6,0.2-0.7c0.3-0.1,0.4,0.3,0.5,0.5c1.6,2.8,3.2,5.6,4.8,8.5C16,32.7,16.1,33.2,15.9,33.6z"/>
<path class="st2" d="M19.4,27.7c-0.8,1.3-1.6,2.6-2.5,4.1c-0.8-1.4-1.6-2.8-2.4-4.2c-0.8-1.4-1.5-2.7-2.3-4.1c0.4-0.3,0.6,0,0.8,0.1
	c2,1.1,4,2.2,5.9,3.4C19.3,27.1,19.7,27.2,19.4,27.7z"/>
</svg>
