<?xml version="1.0" encoding="utf-8"?>
<!-- Generator: Adobe Illustrator 22.1.0, SVG Export Plug-In . SVG Version: 6.00 Build 0)  -->
<svg version="1.1" id="图层_1" xmlns="http://www.w3.org/2000/svg" xmlns:xlink="http://www.w3.org/1999/xlink" x="0px" y="0px"
	 viewBox="0 0 64 64" style="enable-background:new 0 0 64 64;" xml:space="preserve">
<style type="text/css">
	.st0{fill:#10B3BA;}
	.st1{fill:none;stroke:#10B3BA;stroke-width:0.5;stroke-miterlimit:10;}
	.st2{fill:#FFF104;}
</style>
<path class="st0" d="M44.8,44.8v5c0,0-0.8,0.4-2.4,1v6l3.6,1.6v2.2l-8.1,0.6l-4.3-2.7v-6.6h-6.5v6.4l3.5,1.8v2.3l-9,1.2l-5.8-3.3
	V49.8l-1.2-0.3v0.6c0,0,2.6,3.6-2,5.8c-0.8,0.4-0.4-2.4-0.4-2.4s3.6-2-1.5-2.9c-4.9-0.9-3,2.8-1.3,3.7C10,54.5,8.2,57,8.2,57
	s-4.9-3.5-2.4-7.4c0.3-0.5-1.8,0-3-3.4c-1.3-3.4,2-20.3,6.6-22.6c0.5-0.3-0.5-3.7-0.5-3.7s7-1.4,9.2-1.3c1.1,0.1,1.9-5.5,11.3-5.1
	c9.5,0.5,9.8,8.6,9.8,8.6s6.2,1.8,8,4c0.4,0.5,0,7.3,0,7.3H52c0,0,0.5,1.5,4.1,2.6c0.5,0.2,0,6.1,0,6.1s-0.3,1-2.6,1.3
	c-0.9,0.1,0.3,1.4-2.4,2C48.7,45.9,44.8,44.8,44.8,44.8z"/>
<path class="st0" d="M51.8,18.6h2.8v-1.3c0,0-0.4-0.1-0.4-0.3c-0.1-0.4,2.7-1.8,3.9-4.6c1.8-4.3,2.6-11.3-4.6-11.9
	c-5.4-0.5-6.7,4.2-7,6.4c-0.4,3.9,4.6,10.1,5.7,10.2c0.1,0-0.5,0.3-0.5,0.3L51.8,18.6z"/>
<path class="st1" d="M53.3,18.6l0.9,25.5c0,0-2,2.8-0.4,4.9c1.1,1.4,2.9,0.9,3.1,0c0.2-0.8-0.5-1.5-0.5-1.5"/>
<path class="st2" d="M49.5,2.4c0,0-3.5,2-1.8,6.5c0.9,2.2,2.8-2.4,2.8-4.4C50.7,2.4,49.5,2.4,49.5,2.4z"/>
<path class="st2" d="M49.3,10.1c0,0,1.4,1,1.3,1.6c-0.1,0.5-0.9,1.2-1.9-0.3S49.3,10.1,49.3,10.1z"/>
<ellipse class="st2" cx="33.1" cy="19.5" rx="1.4" ry="1.8"/>
<path class="st2" d="M25.2,14.5c0,0-4.8,0.9-5.9,4.4c-0.2,0.6,6.1,0.1,6.1,0.1s-0.4-0.6-2.9-0.7C21.4,18.3,25.2,14.5,25.2,14.5"/>
<path class="st2" d="M12.7,20.9c0,0,5.1,7,4.8,21.1c-0.1,5.1,0.8-15.3-0.3-17c-1.5-2.2,23,1,25.7,1.8c1.7,0.5-3.8-3.4-25.6-4
	c-2.4-0.1-3.5-2-4-2.3C11.1,19.2,12.7,20.9,12.7,20.9z"/>
<path class="st2" d="M12.9,34.3c0,0,0.9-10.2-2.5-9.9S3,40.5,4.1,45.9C4.8,49.8,7.3,23.3,12.9,34.3z"/>
<path class="st2" d="M20.7,54.3c0,0-0.5,4.7,0.5,6.1c1,1.4,6.8,0,6.8,0s-5,0-5.7-0.7C21.5,59,20.7,54.3,20.7,54.3z"/>
<path class="st2" d="M37.5,54.5c0,0,0.1,4.1,0.7,4.5c0.6,0.4,4.4,0.5,4.9,0.3s-2.6-0.1-3.7-0.9S37.5,54.5,37.5,54.5z"/>
<path class="st2" d="M49.7,33.8c0,0-3.3,1.5-2.7,6.3s3.1,4.7,5.1,3.8c1.5-0.7-3.5,2.4-4.1-4.4C47.6,35.8,49.7,33.8,49.7,33.8z"/>
<path class="st2" d="M49.6,37.8c0,0,0.7,0.6,1.5,0.8c0.8,0.2,2.5-0.4,2.5-0.4v3.3L53,39c0,0-0.5,0.3-1.8,0.2
	C49.9,39.1,49.6,37.8,49.6,37.8z"/>
</svg>
