<?xml version="1.0" encoding="utf-8"?>
<!-- Generator: Adobe Illustrator 22.1.0, SVG Export Plug-In . SVG Version: 6.00 Build 0)  -->
<svg version="1.1" id="图层_1" xmlns="http://www.w3.org/2000/svg" xmlns:xlink="http://www.w3.org/1999/xlink" x="0px" y="0px"
	 viewBox="0 0 64 64" style="enable-background:new 0 0 64 64;" xml:space="preserve">
<style type="text/css">
	.st0{fill:url(#SVGID_1_);}
	.st1{fill:none;}
	.st2{enable-background:new    ;}
	.st3{fill:#FFFFFF;}
</style>
<linearGradient id="SVGID_1_" gradientUnits="userSpaceOnUse" x1="32" y1="0" x2="32" y2="64">
	<stop  offset="0" style="stop-color:#EC0609"/>
	<stop  offset="1" style="stop-color:#B50507"/>
</linearGradient>
<rect class="st0" width="64" height="64"/>
<rect y="1.3" class="st1" width="64" height="63.2"/>
<g class="st2">
	<path class="st3" d="M28.6,39.5c-1.6,0.5-3.2,1-4.7,1.2c-1.5,0.3-3.1,0.4-4.7,0.4c-2.6,0-4.9-0.3-6.9-1c-2-0.6-3.7-1.6-5.1-2.9
		s-2.4-2.9-3.1-4.8c-0.7-1.9-1.1-4.1-1.1-6.6c0-2.6,0.4-4.9,1.2-6.9s1.9-3.7,3.3-5.1s3.2-2.4,5.2-3.2s4.4-1.1,6.9-1.1
		c0.8,0,1.6,0,2.3,0c0.7,0,1.4,0.1,2.1,0.2s1.4,0.2,2.1,0.3c0.7,0.1,1.5,0.3,2.2,0.5v5.7c-1.6-0.6-3.1-1.1-4.5-1.3
		c-1.4-0.3-2.7-0.4-3.9-0.4c-1.7,0-3.2,0.3-4.4,0.8c-1.2,0.5-2.2,1.3-3,2.2s-1.4,2.1-1.7,3.4c-0.4,1.3-0.6,2.7-0.6,4.3
		c0,1.7,0.2,3.1,0.6,4.4s1,2.4,1.8,3.3c0.8,0.9,1.8,1.6,3,2.1s2.7,0.7,4.4,0.7c0.6,0,1.3-0.1,2-0.2c0.7-0.1,1.4-0.2,2.2-0.4
		c0.7-0.2,1.4-0.4,2.2-0.6c0.7-0.2,1.4-0.5,2-0.7V39.5z"/>
	<path class="st3" d="M47.7,27.7v-4.8h12.9v16.3c-1.7,0.7-3.4,1.1-5.2,1.5c-1.8,0.3-3.8,0.5-5.9,0.5c-2.5,0-4.8-0.3-6.8-1
		c-2-0.7-3.7-1.6-5.1-2.9s-2.5-2.9-3.2-4.8s-1.1-4.1-1.1-6.7c0-2.5,0.4-4.8,1.2-6.8c0.8-2,1.9-3.7,3.4-5.1s3.3-2.5,5.5-3.2
		c2.2-0.7,4.7-1.1,7.5-1.1c1.7,0,3.3,0.1,4.9,0.4s3.1,0.6,4.7,1v5.7c-1.4-0.5-2.9-1-4.5-1.3s-3.3-0.5-5-0.5c-1.7,0-3.2,0.3-4.5,0.8
		c-1.3,0.5-2.4,1.2-3.3,2.1c-0.9,0.9-1.5,2.1-2,3.4c-0.5,1.3-0.7,2.9-0.7,4.5c0,1.6,0.2,3.1,0.5,4.4c0.3,1.3,0.9,2.4,1.7,3.3
		c0.8,0.9,1.8,1.6,3,2.1c1.2,0.5,2.7,0.7,4.5,0.7c0.4,0,0.8,0,1.1,0c0.3,0,0.6-0.1,0.9-0.1s0.5-0.1,0.8-0.2s0.5-0.1,0.8-0.2v-7.8
		H47.7z"/>
</g>
<rect y="43.1" class="st1" width="64" height="14.2"/>
<g class="st2">
	<path class="st3" d="M14.7,55.3h-1.3l-0.2-5.6l-0.1-2.1l-0.5,1.2l-1.5,3.6h-0.9L8.9,49l-0.5-1.4l0,2.2l-0.2,5.5H7l0.5-8.9H9
		l1.3,3.4l0.4,1.1l0.4-1.1l1.4-3.4h1.6L14.7,55.3z"/>
	<path class="st3" d="M22.6,51.5c0,0.2,0,0.3,0,0.4c0,0.1,0,0.2,0,0.3h-5.3c0,0.7,0.2,1.2,0.6,1.6c0.4,0.4,1.1,0.6,1.9,0.6
		c0.2,0,0.4,0,0.7,0c0.2,0,0.4,0,0.6-0.1s0.4-0.1,0.6-0.1c0.2,0,0.4-0.1,0.5-0.1v1c-0.4,0.1-0.8,0.2-1.2,0.2
		c-0.4,0.1-0.9,0.1-1.4,0.1c-0.6,0-1.2-0.1-1.7-0.2c-0.5-0.2-0.8-0.4-1.1-0.7c-0.3-0.3-0.5-0.7-0.7-1.1c-0.1-0.4-0.2-0.9-0.2-1.5
		c0-0.5,0.1-0.9,0.2-1.4c0.2-0.4,0.4-0.8,0.7-1.1c0.3-0.3,0.7-0.6,1.1-0.8s0.9-0.3,1.5-0.3c0.5,0,1,0.1,1.4,0.2
		c0.4,0.2,0.7,0.4,1,0.6c0.3,0.3,0.5,0.6,0.6,1C22.6,50.6,22.6,51,22.6,51.5z M21.3,51.3c0-0.3,0-0.6-0.1-0.8
		c-0.1-0.3-0.2-0.5-0.4-0.7s-0.4-0.3-0.6-0.4c-0.3-0.1-0.5-0.2-0.9-0.2c-0.3,0-0.5,0-0.8,0.2c-0.2,0.1-0.4,0.2-0.6,0.4
		s-0.3,0.4-0.4,0.7s-0.2,0.5-0.2,0.8H21.3z"/>
	<path class="st3" d="M31.1,51.5c0,0.2,0,0.3,0,0.4c0,0.1,0,0.2,0,0.3h-5.3c0,0.7,0.2,1.2,0.6,1.6c0.4,0.4,1.1,0.6,1.9,0.6
		c0.2,0,0.4,0,0.7,0c0.2,0,0.4,0,0.6-0.1s0.4-0.1,0.6-0.1c0.2,0,0.4-0.1,0.5-0.1v1c-0.4,0.1-0.8,0.2-1.2,0.2
		c-0.4,0.1-0.9,0.1-1.4,0.1c-0.6,0-1.2-0.1-1.7-0.2c-0.5-0.2-0.8-0.4-1.1-0.7c-0.3-0.3-0.5-0.7-0.7-1.1c-0.1-0.4-0.2-0.9-0.2-1.5
		c0-0.5,0.1-0.9,0.2-1.4c0.2-0.4,0.4-0.8,0.7-1.1c0.3-0.3,0.7-0.6,1.1-0.8s0.9-0.3,1.5-0.3c0.5,0,1,0.1,1.4,0.2
		c0.4,0.2,0.7,0.4,1,0.6c0.3,0.3,0.5,0.6,0.6,1C31,50.6,31.1,51,31.1,51.5z M29.8,51.3c0-0.3,0-0.6-0.1-0.8
		c-0.1-0.3-0.2-0.5-0.4-0.7s-0.4-0.3-0.6-0.4c-0.3-0.1-0.5-0.2-0.9-0.2c-0.3,0-0.5,0-0.8,0.2c-0.2,0.1-0.4,0.2-0.6,0.4
		s-0.3,0.4-0.4,0.7s-0.2,0.5-0.2,0.8H29.8z"/>
	<path class="st3" d="M39.3,55.2c-0.3,0.1-0.6,0.1-0.9,0.1c-0.3,0-0.6,0-1,0c-0.9,0-1.7-0.2-2.1-0.6c-0.5-0.4-0.7-1-0.7-1.8v-3.6
		h-2.1v-1h2.1v-1.9l1.3-0.3v2.2h3.4v1h-3.4v3.5c0,0.5,0.1,0.9,0.4,1.1c0.3,0.2,0.7,0.4,1.3,0.4c0.2,0,0.5,0,0.8-0.1
		c0.3,0,0.6-0.1,0.9-0.2V55.2z"/>
	<path class="st3" d="M48.1,52.2c0,0.5-0.1,0.9-0.2,1.3c-0.2,0.4-0.4,0.7-0.7,1c-0.3,0.3-0.7,0.5-1.1,0.7c-0.4,0.2-0.9,0.2-1.5,0.2
		c-0.6,0-1.1-0.1-1.6-0.2s-0.8-0.4-1-0.6c-0.3-0.3-0.5-0.6-0.6-1s-0.2-0.8-0.2-1.3v-6h1.3v5.9c0,0.4,0,0.7,0.1,0.9
		c0.1,0.3,0.2,0.5,0.4,0.7c0.2,0.2,0.4,0.3,0.6,0.4c0.3,0.1,0.6,0.1,1,0.1c0.7,0,1.2-0.2,1.6-0.6c0.3-0.4,0.5-0.9,0.5-1.6v-5.9h1.3
		V52.2z"/>
	<path class="st3" d="M56.6,51.7c0,0.6-0.1,1.1-0.3,1.6c-0.2,0.5-0.4,0.8-0.8,1.1s-0.7,0.5-1.2,0.7s-0.9,0.2-1.5,0.2
		c-0.2,0-0.5,0-0.7,0s-0.5-0.1-0.7-0.1v2.9h-1.3v-9.7h1.2l0.1,1.1c0.4-0.5,0.8-0.8,1.2-1c0.4-0.2,0.9-0.3,1.4-0.3
		c0.4,0,0.8,0.1,1.1,0.2c0.3,0.2,0.6,0.4,0.8,0.7c0.2,0.3,0.4,0.7,0.5,1.1C56.5,50.8,56.6,51.2,56.6,51.7z M55.3,51.8
		c0-0.4,0-0.7-0.1-1S55,50.3,54.9,50c-0.1-0.2-0.3-0.4-0.5-0.5c-0.2-0.1-0.4-0.2-0.7-0.2c-0.2,0-0.3,0-0.5,0.1
		c-0.2,0-0.3,0.1-0.5,0.2c-0.2,0.1-0.4,0.3-0.6,0.4c-0.2,0.2-0.4,0.4-0.7,0.7v3.3c0.2,0.1,0.5,0.2,0.8,0.2c0.3,0.1,0.5,0.1,0.8,0.1
		c0.7,0,1.3-0.2,1.7-0.7C55,53.3,55.3,52.7,55.3,51.8z"/>
</g>
</svg>
