<?xml version="1.0" encoding="utf-8"?>
<!-- Generator: Adobe Illustrator 22.1.0, SVG Export Plug-In . SVG Version: 6.00 Build 0)  -->
<svg version="1.1" id="图层_1" xmlns="http://www.w3.org/2000/svg" xmlns:xlink="http://www.w3.org/1999/xlink" x="0px" y="0px"
	 viewBox="0 0 64 64" style="enable-background:new 0 0 64 64;" xml:space="preserve">
<style type="text/css">
	.st0{fill:#FFFFFF;}
</style>
<circle class="st0" cx="32" cy="32" r="29.8"/>
<path d="M28,0.5C14.4,2.4,3.9,12.3,1,25.9c-0.6,2.9-0.6,9.3,0,12.1C2.4,44.7,5,49.6,9.7,54.4s9.6,7.3,16.3,8.8
	c2.9,0.6,9.3,0.6,12.1,0c6.7-1.4,11.6-4.1,16.3-8.8s7.3-9.6,8.8-16.3c0.3-1.5,0.4-3.1,0.4-6.1s-0.1-4.6-0.4-6.1
	c-1.4-6.7-4.1-11.6-8.8-16.3C49.8,5,45.1,2.4,38.7,1C36.3,0.4,30.4,0.2,28,0.5z M27.1,23.2c1.3,0.4,2.6,1.6,2.8,2.7
	c0.1,0.5,0.3,1.6,0.3,2.4l0.1,1.5l-2.9,0.1l-2.9,0.1l-0.1-0.8c-0.3-1.5-0.8-1.6-6.3-1.6c-4.3,0-5,0.1-5.5,0.4
	c-0.9,0.6-1.2,1.8-1.2,5.1c0,3.3,0.3,4.4,1.4,4.8c0.9,0.4,6.5,0.6,8.9,0.4c2.3-0.2,2.8-0.6,3-2l0.1-1h2.9h2.9l-0.1,2.2
	c-0.2,5-1.7,5.6-12.2,5.7c-8.7,0-10.9-0.5-12.1-2.7c-0.6-1.1-0.6-1.1-0.6-7.4c0-6.1,0-6.4,0.5-7.4c0.9-1.6,2.3-2.2,5.9-2.6
	C14.1,22.7,26.2,22.9,27.1,23.2z M54.9,23.3c2.6,0.7,3.5,1.8,3.7,4.7l0.1,1.6h-3h-3V29c0-0.4-0.2-0.8-0.7-1
	c-0.6-0.4-1.3-0.4-6.2-0.4c-6.4,0-6.9,0.1-7.4,1.9c-0.4,1.4-0.2,7.2,0.3,7.9c0.6,1,1.3,1,7.2,1h5.7l0.6-0.6c0.4-0.4,0.6-0.9,0.6-1.5
	v-0.9h-4h-4v-1.8v-1.8h6.9h6.9l-0.1,3.6c-0.1,3.3-0.2,3.7-0.7,4.8c-1.2,2.4-3.6,2.9-13.7,2.7c-7.4-0.2-8.7-0.3-10.1-1.8
	c-1.1-1.1-1.3-2.2-1.5-6.8c-0.2-7.9,0.5-10.1,3.8-11.1C38.7,22.7,52.3,22.6,54.9,23.3z"/>
</svg>
