<?xml version="1.0" encoding="utf-8"?>
<!-- Generator: Adobe Illustrator 22.1.0, SVG Export Plug-In . SVG Version: 6.00 Build 0)  -->
<svg version="1.1" id="图层_1" xmlns="http://www.w3.org/2000/svg" xmlns:xlink="http://www.w3.org/1999/xlink" x="0px" y="0px"
	 viewBox="0 0 64 64" style="enable-background:new 0 0 64 64;" xml:space="preserve">
<style type="text/css">
	.st0{fill:#1C4E79;}
	.st1{fill:#F2F2F2;}
</style>
<circle class="st0" cx="32" cy="32" r="32"/>
<path class="st1" d="M55.9,32.7C55.6,32,55,31.2,55,30.3c0-1.6,0.6-3,0.9-4.5c0.3-1.7-0.5-3.3-1.3-4.8c-3.3-5.7-8.8-10.2-15.1-12.2
	s-13.4-1.6-19.4,1.2c-0.7,0.3-1.6,1.1-1.2,1.8c3.1-0.9,6.7-0.4,9.5,1.4c0.5,0.3,1,0.9,0.7,1.4C28.8,15,28.4,15,28,15
	c-8.1,0.2-15.8,5.5-18.8,13s-1,16.8,4.8,22.3c4.5,4.3,10.9,6.2,17.2,6c0.4,0,0.9-0.1,1.1-0.4c0.3-0.4,0-1-0.4-1.3s-0.9-0.3-1.4-0.3
	c-6.8-0.5-13.2-5.3-15.6-11.7s-0.9-14.1,3.8-19.1c-1.4,4.4-1.6,9.3-0.2,13.7c1.4,4.4,4.5,8.3,8.7,10.4c5.7,2.9,12.9,2.3,17.8,6.4
	c0.6,0.5,1.6,0.9,1.8,0.2c0.1-0.3,0-0.6-0.1-0.8c-0.8-1.8-1.8-3.5-3-5c-0.7-0.9-1.4-1.8-1.6-2.9c-0.3-1.6,0.8-3.2,2-4.3
	c0.9-0.9,2.1-1.8,3.3-1.5c1.4,0.3,2.5,1.8,3.8,1.3c0.5-0.2,0.8-0.6,1.1-1c0.8-1,1.5-2,2.3-3c0.6-0.7,1.7-1.8,1.8-2.7
	C56.3,33.7,56.1,33.2,55.9,32.7z M39.7,37.9c-1.7,2.1-4.2,3.5-6.8,4c-3.9,0.6-8.1-1-10.7-4c-2.6-3-3.4-7.4-2.3-11.2
	c1.1-3.8,4.1-7,7.8-8.5c0.2-0.1,0.6-0.2,0.7,0c0.3,0.3-0.1,0.8-0.4,1c-2.4,1.7-4.7,3.8-5.5,6.6c-0.9,3.2,0.2,6.7,2.3,9.2
	c1,1.2,2.3,2.2,3.8,2.6c1.8,0.5,3.8,0.1,5.2-1.1c0.8-0.6,1.4-1.5,1.5-2.4c0.1-1.3-0.7-2.6-1.9-2.9c-1.2-0.4-2.6,0.2-3.2,1.3
	c-0.3,0.5-0.6,1.3-1.2,1.2c-0.5,0-0.7-0.5-0.8-1c-0.6-1.9-0.3-4,0.8-5.6s3.1-2.6,5-2.5c1.9,0.1,3.6,1.3,4.9,2.7
	c2.4,2.6,3.5,6.1,1.6,9.2C40.3,37.1,40,37.5,39.7,37.9z M52.7,29.2c-0.2,0.4-0.8,0.8-1.2,0.9c-0.5,0.1-1.1,0-1.6-0.2
	c-0.9-0.3-1.7-0.8-2-1.7c-0.1-0.2-0.1-0.5,0.1-0.7c0.2-0.2,0.5-0.2,0.8-0.1c0.9,0.2,1.9,0.4,2.8,0.5c0.3,0.1,0.7,0.1,1,0.3
	C52.9,28.6,52.9,28.9,52.7,29.2z M53.3,25.7c-0.1,0.3-0.3,0.4-0.9-0.2c-0.6-0.6-1.4-1-2.2-1.2c-0.3-0.1-0.7-0.2-0.8-0.5
	c0-0.2,0.1-0.4,0.2-0.5c0.4-0.5,1.2-0.6,1.8-0.4c0.6,0.2,1.1,0.6,1.4,1.2C53.2,24.5,53.4,25.3,53.3,25.7z"/>
</svg>
