<?xml version="1.0" encoding="utf-8"?>
<!-- Generator: Adobe Illustrator 22.1.0, SVG Export Plug-In . SVG Version: 6.00 Build 0)  -->
<svg version="1.1" id="图层_1" xmlns="http://www.w3.org/2000/svg" xmlns:xlink="http://www.w3.org/1999/xlink" x="0px" y="0px"
	 viewBox="0 0 64 64" style="enable-background:new 0 0 64 64;" xml:space="preserve">
<style type="text/css">
	.st0{fill:#FFFFFF;}
</style>
<path d="M52,64H12C5.4,64,0,58.6,0,52V12C0,5.4,5.4,0,12,0h40c6.6,0,12,5.4,12,12v40C64,58.6,58.6,64,52,64z"/>
<path class="st0" d="M29.5,26.3c-0.4,4-0.9,7.8-1.3,11.8c-0.8,0-1.7,0.1-2.5,0c-0.2,0-0.3-0.2-0.5-0.4c-0.5-0.7-1-1.5-1.6-2.4
	c-0.7,0.7-1.3,1.4-1.9,2.1c-0.4,0.5-0.4,0.6-1,0.6c-0.5,0-1.4,0-2,0c0.1-1.2,0.2-2.4,0.4-3.5c0.3-2.5,0.6-5,0.9-7.6
	c0.1-0.5,0.2-0.7,0.7-0.7c0.6,0,1.2,0,2,0c-0.3,2.5-0.6,4.9-0.8,7.3c0.1,0,0.1,0.1,0.2,0.1c0.6-0.7,1.3-1.4,2-2.1
	c0.6,0.8,1.1,1.6,1.8,2.5c0.2-1.5,0.3-2.7,0.5-4c0.1-1,0.3-2.1,0.4-3.1c0-0.5,0.2-0.7,0.7-0.6C28,26.4,28.7,26.3,29.5,26.3z"/>
<path class="st0" d="M45.6,28.3c-0.3-1.2-1-2.2-2.3-2.3c-1.6-0.1-3.3,0-5,0c-0.4,4-0.8,8-1.1,12.1h2.8c0.1-1.2,0.3-3.1,0.5-4.3
	c0-0.3,0.4-0.3,0.5,0c0.4,1.1,0.9,2.7,1.3,3.8c0.1,0.2,0.3,0.5,0.4,0.5c1,0,1.9,0,3,0c-0.6-1.8-1.2-3.4-1.7-5
	C45.5,31.8,46,30.2,45.6,28.3z M42.8,29.6c0,0.2-0.2,0.8-0.2,0.8c-0.4,0.8-1.2,0.5-2,0.5c0,0,0-0.1,0-0.1c0-0.4,0.1-1.6,0.2-2.1
	c0,0,0,0,0-0.1c0.5,0,1.3,0,1.6,0.1c0.2,0,0.3,0.2,0.3,0.3C42.8,29.1,42.8,29.6,42.8,29.6z"/>
<path class="st0" d="M59.4,26.1c-1.7-0.2-3.3,0-5.1,0C54,30,53.6,34,53.2,38.1c1.3,0,2.5,0,3.7,0c2.3,0,4-1.2,4.4-3.5
	c0.3-1.7,0.4-3.5,0.5-5.3C61.9,27.7,60.8,26.2,59.4,26.1z M59,30.6c-0.1,0.9-0.2,1.8-0.3,2.7c-0.2,1.6-0.7,2-2.4,1.8
	c0.2-2.1,0.4-4.1,0.6-6.2C58.5,28.5,59.1,29,59,30.6z"/>
<path class="st0" d="M13.4,33.5c-0.1,1.1,0.2,1.6,0.9,1.8c0.8,0.1,1.3-0.4,1.6-1.5c-0.5,0-0.9-0.1-1.5-0.1c0.1-0.9,0.2-1.8,0.2-2.7
	h4.3c-0.2,2-0.1,4-1.4,5.7c-1.7,2.1-4.9,2.2-6.2,0.1c-0.4-0.7-0.7-1.6-0.7-2.4c0-1.6,0.2-3.2,0.4-4.8c0.3-2,1.8-3.4,3.5-3.7
	c2.7-0.4,4.6,1.3,4.4,4.2h-2.7c0,0-0.1-0.1-0.1-0.2c-0.1-0.6-0.4-1.2-1.1-1.1c-0.8,0-1.2,0.6-1.3,1.2C13.6,31.1,13.5,32.3,13.4,33.5
	z"/>
<path class="st0" d="M37.5,30.4c0-0.5,0-1-0.1-1.6c-0.2-1.6-1.4-2.8-3-3.1c-1.9-0.3-3.9,0.9-4.6,2.8c-0.7,2.1-0.9,4.4-0.6,6.6
	c0.2,1.5,1.4,2.6,2.8,2.9c2.2,0.3,4.3-1,4.9-3.4C37.2,33.3,37.3,31.9,37.5,30.4C37.5,30.4,37.5,30.4,37.5,30.4z M34.5,29.7
	c-0.1,1.5-0.2,2.9-0.4,4.4c-0.1,0.8-0.7,1.3-1.3,1.1C32,35.1,32,34.5,32,33.8c0-0.2,0.2-2.6,0.3-3.6c0-0.3,0.2-1,0.4-1.2
	c0.3-0.3,0.8-0.3,1.1-0.2C34.3,28.8,34.6,29.2,34.5,29.7z"/>
<path class="st0" d="M5,34c0,0.5,0.1,1.1,0.8,1.2c0.6,0.1,1.1-0.2,1.3-0.7C7.2,34.1,7.5,34,7.9,34c0.7,0,1.4,0,2.1,0
	c0,2.2-2,4.1-4.2,4.2c-2.1,0.1-3.7-1.6-3.6-3.8c0-1.6,0.2-3.3,0.5-4.9c0.4-2.1,1.8-3.5,3.8-3.7c2.4-0.3,4.3,1.6,4,4.1H7.8
	c0-0.1-0.1-0.1-0.1-0.2c-0.2-0.6-0.4-1.1-1.1-1c-0.7,0-1.1,0.5-1.1,1.1C5.3,31.2,5.1,32.6,5,34z"/>
<path class="st0" d="M53.1,35.1c0,0.4,0,0.7,0,1c-0.1,0.6-0.1,1.2-0.2,1.9h-7.1c0.4-4,0.8-8,1.2-12h2.8c-0.3,3-0.6,6-0.9,9.1H53.1z"
	/>
</svg>
