<?xml version="1.0" encoding="utf-8"?>
<!-- Generator: Adobe Illustrator 22.1.0, SVG Export Plug-In . SVG Version: 6.00 Build 0)  -->
<svg version="1.1" id="图层_1" xmlns="http://www.w3.org/2000/svg" xmlns:xlink="http://www.w3.org/1999/xlink" x="0px" y="0px"
	 viewBox="0 0 16 16" style="enable-background:new 0 0 16 16;" xml:space="preserve">
<style type="text/css">
	.st0{fill:#6D6D6D;}
</style>
<path class="st0" d="M13.5,0h-11C1.6,0,0.8,0.8,0.8,1.7v7.3h14.4V1.7C15.2,0.8,14.4,0,13.5,0z M14.5,8.4h-13V1.7c0-0.6,0.5-1,1-1h11
	c0.6,0,1,0.5,1,1L14.5,8.4L14.5,8.4z M14.7,10.2l-13.5,0c-0.2,0-0.3,0.2-0.3,0.3c0,0.2,0.2,0.3,0.3,0.3l13.5,0
	c0.2,0,0.3-0.2,0.3-0.3S14.9,10.2,14.7,10.2z M5.8,11.4l-3.3,4c-0.1,0.1-0.1,0.4,0,0.5C2.6,15.9,2.6,16,2.7,16c0.1,0,0.2,0,0.3-0.1
	l3.3-4c0.1-0.1,0.1-0.4,0-0.5C6.1,11.2,5.9,11.2,5.8,11.4z M9.8,11.4c-0.1-0.1-0.3-0.2-0.5,0c0,0,0,0,0,0c-0.1,0.1-0.2,0.3,0,0.5
	c0,0,0,0,0,0l3.3,4c0.1,0.1,0.2,0.1,0.3,0.1c0.1,0,0.2,0,0.2-0.1c0.1-0.1,0.2-0.3,0-0.5c0,0,0,0,0,0C13.2,15.4,9.8,11.4,9.8,11.4z"
	/>
</svg>
