<?xml version="1.0" encoding="utf-8"?>
<!-- Generator: Adobe Illustrator 22.1.0, SVG Export Plug-In . SVG Version: 6.00 Build 0)  -->
<svg version="1.1" id="图层_1" xmlns="http://www.w3.org/2000/svg" xmlns:xlink="http://www.w3.org/1999/xlink" x="0px" y="0px"
	 viewBox="0 0 64 64" style="enable-background:new 0 0 64 64;" xml:space="preserve">
<style type="text/css">
	.st0{fill:#9E2020;}
	.st1{fill:#FCFAFA;}
</style>
<path class="st0" d="M59,64H5c-2.8,0-5-2.3-5-5V5c0-2.8,2.3-5,5-5h54c2.8,0,5,2.3,5,5v54C64,61.8,61.8,64,59,64z"/>
<g>
	<path class="st1" d="M57.4,18.4c-1.3,3.4-4.2,4.9-7.5,5.6c-2.5,0.6-5.1,1.1-7.7,1.6c-0.7,0.1-0.9,0.4-0.9,1.1c0,5.7,0,11.4,0,17.2
		c0,0.9,0.2,1.1,1.1,0.9c1.2-0.3,2.5-0.5,3.8-0.7c1.6-0.3,2.4-1.4,2.5-3c0-2.5,0-5,0-7.4c0-0.1-0.1-0.3-0.1-0.4
		c-1.2,0.2-2.4,0.4-3.5,0.7c-0.6,0.1-0.9,0.1-1-0.7c-0.2-4.1-0.2-4.1,3.8-4.8c2-0.4,4.1-0.8,6.1-1.2c0.7-0.2,1-0.1,1,0.7
		c0,5,0,9.9,0,14.9c-0.1,3.6-2.7,6.6-6.4,7.3c-4.2,0.9-8.3,1.6-12.5,2.4c-0.8,0.1-1.1,0-1.1-0.9c0-10,0-20,0-30.1
		c0-0.9,0.4-1.1,1.1-1.2c4-0.8,8-1.6,12-2.4c1.1-0.2,2.1-0.6,3-1.3c0.7-0.6,1.1-1.2,1-2.2c-0.2-0.9-0.9-1.4-1.7-1.7
		c-0.8-0.3-1.7-0.3-2.7-0.2c2.4-1.6,6.6-1.4,8.6,0.4C57.7,14.3,58.2,16.2,57.4,18.4z"/>
	<path class="st1" d="M31.9,47.4c-0.1,1.5-0.1,2.9,0,4.4c0,0.7-0.2,0.9-0.9,0.7c-4.5-0.9-9-1.7-13.4-2.7c-3-0.7-5.4-3.4-5.5-6.6
		c-0.2-3.5-0.1-7.1-0.1-10.6c0-3.3,0-6.6,0-9.8c0-0.7-0.1-1.3-0.7-1.8c-0.6-0.5-1.1-1.3-1.5-2c-1.8-3.7,0.4-7.4,4.6-7.5
		c1.6,0,3.3-0.1,5.1,1c-1.2-0.1-2,0-2.8,0.2c-0.8,0.3-1.5,0.7-1.7,1.7c-0.2,0.9,0.3,1.6,1,2.2c1.1,0.9,2.4,1.3,3.8,1.5
		c3.7,0.7,7.5,1.5,11.2,2.2c0.7,0.1,1.1,0.4,1,1.2c-0.1,1.5-0.1,3,0,4.5c0,0.8-0.2,1.1-1,0.9c-3.8-0.8-7.6-1.5-11.4-2.4
		c-0.9-0.2-1,0-1,0.8c0,5.2,0,10.4,0,15.6c0,1.9,0.7,2.8,2.6,3.1c3.2,0.6,6.4,1.3,9.6,1.8C31.5,46,32,46.3,31.9,47.4z"/>
</g>
</svg>
