<?xml version="1.0" encoding="utf-8"?>
<!-- Generator: Adobe Illustrator 22.1.0, SVG Export Plug-In . SVG Version: 6.00 Build 0)  -->
<svg version="1.1" id="图层_1" xmlns="http://www.w3.org/2000/svg" xmlns:xlink="http://www.w3.org/1999/xlink" x="0px" y="0px"
	 viewBox="0 0 16 16" style="enable-background:new 0 0 16 16;" xml:space="preserve">
<style type="text/css">
	.st0{fill:#6D6D6D;}
</style>
<path class="st0" d="M8,0.6c-4.4,0-8,3.2-8,7.1c0,2,0.8,3.5,2.2,4.8c0.2,0.6-1.2,2.2-1.9,2.8c1.7-0.1,4.9-1,4.9-1s2,0.4,2.8,0.4
	c4.4,0,8-3.2,8-7.1S12.4,0.6,8,0.6z M8.1,14.2c-0.7,0-2.8-0.4-2.8-0.4s-1.7,0.6-3.3,0.8c0.6-0.6,1-1.6,1-2.2
	c-1.3-1.2-2.2-2.8-2.2-4.6c0-3.5,3.3-6.4,7.3-6.4s7.3,2.9,7.3,6.4C15.3,11.3,12.1,14.2,8.1,14.2z"/>
<path class="st0" d="M3.2,8c0,0.5,0.4,1,0.9,1c0.5,0,1-0.4,1-0.9c0,0,0,0,0,0c0-0.5-0.4-1-0.9-1S3.2,7.5,3.2,8C3.2,8,3.2,8,3.2,8z"
	/>
<path class="st0" d="M7,8C7,8.5,7.4,9,8,9c0.5,0,1-0.4,1-0.9c0,0,0,0,0,0c0-0.5-0.4-1-0.9-1S7,7.5,7,8C7,8,7,8,7,8z"/>
<path class="st0" d="M10.9,8c0,0.5,0.4,1,0.9,1c0.5,0,1-0.4,1-0.9c0,0,0,0,0,0c0-0.5-0.4-1-0.9-1S10.9,7.5,10.9,8
	C10.9,8,10.9,8,10.9,8z"/>
</svg>
