<?xml version="1.0" encoding="utf-8"?>
<!-- Generator: Adobe Illustrator 22.1.0, SVG Export Plug-In . SVG Version: 6.00 Build 0)  -->
<svg version="1.1" id="图层_1" xmlns="http://www.w3.org/2000/svg" xmlns:xlink="http://www.w3.org/1999/xlink" x="0px" y="0px"
	 viewBox="0 0 64 64" style="enable-background:new 0 0 64 64;" xml:space="preserve">
<style type="text/css">
	.st0{fill:#FAC448;}
	.st1{fill:#F4942D;}
</style>
<path class="st0" d="M29.4,48.4c-0.5-0.3-8.4-3.5-11.2-5.5c-1.5-1.1-2.3-2.7-2.2-4.6c0-0.6,0-19.8,0-19.8c0,0-0.1,0-0.1,0
	c-0.4-0.3-10.5-4.9-10.8-5c-0.6-0.2-1.1,0-1.6,0.3C3.4,14,3.2,14.2,3,14.4c-0.5,0.4,0,30.1,0,30.2c0,0.6,0.1,1.2,0.3,1.8
	c0.4,1.4,1.2,2.5,2.6,3.1c0.6,0.3,11,5.2,11.2,5.3c1,0.8,2.1,0.9,3.3,0.5c0.8-0.2,9-3.8,9.5-4.8C29.9,50.4,30,48.8,29.4,48.4z"/>
<path class="st0" d="M61.5,30.7c-0.5-0.3-11.6-5.9-12.2-6.2c-0.2-0.1-0.5-0.1-0.7,0c0-1.8,0-3.7,0-5.5v-0.3c0.2-0.1,0.7-0.4,0.8-0.4
	c1-0.5,1.9-0.9,2.9-1.4c1.3-0.6,6.1-3.1,7.2-3.6c0.3-0.1,0.6-0.3,0.9-0.2c0.2,0,0.3,0.1,0.5,0.3c0.3,0.2,0.5,0.5,0.8,0.7
	C61.6,14,61.5,30.7,61.5,30.7z"/>
<path class="st0" d="M32.4,13.9c0,0.1-12.8,6.1-12.7,6.4c-0.4-0.1-3.6-1.7-3.7-1.7c0,0-0.1,0-0.1,0c0,0,0-9.7,0-10.2
	c0-0.5,0.3-1,0.7-1.2C16.8,7,16.9,7,17.1,6.8C17.7,7.1,31.9,13.7,32.4,13.9z"/>
<path class="st1" d="M45.8,20c-3.8,1.8-7.6,3.5-11.3,5.3c-1.3,0.5-2.6,0.6-3.9,0c-2.1-1-10.7-5-10.8-5.1c0.3-0.4,12.3-6.1,12.7-6.4
	c0,0,0.5,0.1,0.6,0.1C33.5,14.2,45.8,19.9,45.8,20z"/>
<path class="st1" d="M17,7.1c-0.6,0.2-1,0.7-1,1.4c0.1,3.3,0,10.1,0,10.2c-0.4-0.3-9.2-4.3-10-4.7c-0.3-0.1-0.6-0.3-0.8-0.4
	c-0.6-0.2-1.1,0-1.6,0.3C3.4,14,3.2,14.2,3,14.4c-0.1-0.8,0.3-1.5,0.8-2.1c0.6-0.6,7.6-3.9,10.4-5.3c0.7-0.3,1.3-0.5,2-0.5
	c0.3,0,0.6,0.1,0.8,0.2C17.2,7,17.1,7,17,7.1z"/>
<path class="st1" d="M48.2,54.5c-0.7,0.4-1.5,0.6-2.4,0.7c-0.9,0.1-1.6-0.2-2.3-0.5c-2.2-1-8.7-4-9.8-4.5c-0.2-0.1-0.4-0.3-0.4-0.6
	c0-0.2,0.1-0.3,0.2-0.4c0.4-0.2,11.5-5.6,11.8-5.7c0.1,0,0.3-0.1,0.4,0v0c0,0,0,0,0,0c0,0.9,0.3,7.6,0.3,9.2c0,0.6,0.3,1.1,0.9,1.3
	C47.1,54.2,48.1,54.3,48.2,54.5z"/>
<path class="st1" d="M61.6,14.3c-0.3-0.2-0.5-0.5-0.8-0.7c-0.2-0.1-0.3-0.2-0.5-0.2c-0.2,0-0.3,0-0.5,0c-0.2,0-11.3,5.4-11.3,5.4
	c-0.1,0-0.1-9.9-0.1-9.9c0-0.2,0-0.3,0-0.5c0.1-0.6-0.2-1.1-0.7-1.3C47.6,7,47.4,7,47.4,6.8c0.1,0,0.1,0,0.1-0.1
	c0.4-0.2,0.9-0.2,1.4-0.2c0.8,0.1,10.5,4.7,10.9,4.9c0.8,0.4,1.4,1,1.7,1.9C61.6,13.6,61.6,14,61.6,14.3z"/>
<path class="st1" d="M61.6,30.4c-4.3,2.2-8.6,4.2-13.1,6c0-2.3,0-10.8,0-12c0,0,0.8-0.3,0.9-0.2C53.6,26.5,57.5,28.5,61.6,30.4z"/>
<path class="st0" d="M61.4,30.5c-0.1,0.1-12.8,6-12.9,6c0,0.9,0,4.3-0.3,5c-0.4,1.1-2.6,2.2-2.6,2.2c0,0.9,0.3,7.6,0.3,9.2
	c0,0.6,0.3,1.1,0.9,1.3c0.4,0.1,1.4,0.3,1.4,0.4c0.2,0,9.5-4.5,10.4-4.8c1-0.4,2.4-2,2.4-2.1c0.4-0.8,0.6-1.7,0.7-2.6
	C61.6,44,61.4,30.6,61.4,30.5z"/>
<path class="st0" d="M48.5,18.8c-0.7,0.3-2.5,1.2-2.8,1.3c0.1-0.1-13.1-6.1-13.3-6.1c0.7-0.3,14.7-7,15-7.1c0,0.2,0.2,0.2,0.4,0.3
	c0.5,0.3,0.8,0.8,0.7,1.3C48.5,8.6,48.5,18.6,48.5,18.8z"/>
<path class="st0" d="M48.5,36.5c-0.2,0.1-0.6,0.2-0.9,0.2c-0.5,0.2-0.9,0.3-1.3,0.6c-0.8,0.7-0.8,1.8-0.8,2.8c0,1.1,0,2.2,0,3.4
	c-0.6,0-8.9,4.2-12.4,5.9c-0.6-0.7-0.6-1.8-0.6-2.7c0-3.5,0-7,0-10.5c0-1.5,0-3.6,1.2-4.8c1.4-1.4,11.7-5.5,14.8-7
	c0,3.8,0,7.5,0,11.3C48.5,36,48.6,36.5,48.5,36.5z"/>
</svg>
