<?xml version="1.0" encoding="utf-8"?>
<!-- Generator: Adobe Illustrator 22.1.0, SVG Export Plug-In . SVG Version: 6.00 Build 0)  -->
<svg version="1.1" id="图层_1" xmlns="http://www.w3.org/2000/svg" xmlns:xlink="http://www.w3.org/1999/xlink" x="0px" y="0px"
	 viewBox="0 0 64 64" style="enable-background:new 0 0 64 64;" xml:space="preserve">
<style type="text/css">
	.st0{fill:url(#SVGID_1_);}
</style>
<linearGradient id="SVGID_1_" gradientUnits="userSpaceOnUse" x1="-1.818989e-12" y1="32" x2="64" y2="32">
	<stop  offset="0" style="stop-color:#E85D2C"/>
	<stop  offset="6.982642e-02" style="stop-color:#E8672A"/>
	<stop  offset="0.5074" style="stop-color:#E8A31E"/>
	<stop  offset="0.8298" style="stop-color:#E8C817"/>
	<stop  offset="1" style="stop-color:#E8D614"/>
</linearGradient>
<path class="st0" d="M64,15.7l-5.7-3.8L58,1.4L27.2,21L0.1,3.6L0,46.2l27.3,16.5l36.6-23.1L64,15.7z M26.7,52.7L10.6,42.1l16.1-9.8
	V52.7z M26.7,29.8L8.2,18v25.4l18.5,11.5v5.4L1.5,44.6L1.6,6.9l25.1,15.9V29.8z M34.4,27.8l6.1,3.9v6.8l-6.1-4.1V27.8z M34.4,49.3
	V36.4l6.6,4l16.5-9.9v4.3L34.4,49.3z M40.6,30.1l-5.5-3.5l22.1-13.8l5.3,3.6L40.6,30.1z"/>
</svg>
