<?xml version="1.0" encoding="utf-8"?>
<!-- Generator: Adobe Illustrator 22.1.0, SVG Export Plug-In . SVG Version: 6.00 Build 0)  -->
<svg version="1.1" id="图层_1" xmlns="http://www.w3.org/2000/svg" xmlns:xlink="http://www.w3.org/1999/xlink" x="0px" y="0px"
	 viewBox="0 0 64 64" style="enable-background:new 0 0 64 64;" xml:space="preserve">
<style type="text/css">
	.st0{fill:#D94F42;}
	.st1{fill:#19A05E;}
	.st2{fill:#F2F2F2;}
	.st3{fill:#FDCA41;}
	.st4{fill:#4B8BF5;}
</style>
<path class="st0" d="M22.1,2.5c14.7-4.8,30.7,1.6,38,15.1c-1.1,0.1-2.1,0.1-3.1,0H34.8c-2.7-0.4-5.3-0.1-7.7,0.7
	c-7.1,2.8-10.7,10.9-8,18c0.1,0.5,0.4,0.8,0.6,1.3c-4.5-7.7-9.2-15.5-13.8-23.2C9.9,8.9,15.5,4.7,22.1,2.5z"/>
<path class="st1" d="M1.6,23.8c0.8-3,2.2-6,3.9-8.7c4.6,7.7,9.2,15.5,13.8,23.2c3.7,7,12.4,9.5,19.4,5.8l0.1-0.1
	c1.8-1.1,3.4-2.4,4.7-4.1c-4.3,7.7-8.8,15.1-13.2,22.8c-6.6-0.2-13-2.7-18.2-6.9c-6.2-5-10.3-12-11.4-19.8C0.2,32,0.5,27.8,1.6,23.8
	z"/>
<path class="st2" d="M26.8,19.1c2.5-1,5.3-1.2,8-0.7c4.1,0.8,7.6,3.3,9.8,6.9c2.9,4.8,2.5,10.9-0.7,15.5c-1.3,1.6-2.9,2.9-4.7,4
	c-7,3.9-15.7,1.3-19.6-5.6c0-0.1-0.1-0.1-0.1-0.2c-3.6-7-1-15.5,5.9-19.1C25.8,19.4,26.3,19.3,26.8,19.1z M30.2,21.1
	c-4.2,0.7-7.7,3.9-9.1,8c-1,3.3-0.4,6.8,1.6,9.5c3.7,5.2,11,6.4,16.2,2.8c0.8-0.6,1.6-1.2,2.2-1.9c1.7-2.1,2.7-4.8,2.5-7.5
	c-0.1-3.6-1.9-7.1-5-9.2c-2.4-1.7-5.4-2.3-8.5-1.8L30.2,21.1z"/>
<path class="st3" d="M35.3,18.4h21.9c1,0.1,2.1,0.1,3,0c5.6,10.9,4.1,23.9-3.5,33.3c-4.2,5.2-10,8.8-16.5,10.5
	c-2.9,0.7-5.9,1-8.9,0.8c4.1-8,8.5-15.2,12.8-22.8c3.1-4.5,3.5-10.4,0.7-15.1C42.6,21.6,39.3,19.2,35.3,18.4z"/>
<path class="st4" d="M30.2,21.3c2.9-0.5,5.9,0.1,8.3,1.8c3,2.1,4.8,5.3,5,8.9c0.1,2.7-0.8,5.3-2.5,7.2c-4.2,4.8-11.6,5.3-16.3,1.1
	c-0.6-0.6-1.2-1.2-1.7-1.9c-1.9-2.8-2.4-6.3-1.4-9.4C22.6,24.9,26.1,22,30.2,21.3L30.2,21.3z"/>
</svg>
