<?xml version="1.0" encoding="utf-8"?>
<!-- Generator: Adobe Illustrator 22.1.0, SVG Export Plug-In . SVG Version: 6.00 Build 0)  -->
<svg version="1.1" id="图层_1" xmlns="http://www.w3.org/2000/svg" xmlns:xlink="http://www.w3.org/1999/xlink" x="0px" y="0px"
	 viewBox="0 0 64 64" style="enable-background:new 0 0 64 64;" xml:space="preserve">
<style type="text/css">
	.st0{fill:#DDDDDD;}
	.st1{fill:#1FA1BB;}
</style>
<path class="st0" d="M28.3,0.2c-6,5.2-11.6,10.3-17.6,15.5c6.4,5.6,12.5,11.6,18.9,17.2c0-3,0-5.6,0-8.6c6-0.4,12.5-0.4,18,0.9
	c3.4,0.9,7.7,3,9,6.4c-0.9-3.9-1.7-7.3-3.4-10.7c-1.7-3.4-4.7-6.4-7.7-8.6c-5.2-3-11.2-3.4-17.2-3.4C28.3,5.8,28.3,2.8,28.3,0.2z"/>
<path class="st1" d="M35.2,63.8c6-5.2,12-9.9,18-15c-6-5.6-12.5-11.6-18.5-17.6c0,3,0,5.6-0.4,8.6c-6,0.4-12.5,0-18-1.3
	c-3.4-1.3-7.7-3-9-6.9c0.9,3.9,1.7,7.3,3.4,10.7s4.3,6.4,7.7,8.6c5.2,3,11.2,3.9,17.2,3.9C35.2,58.2,35.2,60.8,35.2,63.8z"/>
</svg>
