<?xml version="1.0" encoding="utf-8"?>
<!-- Generator: Adobe Illustrator 22.1.0, SVG Export Plug-In . SVG Version: 6.00 Build 0)  -->
<svg version="1.1" id="图层_1" xmlns="http://www.w3.org/2000/svg" xmlns:xlink="http://www.w3.org/1999/xlink" x="0px" y="0px"
	 viewBox="0 0 64 64" style="enable-background:new 0 0 64 64;" xml:space="preserve">
<style type="text/css">
	.st0{fill:#FFFFFF;}
	.st1{fill:#253646;}
	.st2{fill:#924892;}
	.st3{fill:#FF6868;}
	.st4{fill:#FDEC2F;}
</style>
<rect class="st0" width="64" height="64"/>
<circle class="st1" cx="20.1" cy="16.1" r="2.6"/>
<circle class="st1" cx="43.8" cy="16.1" r="2.6"/>
<path class="st2" d="M42.7,48c-1.9,3-5.2,5.2-9.1,5.2s-7.2-2-9.1-5.2H42.7z"/>
<path class="st3" d="M43.1,40.2v7.1c-0.2,0.2-0.2,0.5-0.4,0.7H24.5c-1-1.6-1.6-3.5-1.6-5.5v-2.2H43.1z"/>
<rect x="22.9" y="27" class="st4" width="20.2" height="13.1"/>
<path class="st1" d="M52,21c-0.1,0-0.7,0.2-0.9,0.2c-6,2-12.4,3-19.1,3s-13.1-1.1-19.1-3C12.6,21.1,12,21,12,21
	c-1.1,0-1.9,0.8-1.9,1.9c0,0.8,0.5,1.6,1.4,1.8l0,0c1.9,0.6,3.8,1.1,5.7,1.6v19.7c0.8,2.3,2.1,4.2,3.8,5.8c2.9,2.8,6.8,4.6,11.1,4.6
	c5.5,0,10.4-2.8,13.2-7.1c0.7-1,1.2-2.1,1.7-3.3V26.3c1.9-0.5,3.8-1,5.7-1.6l0,0c0.8-0.2,1.4-1,1.4-1.8C53.9,21.8,53.1,21,52,21z
	 M43.1,45.2c-1.8,4.3-6.1,7.4-11.1,7.4s-9.3-3-11.1-7.4V27c3.6,0.6,7.3,1,11.1,1c3.8,0,7.5-0.3,11.1-1V45.2z"/>
</svg>
