<?xml version="1.0" encoding="utf-8"?>
<!-- Generator: Adobe Illustrator 22.1.0, SVG Export Plug-In . SVG Version: 6.00 Build 0)  -->
<svg version="1.1" id="图层_1" xmlns="http://www.w3.org/2000/svg" xmlns:xlink="http://www.w3.org/1999/xlink" x="0px" y="0px"
	 viewBox="0 0 64 64" style="enable-background:new 0 0 64 64;" xml:space="preserve">
<style type="text/css">
	.st0{fill:#76E7FC;}
	.st1{fill:#FFCC00;}
	.st2{fill:#F4166A;}
	.st3{fill:#30005D;}
</style>
<path class="st0" d="M64,15v1.1H0V15C0,6.8,6.8,0,15,0h34C57.3,0,64,6.8,64,15z"/>
<path class="st1" d="M64,16.1V32H44.4c0-6.8-5.5-12.4-12.4-12.4S19.6,25.2,19.6,32H0V16.1H64z"/>
<path class="st2" d="M64,32v16H0V32h19.6c0,6.8,5.5,12.4,12.4,12.4S44.4,38.8,44.4,32H64z"/>
<path class="st3" d="M64,48v1c0,8.3-6.8,15-15,15H15C6.8,64,0,57.3,0,49v-1H64z"/>
</svg>
