<?xml version="1.0" encoding="utf-8"?>
<!-- Generator: Adobe Illustrator 22.1.0, SVG Export Plug-In . SVG Version: 6.00 Build 0)  -->
<svg version="1.1" id="图层_1" xmlns="http://www.w3.org/2000/svg" xmlns:xlink="http://www.w3.org/1999/xlink" x="0px" y="0px"
	 viewBox="0 0 512 512" style="enable-background:new 0 0 512 512;" xml:space="preserve">
<style type="text/css">
	.st0{fill:#FFFFFF;}
</style>
<g id="图层_3">
	<path class="st0" d="M392.7,290.6v40.9c0,30.1-24.3,54.5-54.5,54.5c15,0,27.2-12.3,27.2-27.2v-59.1l-105.5-51.6l23.8-11.9
		L392.7,290.6z"/>
	<path class="st0" d="M338.2,249.8v31.7l-27.2,9v-27.1c0-5.1-0.7-10-2-14.6c-3.7-13.6-12.9-25.2-24.9-32.3c-0.2,0-95.3-58-95.3-58
		c-3.1-1.9-6.5-3.1-10.2-3.6c-1.2-0.2-2.6-0.3-3.7-0.3c-15,0-27.2,12.3-27.2,27.2v108.9c0,20.1,10.9,37.8,27.2,47.2
		c2.7,1.7,95.3,44.4,95.3,44.4c4.1,2.4,8.7,3.6,13.6,3.6c8.7,0,16.3-4.1,21.4-10.4c3.7-4.6,5.8-10.6,5.8-16.9v-41l27.2-9v50
		c0,30.1-24.3,54.5-54.5,54.5c-9.9,0-19.2-2.7-27.2-7.3l-108.9-54.5c-16.3-9.4-27.2-27.1-27.2-47.2V181.5
		c0-30.1,24.3-54.5,54.5-54.5c1.2,0,2.4,0,3.6,0.2c1.2,0,2.4,0.2,3.4,0.3c8.5,1,16.5,4.3,23.5,8.9l105.5,66
		C327.1,212,338.2,229.7,338.2,249.8z"/>
	<path class="st0" d="M365.3,175.2l-0.2-0.2l-105.2-65.7l-0.3-0.2c-6.8-4.6-14.8-7.7-23.5-8.9c-1.2-0.2-2.2-0.3-3.4-0.3
		s-2.4-0.2-3.6-0.2c-15.1,0-28.9,6.1-38.8,16.2c3.4-1.7,7.3-2.6,11.6-2.6c4.9,0,9.7,1.4,13.6,3.6c0,0,122.7,71.8,122.9,72
		c16,9.5,26.9,26.9,26.9,47v36.3l27.2-9v-40.9C392.7,202.3,381.6,184.6,365.3,175.2z"/>
	<path class="st0" d="M311,348.7v10.2c0,6.5-2.2,12.3-5.8,16.9l-97-48.5l-6.1-3.1c-16.3-9.4-27.2-27.1-27.2-47.2V154.6
		c1.4,0,2.6,0,3.7,0.3c3.7,0.5,7.1,1.7,10.2,3.6l13.3,8.2v96.9c0,20.1,10.9,37.8,27.2,47.2C232,312.1,311,348.7,311,348.7z"/>
</g>
</svg>
