<?xml version="1.0" encoding="utf-8"?>
<!-- Generator: Adobe Illustrator 22.1.0, SVG Export Plug-In . SVG Version: 6.00 Build 0)  -->
<svg version="1.1" id="图层_1" xmlns="http://www.w3.org/2000/svg" xmlns:xlink="http://www.w3.org/1999/xlink" x="0px" y="0px"
	 viewBox="0 0 64 64" style="enable-background:new 0 0 64 64;" xml:space="preserve">
<style type="text/css">
	.st0{fill:#5EA033;}
	.st1{fill:#FFFFFF;}
</style>
<polygon class="st0" points="27.3,58 37.2,58 35.9,63.8 28.6,63.8 "/>
<path class="st1" d="M12.6,19.2c0.1,10.1,9.2,28,17.2,35.6C30,55,30.1,55,30.2,55C23.9,44.3,18,29.8,17.9,19.3
	c0-9.9,4.3-15.8,10.6-19c-0.1-0.1-0.2-0.1-0.4-0.1C23.5,1,19.6,3.4,16.8,6.9C14.1,10.3,12.6,14.8,12.6,19.2L12.6,19.2z M36.5,54.4
	C45.3,43.8,54.2,30,54.2,18.3c0-7.1-3.4-12-8.3-15.2C46,3,46.1,3,46.2,3.1c5.6,2.7,10.1,8.1,10,15.7c0,2.6-1,7.6-3.2,12.2
	c-3.1,7.1-8.8,16.1-16.2,23.2C36.7,54.4,36.6,54.4,36.5,54.4L36.5,54.4z M28.1,54.4C19.4,43.8,10.5,30,10.4,18.3
	c0-7.1,3.4-12,8.3-15.2c-0.1-0.1-0.1-0.1-0.3,0c-5.6,2.7-10.1,8.1-10,15.7c0,2.6,1,7.6,3.2,12.2c3.1,7.1,8.8,16.1,16.2,23.2
	C27.9,54.4,28,54.4,28.1,54.4L28.1,54.4z M33.4,55.1c2.2-7.2,4.3-14.8,5.5-22.1c0.8-4.8,1.2-9.6,1.2-14.3c0-12.3-4.1-18.3-7.8-18.4
	c-3.8,0.1-7.9,6.1-7.8,18.4c0,4.7,0.4,9.5,1.2,14.3c1.3,7.3,3.4,15,5.5,22.1H33.4L33.4,55.1z M52,19.2c-0.1,10.1-9.2,28-17.2,35.6
	C34.6,55,34.5,55,34.4,55c6.3-10.7,12.2-25.2,12.3-35.7c0-9.9-4.3-15.8-10.6-19c0.1-0.1,0.2-0.1,0.4-0.1C41.1,1,45,3.4,47.9,6.9
	C50.6,10.3,52,14.8,52,19.2L52,19.2z"/>
</svg>
