<?xml version="1.0" encoding="utf-8"?>
<!-- Generator: Adobe Illustrator 22.1.0, SVG Export Plug-In . SVG Version: 6.00 Build 0)  -->
<svg version="1.1" id="图层_1" xmlns="http://www.w3.org/2000/svg" xmlns:xlink="http://www.w3.org/1999/xlink" x="0px" y="0px"
	 viewBox="0 0 64 64" style="enable-background:new 0 0 64 64;" xml:space="preserve">
<style type="text/css">
	.st0{fill:#FE5917;}
</style>
<path class="st0" d="M40.8,32.6h-1.8v9h1.8c0.9,0,1.3-0.4,1.3-1.3h0v-6.4C42.1,33.1,41.7,32.6,40.8,32.6z"/>
<path class="st0" d="M59.7,54.4V7.7c0,0,0-7.4-7.4-7.4h0H7.8c0,0-7.4,0-7.4,7.4v44.7c0,0,0,7.5,7.5,7.4h46.5l3.9,3.9l5.4-5.4
	L59.7,54.4z M23.1,47.8h-4.3c-4.3,0-6.5-2.2-6.5-6.5V18.8c0-4.3,2.1-6.5,6.5-6.5h4.2c4.3,0,6.5,2.1,6.5,6.5v8.2h-6.9v-7.4
	c0-0.8-0.4-1.3-1.3-1.3h-0.8c-0.8,0-1.2,0.4-1.2,1.3v21c0,0.9,0.4,1.3,1.2,1.3h0.9c0.9,0,1.2-0.4,1.2-1.3v-8.5h6.9v9.2l0.1,0.1
	C29.6,45.7,27.4,47.7,23.1,47.8z M49.2,41.1L49.2,41.1c0,4.4-2.2,6.6-6.6,6.6H32V12.2h10.5c4.4,0,6.6,2.2,6.6,6.6v5.3
	c0,3-1.1,4.6-2.9,5.3c2.1,0.6,3,2,3,4.6V41.1z"/>
<path class="st0" d="M42,25.5L42,25.5v-5.9c0-0.8-0.4-1.3-1.3-1.3h-1.7v8.4h1.7C41.6,26.8,42,26.4,42,25.5z"/>
</svg>
