<svg xmlns="http://www.w3.org/2000/svg" width="62.7" height="27.9" viewBox="0 0 62.7 27.9">
  <defs>
    <style>
      .a {
        fill: #22a3dd;
      }
    </style>
  </defs>
  <title>未标题-3</title>
  <path class="a" d="M7,32.3H7v-.2c0-1.4,8.1-11.7,21.7-14.9C11.7,18.5.5,29.6.5,32.1v.2h0C.7,34.8,8.8,43.6,26.9,45,11.3,40.8,7.2,33.7,7,32.3Z" transform="translate(-0.5 -17.2)"/>
  <path class="a" d="M63.2,32.2c-.1-3.1-10.8-14.1-29.4-15,15.4,3,22.9,13.7,22.9,15s-.1.3-.1.4a11.5,11.5,0,0,1-1.4,1.7A25.8,25.8,0,0,1,40,40.1,11.8,11.8,0,0,0,43.3,32a11.5,11.5,0,0,0-23-.1c0,13.5,17.3,14.8,28.1,11.3,8.8-2.9,14.7-9.2,14.8-10.8h0ZM31.8,38.5a6.7,6.7,0,0,1-6.6-6.6,6.6,6.6,0,0,1,6.6-6.5,6.5,6.5,0,0,1,6.5,6.5,6.6,6.6,0,0,1-6.5,6.6Z" transform="translate(-0.5 -17.2)"/>
</svg>
