<?xml version="1.0" encoding="utf-8"?>
<!-- Generator: Adobe Illustrator 22.1.0, SVG Export Plug-In . SVG Version: 6.00 Build 0)  -->
<svg version="1.1" id="图层_1" xmlns="http://www.w3.org/2000/svg" xmlns:xlink="http://www.w3.org/1999/xlink" x="0px" y="0px"
	 viewBox="0 0 64 64" style="enable-background:new 0 0 64 64;" xml:space="preserve">
<style type="text/css">
	.st0{fill:url(#SVGID_1_);}
</style>
<linearGradient id="SVGID_1_" gradientUnits="userSpaceOnUse" x1="32" y1="-5051.9019" x2="32" y2="-4989.2183" gradientTransform="matrix(1 0 0 1 0 5052.5601)">
	<stop  offset="0" style="stop-color:#CF3365"/>
	<stop  offset="1" style="stop-color:#8E2147"/>
</linearGradient>
<path class="st0" d="M33,63.3h-1.9c-0.1,0-0.2,0-0.3,0c-1,0-2-0.1-3-0.3c-1.8-0.2-3.6-0.6-5.4-1.2c-3-1-5.8-2.3-8.4-4.1
	c-2.4-1.7-4.5-3.6-6.4-5.9c-2.2-2.7-3.9-5.6-5.1-8.8c-1.1-2.9-1.7-5.8-1.9-8.9c0-0.2,0-0.3-0.1-0.5v-3.2c0.1-0.1,0.1-0.3,0.1-0.4
	c0-0.7,0.1-1.5,0.2-2.2c0.5-3.5,1.5-6.8,3.1-10c1.1-2.2,2.4-4.2,4-6c1.6-1.8,3.3-3.5,5.2-4.9c3.2-2.3,6.6-4,10.4-5.1
	c1.8-0.5,3.7-0.8,5.6-1c0.3,0,0.7,0,1-0.1h3.2c0.2,0.1,0.5,0,0.7,0.1c1.3,0.1,2.5,0.3,3.8,0.5C42,2,45.6,3.5,49,5.6
	c2.6,1.7,4.9,3.7,6.9,6.1c1.6,1.9,3,3.9,4.1,6.2c1.3,2.6,2.3,5.4,2.8,8.3c0.3,1.5,0.5,3.1,0.5,4.6c0,0.1,0,0.2,0,0.3v1.9
	c0,0.1,0,0.2,0,0.4c0,0.3,0,0.6,0,0.9c-0.1,1.9-0.4,3.8-0.9,5.6c-0.9,3.5-2.4,6.7-4.4,9.7c-1.5,2.2-3.3,4.2-5.3,6
	c-2,1.8-4.2,3.3-6.6,4.5c-2.7,1.4-5.6,2.3-8.7,2.9c-1.2,0.2-2.3,0.3-3.5,0.4C33.6,63.3,33.3,63.3,33,63.3L33,63.3z M20.3,48.4
	c0.5,0,1.1,0,1.7-0.2c1.7-0.4,3.2-1.2,4.3-2.6c0.7-0.8,1.3-1.8,1.8-2.7c0.6-1.1,1.1-2.3,1.5-3.5c0.5-1.5,1-2.9,1.3-4.4
	c0.2-0.8,0-1.4-1-1.7c-1.2-0.4-2.4-0.7-3.6-1c-2-0.4-4-0.7-6.1-0.7c-0.6,0-1.2,0.1-1.7,0.2c-1.7,0.3-3.1,1.1-4.2,2.3
	c-2,2.1-2.8,4.6-2.3,7.4C12.7,45.5,16.2,48.4,20.3,48.4L20.3,48.4z M23.6,19.4c0,0.6,0.1,1.2,0.3,1.9c0.3,1.2,0.9,2.4,1.6,3.4
	c1.5,2.4,3.5,4.5,5.6,6.4c0.2,0.2,0.4,0.3,0.6,0.4c0.2,0.1,0.4,0.1,0.7,0c0.2-0.1,0.4-0.2,0.6-0.4c0.7-0.7,1.5-1.4,2.1-2.2
	c1-1.1,1.9-2.2,2.7-3.3c0.8-1.1,1.4-2.2,2-3.4c0.5-1.2,0.7-2.4,0.6-3.8c-0.3-2.2-1.2-4-2.8-5.4c-1.9-1.7-4.2-2.4-6.8-2
	C26.6,11.7,23.6,15.3,23.6,19.4L23.6,19.4z M44.1,48.3c0.2,0,0.6,0,0.9-0.1c2.5-0.4,4.5-1.6,5.8-3.7c1.1-1.7,1.5-3.5,1.3-5.5
	c-0.2-1.9-0.9-3.5-2.2-4.8c-1.1-1.2-2.4-2-4-2.3c-0.9-0.2-1.8-0.3-2.7-0.3c-1.1,0-2.1,0.1-3.1,0.2c-2.1,0.3-4.1,0.8-6.1,1.4
	c-0.2,0.1-0.4,0.2-0.6,0.3c-0.2,0.2-0.3,0.4-0.3,0.7c0,0.2,0,0.5,0.1,0.7c0.1,0.5,0.2,0.9,0.4,1.4c0.6,2.1,1.3,4.2,2.3,6.2
	c0.6,1.1,1.2,2.2,2,3.2c0.6,0.7,1.4,1.3,2.2,1.7C41.3,48.1,42.6,48.4,44.1,48.3L44.1,48.3z"/>
</svg>
