<?xml version="1.0" encoding="utf-8"?>
<!-- Generator: Adobe Illustrator 22.1.0, SVG Export Plug-In . SVG Version: 6.00 Build 0)  -->
<svg version="1.1" id="图层_1" xmlns="http://www.w3.org/2000/svg" xmlns:xlink="http://www.w3.org/1999/xlink" x="0px" y="0px"
	 viewBox="0 0 64 64" style="enable-background:new 0 0 64 64;" xml:space="preserve">
<style type="text/css">
	.st0{fill:#C7C6C6;}
</style>
<g>
	<path class="st0" d="M62.2,36c-0.2,0-0.4,0-0.6,0c-2.5,0-4.9,0-7.4,0c-1.4,0-1.5-0.1-1.5-1.5v-14c0-2.1-1.3-3.4-3.4-3.4h-14
		c-0.3,0-0.5,0-0.8,0c-0.7,0-0.9-0.3-0.9-1c0-0.2,0-0.5,0-0.7V7.7c0-0.9-0.2-1.2-1.1-1.5h-0.7c-0.5,0.1-0.9,0.3-1,0.8
		c-0.1,0.2,0,0.5,0,0.7c0,2.6,0,5.2,0,7.8c0,1.5-0.1,1.6-1.6,1.6c-4.8,0-9.5,0-14.3,0c-1.7,0-3.2,1.3-3.2,3.2c0,4.8,0,9.5,0,14.3
		c0,1.4-0.1,1.6-1.5,1.6H2.1c-1,0-1.4,0.4-1.4,1.5c0,0.8,0.4,1.3,1.1,1.5c0.2,0,0.4,0,0.6,0c2.5,0,5.1,0,7.6,0
		c1.5,0,1.6,0.1,1.6,1.6V55c0,0.4,0,0.8,0.2,1.1c0.5,1.1,1.2,1.7,2.4,1.8h0.1c0.2-0.1,0.4,0,0.6,0h35c1.2,0,2-0.5,2.5-1.6
		c0.2-0.5,0.3-1,0.3-1.5v-14c0-0.3,0-0.6,0-0.9c0.1-0.4,0.3-0.6,0.6-0.6c0.3-0.1,0.5,0,0.8,0c2.3,0,4.5,0,6.8,0c0.4,0,0.8,0,1.3,0
		c1,0,1.4-0.5,1.4-1.5C63.5,36.4,63.1,36.2,62.2,36z M45.7,44.8c0,0.4-0.1,0.6-0.5,0.8c-4.2,2.4-8.5,4.9-12.7,7.3
		c-0.3,0.2-0.5,0.2-0.8,0c-4.3-2.5-8.5-4.9-12.8-7.4c-0.3-0.2-0.4-0.3-0.4-0.7c0-2,0-4.1,0-6.1c0-0.4,0.1-0.5,0.5-0.4
		c1.3,0.4,2.5,0.8,3.8,1.2c0.4,0.1,0.5,0.3,0.5,0.7c-0.1,0.5,0.2,0.8,0.6,1c2.6,1.5,5.1,2.9,7.7,4.4c0.4,0.2,0.6,0.2,1,0
		c1.5-0.9,2.9-1.7,4.4-2.6c0.1-0.1,0.3-0.2,0.5-0.3c-0.2-0.2-0.4-0.2-0.6-0.3C31,40.7,25.1,38.8,19.2,37c-0.5-0.2-0.7-0.4-0.7-1
		c0-2,0-3.9,0-5.9c0-0.4,0.1-0.6,0.5-0.8c4.2-2.4,8.5-4.9,12.7-7.3c0.3-0.2,0.6-0.2,0.9,0c4.2,2.5,8.5,4.9,12.7,7.3
		c0.3,0.2,0.4,0.3,0.4,0.7c0,2,0,4.1,0,6.1c0,0.4-0.1,0.6-0.5,0.4c-1.3-0.4-2.5-0.8-3.8-1.2c-0.3-0.1-0.5-0.3-0.4-0.6
		c0.1-0.5-0.1-0.7-0.5-0.9c-2.6-1.5-5.2-3-7.7-4.5c-0.4-0.2-0.7-0.2-1.1,0c-1.5,0.9-2.9,1.7-4.4,2.5c-0.2,0.1-0.3,0.2-0.6,0.4
		c0.4,0.1,0.6,0.2,0.8,0.3c5.9,1.9,11.8,3.7,17.7,5.6c0.5,0.2,0.7,0.4,0.7,0.9C45.7,40.9,45.7,42.9,45.7,44.8z"/>
</g>
</svg>
