<?xml version="1.0" encoding="utf-8"?>
<!-- Generator: Adobe Illustrator 22.1.0, SVG Export Plug-In . SVG Version: 6.00 Build 0)  -->
<svg version="1.1" id="图层_1" xmlns="http://www.w3.org/2000/svg" xmlns:xlink="http://www.w3.org/1999/xlink" x="0px" y="0px"
	 viewBox="0 0 64 64" style="enable-background:new 0 0 64 64;" xml:space="preserve">
<style type="text/css">
	.st0{fill:#231F20;}
	.st1{fill:#FFFFFF;}
	.st2{fill:#EC008C;}
</style>
<path class="st0" d="M59,64H5c-2.8,0-5-2.3-5-5V5c0-2.8,2.3-5,5-5h54c2.8,0,5,2.3,5,5v54C64,61.8,61.8,64,59,64z"/>
<path class="st1" d="M3,45.5c0.9-0.2,1.9-0.2,2.9-0.2c1.8,0,3,0.3,3.9,1c1,0.8,1.6,1.9,1.6,3.7c0,1.9-0.7,3.1-1.5,3.9
	c-1,0.9-2.5,1.3-4.3,1.3c-0.8,0-1.6,0-2.4-0.1V45.5z M5.1,53.4c0.2,0,0.5,0.1,0.7,0c1.9,0,3.2-1.1,3.2-3.4c0-2-1.1-3.1-3-3.1
	c-0.3,0-0.6,0-1,0.1V53.4z"/>
<path class="st1" d="M12.8,47.1c-0.6,0-1.1-0.4-1.1-1c0,0,0,0,0-0.1c0-0.6,0.4-1.1,1.1-1.1s1.1,0.5,1.1,1.1
	C14,46.7,13.5,47.1,12.8,47.1L12.8,47.1z M11.8,55.1V48h2.1v7.1H11.8z"/>
<path class="st1" d="M21.2,54.1c0,1.4-0.3,2.5-1,3.2c-0.7,0.7-1.8,0.9-2.8,0.9c-0.9,0-1.8-0.2-2.4-0.5l0.4-1.7
	c0.6,0.3,1.3,0.5,2,0.5c1,0,1.8-0.5,1.8-1.9v-0.4h0C18.7,54.7,18,55,17.3,55c-1.7,0-2.9-1.4-2.9-3.4c0-2.3,1.4-3.7,3.1-3.7
	c0.9,0,1.5,0.4,1.9,1h0l0.1-0.9h1.8c0,0.5-0.1,1.1-0.1,2.1L21.2,54.1z M19.1,50.9c0-0.1,0-0.3,0-0.4c-0.2-0.6-0.6-1-1.1-1
	c-0.8,0-1.4,0.7-1.4,2c0,1.1,0.5,1.9,1.4,1.9c0.5,0,1-0.4,1.1-0.9c0.1-0.2,0.1-0.4,0.1-0.6L19.1,50.9z"/>
<path class="st1" d="M22.8,47.1c-0.6,0-1.1-0.4-1.1-1c0,0,0-0.1,0-0.1c0-0.6,0.4-1.1,1.1-1.1s1.1,0.5,1.1,1.1
	C24,46.7,23.5,47.1,22.8,47.1L22.8,47.1z M21.8,55.1V48h2.1v7.1H21.8z"/>
<path class="st1" d="M27.3,46.1V48h1.5v1.6h-1.5v2.6c0,0.9,0.2,1.2,0.8,1.2c0.2,0,0.4,0,0.6-0.1l0,1.7c-0.3,0.1-0.8,0.2-1.4,0.2
	c-0.7,0-1.3-0.2-1.6-0.6c-0.4-0.4-0.6-1.1-0.6-2.1v-2.9h-0.9V48h0.9v-1.3L27.3,46.1z"/>
<path class="st1" d="M35.1,53.4c0,0.7,0,1.3,0.1,1.7h-1.9l-0.1-0.7h0c-0.4,0.6-1.1,0.9-1.9,0.9c-1.4,0-2.2-1-2.2-2.2
	c0-1.8,1.6-2.7,4-2.7v-0.1c0-0.4-0.2-0.9-1.2-0.9c-0.7,0-1.3,0.2-1.9,0.5l-0.4-1.4c0.5-0.3,1.4-0.6,2.6-0.6c2.3,0,3,1.4,3,3
	L35.1,53.4z M33.1,51.7c-1.1,0-2,0.3-2,1.1c0,0.6,0.4,0.8,0.8,0.8c0.5,0,0.9-0.3,1.1-0.8c0-0.1,0-0.2,0-0.4V51.7z"/>
<path class="st1" d="M35.7,44.8h2.1v10.3h-2.1V44.8z"/>
<path class="st2" d="M39.8,52.5l-0.7,2.6h-2.3l3-10.2h2.9l3.1,10.2h-2.4l-0.8-2.6H39.8z M42.3,50.7l-0.6-2.2c-0.2-0.6-0.3-1.4-0.5-2
	h0c-0.1,0.6-0.3,1.4-0.4,2l-0.6,2.2H42.3z"/>
<path class="st2" d="M46.1,50.4c0-1,0-1.7-0.1-2.3h1.8l0.1,1.3H48c0.3-1,1.2-1.5,1.8-1.5c0.1,0,0.3,0,0.4,0V50
	c-0.2,0-0.4-0.1-0.6-0.1c-0.8,0-1.3,0.4-1.4,1.1c0,0.2,0,0.3,0,0.5v3.6h-2.1V50.4z"/>
<path class="st2" d="M53.7,46.1V48h1.5v1.6h-1.5v2.5c0,0.8,0.2,1.2,0.8,1.2c0.2,0,0.4,0,0.6-0.1l0,1.7c-0.3,0.1-0.8,0.2-1.4,0.2
	c-0.7,0-1.2-0.2-1.6-0.6c-0.4-0.4-0.6-1.1-0.6-2.1v-2.9h-0.9V48h0.9v-1.3L53.7,46.1z"/>
<path class="st2" d="M56,53.2c0.6,0.3,1.2,0.5,1.8,0.5c0.6,0,0.9-0.2,0.9-0.6s-0.2-0.5-1-0.8c-1.4-0.5-2-1.3-1.9-2.1
	c0-1.3,1.1-2.3,2.8-2.3c0.7,0,1.3,0.1,1.9,0.4l-0.4,1.5c-0.5-0.2-1-0.4-1.5-0.4c-0.5,0-0.8,0.2-0.8,0.6s0.3,0.5,1.1,0.8
	c1.3,0.5,1.8,1.1,1.8,2.2c0,1.3-1,2.3-2.9,2.3c-0.9,0-1.7-0.2-2.2-0.5L56,53.2z"/>
<path class="st1" d="M5.3,6.1c3.2-0.5,6.4-0.8,9.7-0.7c6.1,0,10.1,1.2,13.1,3.5c3.3,2.5,5.4,6.6,5.4,12.5c0,6.3-2.2,10.7-5.2,13.4
	c-3.4,2.9-8.5,4.3-14.8,4.3c-2.7,0-5.5-0.1-8.2-0.5V6.1z M12.5,33c0.8,0.1,1.7,0.2,2.5,0.1c6.6,0,10.9-3.7,10.9-11.6
	c0-6.9-3.9-10.5-10.1-10.5c-1.1,0-2.2,0.1-3.3,0.3V33z"/>
<path class="st2" d="M40.6,30.5l-2.3,8.9h-7.8L40.6,4.8h9.9l10.4,34.6h-8.1l-2.6-8.9H40.6z M49,24.7L47,17.3
	c-0.5-2.1-1.1-4.7-1.6-6.7h-0.1c-0.4,2.1-1,4.7-1.5,6.7l-2,7.3H49z"/>
</svg>
