<?xml version="1.0" encoding="utf-8"?>
<!-- Generator: Adobe Illustrator 22.1.0, SVG Export Plug-In . SVG Version: 6.00 Build 0)  -->
<svg version="1.1" id="图层_1" xmlns="http://www.w3.org/2000/svg" xmlns:xlink="http://www.w3.org/1999/xlink" x="0px" y="0px"
	 viewBox="0 0 64 64" style="enable-background:new 0 0 64 64;" xml:space="preserve">
<style type="text/css">
	.st0{fill:#BBB942;}
	.st1{fill:#FFFFFF;}
</style>
<path class="st0" d="M64,32c0,17.7-14.3,32-32,32S0,49.7,0,32c0-3.9,0.7-7.6,2-11.1c1.5-3.9,3.7-7.5,6.5-10.6C14.3,4,22.7,0,32,0
	C49.7,0,64,14.3,64,32z"/>
<path class="st1" d="M57.4,20.4c-2-3.5-4.7-6.1-7.9-7.7c-3.2-1.6-7.7-2.3-14-2.3h-27c-2.8,3-5,6.6-6.5,10.6c3.7,0,34.3,0,34.5,0
	c1.4,0,6.5,0.5,9.1,3.3c1.9,2,3,4.6,3,8.2c0,2.3-0.4,4.3-1.3,5.8c-0.8,1.5-1.8,2.5-3,3.1c-0.9,0.5-2.8,1-6.7,1h-1.5V27.4H24.3v26.3
	h11.3c5.5,0,9.3-0.3,11.6-1c2.4-0.7,4.7-2,6.7-3.9c2-1.9,3.6-4.3,4.8-7c1.1-2.8,1.7-5.8,1.7-9.1C60.4,28,59.4,23.9,57.4,20.4z"/>
</svg>
