<?xml version="1.0" encoding="utf-8"?>
<!-- Generator: Adobe Illustrator 22.1.0, SVG Export Plug-In . SVG Version: 6.00 Build 0)  -->
<svg version="1.1" id="图层_1" xmlns="http://www.w3.org/2000/svg" xmlns:xlink="http://www.w3.org/1999/xlink" x="0px" y="0px"
	 viewBox="0 0 64 64" style="enable-background:new 0 0 64 64;" xml:space="preserve">
<style type="text/css">
	.st0{fill:#323232;}
	.st1{fill:#B0DB18;}
	.st2{fill:#FEEEBE;}
	.st3{fill:#F0FEB6;}
</style>
<g>
	<path class="st0" d="M40.7,0.3C35.4,0.6,31.6,3.1,29,7.6c-3.7,6.5-7.5,12.9-11.2,19.4c-2.9,5-5.8,10.1-8.7,15.1v0.8
		c0.5,1.5,1.6,2.3,2.9,2.9c1.1,0.6,2.2,1.3,3.3,1.9c0.6,0.3,0.7,0.6,0.3,1.1c-1.5,2.5-2.9,4.9-4.3,7.4c-1.5,2.6-0.9,5.4,1.4,6.8
		c2.4,1.4,5.1,0.5,6.6-2.2c0.8-1.4,1.6-2.9,2.5-4.3c0.6-1.1,1.2-2.1,1.9-3.3c0.5,0.7,0.6,1.4,0.6,2.1c0,1.3,0,2.6,0,3.8
		c0.1,1.8,1.5,3.3,3.2,3.4c1.8,0.2,3.4-0.9,3.9-2.7c0.1-0.5,0.2-1,0.3-1.5c2.2,0.6,3.9-0.3,4.3-2.2c0.1-0.5,0.1-1,0.1-1.5
		c0-3.1,0.7-6,2.3-8.7c1.6-2.7,3.1-5.4,4.7-8.1c3.4-5.9,7-11.8,10.2-17.9C58.2,11,50.9-0.2,40.7,0.3z M22.4,52.6
		c-1.5,2.6-3,5.2-4.6,7.8c-0.6,1-1.5,1.5-2.5,1.6c-2.3,0-3.9-2.3-2.8-4.3c1.5-2.8,3.2-5.6,4.8-8.4c0.2-0.4,0.4-0.3,0.7-0.1
		c1.4,0.8,2.8,1.6,4.2,2.4C22.6,52,22.6,52.2,22.4,52.6z M51.5,20.4c-4.8,8.4-9.6,16.7-14.5,25.1c-1.6,2.8-2.3,5.7-2.4,8.8
		c0,0.4,0,0.9,0,1.3c0,0.8-0.5,1.3-1.3,1.4c-0.8,0.1-1.3-0.4-1.5-1.2c0-0.1,0-0.2,0-0.3c-0.1-0.4-0.3-0.8-0.8-0.7
		c-0.5,0-0.8,0.4-0.8,0.9c0,1,0,2,0,3c0,1.4-0.9,2.4-2.1,2.4c-1.2,0-2-0.9-2-2.3c0-0.6,0-1.2,0-1.8c0-0.3,0-0.7,0-1
		c0.2-2.5-1-4.3-3.1-5.6c-3.3-2-6.7-3.9-10-5.8c-2.6-1.5-2.6-1.5-1.1-4.1C18,29.7,24.2,19,30.4,8.3c2.4-4.2,6.1-6.4,10.9-6.4
		c6,0,11.2,4.8,11.9,10.7C53.5,15.4,52.9,18,51.5,20.4z"/>
	<path class="st1" d="M53.2,12.6C52.5,6.7,47.3,1.8,41.3,1.9c-4.8,0-8.5,2.2-10.9,6.4C24.2,19,18,29.7,11.8,40.5
		c-1.5,2.6-1.5,2.6,1.1,4.1c3.4,1.9,6.7,3.9,10,5.8c2.1,1.2,3.3,3,3.1,5.6c0,0.3,0,0.7,0,1c0,0.6,0,1.2,0,1.8c0,1.4,0.8,2.3,2,2.3
		c1.2,0,2.1-0.9,2.1-2.4c0-1,0-2,0-3c0-0.5,0.3-0.8,0.8-0.9c0.5,0,0.7,0.3,0.8,0.7c0,0.1,0,0.2,0,0.3c0.2,0.8,0.7,1.2,1.5,1.2
		c0.8-0.1,1.2-0.6,1.3-1.4c0-0.4,0-0.9,0-1.3c0.1-3.1,0.8-6.1,2.4-8.8c4.9-8.3,9.7-16.7,14.5-25.1C52.9,18,53.5,15.4,53.2,12.6z
		 M32.5,13.4c-0.1,0.2-0.2,0.4-0.3,0.6c-4.5,7.8-9,15.6-13.5,23.3c0,0,0,0.1,0,0.1c0,0,0,0,0,0.1c-0.1,0.2-0.2,0.3-0.2,0.5
		c0,0,0,0,0,0.1c0,0,0,0,0,0.1c0,0,0,0.1-0.1,0.1c-0.1,0.1-0.3,0.2-0.4,0.2c-0.1,0-0.1,0-0.2,0c-0.1,0-0.2,0-0.3-0.1
		c0,0-0.1,0-0.1,0c0,0-0.1,0-0.1-0.1c0,0,0,0-0.1-0.1c0,0,0,0,0,0c0,0,0,0,0-0.1c0,0,0-0.1,0-0.1c0,0,0-0.1,0-0.1c0,0,0,0,0-0.1
		c0,0,0,0,0-0.1c0-0.1,0-0.1,0-0.2c0,0,0-0.1,0-0.1c0-0.1,0.1-0.2,0.1-0.3c0.4-0.8,0.9-1.6,1.4-2.4c4.1-7.2,8.3-14.3,12.4-21.5
		c0.1-0.2,0.3-0.5,0.5-0.7c0.3-0.3,0.6-0.4,0.9-0.1C32.5,12.8,32.6,13.1,32.5,13.4z"/>
	<path class="st2" d="M15.3,62.1c-2.3,0-3.9-2.3-2.8-4.3c1.5-2.9,3.2-5.6,4.8-8.4c0.2-0.4,0.4-0.3,0.7-0.1c1.4,0.8,2.8,1.6,4.2,2.4
		c0.4,0.3,0.5,0.5,0.2,0.9c-1.5,2.6-3,5.2-4.6,7.8C17.2,61.5,16.3,62,15.3,62.1z"/>
	<path class="st3" d="M17.6,38.4c-0.6,0-0.9-0.6-0.5-1.2c0.4-0.8,0.9-1.6,1.4-2.4c4.1-7.2,8.3-14.3,12.4-21.5
		c0.1-0.2,0.3-0.5,0.5-0.7c0.3-0.3,0.6-0.4,0.9-0.1c0.3,0.2,0.4,0.5,0.3,0.9c-0.1,0.2-0.2,0.4-0.3,0.6c-4.5,7.8-9,15.6-13.5,23.3
		C18.5,37.9,18.3,38.5,17.6,38.4z"/>
</g>
</svg>
