<?xml version="1.0" encoding="utf-8"?>
<!-- Generator: Adobe Illustrator 22.1.0, SVG Export Plug-In . SVG Version: 6.00 Build 0)  -->
<svg version="1.1" id="图层_1" xmlns="http://www.w3.org/2000/svg" xmlns:xlink="http://www.w3.org/1999/xlink" x="0px" y="0px"
	 viewBox="0 0 64 64" style="enable-background:new 0 0 64 64;" xml:space="preserve">
<style type="text/css">
	.st0{fill:#E74D89;}
	.st1{fill:#B2215A;}
</style>
<g>
	<path class="st0" d="M32,2c16.5,0,29.8,13.4,29.8,29.8S48.5,61.7,32,61.7S2.2,48.3,2.2,31.9S15.5,2,32,2L32,2L32,2z"/>
	<path class="st1" d="M32,63.8c-17.6,0-32-14.3-32-32c0-17.7,14.4-32,32-32s32,14.3,32,32S49.7,63.8,32,63.8L32,63.8L32,63.8z
		 M59,36.2c-0.9-0.3-8.4-2.5-17-1.2c3.6,9.8,5,17.8,5.3,19.4C53.4,50.4,57.8,43.8,59,36.2L59,36.2L59,36.2z M42.7,57
		c-0.4-2.4-2-10.8-5.8-20.7c0,0-0.1,0-0.2,0c-15.4,5.4-20.9,16.1-21.4,17.1c4.6,3.6,10.4,5.8,16.8,5.8C35.8,59.2,39.4,58.4,42.7,57
		L42.7,57L42.7,57z M11.7,50.1c0.6-1,8.1-13.4,22.2-18c0.4-0.1,0.7-0.2,1.1-0.3c-0.7-1.5-1.4-3.1-2.2-4.6C19.1,31.2,5.9,31.1,4.7,31
		c0,0.3,0,0.6,0,0.8C4.7,38.9,7.3,45.3,11.7,50.1L11.7,50.1L11.7,50.1z M5.3,26.3c1.2,0,12.5,0.1,25.3-3.3
		C26,14.9,21.1,8.2,20.4,7.2C12.7,10.8,7,17.8,5.3,26.3L5.3,26.3L5.3,26.3z M25.6,5.3c0.8,1,5.7,7.8,10.2,16
		c9.7-3.6,13.8-9.1,14.3-9.8C45.3,7.2,39,4.6,32,4.6C29.8,4.6,27.6,4.9,25.6,5.3L25.6,5.3L25.6,5.3z M53.2,14.6
		c-0.6,0.8-5.2,6.6-15.3,10.8c0.6,1.3,1.3,2.6,1.8,4c0.2,0.5,0.4,0.9,0.6,1.4c9.1-1.1,18.1,0.7,19,0.9C59.3,25.2,57,19.3,53.2,14.6
		L53.2,14.6L53.2,14.6z"/>
</g>
</svg>
