<?xml version="1.0" encoding="utf-8"?>
<!-- Generator: Adobe Illustrator 22.1.0, SVG Export Plug-In . SVG Version: 6.00 Build 0)  -->
<svg version="1.1" id="图层_1" xmlns="http://www.w3.org/2000/svg" xmlns:xlink="http://www.w3.org/1999/xlink" x="0px" y="0px"
	 viewBox="0 0 64 64" style="enable-background:new 0 0 64 64;" xml:space="preserve">
<style type="text/css">
	.st0{fill:#FFFFFF;}
</style>
<rect class="st0" width="64" height="64"/>
<path d="M0,64C0,42.7,0,21.3,0,0c21.3,0,42.7,0,64,0c0,21.3,0,42.7,0,64C42.7,64,21.3,64,0,64z M56.5,32.7c-0.1,0.1-0.1,0.2-0.2,0.2
	c-0.9,2.2-2.1,4.2-3.4,6.2c-0.1,0.1-0.1,0.2-0.1,0.4c0,0.4,0,0.9,0,1.3c-0.3,4.3-2,8-5.4,10.7c-2.3,1.8-4.9,2.7-7.8,2.7
	c-2.3,0-4.5-0.5-6.7-1.2c-2.4-0.8-4.6-1.9-6.6-3.4c-2.7-2-5.1-4.3-7.3-6.9c-1.6-1.8-2.9-3.8-4-5.9c-1.8-3.6-2.8-7.4-3.1-11.3
	c-0.2-3.2,0.2-6.3,1.7-9.2c1.1-2.3,2.8-4.1,5.1-5.2c3.5-1.7,7.2-1.9,10.9-1.1c1.9,0.4,3.6,1.2,5.3,2c0.8,0.4,1.7,0.8,2.7,0.8
	c2.5,0,4.9,0.2,7.3,0.9c0,0,0.1,0,0.2,0c-0.1-0.1-0.2-0.2-0.3-0.3c-0.4-0.4-0.9-0.9-1.3-1.2c-2.7-2.3-5.5-4-8.6-5.2
	c-3.6-1.4-7.3-2.3-11.3-2.3c-2.2,0-4.2,0.4-6.2,1.2c-2.3,1-4.4,2.4-6.1,4.2c-1.6,1.7-2.8,3.7-3.5,6c-1,3-1.5,6-1.3,9.1
	c0.2,2.9,0.7,5.7,1.4,8.5c1,3.4,2.4,6.5,4.4,9.4c1.3,1.8,2.8,3.5,4.4,5.2c1.7,1.8,3.4,3.6,5.4,5c2.6,1.9,5.5,3.4,8.5,4.4
	c3.3,1.2,6.8,1.7,10.3,1.6c2-0.1,3.9-0.4,5.8-1.1c3.4-1.3,5.9-3.7,7.9-6.8c2-3.2,2.8-6.7,2.8-10.4c0-2.3-0.3-4.5-0.6-6.7
	C56.7,33.9,56.6,33.4,56.5,32.7z M13.2,30.8c0.1,0,0.1-0.1,0.1-0.1c0.5-0.8,1-1.6,1.5-2.4c0.1-0.1,0-0.3,0-0.4
	c-0.4-0.6-0.5-1.2-0.1-1.9c0.1-0.1,0.1-0.3,0.1-0.4c0.1-0.1,0.2-0.3,0.3-0.3c1.5-0.8,3-1.5,4.6-2.3c3.4-1.7,6.7-3.3,10.1-5
	c2.5-1.2,4.9-2.5,7.4-3.7c0.3-0.1,0.4-0.1,0.5,0.2c0.5,0.9,1,1.7,1.4,2.6c0.1,0.2,0.3,0.3,0.5,0.3c3.6,0.4,6.9,1.7,9.6,4.2
	c1.8,1.7,2.8,3.7,2.8,6.1s-0.8,4.5-2.1,6.5c-1.4,2.2-3.2,4-5.3,5.5c-4.8,3.5-10.2,5.6-16.1,6.1c-2,0.2-4,0-5.9-0.6c0,0-0.1,0-0.2,0
	c0.1,0.1,0.1,0.1,0.2,0.2c1.3,1.4,2.8,2.5,4.3,3.7c0.3,0.3,0.7,0.3,1.1,0.3c3.3,0.1,6.6-0.2,9.8-1s6.2-2.1,8.9-4.1
	c3.6-2.7,6.3-6.1,8.2-10.1c0.7-1.5,1.4-3,1.5-4.7c0-0.8,0.1-1.7,0-2.5c-0.4-4.6-2.5-8.2-6.5-10.6c-1.8-1.1-3.7-1.8-5.7-2.3
	c-2.3-0.6-4.7-0.9-7.2-0.8c-2.4,0.1-4.9,0.5-7.2,1c-2.4,0.5-4.6,1.3-6.8,2.4c-2.8,1.3-5.3,3.1-7.5,5.4c-1,1.1-2,2.2-2.7,3.5
	c-0.2,0.3-0.2,0.6-0.2,0.9c0.1,0.6,0.2,1.1,0.3,1.7C12.9,29.1,13.1,29.9,13.2,30.8z M36.4,29.8c0-0.1-0.1-0.1-0.1-0.2
	c-0.5-1-1-2-1.5-3c-0.1-0.2-0.2-0.3-0.5-0.2c-0.9,0.4-1.8,0.9-2.7,1.3c-2.3,1.1-4.5,2.2-6.8,3.3c-0.2,0.1-0.3,0.1-0.4-0.1
	c-0.7-1.4-1.5-2.8-2.2-4.3c-0.1-0.2-0.1-0.3,0.1-0.5c2.7-1.3,5.4-2.6,8.1-3.9c2.8-1.4,5.6-2.7,8.4-4.1c0.2-0.1,0.3-0.2,0.1-0.5
	c-0.5-0.9-1-1.8-1.5-2.7c-0.1-0.2-0.2-0.3-0.5-0.2c-2.7,1.4-5.5,2.7-8.2,4.1c-4.3,2.2-8.6,4.3-13,6.5c-0.3,0.1-0.3,0.3-0.1,0.5
	c1.5,2.8,3,5.6,4.5,8.3c2,3.7,4,7.3,5.9,11c0.1,0.3,0.3,0.3,0.5,0.2c0.7-0.3,1.3-0.7,2-1c5.2-2.6,10.5-5.1,15.7-7.7
	c1.2-0.6,2.4-1.2,3.7-1.8c0.2-0.1,0.3-0.1,0.2-0.4c-0.5-1-1-2-1.6-3c-0.1-0.2-0.2-0.2-0.4-0.1c-3.8,1.9-7.5,3.8-11.3,5.7
	c-1.8,0.9-3.6,1.8-5.4,2.7c-0.2,0.1-0.3,0.2-0.4-0.1c-0.8-1.7-1.7-3.3-2.6-5c-0.1-0.2-0.1-0.3,0.1-0.4c1.7-0.8,3.5-1.7,5.2-2.5
	c1.4-0.7,2.8-1.4,4.2-2.1C36.2,30,36.3,29.9,36.4,29.8z M40.9,18.1c4.3,4,6.9,9.1,9.2,14.4c0.1-0.1,0.1-0.2,0.2-0.3
	c0.2-0.4,0.4-0.9,0.5-1.4c1-3.3,0.5-6.2-1.9-8.6c-1.8-1.8-4-2.9-6.4-3.7C41.9,18.4,41.4,18.2,40.9,18.1z M48.1,35.7
	C48.1,35.7,48.1,35.6,48.1,35.7c-6.7,3.2-13.3,6.4-19.9,9.7v0.1c0.1,0,0.1,0,0.2,0c0.8-0.1,1.7-0.2,2.5-0.4c0.6-0.1,1.2-0.1,1.7-0.4
	c3.6-1.7,7.3-3.5,10.9-5.2c0.8-0.4,1.6-0.7,2.3-1.3c0.7-0.7,1.3-1.4,2-2.1C47.9,36,48,35.8,48.1,35.7z M39.2,18.7
	c-0.1,0-0.2,0-0.2,0c-1.7,0.8-3.5,1.7-5.2,2.5c-3.5,1.7-7,3.4-10.4,5.1c-0.8,0.4-0.7,0.2-0.3,1c0.1,0.3,0.3,0.3,0.5,0.2
	c2.4-1.2,4.9-2.4,7.3-3.6c2.6-1.3,5.3-2.6,7.9-3.9c0.1-0.1,0.3-0.1,0.3-0.2C39.1,19.4,39.1,19.1,39.2,18.7z M25.6,45.3
	c-3.5-6.4-6.9-12.8-10.4-19.1h-0.1c0,0.4-0.3,0.7-0.1,1.1c1.5,2.8,3,5.6,4.5,8.4c1.6,3,3.2,6.1,4.8,9.1C24.5,45.3,25,45.4,25.6,45.3
	z M27.5,36c0.7-0.4,1.4-0.7,2.1-1.1c2-1.1,4.1-2.1,6.1-3.2c0.5-0.2,0.7-0.8,0.6-1.4c-0.1,0-0.2,0.1-0.3,0.1
	c-1.8,0.9-3.7,1.8-5.5,2.7c-1.1,0.5-2.2,1.1-3.3,1.6C27.1,34.8,27,34.9,27,35C27.2,35.4,27.4,35.7,27.5,36z M14.3,46.8
	C13.1,45.4,12,44,11,42.5s-1.8-3.1-2.5-4.8c-0.3,1.1,0.1,3.6,0.9,5C10.5,44.5,12.1,46,14.3,46.8z"/>
</svg>
