<?xml version="1.0" encoding="utf-8"?>
<!-- Generator: Adobe Illustrator 22.1.0, SVG Export Plug-In . SVG Version: 6.00 Build 0)  -->
<svg version="1.1" id="图层_1" xmlns="http://www.w3.org/2000/svg" xmlns:xlink="http://www.w3.org/1999/xlink" x="0px" y="0px"
	 viewBox="0 0 64 64" style="enable-background:new 0 0 64 64;" xml:space="preserve">
<style type="text/css">
	.st0{fill:#272D38;}
	.st1{fill:#FFFFFF;}
</style>
<path class="st0" d="M59,64H5c-2.8,0-5-2.3-5-5V5c0-2.8,2.3-5,5-5h54c2.8,0,5,2.3,5,5v54C64,61.8,61.8,64,59,64z"/>
<path class="st1" d="M6.8,28.3v2.4h4.5v2.2H6.8v4.9H3.3V26h8.4v2.3H6.8z"/>
<path class="st1" d="M19.3,28.8V31c-0.4-0.2-0.9-0.2-1.5-0.2c-1.3,0-2.2,0.5-2.2,1.7v5.3h-3.2v-8.9h2.1l0.3,1
	c0.7-0.8,1.7-1.2,3.1-1.2C18.5,28.6,19,28.7,19.3,28.8z"/>
<path class="st1" d="M28.7,34.9c-0.2,1.9-1.9,3.1-4.5,3.1c-2.7,0-4.2-1.3-4.2-3.5v-2.4c0-2.2,1.6-3.5,4.3-3.5c2.8,0,4.4,1.3,4.4,3.5
	v2h-5.6v0.4c0,0.9,0.4,1.3,1.2,1.3c0.9,0,1.1-0.3,1.3-0.9H28.7z M23.1,32.1v0.5h2.6v-0.5c0-0.9-0.4-1.3-1.3-1.3
	C23.5,30.8,23.1,31.2,23.1,32.1z"/>
<path class="st1" d="M38.4,34.9C38.2,36.9,36.6,38,34,38c-2.7,0-4.2-1.3-4.2-3.5v-2.4c0-2.2,1.6-3.5,4.3-3.5c2.8,0,4.4,1.3,4.4,3.5
	v2h-5.6v0.4c0,0.9,0.4,1.3,1.2,1.3c0.9,0,1.1-0.3,1.3-0.9H38.4z M32.8,32.1v0.5h2.6v-0.5c0-0.9-0.4-1.3-1.3-1.3
	C33.2,30.8,32.8,31.2,32.8,32.1z"/>
<path class="st1" d="M48.6,33.5v0.7c0,2.5-1.3,3.8-4.6,3.8c-2.9,0-4.4-1.3-4.6-3.5h3.2c0.1,0.8,0.4,1.2,1.4,1.2
	c1.1,0,1.4-0.5,1.4-1.6v-0.6c0-1.1-0.6-1.4-1.7-1.4h-1.6v-1.5l2.2-2.6H40V26h8.2v1.5l-2.6,3C47.5,30.7,48.6,32.1,48.6,33.5z"/>
<path class="st1" d="M50.8,26h4.6c3.4,0,5.3,1.4,5.3,3.9v3.9c0,2.5-2,4-5.3,4h-4.6V26z M55.4,35.5c1.2,0,1.9-0.6,1.9-1.7v-3.9
	c0-1.1-0.6-1.6-1.9-1.6h-1.2v7.2H55.4z"/>
</svg>
