<?xml version="1.0" encoding="utf-8"?>
<!-- Generator: Adobe Illustrator 22.1.0, SVG Export Plug-In . SVG Version: 6.00 Build 0)  -->
<svg version="1.1" id="图层_1" xmlns="http://www.w3.org/2000/svg" xmlns:xlink="http://www.w3.org/1999/xlink" x="0px" y="0px"
	 viewBox="0 0 64 64" style="enable-background:new 0 0 64 64;" xml:space="preserve">
<style type="text/css">
	.st0{fill:#FFFFFF;}
	.st1{fill:#1E4685;}
</style>
<rect class="st0" width="64" height="64"/>
<g>
	<path class="st1" d="M32.6,7.8c4.4,0,8.2,0.9,11.5,2.9c3.3,2.1,5.9,4.8,7.7,8.2s2.9,7.7,2.9,11.8c0,6.8-2.2,12.4-6.6,17.7
		s-9.9,7.7-16.6,7.7c-5.9,0-11.2-2.1-15.4-6.5S9.4,40,9.4,32.5c0-6.8,2.2-12.7,6.6-17.7C20.4,10.1,26,7.8,32.6,7.8z M43.8,32
		c0-7.1-1.1-12.7-3.3-16.2s-5.1-5.3-8.4-5.3s-6.1,1.7-8.3,5.6c-2.2,3.6-3.3,9.2-3.3,16.2c0,6.8,1.1,12.1,3.1,15.9
		c2,3.8,4.8,5.6,8.6,5.6c3.1,0,5.9-1.7,8.2-5C42.7,45.3,43.8,39.7,43.8,32z"/>
</g>
</svg>
