<?xml version="1.0" encoding="utf-8"?>
<!-- Generator: Adobe Illustrator 22.1.0, SVG Export Plug-In . SVG Version: 6.00 Build 0)  -->
<svg version="1.1" id="图层_1" xmlns="http://www.w3.org/2000/svg" xmlns:xlink="http://www.w3.org/1999/xlink" x="0px" y="0px"
	 viewBox="0 0 64 64" style="enable-background:new 0 0 64 64;" xml:space="preserve">
<style type="text/css">
	.st0{fill:#FDFEFE;}
	.st1{fill:#2FBAD2;}
	.st2{fill:#024265;}
</style>
<g>
	<path class="st0" d="M62.4,31.2v19.1c0-1.3,0-2.6,0-4C62.4,41.2,62.4,36.2,62.4,31.2z M20.3,18.8c10.1,0,20.2,0,30.2,0
		c2.8,0,5.6,1.3,7.7,3.2c0,0-11.2-11.3-11.7-11.6c-2-1.4-4.3-2.1-6.8-2.1c-9.7,0-19.4,0-29.1,0c-1.1,0-1.5,0.2-1.5,1.4
		c0.1,10.6,0.1,21.2,0,31.8c0,2.2,0.9,4.1,1.7,6.1c0.1,0.3,10.9,11.1,10.9,11.1c-0.1-0.2-0.3-0.4-0.4-0.6c-1.6-2.3-2.3-4.9-2.2-7.8
		c0-1.7,0-3.4,0-5.1c0-0.7,0.2-0.9,0.9-0.9c4.9,0,9.8,0,14.7,0c0.8,0,1,0.3,1,1c0,1.7,0,3.5,0,5.2c0,0.8,0.2,1.1,0.9,0.6
		c6.4-3.9,12.9-7.7,19.3-11.5c1-0.6,0.3-0.9-0.2-1.2c-5.3-3.3-10.7-6.7-16-10c-0.9-0.6-1.8-1.2-2.8-1.7c-0.4-0.2-0.7-0.7-1.1-0.4
		c-0.3,0.2-0.2,0.7-0.2,1.1c0,1.8,0,3.6,0,5.3c0,0.8-0.2,1.1-1,1.1c-4.9,0-9.7,0-14.6,0c-0.8,0-0.9-0.3-0.9-1c0-4.3,0-8.5,0-12.8
		C19.2,19.1,19.4,18.8,20.3,18.8z"/>
	<path class="st1" d="M62.4,62.2c0,0.9-0.1,1.3-1.2,1.3c-10.5,0-20.9,0.1-31.4-0.1c-3.4-0.1-6.1-1.9-8-4.7h0
		c-0.1-0.2-0.3-0.4-0.4-0.6c-1.6-2.3-2.3-4.9-2.2-7.8c0-1.7,0-3.4,0-5.1c0-0.7,0.2-0.9,0.9-0.9c4.9,0,9.8,0,14.7,0c0.8,0,1,0.3,1,1
		c0,1.7,0,3.5,0,5.2c0,0.8,0.2,1.1,0.9,0.6c6.4-3.9,12.9-7.7,19.3-11.5c1-0.6,0.3-0.9-0.2-1.2c-5.3-3.3-10.7-6.7-16-10
		c-0.9-0.6-1.8-1.2-2.8-1.7c-0.4-0.2-0.7-0.7-1.1-0.4c-0.3,0.2-0.2,0.7-0.2,1.1c0,1.8,0,3.6,0,5.3c0,0.8-0.2,1.1-1,1.1
		c-4.9,0-9.7,0-14.6,0c-0.8,0-0.9-0.3-0.9-1c0-4.3,0-8.5,0-12.8c0-0.9,0.3-1.1,1.1-1.1c10.1,0,20.2,0,30.2,0c2.8,0,5.6,1.3,7.7,3.2
		c0.6,0.6,1.2,1.2,1.7,1.8c1.5,2,2.5,4.5,2.5,7v0.3c0,5,0,10.1,0,15.1c0,1.3,0,2.6,0,4C62.4,54.2,62.4,58.2,62.4,62.2z"/>
	<path class="st2" d="M46.5,10.5c-2-1.4-4.3-2.1-6.8-2.1c-9.7,0-19.4,0-29.1,0c-1.1,0-1.5,0.2-1.5,1.4c0.1,10.6,0.1,21.2,0,31.8
		c0,2.2,0.9,4.1,1.7,6.1c0.1,0.3-5.5-4.1-7.4-7.4c-1.2-2-1.8-4-1.8-6.4C1.7,23.2,1.7,12.6,1.6,2c0-1.2,0.4-1.4,1.5-1.4
		c9.9,0,19.8,0.1,29.7,0c3.4,0,6.2,1.1,8.6,3.3C43.8,5.8,47,10.8,46.5,10.5z"/>
	<path class="st0" d="M53.6,10.4"/>
</g>
</svg>
