<?xml version="1.0" encoding="utf-8"?>
<!-- Generator: Adobe Illustrator 22.1.0, SVG Export Plug-In . SVG Version: 6.00 Build 0)  -->
<svg version="1.1" id="图层_1" xmlns="http://www.w3.org/2000/svg" xmlns:xlink="http://www.w3.org/1999/xlink" x="0px" y="0px"
	 viewBox="0 0 64 64" style="enable-background:new 0 0 64 64;" xml:space="preserve">
<style type="text/css">
	.st0{fill:#A81E21;}
	.st1{fill:#FFFFFF;}
</style>
<rect class="st0" width="64" height="64"/>
<polygon class="st1" points="9.2,64 0,64 0,24.1 "/>
<path class="st1" d="M6.1,0C4,0.5,1.7,1.3,0,2.5V0H6.1z"/>
<path class="st1" d="M62.2,32.9C62,33.3,62,33.6,62.3,34c0.6,0.8,1.2,1.5,1.7,2.3v16.1c-1.2,0.3-2.5,0.5-3.7,0.8
	c-0.6,0.2-1,0-1.3-0.5c-1.5-2.8-3-5.5-4.6-8.2c-0.1-0.1-0.1-0.2-0.2-0.4c-0.1,0.3-0.2,0.5-0.3,0.8c-1.3,3.4-2.6,6.7-3.8,10.1
	c-0.1,0.3-0.3,0.6-0.7,0.7c-4.6,1-9.3,2-13.9,3c-0.1,0-0.2,0-0.5,0c0.2-0.3,0.3-0.6,0.4-0.8c3.5-6.8,7-13.6,10.5-20.4
	c0.2-0.5,0.2-0.8-0.1-1.1c-3.7-4.6-7.4-9.3-11-13.9c-0.1-0.2-0.3-0.4-0.5-0.6c0.3-0.1,0.5-0.1,0.7-0.2c4.5-1,9-2,13.5-3
	c0.5-0.1,0.8,0,1.1,0.5c1.3,2.3,2.6,4.6,3.9,6.9c0.1,0.2,0.2,0.3,0.4,0.6c0.1-0.3,0.3-0.6,0.3-0.8c1.2-2.9,2.3-5.8,3.5-8.7
	c0.1-0.3,0.4-0.6,0.7-0.6c1.9-0.4,3.8-0.8,5.7-1.3v14.1C63.4,30.6,62.8,31.8,62.2,32.9z"/>
<path class="st1" d="M27.5,20.2c-0.1,1,0,2,0,3.1l5.6-1.2c0.1,1,0.1,1.9,0.2,2.8c0.1,1.7,0.1,3.4,0.2,5.1c0,0.5-0.1,0.6-0.5,0.7
	c-1.5,0.3-3,0.7-4.5,1c-0.5,0.1-0.6,0.3-0.5,0.7c0.4,8.9,0.9,17.9,1.3,26.8c0,0.2,0,0.5,0,0.8l-13.4,2.9c-0.5-9.4-0.9-18.7-1.4-28.2
	l-4.4,1c-0.1-1.4-0.1-2.6-0.2-3.9c-0.1-1.3-0.1-2.6-0.2-3.8c0-0.5,0.1-0.8,0.7-0.9c1.1-0.2,2.2-0.5,3.2-0.7c0.4-0.1,0.6-0.2,0.5-0.7
	c-0.1-2.4,0-4.7,0.4-7.1c0.9-4.8,3.8-7.9,8.4-9.3c2.9-0.8,5.9-1.5,8.8-2.2c0.1,0,0.3,0,0.6-0.1c0.1,3,0.3,6.1,0.4,9.1
	c-0.9,0.3-1.8,0.5-2.7,0.8C28.5,17.5,27.6,18.6,27.5,20.2z"/>
</svg>
