<?xml version="1.0" encoding="utf-8"?>
<!-- Generator: Adobe Illustrator 22.1.0, SVG Export Plug-In . SVG Version: 6.00 Build 0)  -->
<svg version="1.1" id="图层_1" xmlns="http://www.w3.org/2000/svg" xmlns:xlink="http://www.w3.org/1999/xlink" x="0px" y="0px"
	 viewBox="0 0 64 64" style="enable-background:new 0 0 64 64;" xml:space="preserve">
<style type="text/css">
	.st0{fill:#999999;}
</style>
<g>
	<path class="st0" d="M12.3,28l-0.9,0.9c-0.7-0.7-1.4-1.2-2.2-1.5c-0.8-0.3-1.6-0.5-2.4-0.5c-1,0-1.9,0.2-2.7,0.7s-1.5,1.1-2,1.9
		c-0.5,0.8-0.7,1.7-0.7,2.5c0,0.9,0.2,1.8,0.7,2.6s1.2,1.5,2,1.9c0.9,0.5,1.8,0.7,2.9,0.7c1.3,0,2.3-0.4,3.2-1.1
		c0.9-0.7,1.4-1.6,1.5-2.8H7.7v-1.2H13c0,1.9-0.6,3.4-1.7,4.5s-2.6,1.7-4.4,1.7c-2.3,0-4-0.8-5.4-2.3C0.5,34.9,0,33.5,0,32
		c0-1.2,0.3-2.2,0.9-3.2c0.6-1,1.4-1.8,2.4-2.3c1-0.6,2.2-0.8,3.4-0.8c1,0,2,0.2,2.9,0.6C10.5,26.5,11.4,27.1,12.3,28z"/>
	<path class="st0" d="M15.1,25.6h1.2v5.1c0.5-0.6,1-1.1,1.5-1.4c0.6-0.3,1.2-0.5,1.8-0.5c0.7,0,1.3,0.2,1.8,0.5s0.9,0.8,1.2,1.4
		s0.4,1.5,0.4,2.7v4.6h-1.2v-4.3c0-1,0-1.7-0.1-2.1c-0.1-0.6-0.4-1-0.8-1.3c-0.4-0.3-0.9-0.5-1.5-0.5c-0.7,0-1.3,0.2-1.9,0.7
		c-0.6,0.5-0.9,1-1.1,1.7c-0.1,0.4-0.2,1.3-0.2,2.5v3.3h-1.2V25.6z"/>
	<path class="st0" d="M29.7,28.8c1.4,0,2.5,0.5,3.5,1.5c0.8,0.9,1.2,2,1.2,3.3c0,1.3-0.4,2.4-1.3,3.3s-2,1.4-3.4,1.4
		c-1.4,0-2.5-0.5-3.4-1.4c-0.9-0.9-1.3-2-1.3-3.3c0-1.2,0.4-2.3,1.2-3.2C27.2,29.4,28.4,28.8,29.7,28.8z M29.7,30
		c-1,0-1.8,0.4-2.5,1.1s-1,1.6-1,2.6c0,0.7,0.2,1.3,0.5,1.8c0.3,0.6,0.7,1,1.3,1.3c0.5,0.3,1.1,0.5,1.8,0.5c0.6,0,1.2-0.2,1.8-0.5
		c0.5-0.3,1-0.7,1.3-1.3s0.5-1.2,0.5-1.8c0-1-0.3-1.9-1-2.6C31.5,30.3,30.7,30,29.7,30z"/>
	<path class="st0" d="M41.1,30.1l-0.7,0.8c-0.6-0.6-1.2-0.9-1.8-0.9c-0.4,0-0.7,0.1-1,0.4c-0.3,0.2-0.4,0.5-0.4,0.9
		c0,0.3,0.1,0.6,0.3,0.8c0.2,0.3,0.7,0.6,1.4,1c0.9,0.4,1.5,0.9,1.8,1.3c0.3,0.4,0.5,0.9,0.5,1.4c0,0.7-0.3,1.4-0.8,1.9
		c-0.5,0.5-1.2,0.8-2,0.8c-0.5,0-1-0.1-1.5-0.3s-0.9-0.5-1.2-0.9l0.7-0.8c0.6,0.7,1.2,1,1.9,1c0.5,0,0.9-0.1,1.2-0.4
		c0.3-0.3,0.5-0.6,0.5-1.1c0-0.3-0.1-0.6-0.3-0.9c-0.2-0.3-0.7-0.6-1.5-1c-0.8-0.4-1.4-0.8-1.7-1.2c-0.3-0.4-0.4-0.9-0.4-1.4
		c0-0.7,0.2-1.3,0.7-1.7c0.5-0.5,1.1-0.7,1.8-0.7C39.4,28.8,40.3,29.3,41.1,30.1z"/>
	<polygon class="st0" points="45.3,30.1 45.3,37.2 46.9,37.2 46.9,38.1 44.2,38.1 44.2,30.1 42.6,30.1 42.6,29.1 44.2,29.1 
		44.2,25.7 45.3,25.7 45.3,29.1 47.2,29.1 47.2,30.1 	"/>
	<path class="st0" d="M47.9,29.1h1.4l2.4,3.3l2.4-3.3h1.4l-3.1,4.3l3.5,4.8h-1.4l-2.7-3.8L49,38.1h-1.4l3.4-4.7L47.9,29.1z"/>
	<path class="st0" d="M56.1,29.1h1.4l2.4,3.3l2.4-3.3h1.4l-3.1,4.3l3.5,4.8h-1.4l-2.7-3.8l-2.7,3.8h-1.4l3.4-4.7L56.1,29.1z"/>
</g>
</svg>
