<?xml version="1.0" encoding="utf-8"?>
<!-- Generator: Adobe Illustrator 22.1.0, SVG Export Plug-In . SVG Version: 6.00 Build 0)  -->
<svg version="1.1" id="图层_1" xmlns="http://www.w3.org/2000/svg" xmlns:xlink="http://www.w3.org/1999/xlink" x="0px" y="0px"
	 viewBox="0 0 64 64" style="enable-background:new 0 0 64 64;" xml:space="preserve">
<style type="text/css">
	.st0{fill:url(#path6490_1_);}
	.st1{fill:url(#path4323_1_);stroke:#2D3436;stroke-width:1;stroke-miterlimit:10;}
	.st2{fill:url(#path6480_1_);}
	.st3{opacity:0.1854;fill:none;stroke:url(#path8520_1_);stroke-width:1;stroke-miterlimit:10;enable-background:new    ;}
	.st4{fill:url(#path4357_1_);stroke:#888A85;stroke-width:0.7826;stroke-miterlimit:10;}
	.st5{fill:url(#path5198_1_);stroke:#040000;stroke-width:1;stroke-miterlimit:10;}
	.st6{fill:#2D3436;stroke:#040000;stroke-width:1.1739;stroke-miterlimit:10;}
	.st7{opacity:0.2809;fill:none;stroke:url(#path6450_1_);stroke-width:1;stroke-miterlimit:10;enable-background:new    ;}
	.st8{fill:#FFFFFF;}
	.st9{fill:url(#path6462_1_);stroke:#888A85;stroke-width:0.6667;stroke-miterlimit:10;}
	.st10{fill:#2D3436;stroke:#040000;stroke-width:1;stroke-miterlimit:10;}
	.st11{fill:url(#path6937_1_);stroke:#653A1B;stroke-width:2.4605;stroke-linecap:round;}
	.st12{fill:url(#path6935_1_);stroke:#888A85;stroke-width:2.4605;stroke-linecap:round;}
	.st13{fill:none;stroke:#FFFFFF;stroke-width:2.4605;stroke-linecap:round;stroke-linejoin:round;}
	.st14{fill:url(#path6933_1_);}
	.st15{opacity:0.5278;fill:#FFFFFF;enable-background:new    ;}
	.st16{opacity:0.4278;fill:url(#path1571_1_);enable-background:new    ;}
	.st17{fill:url(#path8532_1_);}
</style>
<g id="layer1">
	
		<radialGradient id="path6490_1_" cx="30.8903" cy="11.2338" r="24.99" gradientTransform="matrix(1 0 0 -0.4349 0.125 46.4476)" gradientUnits="userSpaceOnUse">
		<stop  offset="0" style="stop-color:#040000"/>
		<stop  offset="1" style="stop-color:#040000;stop-opacity:0"/>
	</radialGradient>
	<path id="path6490" class="st0" d="M56,41.6c0,6-11.2,10.9-25,10.9S6,47.6,6,41.6s11.2-10.9,25-10.9S56,35.6,56,41.6z"/>
	
		<radialGradient id="path4323_1_" cx="22.0763" cy="38.7939" r="26.3308" gradientTransform="matrix(1.7728 0 0 -1.2967 -17.1132 78.6682)" gradientUnits="userSpaceOnUse">
		<stop  offset="0" style="stop-color:#847B63"/>
		<stop  offset="1" style="stop-color:#211E18"/>
	</radialGradient>
	<path id="path4323" class="st1" d="M13.6,14.9c0,0,3.9,8.1,13.1,7.9c19.3-0.5,22.7-10.6,23.2-12s1.2-1.2,1.4,0.1
		C57.6,68,7.6,43.5,5.8,33.8c9.9-2.9,7.5-8.5,7.5-8.5L13.6,14.9z"/>
	
		<linearGradient id="path6480_1_" gradientUnits="userSpaceOnUse" x1="42.5115" y1="28.172" x2="27.2616" y2="25.1462" gradientTransform="matrix(1 0 0 -1 -3.8365 66.346)">
		<stop  offset="0" style="stop-color:#040000"/>
		<stop  offset="1" style="stop-color:#040000;stop-opacity:0"/>
	</linearGradient>
	<path id="path6480" class="st2" d="M20.9,39c9.2,1.8,13.9,0.1,16.7-2c-0.7-0.9-2-2-2-2s3.2,0.9,4.4,2.4c1.1,1.5,0.4,2.4,0.1,4.2
		c-0.7-1.6-1.9-2.3-2.1-2.9C35.6,42.1,29.4,42,20.9,39z"/>
	
		<linearGradient id="path8520_1_" gradientUnits="userSpaceOnUse" x1="25.2265" y1="46.3235" x2="58.2873" y2="8.7939" gradientTransform="matrix(1 0 0 -1 0 66)">
		<stop  offset="0" style="stop-color:#FFFFFF"/>
		<stop  offset="1" style="stop-color:#FFFFFF;stop-opacity:0"/>
	</linearGradient>
	<path id="path8520" class="st3" d="M50,14c-0.8,1.3-1.9,2.8-3.7,4.2c-3.6,3-9.7,5.7-19.6,5.9c-5.8,0.1-9.5-2.6-11.8-5.1l-0.2,6.1
		c0.2,0.6,0.6,1.9-0.1,3.7c-0.7,2-3,4-6.8,5.5c0.3,0.7,0.7,1.4,1.7,2.4c1.4,1.4,3.4,2.9,5.7,4.2c4.7,2.7,10.7,4.8,16.3,4.9
		c5.6,0.1,10.8-1.7,14.3-6.8C49.1,34.3,50.9,26.3,50,14z"/>
	
		<radialGradient id="path4357_1_" cx="72.4849" cy="43.2213" r="4.8136" gradientTransform="matrix(1.6847 0 0 -1.6847 -104.084 96.0245)" gradientUnits="userSpaceOnUse">
		<stop  offset="0" style="stop-color:#FFFFFF"/>
		<stop  offset="1" style="stop-color:#B8B8AF"/>
	</radialGradient>
	<path id="path4357" class="st4" d="M23.6,27.1c0,3.1-2.5,5.6-5.6,5.6s-5.6-2.5-5.6-5.6s2.5-5.6,5.6-5.6S23.6,24.1,23.6,27.1z"/>
	
		<radialGradient id="path5198_1_" cx="4.0685" cy="35.3387" r="6.6152" gradientTransform="matrix(0.7975 -0.4604 -0.5374 -0.9308 21.2228 64.551)" gradientUnits="userSpaceOnUse">
		<stop  offset="0" style="stop-color:#5B676B"/>
		<stop  offset="1" style="stop-color:#141718"/>
	</radialGradient>
	<path id="path5198" class="st5" d="M12.5,29.2c2.7,3.7,2.7,8.3,0.1,10.2c-2.7,1.9-7,0.4-9.7-3.3c0,0,0,0,0,0
		c-2.7-3.7-2.7-8.3-0.1-10.2S9.8,25.5,12.5,29.2C12.5,29.2,12.5,29.2,12.5,29.2z"/>
	<path id="path4359" class="st6" d="M22,28c0,1.5-1.2,2.7-2.7,2.7c-1.5,0-2.7-1.2-2.7-2.7c0-1.5,1.2-2.7,2.7-2.7
		C20.8,25.3,22,26.5,22,28z"/>
	
		<linearGradient id="path6450_1_" gradientUnits="userSpaceOnUse" x1="4.0098" y1="37.6264" x2="3.5815" y2="26.6603" gradientTransform="matrix(0.8004 -0.5995 -0.5995 -0.8004 23.8915 60.9526)">
		<stop  offset="0" style="stop-color:#FFFFFF"/>
		<stop  offset="1" style="stop-color:#FFFFFF;stop-opacity:0"/>
	</linearGradient>
	<path id="path6450" class="st7" d="M3.3,27.1C2.4,27.8,2,28.9,2,30.4c0,1.5,0.6,3.3,1.9,5c1.2,1.6,2.8,2.7,4.3,3.2
		c1.4,0.5,2.6,0.3,3.5-0.3c0.9-0.7,1.3-1.8,1.3-3.3c0-1.5-0.6-3.3-1.8-4.9s-2.8-2.7-4.2-3.1S4.2,26.5,3.3,27.1z"/>
	<path id="path6446" class="st8" d="M7.3,29.7c0,1.6-1.1,2.9-2.4,2.9c-1.3,0-2.4-1.3-2.4-2.9c0,0,0,0,0,0c0-1.6,1.1-2.9,2.4-2.9
		C6.3,26.8,7.3,28.1,7.3,29.7C7.3,29.7,7.3,29.7,7.3,29.7z"/>
	<path id="path4361" class="st8" d="M20.2,26.7c0,1-0.8,1.9-1.9,1.9c-1,0-1.9-0.8-1.9-1.9c0,0,0,0,0,0c0-1,0.8-1.9,1.9-1.9
		C19.3,24.9,20.2,25.7,20.2,26.7C20.2,26.7,20.2,26.7,20.2,26.7z"/>
	
		<radialGradient id="path6462_1_" cx="73.7549" cy="43.5548" r="4.8136" gradientTransform="matrix(1.9777 0 0 -1.9777 -116.3355 109.2715)" gradientUnits="userSpaceOnUse">
		<stop  offset="0" style="stop-color:#FFFFFF"/>
		<stop  offset="1" style="stop-color:#B8B8AF"/>
	</radialGradient>
	<path id="path6462" class="st9" d="M36.1,27.7c0,3.6-2.9,6.5-6.5,6.5S23,31.3,23,27.7s2.9-6.5,6.5-6.5S36.1,24.1,36.1,27.7z"/>
	<path id="path6464" class="st10" d="M34.2,28.7c0,1.7-1.4,3.1-3.1,3.1s-3.1-1.4-3.1-3.1c0-1.7,1.4-3.1,3.1-3.1S34.2,27,34.2,28.7z"
		/>
	<path id="path6466" class="st8" d="M32,27.2c0,1.2-1,2.2-2.2,2.2c-1.2,0-2.2-1-2.2-2.2c0,0,0,0,0,0c0-1.2,1-2.2,2.2-2.2
		C31.1,25.1,32,26,32,27.2C32,27.2,32,27.2,32,27.2z"/>
	<g id="g8463" transform="matrix(-0.114852,-0.389864,0.389864,-0.114852,24.71507,29.68942)">
		
			<linearGradient id="path6937_1_" gradientUnits="userSpaceOnUse" x1="4.3603" y1="-25.2468" x2="-8.3247" y2="-36.2799" gradientTransform="matrix(-0.1149 0.3899 0.3899 0.1149 -28.6453 38.8532)">
			<stop  offset="0" style="stop-color:#6B3E1D"/>
			<stop  offset="0.2424" style="stop-color:#E07E1D"/>
			<stop  offset="0.6212" style="stop-color:#5B3317"/>
			<stop  offset="1" style="stop-color:#D87A19"/>
		</linearGradient>
		<path id="path6937" class="st11" d="M-58.6,46.2l5.1,4.8c11.4-8.7,23.4-27.5,23.4-27.5c2.7-3.1-0.2-5.1-3-3.3
			C-33.1,20.1-50.9,34-58.6,46.2z"/>
		
			<linearGradient id="path6935_1_" gradientUnits="userSpaceOnUse" x1="64.1292" y1="-75.8252" x2="69.2156" y2="-71.1182" gradientTransform="matrix(-0.1149 0.3899 0.3899 0.1149 -25.7473 35.1726)">
			<stop  offset="0" style="stop-color:#BDBDBD"/>
			<stop  offset="0.3333" style="stop-color:#E3E2E2"/>
			<stop  offset="0.6667" style="stop-color:#A4A4A3"/>
			<stop  offset="1" style="stop-color:#DDDDDD"/>
		</linearGradient>
		<path id="path6935" class="st12" d="M-68.3,58.8l3.1,2.6l11.6-10.1l0.4-1l1.5,0c-0.6-2.1-4-6-6.6-6l0.1,1.5l-0.9,0.5L-68.3,58.8z"
			/>
		<path id="path6985" class="st13" d="M-59.2,52.8l-6,7.2"/>
		
			<radialGradient id="path6933_1_" cx="58.8958" cy="-61.1668" r="10.3782" gradientTransform="matrix(-0.1806 0.5975 0.6131 0.176 -21.1257 34.425)" gradientUnits="userSpaceOnUse">
			<stop  offset="0" style="stop-color:#696A6A"/>
			<stop  offset="1" style="stop-color:#040000"/>
		</radialGradient>
		<path id="path6933" class="st14" d="M-88.7,72.5c14.3,0,25.2,1.7,27.2-8.7c1.7-8.4-9.9-12.4-15.6-4.9
			C-82.6,66.1-88.7,72.5-88.7,72.5z"/>
		<path id="path6971" class="st15" d="M-62.8,64.1c0,2-1.6,3.5-3.5,3.5s-3.5-1.6-3.5-3.5c0-2,1.6-3.5,3.5-3.5S-62.8,62.1-62.8,64.1z
			"/>
		<path id="path6983" class="st8" d="M-53.6,50.7c0,1.3-1.1,2.4-2.4,2.4c-1.3,0-2.4-1.1-2.4-2.4s1.1-2.4,2.4-2.4
			C-54.6,48.3-53.6,49.3-53.6,50.7z"/>
		
			<linearGradient id="path1571_1_" gradientUnits="userSpaceOnUse" x1="138.4112" y1="-42.8505" x2="130.9018" y2="-36.6476" gradientTransform="matrix(-0.2408 0.249 0.249 0.2408 -25.0118 44.2336)">
			<stop  offset="0" style="stop-color:#FFFFFF"/>
			<stop  offset="1" style="stop-color:#FFFFFF;stop-opacity:0"/>
		</linearGradient>
		<path id="path1571" class="st16" d="M-79.4,69.9c0,0,5.1,0.1,8.4-1.9c1.2-0.7,2.1,0.9,0.7,1.5C-73.4,70.8-79.4,69.9-79.4,69.9z"/>
	</g>
	
		<linearGradient id="path8532_1_" gradientUnits="userSpaceOnUse" x1="35.0751" y1="26.7632" x2="32.5637" y2="26.1581" gradientTransform="matrix(1 0 0 -1 0 66)">
		<stop  offset="0" style="stop-color:#040000"/>
		<stop  offset="1" style="stop-color:#040000;stop-opacity:0"/>
	</linearGradient>
	<path id="path8532" class="st17" d="M30.8,41.3c2.1,0.2,3.9-0.4,4.7-0.6c0.1-0.8,0.7-2.2,2.8-2.3l-0.7-1.3c0,0-2.7,1.8-5.6,2.4
		L30.8,41.3z"/>
</g>
</svg>
