<?xml version="1.0" encoding="utf-8"?>
<!-- Generator: Adobe Illustrator 22.1.0, SVG Export Plug-In . SVG Version: 6.00 Build 0)  -->
<svg version="1.1" id="图层_1" xmlns="http://www.w3.org/2000/svg" xmlns:xlink="http://www.w3.org/1999/xlink" x="0px" y="0px"
	 viewBox="0 0 64 64" style="enable-background:new 0 0 64 64;" xml:space="preserve">
<style type="text/css">
	.st0{fill:#FFFFFF;}
	.st1{fill:#4886B4;}
	.st2{fill:#414042;}
</style>
<g>
	<path class="st0" d="M59.5,42.7c0,0-0.1-0.6-0.1-0.6l-10.2,1c-0.8,0.1-1.4,0.7-1.5,1.5l-0.3,4l-7.9,0.6L39,45.6
		c-0.1-0.8-0.8-1.4-1.6-1.4H26.6c-0.8,0-1.5,0.6-1.6,1.4l-0.5,3.6l-7.9-0.6l-0.3-4c-0.1-0.8-0.7-1.5-1.5-1.5l-10.2-1
		c-0.1,0-0.1,0.6-0.1,0.6l0,2.2l8.6,1.4l0.3,4c0.1,0.8,0.7,1.5,1.5,1.5l10.8,0.8c0,0,0.1,0,0.1,0c0.8,0,1.5-0.6,1.6-1.4l0.6-3.7h7.9
		l0.6,3.7c0.1,0.8,0.8,1.4,1.6,1.4c0,0,0.1,0,0.1,0l10.8-0.8c0.8-0.1,1.5-0.7,1.5-1.5l0.3-4l8.6-1.4L59.5,42.7z"/>
	<path class="st1" d="M25.6,2.5c-2.9,0.6-5.7,1.5-8.3,2.9c0.1,2.3,0.2,4.6,0.5,6.9c-1,0.7-2.1,1.2-3.1,2c-1,0.8-2,1.5-2.9,2.4
		c-1.8-1.2-3.6-2.3-5.6-3.2c-2.1,2.2-4,4.7-5.6,7.4c1.2,1.9,2.4,3.7,3.8,5.5h0v16.6c0,0,0.1,0,0.1,0l10.2,1c0.5,0.1,1,0.5,1,1
		l0.3,4.5l8.9,0.6l0.6-4.1c0.1-0.5,0.5-0.9,1.1-0.9h10.7c0.5,0,1,0.4,1.1,0.9l0.6,4.1l8.9-0.6l0.3-4.5c0-0.5,0.5-1,1-1l10.2-1
		c0,0,0.1,0,0.1,0v-1.3l0,0V26.1h0c1.3-1.7,2.6-3.5,3.8-5.5c-1.6-2.7-3.5-5.1-5.6-7.4c-1.9,1-3.8,2.1-5.6,3.2
		c-0.9-0.9-1.9-1.6-2.9-2.4c-1-0.8-2-1.3-3.1-2c0.3-2.3,0.5-4.5,0.5-6.9c-2.7-1.3-5.5-2.2-8.4-2.9c-1.1,1.9-2.2,4-3.1,6
		c-1.1-0.2-2.2-0.2-3.3-0.3v0c0,0,0,0,0,0c0,0,0,0,0,0v0c-1.1,0-2.2,0.1-3.3,0.3C27.8,6.5,26.8,4.4,25.6,2.5L25.6,2.5z M4.5,44.9
		c0,1,0,2.1,0,2.3c0,9.7,12.3,14.3,27.5,14.4h0c15.2-0.1,27.5-4.7,27.5-14.4c0-0.2,0-1.3,0-2.3l-9.1,0.9l-0.3,4.5c0,0.5-0.5,1-1,1
		l-10.8,0.8c0,0-0.1,0-0.1,0c-0.5,0-1-0.4-1.1-0.9L36.4,47h-8.8L27,51.2c-0.1,0.6-0.6,1-1.2,0.9L15,51.3c-0.5,0-1-0.5-1-1l-0.3-4.5
		L4.5,44.9L4.5,44.9z"/>
	<path class="st0" d="M17.6,26.7c-3.4,0-6.1,2.7-6.1,6.1c0,3.4,2.7,6.1,6.1,6.1c3.4,0,6.1-2.7,6.1-6.1C23.7,29.5,21,26.7,17.6,26.7z
		 M46.4,26.7c-3.4,0-6.1,2.7-6.1,6.1c0,3.4,2.7,6.1,6.1,6.1c3.4,0,6.1-2.7,6.1-6.1C52.6,29.5,49.8,26.7,46.4,26.7z M32,30.3
		c-1.1,0-2,0.8-2,1.8v5.6c0,1,0.9,1.8,2,1.8s2-0.8,2-1.8v-5.6C34,31.1,33.1,30.3,32,30.3z"/>
	<path class="st2" d="M18.2,29.2c-2.2,0-4.1,1.8-4.1,4.1s1.8,4.1,4.1,4.1c2.2,0,4.1-1.8,4.1-4.1S20.4,29.2,18.2,29.2z M45.8,29.2
		c-2.2,0-4.1,1.8-4.1,4.1s1.8,4.1,4.1,4.1c2.2,0,4.1-1.8,4.1-4.1S48.1,29.2,45.8,29.2L45.8,29.2z"/>
</g>
</svg>
