<?xml version="1.0" encoding="utf-8"?>
<!-- Generator: Adobe Illustrator 22.1.0, SVG Export Plug-In . SVG Version: 6.00 Build 0)  -->
<svg version="1.1" id="图层_1" xmlns="http://www.w3.org/2000/svg" xmlns:xlink="http://www.w3.org/1999/xlink" x="0px" y="0px"
	 viewBox="0 0 64 64" style="enable-background:new 0 0 64 64;" xml:space="preserve">
<style type="text/css">
	.st0{fill:#FFFFFF;}
	.st1{fill:#FB4935;}
</style>
<path d="M59,64H5c-2.8,0-5-2.3-5-5L0,5c0-2.8,2.3-5,5-5l54,0c2.8,0,5,2.3,5,5v54C64,61.8,61.8,64,59,64z"/>
<path class="st0" d="M10.8,31.3H8.9v-0.8h2.9v3.6c-0.1,0-0.2,0.1-0.4,0.1c-0.2,0-0.4,0.1-0.6,0.1c-0.2,0-0.4,0.1-0.7,0.1
	c-0.2,0-0.5,0-0.7,0c-0.7,0-1.3-0.1-1.9-0.3c-0.5-0.2-1-0.4-1.4-0.7c-0.4-0.3-0.6-0.7-0.8-1.2c-0.2-0.5-0.3-1-0.3-1.5
	c0-0.6,0.1-1.2,0.3-1.7c0.2-0.5,0.5-0.9,0.9-1.3c0.4-0.4,0.9-0.6,1.4-0.8c0.6-0.2,1.2-0.3,1.8-0.3c0.2,0,0.4,0,0.5,0
	c0.2,0,0.4,0,0.5,0.1c0.2,0,0.3,0.1,0.5,0.1c0.1,0,0.3,0.1,0.4,0.1v0.8c-0.2-0.1-0.5-0.1-0.8-0.2s-0.6-0.1-1-0.1
	c-0.5,0-0.9,0.1-1.3,0.2c-0.4,0.1-0.8,0.3-1.1,0.6c-0.3,0.3-0.6,0.6-0.8,1c-0.2,0.4-0.3,0.9-0.3,1.4c0,0.5,0.1,1,0.2,1.3
	c0.2,0.4,0.4,0.7,0.7,0.9c0.3,0.2,0.6,0.4,1.1,0.5c0.4,0.1,0.9,0.2,1.4,0.2c0.2,0,0.5,0,0.7,0c0.2,0,0.4-0.1,0.6-0.1V31.3z"/>
<path class="st0" d="M14.4,31.4v3.1h-1.1V27h2.4c0.4,0,0.7,0,1,0c0.3,0,0.5,0.1,0.8,0.1c0.6,0.1,1.1,0.4,1.5,0.7
	c0.3,0.3,0.5,0.8,0.5,1.3c0,0.3-0.1,0.6-0.2,0.8c-0.1,0.2-0.3,0.4-0.5,0.6c-0.2,0.2-0.5,0.3-0.8,0.4c-0.3,0.1-0.6,0.2-1,0.2v0
	l2.7,3.2h-1.1l-2.8-3.1H14.4z M14.4,27.9v2.7h1.1c0.3,0,0.6,0,0.9,0c0.2,0,0.5-0.1,0.7-0.1c0.4-0.1,0.7-0.3,0.9-0.5
	c0.2-0.2,0.3-0.5,0.3-0.8c0-0.3-0.1-0.6-0.3-0.8c-0.2-0.2-0.5-0.3-0.8-0.4c-0.2,0-0.4-0.1-0.6-0.1c-0.2,0-0.5,0-0.9,0H14.4z"/>
<path class="st0" d="M20.7,34.5l3.3-7.5h0.9l3.3,7.5h-1.1l-1-2.2h-3.4l-1,2.2H20.7z M24.5,28.2c-0.4,0.9-0.7,1.8-1.1,2.5l-0.3,0.7
	h2.7l-0.3-0.7C25.2,30,24.9,29.1,24.5,28.2L24.5,28.2z"/>
<path class="st0" d="M33.5,30.6c0.3,0,0.5,0.1,0.7,0.2c0.2,0.1,0.4,0.2,0.6,0.3c0.2,0.1,0.3,0.3,0.4,0.5c0.1,0.2,0.1,0.4,0.1,0.7
	c0,0.2,0,0.4-0.1,0.5c-0.1,0.2-0.2,0.4-0.3,0.6c-0.1,0.2-0.3,0.3-0.6,0.5c-0.2,0.2-0.5,0.3-0.8,0.4c-0.3,0.1-0.5,0.1-0.9,0.2
	c-0.3,0-0.7,0-1.1,0h-2.2V27h2.2c0.2,0,0.4,0,0.5,0c0.2,0,0.3,0,0.4,0c0.1,0,0.3,0,0.4,0c0.1,0,0.2,0,0.3,0.1
	c0.3,0.1,0.5,0.1,0.7,0.3c0.2,0.1,0.4,0.2,0.6,0.4c0.2,0.2,0.3,0.3,0.4,0.5c0.1,0.2,0.1,0.4,0.1,0.6c0,0.2,0,0.4-0.1,0.5
	c-0.1,0.2-0.1,0.3-0.2,0.5c-0.1,0.1-0.3,0.3-0.4,0.4C34,30.5,33.8,30.5,33.5,30.6L33.5,30.6z M32,30.3c0.2,0,0.4,0,0.5,0
	c0.2,0,0.3,0,0.4-0.1c0.3-0.1,0.6-0.2,0.7-0.4c0.2-0.2,0.2-0.4,0.2-0.7c0-0.3-0.1-0.5-0.2-0.7c-0.2-0.2-0.4-0.3-0.7-0.4
	c-0.2,0-0.4-0.1-0.6-0.1c-0.2,0-0.5,0-0.8,0h-1.2v2.4H32z M30.3,31.1v2.6h1.3c0.3,0,0.6,0,0.9,0c0.3,0,0.5-0.1,0.7-0.1
	c0.2-0.1,0.4-0.1,0.5-0.2c0.1-0.1,0.3-0.2,0.3-0.3c0.1-0.1,0.1-0.2,0.2-0.3c0-0.1,0.1-0.2,0.1-0.4c0-0.1,0-0.3-0.1-0.4
	c0-0.1-0.1-0.2-0.2-0.3c-0.1-0.1-0.2-0.2-0.4-0.3c-0.1-0.1-0.3-0.1-0.5-0.2c-0.1,0-0.3,0-0.4-0.1c-0.2,0-0.4,0-0.6,0H30.3z"/>
<path class="st1" d="M40.6,28.2c-0.4,0-0.8,0.1-1.1,0.2c-0.3,0.1-0.6,0.3-0.9,0.5c-0.2,0.2-0.4,0.5-0.6,0.9
	c-0.1,0.3-0.2,0.7-0.2,1.2c0,0.4,0.1,0.8,0.2,1.1c0.1,0.3,0.3,0.6,0.5,0.8c0.2,0.2,0.5,0.4,0.9,0.5c0.3,0.1,0.7,0.2,1.2,0.2
	c0.3,0,0.6,0,0.9-0.1c0.3,0,0.6-0.1,0.9-0.2v1.2c-0.3,0.1-0.6,0.1-0.9,0.2c-0.3,0-0.7,0.1-1,0.1c-0.7,0-1.3-0.1-1.8-0.3
	s-1-0.4-1.3-0.8c-0.4-0.3-0.6-0.7-0.8-1.2c-0.2-0.5-0.3-0.9-0.3-1.5c0-0.6,0.1-1.1,0.3-1.6c0.2-0.5,0.5-0.9,0.8-1.2
	c0.4-0.4,0.8-0.6,1.3-0.8c0.5-0.2,1.1-0.3,1.8-0.3c0.3,0,0.7,0,1,0.1c0.3,0,0.6,0.1,0.8,0.2v1.1c-0.3-0.1-0.6-0.2-0.9-0.2
	C41.2,28.2,40.9,28.2,40.6,28.2z"/>
<path class="st1" d="M48.6,32.6h-3.1l-0.8,1.9h-1.6l3.2-7.3h1.4l3.2,7.3h-1.6L48.6,32.6z M47.1,28.9c-0.3,0.8-0.5,1.4-0.8,1.9
	L46,31.5h2.1l-0.3-0.7C47.6,30.4,47.4,29.7,47.1,28.9L47.1,28.9z"/>
<path class="st1" d="M52.2,34.5v-7.3h2.2c0.2,0,0.4,0,0.6,0c0.2,0,0.4,0,0.6,0c0.2,0,0.4,0,0.5,0.1c0.2,0,0.3,0.1,0.5,0.1
	c0.4,0.1,0.8,0.3,1.2,0.5c0.3,0.2,0.6,0.5,0.8,0.8c0.2,0.3,0.4,0.6,0.5,1c0.1,0.4,0.2,0.7,0.2,1.2c0,0.4,0,0.8-0.1,1.1
	c-0.1,0.3-0.2,0.7-0.4,0.9c-0.2,0.3-0.4,0.5-0.8,0.8c-0.3,0.2-0.7,0.4-1.1,0.5c-0.3,0.1-0.7,0.2-1.2,0.3c-0.4,0.1-0.9,0.1-1.5,0.1
	H52.2z M54.3,33.4c0.9,0,1.6-0.1,2-0.3c0.4-0.2,0.8-0.5,1-0.8c0.2-0.4,0.3-0.8,0.3-1.4c0-0.3,0-0.6-0.1-0.8s-0.2-0.5-0.3-0.6
	c-0.1-0.2-0.3-0.3-0.5-0.5c-0.2-0.1-0.4-0.2-0.7-0.3c-0.2-0.1-0.5-0.1-0.8-0.2c-0.3,0-0.6-0.1-1-0.1h-0.7v5.1H54.3z"/>
</svg>
