<?xml version="1.0" encoding="utf-8"?>
<!-- Generator: Adobe Illustrator 22.1.0, SVG Export Plug-In . SVG Version: 6.00 Build 0)  -->
<svg version="1.1" id="图层_1" xmlns="http://www.w3.org/2000/svg" xmlns:xlink="http://www.w3.org/1999/xlink" x="0px" y="0px"
	 viewBox="0 0 64 64" style="enable-background:new 0 0 64 64;" xml:space="preserve">
<style type="text/css">
	.st0{fill:#FFFFFF;}
</style>
<path class="st0" d="M32.5,50.9c0,1.7-0.4,3.4-1,4.9c-1.8,4.3-6,7.6-10.7,8.1c-8.7,1-17-7.9-14.2-16.5c0.7-2.3,2.3-4.1,3.2-6.3
	c1.1-2.5,1.3-5.4,1.2-8.1c-0.2-4.4-1.1-8.8-3.5-12.4c-1.3-1.9-3-3.5-4.1-5.5C1,10.4,2.7,4.1,7.2,1.4s10.9-1.3,13.9,3
	c2.3,3.3,2.5,7.7,1.1,11.4c-0.7,1.8-1.7,3.5-2,5.4c-0.4,2.2,0.1,4.4,0.8,6.5c1,3.4,2.4,6.8,4.6,9.6c1.4,1.8,3.1,3.3,4.5,5.1
	C31.7,44.8,32.6,47.9,32.5,50.9z"/>
<path class="st0" d="M61.7,45c0,1.6-0.3,3.2-1,4.6c-1.8,3.8-5.9,6.3-10,6.2c-3,0-5.8-1.4-7.9-3.6c-2.4-2.6-3.2-5.9-2.6-9.3
	c0.4-2.1,1.1-4.2,1.3-6.4c0.4-4.3-1-8.6-2.9-12.4c-0.8-1.7-1.8-3.5-3.2-4.8c-0.8-0.8-1.8-1.4-2.5-2.2c-2.6-2.6-3.3-6.9-1.6-10.2
	s5.7-5.1,9.3-4.4c3.6,0.7,6.5,4,6.8,7.7c0.2,1.9-0.3,3.8-0.5,5.8c-0.8,7.2,2.5,14.7,8.4,18.9c0.9,0.6,1.9,1.2,2.7,1.9
	C60.4,39,61.7,42,61.7,45z"/>
<circle class="st0" cx="31.1" cy="27" r="8.5"/>
</svg>
