<?xml version="1.0" encoding="utf-8"?>
<!-- Generator: Adobe Illustrator 22.1.0, SVG Export Plug-In . SVG Version: 6.00 Build 0)  -->
<svg version="1.1" id="图层_2" xmlns="http://www.w3.org/2000/svg" xmlns:xlink="http://www.w3.org/1999/xlink" x="0px" y="0px"
	 viewBox="0 0 64 64" style="enable-background:new 0 0 64 64;" xml:space="preserve">
<style type="text/css">
	.st0{fill:#EC661A;}
</style>
<g>
	<path class="st0" d="M16.8,40.7c3.2-0.6,4.5-3.5,4.5-5.7c0-2.3-2.2-6-7.6-5.9c-6.8,0.2-11,5.1-11.2,11c-0.2,7.5,6.8,12.4,14.1,12.5
		c10.6,0.2,16.9-6.8,16.8-16.9c0-9.2-7.4-18.1-18.5-18.4c-6-0.3-11.1,1.4-15,4.1v6.8c3.6-4.3,9.1-6.3,13.8-6.2
		c8.1,0.1,14.2,6.2,14.3,13c0,6.6-2.7,11.4-10.1,12.5C14,48.2,7.6,45.9,8,39.7c0.2-3.1,2.6-4.9,5.4-4.8
		C10.5,38.6,14.2,41.3,16.8,40.7z"/>
	<path class="st0" d="M54.2,41.1l9.8,5V32.2L56.1,33l7.9-4.3V0.1H48.2c0.6,2.2,2.9,3.9,2.9,7.5c0,5.1-6.1,6.3-6.2,11.6
		c-0.1,5.1,3.7,6.4,3.9,10.7c0.1,4.2-1.7,6.1-1.7,6.1s1-1.3,0.6-4.4c-0.9-6.3-6.9-6.8-7.1-12.4c-0.2-4.8,3.3-5.9,3.3-10.3
		c-0.1-4.7-4.4-6.4-4.9-9H0v14.9C4.2,12.4,9.3,11,15,11c15.5,0,25.4,10.8,25.4,24.5c0,14.1-9.9,23-23.2,23.2
		C9.6,58.9,3.6,55.6,0,51.2v12.7h42l4.9-18.1L51.3,64H64V52L54.2,41.1z"/>
</g>
</svg>
