<?xml version="1.0" encoding="utf-8"?>
<!-- Generator: Adobe Illustrator 22.1.0, SVG Export Plug-In . SVG Version: 6.00 Build 0)  -->
<svg version="1.1" id="图层_1" xmlns="http://www.w3.org/2000/svg" xmlns:xlink="http://www.w3.org/1999/xlink" x="0px" y="0px"
	 viewBox="0 0 64 64" style="enable-background:new 0 0 64 64;" xml:space="preserve">
<style type="text/css">
	.st0{fill:#FFFFFF;}
</style>
<rect class="st0" width="64" height="64"/>
<path d="M54.6,60.7c-0.8,1.1-1.7,1.3-2.8,0.6c-0.3-0.2-0.6-0.4-1-0.7c0.3,1,0.6,2,0.9,3H27.6c0.2-5-1.8-9-5.4-12.3
	c-0.7-0.6-1.3-1.3-1.9-1.9c-2.9-3.2-5.8-6.4-8.7-9.7c-1.3-1.4-1.5-2.9-0.8-4.7c1.3-3.4,2.6-6.9,4.5-10c0.9-1.4,1.8-2.7,2.8-4
	c1.4-1.7,3.1-2.1,5.2-1.4c3.7,1.2,7.4,2.3,11.1,3.5c1.3,0.4,2.5,0.9,3.4,2.2c0.1-1.1-0.4-1.8-1.2-2.2c-1-0.5-2.1-0.8-3.1-1.2
	c-0.4-0.2-0.8-0.3-1.4-0.5c0.2-0.5,0.2-1.1,0.4-1.5c1-2.1,2.1-4.2,3.1-6.2c0.6-1.2,1.1-1.4,2.4-1.1c1.9,0.5,3.7,1.2,5.2,2.6
	c1.2,1.1,1.6,2.3,1.2,3.8c-0.8,3-2,5.8-4.6,7.8c-0.5,0.4-1.1,0.7-1.7,1.2c-0.1-0.6-0.2-1-0.3-1.6c-0.1,0.2-0.2,0.2-0.2,0.3
	c-0.5,1.9-1.8,3-3.8,3.2c-2.3,0.2-4.6-0.2-6.8-0.7c-0.9-0.2-1.8-0.4-2.7-0.6c-0.2,1.1-0.3,2.1-0.6,3.1c-0.3,1-0.8,1.9-1.3,2.8
	c0.3,0.1,0.5,0.2,0.8,0.3c2.5,0.7,4.7,1.9,6.8,3.5c0.7,0.5,1.3,0.7,2,0.1c0.2-0.1,0.4-0.2,0.6-0.3c1.2-0.6,2-0.5,2.8,0.6
	c1.4,1.9,2.8,3.9,4.2,5.9c2.6,3.8,5.1,7.6,7.7,11.3c0.4,0.5,0.8,1,1.1,1.5c0.1-0.1,0.1-0.1,0.2-0.2c-4.2-6.2-8.4-12.5-12.6-18.7
	c0-0.1,0.1-0.2,0.1-0.2c0.4,0.1,0.8,0.1,1.2,0.2c3.8,1.4,7,3.5,9.4,6.9c2.1,2.9,4.5,5.6,6.6,8.5c0.7,0.9,1.1,2,1.5,3
	C55.7,58.5,55.3,59.6,54.6,60.7z"/>
<path d="M17.8,3.9c0,0-0.1,0.1-0.1,0.1c-1.3,0.2-1.3,0.2-1.7,1.6c-0.1,0.5-0.3,1.1-0.5,1.8c-0.3-0.4-0.6-0.6-0.6-0.8
	c-0.2-0.8-0.5-1.6-0.6-2.4c-0.1-1.2-0.1-2.5-0.2-3.7h0.3c0.7,0.4,1.5,0.7,2.1,1.2C17.3,2.1,17.7,2.9,17.8,3.9z"/>
<path d="M53,24.8c-1.7,3.6-3.3,7.1-5.1,10.6c-1,1.9-2.6,3.1-4.9,3.4c-0.2,0-0.4,0-0.5,0c-2.5-0.1-4.1-1.4-4.4-3.7
	c0-0.4,0-0.9,0.2-1.2c2.3-4.5,4.7-9,7.1-13.4c0.5-1,1-1.2,2.1-0.8c2.1,0.8,3.8,2.1,5.3,3.8C53.1,23.8,53.2,24.5,53,24.8z"/>
<path d="M59.8,32.2c-2,2.8-4,5.6-6.1,8.2c-1,1.3-2.6,1.8-4.3,1.6c-0.4,0-0.8,0-1.3-0.1c-1.1-0.1-1.5-0.6-1.2-1.7
	c0.3-1.2,0.7-2.3,1.2-3.4c1.4-3,2.9-5.9,4.4-8.8c0.3-0.6,0.8-1.1,1.2-1.5c0.8-0.7,1.8-0.9,2.6-0.2c1.3,1.2,2.4,2.5,3.5,3.8
	C60.4,30.8,60.3,31.6,59.8,32.2z"/>
<path d="M35.4,12.3c-0.5,1.3-1,2.8-1.6,4.2c-0.5,1.1-1.2,2.2-1.8,3.2c-0.4,0.7-1,0.9-1.8,0.7c-2.2-0.6-4.3-1.2-6.5-1.8
	c-0.9-0.2-1.1-0.6-0.9-1.5c0.1-0.6,0.3-1.1,0.6-1.6c1.2-2.2,2.5-4.3,3.7-6.5c0.4-0.7,1-1,1.8-0.8c2.4,0.4,4.3,1.7,6.1,3.2
	C35.2,11.5,35.2,11.9,35.4,12.3z"/>
<path d="M12.3,12c-0.5,0.6-0.9,1.2-1.3,1.9c-0.3,0.5-0.8,0.8-1.4,0.6c-1-0.4-2.1-0.7-2.9-1.3C3.2,10.5,2.1,6.8,2.5,2.4
	c0.3,0.2,0.6,0.2,0.8,0.4c1.2,1.3,2.9,1.8,4.5,2.3c1.2,0.4,2.4,0.8,3.5,1.4C13.5,7.8,13.9,10,12.3,12z"/>
<path d="M47.5,37.8c-0.5,1.3-0.9,2.4-1.3,3.7c-1.5-0.6-2.9-1.1-4.3-1.6c-5.5-2.1-11-4.2-16.6-6.3c-0.7-0.3-1-0.7-0.9-1.4
	c0.1-0.6,0.3-1.1,0.6-1.6c0.6-1.1,1.1-1.2,2.3-0.7c3.2,1.2,6.3,2.5,9.5,3.7c0.7,0.3,1,0.5,0.9,1.4c-0.2,2.7,2.9,5,5.7,4.2
	C44.7,38.8,46,38.3,47.5,37.8z"/>
<path d="M62.7,57c-0.9-0.5-1.9-0.8-2.6-1.4c-4-3.3-7.9-6.6-11.8-9.9c-1-0.8-1.8-1.8-2.6-2.8c-0.1-0.1-0.1-0.4-0.1-0.6
	c0.2,0,0.5,0,0.6,0.1c2.8,1.9,5.6,3.8,8.4,5.8c2.4,1.7,4.7,3.5,7,5.3c0.8,0.6,1.3,1.6,1.8,2.4C63.7,56.4,63.4,56.9,62.7,57z"/>
<path d="M62.3,45.3c-0.5,1-1.4,1.4-2.4,1c-2.4-0.9-4.8-1.8-7.2-2.7c-0.8-0.3-0.8-0.5-0.3-1c0.5-0.5,1-1.1,1.5-1.6
	c0.4-0.3,0.9-0.5,1.3-0.7c0.3,0.1,0.6,0.1,0.7,0.2c1.8,0.9,3.7,1.7,5.5,2.7C62.5,43.7,62.7,44.5,62.3,45.3z"/>
<path d="M15.1,24c-0.7,1.4-1.4,2.7-2.1,4.1c-1.8-0.6-3.6-1.2-5.4-1.9C7.3,26,7,25.5,7.1,25.2c0.1-1,0.2-1.9,0.5-2.8
	c0.3-0.8,1.1-1.1,1.9-0.8C11.4,22.3,13.2,23.2,15.1,24z"/>
<path d="M18.9,19.1c-0.8,0.6-1.6,0.7-2.5,0.3c-1.4-0.6-2.6-1.4-3.5-2.6c-0.8-1-0.9-2.1-0.3-3.1c0.3-0.4,0.8-0.7,1.2-1
	c0.5,0.2,0.8,0.4,1.1,0.6c1.4,1.2,2.8,2.5,4.2,3.7C19.8,17.7,19.7,18.5,18.9,19.1z"/>
<path d="M23,13.4c-0.3,0.9-0.9,1.8-1.3,2.7c-2.1-1.6-3.5-3.5-4.1-5.9C17.5,10,17.7,9.4,18,9.2c0.5-0.3,1-0.6,1.6-0.6
	C21.9,8.6,23.8,11.2,23,13.4z"/>
<path d="M19.2,7.9c-0.7,0.4-1.4,0.8-2.2,1.1c-0.6,0.2-0.9-0.1-1-1c0.2-0.7,0.5-1.6,0.9-2.6c0.2-0.5,0.8-0.7,1.2-0.2
	c0.6,0.6,1,1.4,1.4,2.1C19.6,7.3,19.4,7.7,19.2,7.9z"/>
<path d="M4.4,22.2c-0.1,0.6-0.6,1.3-1.3,1.1c-0.9-0.3-1.7-0.8-2.5-1.3c-0.4-0.3-0.2-0.7,0.2-0.9c0.4-0.2,0.8-0.2,1.2-0.4
	C2.8,21,3.5,21.1,4,21.3C4.3,21.4,4.5,22,4.4,22.2z"/>
</svg>
