<?xml version="1.0" encoding="utf-8"?>
<!-- Generator: Adobe Illustrator 22.1.0, SVG Export Plug-In . SVG Version: 6.00 Build 0)  -->
<svg version="1.1" id="图层_1" xmlns="http://www.w3.org/2000/svg" xmlns:xlink="http://www.w3.org/1999/xlink" x="0px" y="0px"
	 viewBox="0 0 64 64" style="enable-background:new 0 0 64 64;" xml:space="preserve">
<style type="text/css">
	.st0{fill:#261506;}
	.st1{fill:#EE791D;}
</style>
<g>
	<path class="st0" d="M2.7,3.5h58.7v57.1H2.7V3.5z"/>
	<path class="st1" d="M0,0.8v62.4h64V0.8H0z M2.7,3.5h58.7v57.1H2.7V3.5z"/>
	<path class="st1" d="M22.2,36.1l-2.1,8c-0.1,0.2-0.1,0.3-0.4,0.3h-3.9c-0.3,0-0.3-0.1-0.3-0.4l7.6-26.5c0.1-0.5,0.2-0.9,0.3-2.2
		c0-0.2,0.1-0.3,0.2-0.3h5.6c0.2,0,0.3,0.1,0.3,0.3L38,44.1c0.1,0.2,0,0.3-0.2,0.3h-4.4c-0.2,0-0.3-0.1-0.4-0.2l-2.2-8H22.2
		L22.2,36.1z M29.6,31.8c-0.7-3-2.5-9.4-3.2-12.5h-0.1c-0.6,3.1-2,8.4-3.1,12.5H29.6z M41.6,17c0-1.7,1.2-2.7,2.7-2.7
		c1.6,0,2.7,1.1,2.7,2.7c0,1.8-1.1,2.7-2.8,2.7C42.7,19.7,41.6,18.7,41.6,17L41.6,17z M41.9,23c0-0.2,0.1-0.3,0.3-0.3h4.2
		c0.2,0,0.3,0.1,0.3,0.3v21c0,0.2-0.1,0.3-0.3,0.3h-4.1c-0.3,0-0.3-0.1-0.3-0.3L41.9,23L41.9,23z"/>
</g>
</svg>
