<?xml version="1.0" encoding="utf-8"?>
<!-- Generator: Adobe Illustrator 22.1.0, SVG Export Plug-In . SVG Version: 6.00 Build 0)  -->
<svg version="1.1" id="图层_1" xmlns="http://www.w3.org/2000/svg" xmlns:xlink="http://www.w3.org/1999/xlink" x="0px" y="0px"
	 viewBox="0 0 64 64" style="enable-background:new 0 0 64 64;" xml:space="preserve">
<style type="text/css">
	.st0{fill:#270815;}
	.st1{fill:#E84484;}
</style>
<path class="st0" d="M2.7,3.5h58.7v57.1H2.7V3.5z"/>
<path class="st1" d="M0,0.8v62.4h64V0.8H0z M2.7,3.5h58.7v57.1H2.7V3.5z M23.4,44c0,0.3,0,0.4-0.4,0.4h-4c-0.3,0-0.4-0.1-0.4-0.4
	V15.4c0-0.3,0.1-0.4,0.4-0.4h4.1c0.2,0,0.3,0.1,0.3,0.3V44z M28.1,33.7c0-6.4,4.2-11.4,10.9-11.4c0.6,0,0.9,0,1.4,0v-7.1
	c0-0.2,0.1-0.3,0.3-0.3H45c0.2,0,0.3,0.1,0.3,0.2V40c0,0.7,0,1.7,0.1,2.7c0,0.2-0.1,0.2-0.2,0.3c-2.3,1.1-4.7,1.6-7,1.6
	C32.3,44.8,28.1,41.2,28.1,33.7L28.1,33.7z M40.5,26.7c-0.4-0.2-0.9-0.3-1.6-0.3c-3.4,0-5.8,2.6-5.8,7c0,5,2.4,7,5.5,7
	c0.7,0,1.4-0.1,1.9-0.3L40.5,26.7L40.5,26.7z"/>
</svg>
