<?xml version="1.0" encoding="utf-8"?>
<!-- Generator: Adobe Illustrator 22.1.0, SVG Export Plug-In . SVG Version: 6.00 Build 0)  -->
<svg version="1.1" id="图层_1" xmlns="http://www.w3.org/2000/svg" xmlns:xlink="http://www.w3.org/1999/xlink" x="0px" y="0px"
	 viewBox="0 0 64 64" style="enable-background:new 0 0 64 64;" xml:space="preserve">
<style type="text/css">
	.st0{enable-background:new    ;}
	.st1{opacity:0.7833;}
	.st2{fill:#040000;}
	.st3{opacity:0.5764;fill:#040000;enable-background:new    ;}
	.st4{fill:none;}
	.st5{clip-path:url(#SVGID_2_);}
	.st6{fill:url(#outline1_1_);}
	.st7{opacity:0.5053;fill:url(#path7643_1_);enable-background:new    ;}
	.st8{fill:url(#icecap_1_);}
	.st9{opacity:0.2167;fill:url(#path8566_1_);enable-background:new    ;}
	.st10{opacity:0.2759;enable-background:new    ;}
	.st11{fill:url(#SVGID_3_);}
	.st12{opacity:0.4532;fill:url(#path8736_1_);enable-background:new    ;}
	.st13{opacity:0.5123;enable-background:new    ;}
	.st14{fill:url(#SVGID_4_);}
	.st15{opacity:0.2857;fill:url(#path8864_1_);enable-background:new    ;}
	.st16{opacity:0.6207;enable-background:new    ;}
	.st17{fill:url(#SVGID_5_);}
	.st18{fill:url(#SVGID_6_);}
	.st19{opacity:0.2857;fill:url(#path8984_1_);enable-background:new    ;}
	.st20{fill:url(#SVGID_7_);}
	.st21{fill:url(#SVGID_8_);}
	.st22{fill:url(#path8996_1_);}
	.st23{opacity:0.2857;fill:url(#path9006_1_);enable-background:new    ;}
	.st24{fill:url(#SVGID_9_);}
	.st25{opacity:0.6158;enable-background:new    ;}
	.st26{fill:url(#SVGID_10_);}
	.st27{fill:none;stroke:url(#_x38_7235_1_);stroke-width:0.4883;}
	.st28{opacity:0.3251;enable-background:new    ;}
	.st29{fill:url(#SVGID_11_);}
	.st30{fill:url(#path5783_1_);}
	.st31{opacity:0.4778;enable-background:new    ;}
	.st32{fill:url(#SVGID_12_);}
	.st33{opacity:0.5862;fill:#FFFFFF;enable-background:new    ;}
	.st34{opacity:0.2512;fill:url(#path5049_1_);enable-background:new    ;}
	.st35{opacity:0.3632;enable-background:new    ;}
	.st36{fill:url(#SVGID_13_);}
</style>
<g id="g9139" transform="matrix(0.9939405,0,0,0.9939405,0.38937111,-1.4450758)" class="st0">
	<g id="g6035" transform="translate(3.6896803e-7,0.4883067)" class="st1">
		<path id="path5987" class="st2" d="M26.2,4.1L2.9,28c-8.8,8.8,5.7,8.1,11,11.4c2.4,1.6-7.8,3.6-5.7,5.7c2,2.1,12.3,4,14.3,6.1
			c2,2.1-4.1,4.3-2.1,6.4c2,2.1,6.7,0.1,7.6,4.9c0.6,3.5,8.7,1.8,12.3-1.2c2.3-1.9-3.9-1.9-1.9-4c5.1-5.1,9.6-2.3,11.5-7.1
			c1-2.5-7.7-4.4-5.4-6c5.5-3.9,25.9-5.9,16.5-15.3L36.9,4.1C33.9,1.3,29,1.3,26.2,4.1L26.2,4.1z M53,50.1c0,1.2,9.2,1.9,8.7-0.3
			C60.9,46.2,54,46.5,53,50.1z M13.6,56.4c2.1,1.8,5.3-0.4,6.3-2.9C17.9,50.8,10.4,53.6,13.6,56.4z M51.8,52.6
			c-2.6,2.4,0.5,4.9,3,3.2C55.5,55.3,54.8,53.1,51.8,52.6z"/>
		<path id="path6021" class="st3" d="M26.2,4.6L2.9,28.5c-8.8,8.8,5.7,8.1,11,11.4c2.4,1.6-7.8,3.6-5.7,5.7c2,2.1,12.3,4,14.3,6.1
			c2,2.1-4.1,4.3-2.1,6.4c2,2.1,6.7,0.1,7.6,4.9c0.6,3.5,8.7,1.8,12.3-1.2c2.3-1.9-3.9-1.9-1.9-4c5.1-5.1,9.6-2.3,11.5-7.1
			c1-2.5-7.7-4.4-5.4-6c5.5-3.9,25.9-5.9,16.5-15.3L36.9,4.6C33.9,1.8,29,1.8,26.2,4.6L26.2,4.6z M53,50.6c0,1.2,9.2,1.9,8.7-0.3
			C60.9,46.7,54,47,53,50.6z M13.6,56.9c2.1,1.8,5.3-0.4,6.3-2.9C17.9,51.3,10.4,54.1,13.6,56.9z M51.8,53.1c-2.6,2.4,0.5,4.9,3,3.2
			C55.5,55.9,54.8,53.7,51.8,53.1z"/>
	</g>
	<path id="use7631" class="st2" d="M26.2,4L2.9,27.9c-8.8,8.8,5.7,8.1,11,11.4c2.4,1.6-7.8,3.6-5.7,5.7c2,2.1,12.3,4,14.3,6.1
		c2,2.1-4.1,4.3-2.1,6.4c2,2.1,6.7,0.1,7.6,4.9c0.6,3.5,8.7,1.8,12.3-1.2c2.3-1.9-3.9-1.9-1.9-4c5.1-5.1,9.6-2.3,11.5-7.1
		c1-2.5-7.7-4.4-5.4-6c5.5-3.9,25.9-5.9,16.5-15.3L36.9,4C33.9,1.2,29,1.2,26.2,4z M53,50c0,1.2,9.2,1.9,8.7-0.3
		C60.9,46.1,54,46.4,53,50z M13.6,56.3c2.1,1.8,5.3-0.4,6.3-2.9C17.9,50.7,10.4,53.5,13.6,56.3z M51.8,52.5c-2.6,2.4,0.5,4.9,3,3.2
		C55.5,55.3,54.8,53.1,51.8,52.5z"/>
	<path id="use7639" class="st4" d="M26.2,4L2.9,27.9c-8.8,8.8,5.7,8.1,11,11.4c2.4,1.6-7.8,3.6-5.7,5.7c2,2.1,12.3,4,14.3,6.1
		c2,2.1-4.1,4.3-2.1,6.4c2,2.1,6.7,0.1,7.6,4.9c0.6,3.5,8.7,1.8,12.3-1.2c2.3-1.9-3.9-1.9-1.9-4c5.1-5.1,9.6-2.3,11.5-7.1
		c1-2.5-7.7-4.4-5.4-6c5.5-3.9,25.9-5.9,16.5-15.3L36.9,4C33.9,1.2,29,1.2,26.2,4z M53,50c0,1.2,9.2,1.9,8.7-0.3
		C60.9,46.1,54,46.4,53,50z M13.6,56.3c2.1,1.8,5.3-0.4,6.3-2.9C17.9,50.7,10.4,53.5,13.6,56.3z M51.8,52.5c-2.6,2.4,0.5,4.9,3,3.2
		C55.5,55.3,54.8,53.1,51.8,52.5z"/>
	<g>
		<defs>
			<path id="SVGID_1_" d="M26.3,4.3L3.2,27.9c-8.7,8.7,5.7,8,10.9,11.3c2.4,1.6-7.7,3.6-5.7,5.7c2,2.1,12.2,4,14.2,6
				c2,2.1-4.1,4.3-2.1,6.3c2,2.1,6.7,0.1,7.5,4.8c0.6,3.5,8.6,1.7,12.2-1.2c2.2-1.9-3.9-1.9-1.8-4c5-5.1,9.5-2.3,11.4-7
				c1-2.5-7.6-4.3-5.3-5.9c5.5-3.9,25.7-5.8,16.4-15.1L36.8,4.3C33.9,1.5,29,1.5,26.3,4.3z M20.7,40.6c0.5,0,17.3,2.2,10.8,4
				C29.1,45.2,17.7,40.6,20.7,40.6z M52.8,49.9c0,1.2,9.1,1.8,8.6-0.3C60.7,46,53.8,46.3,52.8,49.9z M13.8,56.1
				c2.1,1.8,5.2-0.4,6.2-2.9C18,50.5,10.6,53.3,13.8,56.1z M51.6,52.3c-2.6,2.4,0.4,4.8,3,3.2C55.3,55.1,54.6,52.9,51.6,52.3z"/>
		</defs>
		<clipPath id="SVGID_2_">
			<use xlink:href="#SVGID_1_"  style="overflow:visible;"/>
		</clipPath>
		<g id="use7641" transform="matrix(0.9905442,0,0,0.9905442,0.6051535,0.604136)" class="st5">
			
				<linearGradient id="outline1_1_" gradientUnits="userSpaceOnUse" x1="51.8791" y1="48.4811" x2="39.3645" y2="37.1652" gradientTransform="matrix(0.9845 0 0 -0.9845 1.0064 67.427)">
				<stop  offset="0" style="stop-color:#BEC9E6"/>
				<stop  offset="1" style="stop-color:#09112B;stop-opacity:0.288"/>
			</linearGradient>
			<path id="outline1_9_" class="st6" d="M26.3,4.3L3.2,27.9c-8.7,8.7,5.7,8,10.9,11.3c2.4,1.6-7.7,3.6-5.7,5.7c2,2.1,12.2,4,14.2,6
				c2,2.1-4.1,4.3-2.1,6.3c2,2.1,6.7,0.1,7.5,4.8c0.6,3.5,8.6,1.7,12.2-1.2c2.2-1.9-3.9-1.9-1.8-4c5-5.1,9.5-2.3,11.4-7
				c1-2.5-7.6-4.3-5.3-5.9c5.5-3.9,25.7-5.8,16.4-15.1L36.8,4.3C33.9,1.5,29,1.5,26.3,4.3z M20.7,40.6c0.5,0,17.3,2.2,10.8,4
				C29.1,45.2,17.7,40.6,20.7,40.6z M52.8,49.9c0,1.2,9.1,1.8,8.6-0.3C60.7,46,53.8,46.3,52.8,49.9z M13.8,56.1
				c2.1,1.8,5.2-0.4,6.2-2.9C18,50.5,10.6,53.3,13.8,56.1z M51.6,52.3c-2.6,2.4,0.4,4.8,3,3.2C55.3,55.1,54.6,52.9,51.6,52.3z"/>
		</g>
	</g>
	
		<linearGradient id="path7643_1_" gradientUnits="userSpaceOnUse" x1="15.5238" y1="52.1593" x2="29.6687" y2="38.0144" gradientTransform="matrix(1.0031 0 0 -1.0031 7.857595e-04 67.6782)">
		<stop  offset="0" style="stop-color:#FFFFFF"/>
		<stop  offset="1" style="stop-color:#FFFFFF;stop-opacity:0"/>
	</linearGradient>
	<path id="path7643" class="st7" d="M5,29.2c-6.3,6.3,4.8,4.5,13.4,7.9L36,6c-2.7-2.7-6.1-2.5-8.6,0L5,29.2z"/>
	
		<linearGradient id="icecap_1_" gradientUnits="userSpaceOnUse" x1="24.796" y1="55.0215" x2="41.7698" y2="38.0477" gradientTransform="matrix(0.9939 0 0 -0.9939 0.3955 67.4512)">
		<stop  offset="0" style="stop-color:#FFFFFF"/>
		<stop  offset="1" style="stop-color:#FFFFFF;stop-opacity:0"/>
	</linearGradient>
	<path id="icecap" class="st8" d="M35.5,5.7l9.2,9.4c0.8,0.8,0.8,2.6,0.3,3.1l-4.6-3.7L39.6,20l-3.8-2l-6.2,3.9l-2-8.2l-3.3,7.1
		l-8.2-0.1c-1.6,0-1.4-1.6,0.3-3.3c3.2-3.6,9.5-9.6,11.5-11.7C29.9,3.6,33.4,3.7,35.5,5.7z"/>
	
		<radialGradient id="path8566_1_" cx="87.44" cy="-88.7013" r="17.3131" gradientTransform="matrix(0.8265 0 0 -0.5533 -51.2125 12.4238)" gradientUnits="userSpaceOnUse">
		<stop  offset="0" style="stop-color:#FFFFFF"/>
		<stop  offset="1" style="stop-color:#FFFFFF;stop-opacity:0"/>
	</radialGradient>
	<path id="path8566" class="st9" d="M22.8,50.1c0,0,1,1.5,0.9,2.2c-0.2,1.4-3.2,2.1-2.6,3.4c0.7,1.2,3.1,0.5,5.1,1.8
		c2,1.3,1.5,3.9,2.9,4.6c2.8,1.3,10.3-2.2,9.9-2.2c-0.4,0.1-7.4,1.5-8.9,0.3c-1.8-1.5-2.3-2.5-3.6-3.3c-1.2-0.8-3-1.1-3.4-1.8
		c-0.4-0.7,0.8-1.5,0.9-2.8C24.1,51.6,22.8,50.1,22.8,50.1z"/>
	<g id="path8718" class="st10">
		
			<radialGradient id="SVGID_3_" cx="104.6777" cy="-110.3784" r="17.3131" gradientTransform="matrix(1.0546 0 0 -0.7059 -81.7412 -16.073)" gradientUnits="userSpaceOnUse">
			<stop  offset="0" style="stop-color:#FFFFFF"/>
			<stop  offset="1" style="stop-color:#FFFFFF;stop-opacity:0"/>
		</radialGradient>
		<path class="st11" d="M22.8,50.1c0,0,1,1.5,0.9,2.2c-0.2,1.4-3.2,2.1-2.6,3.4c0.7,1.2,3.1,0.5,5.1,1.8c2,1.3,1.5,3.9,2.9,4.6
			c2.8,1.3,10.3-2.2,9.9-2.2c-12.4,0-10.1-3.1-14.9-5.2c-0.7-0.3-0.3-1.1-0.2-2.4C24.1,51.6,22.8,50.1,22.8,50.1z"/>
	</g>
	
		<radialGradient id="path8736_1_" cx="119.6847" cy="62.3947" r="19.3785" gradientTransform="matrix(0.5264 0 0 -0.2229 -11.0396 53.5039)" gradientUnits="userSpaceOnUse">
		<stop  offset="0" style="stop-color:#FFFFFF"/>
		<stop  offset="1" style="stop-color:#FFFFFF;stop-opacity:0"/>
	</radialGradient>
	<path id="path8736" class="st12" d="M43.9,43.6c11.1-4.1,14.7-4.7,18.4-8.3C58,38.8,49,40.8,41.7,43.9L43.9,43.6z"/>
	<g id="path8746" class="st13">
		
			<radialGradient id="SVGID_4_" cx="123.8117" cy="52.8575" r="19.3785" gradientTransform="matrix(0.5264 0 0 -0.2229 -11.0396 52.577)" gradientUnits="userSpaceOnUse">
			<stop  offset="0" style="stop-color:#FFFFFF"/>
			<stop  offset="1" style="stop-color:#FFFFFF;stop-opacity:0"/>
		</radialGradient>
		<path class="st14" d="M43.9,43c18.3-6.5,15.2-6.5,18.4-8.3c-5.8,2.2-16.7,2.5-20.5,8.7L43.9,43z"/>
	</g>
	
		<linearGradient id="path8864_1_" gradientUnits="userSpaceOnUse" x1="131.3945" y1="-48.7688" x2="131.4652" y2="-52.3404" gradientTransform="matrix(0.5264 0 0 -0.5264 -11.7016 21.4076)">
		<stop  offset="0" style="stop-color:#FFFFFF"/>
		<stop  offset="1" style="stop-color:#FFFFFF;stop-opacity:0"/>
	</linearGradient>
	<path id="path8864" class="st15" d="M59.9,48.2c0,0.4-1.1,0.7-2.4,0.7c-1.3,0-2.4-0.3-2.4-0.7l0,0c0-0.4,1.1-0.7,2.4-0.7
		C58.8,47.5,59.9,47.8,59.9,48.2z"/>
	<g id="path8874" class="st16">
		
			<linearGradient id="SVGID_5_" gradientUnits="userSpaceOnUse" x1="157.3015" y1="-92.6065" x2="157.3015" y2="-95.1243" gradientTransform="matrix(0.7088 0 0 -1.1339 -54.0073 -58.1497)">
			<stop  offset="0" style="stop-color:#FFFFFF"/>
			<stop  offset="1" style="stop-color:#FFFFFF;stop-opacity:0"/>
		</linearGradient>
		<path class="st17" d="M60.7,49.1c0,0.9-1.4,1.6-3.2,1.6c-1.8,0-3.2-0.7-3.2-1.6l0,0c0-0.9,1.4-1.6,3.2-1.6
			C59.3,47.5,60.7,48.2,60.7,49.1z"/>
	</g>
	<g id="path8914">
		
			<radialGradient id="SVGID_6_" cx="129.9133" cy="439.1108" r="7.9742" gradientTransform="matrix(0.5264 0 0 -7.777900e-02 -11.0396 84.4273)" gradientUnits="userSpaceOnUse">
			<stop  offset="0" style="stop-color:#FFFFFF"/>
			<stop  offset="1" style="stop-color:#FFFFFF;stop-opacity:0"/>
		</radialGradient>
		<path class="st18" d="M53.1,49.9c1.1,1,7.4,1.6,8.4-0.3C59.6,51.1,55.1,50.6,53.1,49.9z"/>
	</g>
	
		<linearGradient id="path8984_1_" gradientUnits="userSpaceOnUse" x1="134.6516" y1="-8.3264" x2="134.7223" y2="-11.898" gradientTransform="matrix(0.203 -0.1029 -0.2381 -0.4695 22.5509 62.7444)">
		<stop  offset="0" style="stop-color:#FFFFFF"/>
		<stop  offset="1" style="stop-color:#FFFFFF;stop-opacity:0"/>
	</linearGradient>
	<path id="path8984" class="st19" d="M53.2,53.4c0.2,0.5,0.1,1-0.3,1.2c-0.4,0.2-0.9,0-1.2-0.4c0,0,0,0,0,0c-0.2-0.5-0.1-1,0.3-1.2
		C52.4,52.8,52.9,53,53.2,53.4C53.1,53.4,53.2,53.4,53.2,53.4z"/>
	<g id="path8986" class="st16">
		
			<linearGradient id="SVGID_7_" gradientUnits="userSpaceOnUse" x1="159.9238" y1="-74.1417" x2="159.9238" y2="-76.6596" gradientTransform="matrix(0.2733 -0.1386 -0.5128 -1.0113 -30.2375 -0.6035)">
			<stop  offset="0" style="stop-color:#FFFFFF"/>
			<stop  offset="1" style="stop-color:#FFFFFF;stop-opacity:0"/>
		</linearGradient>
		<path class="st20" d="M53.6,53.6c0.3,0.7,0.1,1.5-0.5,1.8c-0.6,0.3-1.4,0-1.7-0.7c0,0,0,0,0,0c-0.3-0.7-0.1-1.5,0.5-1.8
			C52.5,52.7,53.3,53,53.6,53.6C53.6,53.6,53.6,53.6,53.6,53.6z"/>
	</g>
	<g id="path8988">
		
			<radialGradient id="SVGID_8_" cx="133.1704" cy="712.8409" r="7.9742" gradientTransform="matrix(0.203 -0.1029 -3.517310e-02 -6.937164e-02 51.3049 118.8227)" gradientUnits="userSpaceOnUse">
			<stop  offset="0" style="stop-color:#FFFFFF"/>
			<stop  offset="1" style="stop-color:#FFFFFF;stop-opacity:0"/>
		</radialGradient>
		<path class="st21" d="M51.6,55.5c0.9,0.7,4.3,0.8,3-1.3C55,55.9,52.6,55.7,51.6,55.5z"/>
	</g>
	
		<radialGradient id="path8996_1_" cx="51.1619" cy="74.9808" r="12.8718" gradientTransform="matrix(0.5264 0 0 -0.2143 -11.0396 62.7805)" gradientUnits="userSpaceOnUse">
		<stop  offset="0" style="stop-color:#FFFFFF;stop-opacity:0.33"/>
		<stop  offset="1" style="stop-color:#FFFFFF;stop-opacity:0"/>
	</radialGradient>
	<path id="path8996" class="st22" d="M9.4,44.8c0-0.2,11.6,3.5,13.6,5.5c-1.6-1.6-9.9-5.3-11.2-5.3C10.6,45,9.6,44.9,9.4,44.8z"/>
	<g id="g9018" transform="matrix(0.8790148,-0.1929959,0.2338341,0.6959295,-20.209533,36.725557)">
		
			<linearGradient id="path9006_1_" gradientUnits="userSpaceOnUse" x1="268.7513" y1="22.9052" x2="268.8221" y2="19.3337" gradientTransform="matrix(0.4627 0.1016 0.1231 -0.3664 -94.6712 12.773)">
			<stop  offset="0" style="stop-color:#FFFFFF"/>
			<stop  offset="1" style="stop-color:#FFFFFF;stop-opacity:0"/>
		</linearGradient>
		<path id="path9006" class="st23" d="M34.9,32.8c0,0.4-1.1,0.7-2.4,0.7c-1.3,0-2.4-0.3-2.4-0.7l0,0c0-0.4,1.1-0.7,2.4-0.7
			S34.9,32.4,34.9,32.8z"/>
		<g id="path9008" class="st16">
			
				<linearGradient id="SVGID_9_" gradientUnits="userSpaceOnUse" x1="296.7255" y1="-70.4841" x2="296.7255" y2="-73.0019" gradientTransform="matrix(0.6231 0.2188 0.1657 -0.7891 -140.6629 -89.0924)">
				<stop  offset="0" style="stop-color:#FFFFFF"/>
				<stop  offset="1" style="stop-color:#FFFFFF;stop-opacity:0"/>
			</linearGradient>
			<path class="st24" d="M35.7,33.7c0,0.9-1.4,1.6-3.2,1.6c-1.8,0-3.2-0.7-3.2-1.6l0,0c0-0.9,1.4-1.6,3.2-1.6
				C34.3,32.1,35.7,32.8,35.7,33.7z"/>
		</g>
	</g>
	<g id="path9038" class="st25">
		
			<radialGradient id="SVGID_10_" cx="80.4866" cy="55.573" r="5.9232" gradientTransform="matrix(0.6239 -0.1729 -6.467603e-02 -0.2334 -30.5469 83.2844)" gradientUnits="userSpaceOnUse">
			<stop  offset="0" style="stop-color:#FFFFFF"/>
			<stop  offset="1" style="stop-color:#FFFFFF;stop-opacity:0"/>
		</radialGradient>
		<path class="st26" d="M13.1,54.7c0,0,0.6,1.7,2.4,1.8c1.7,0.1,3.7-2.1,3.9-2.9c-0.3,0.7-2,2.7-4.1,2.7
			C14,56.3,13.1,54.7,13.1,54.7z"/>
	</g>
	
		<radialGradient id="_x38_7235_1_" cx="48.9269" cy="53.6312" r="31.1781" gradientTransform="matrix(1.7117 0 0 -1.6847 -49.4408 99.5509)" gradientUnits="userSpaceOnUse">
		<stop  offset="0" style="stop-color:#FFFFFF"/>
		<stop  offset="1" style="stop-color:#FFFFFF;stop-opacity:0"/>
	</radialGradient>
	<path id="_x38_7235" class="st27" d="M31.5,2.7c-1.8,0-3.5,0.6-4.7,1.9L3.5,28.5C1.3,30.6,0.8,32,1,32.8c0.1,0.4,0.3,0.7,0.7,1.1
		c0.4,0.4,1,0.7,1.8,1c1.5,0.6,3.5,1.1,5.5,1.7s3.9,1.1,5.4,2.1c0.2,0.1,0.4,0.3,0.6,0.6c0.1,0.3,0.2,0.6,0.1,0.9
		c-0.1,0.6-0.5,0.9-0.8,1.1c-0.7,0.5-1.7,1-2.7,1.5s-2,1-2.5,1.4c-0.2,0.2-0.3,0.4-0.3,0.4c0,0-0.1-0.2,0.1,0
		c0.3,0.3,1.3,0.9,2.5,1.4c1.2,0.5,2.8,1,4.3,1.5s3.1,1,4.4,1.5c1.3,0.5,2.4,1,3.1,1.7c0.4,0.4,0.6,0.8,0.7,1.3
		c0.1,0.5-0.1,0.9-0.2,1.3c-0.4,0.7-0.9,1.3-1.4,1.8s-1,1.1-1.1,1.4c-0.1,0.2-0.1,0.3-0.1,0.4c0,0.1,0,0.1,0.2,0.3c0,0,0,0,0,0
		c0.7,0.7,2.1,0.8,3.8,1.2c0.8,0.2,1.7,0.5,2.4,1.1s1.3,1.6,1.5,3c0.1,0.6,0.4,0.8,1.1,1.1c0.7,0.2,1.8,0.3,3,0.1
		c2.4-0.3,5.2-1.5,6.9-2.9c0.1-0.1,0.1-0.1,0.1-0.1c-0.1-0.1-0.4-0.2-0.8-0.5c-0.5-0.3-1.1-0.5-1.6-1.1c-0.2-0.3-0.4-0.7-0.3-1.2
		c0.1-0.4,0.3-0.8,0.6-1.1c2.7-2.7,5.3-3.4,7.3-3.9c1-0.3,1.8-0.5,2.5-0.9c0.6-0.4,1.1-0.9,1.5-2c0-0.1,0-0.1,0-0.3
		s-0.2-0.4-0.5-0.6c-0.5-0.5-1.4-1-2.3-1.4c-0.9-0.5-1.7-0.9-2.4-1.5c-0.3-0.3-0.6-0.7-0.7-1.2c0-0.6,0.3-1,0.7-1.3
		c1.6-1.1,3.9-1.9,6.5-2.8c2.6-0.9,5.3-1.8,7.5-2.8c2.2-1,3.9-2.3,4.4-3.5c0.3-0.6,0.3-1.2,0-2c-0.3-0.8-0.9-1.8-2-2.9L36.3,4.6
		c0,0,0,0,0,0C35,3.4,33.2,2.7,31.5,2.7z M57.5,48C56,48,54.6,48.7,54,49.8c0.2,0.1,0.3,0.1,0.6,0.2c0.8,0.2,1.9,0.3,2.9,0.3
		c1.1,0,2.1-0.1,2.8-0.2c0.3-0.1,0.4-0.2,0.5-0.2c-0.1-0.6-0.5-1.1-1.1-1.4C59.1,48.1,58.3,48,57.5,48z M17.6,53.1
		c-1.2-0.1-2.7,0.4-3.4,1c-0.4,0.3-0.5,0.6-0.5,0.7c0,0.2,0,0.4,0.5,0.8c0,0,0,0,0,0c0.8,0.7,1.6,0.6,2.6,0.1
		c0.8-0.5,1.6-1.3,2.1-2.2C18.5,53.3,18.1,53.2,17.6,53.1L17.6,53.1z M52.1,53.5c-0.3,0.3-0.4,0.6-0.4,0.8c0,0.3,0.1,0.5,0.3,0.7
		c0.4,0.4,1.3,0.6,2.2,0.1c0-0.1-0.1-0.3-0.2-0.5C53.7,54.2,53.1,53.8,52.1,53.5z"/>
	<g id="path5897" class="st28">
		
			<linearGradient id="SVGID_11_" gradientUnits="userSpaceOnUse" x1="50.4582" y1="-44.7481" x2="83.2743" y2="-53.4249" gradientTransform="matrix(0.4853 0 0 -0.4853 -5.1025 25.7474)">
			<stop  offset="0" style="stop-color:#FFFFFF"/>
			<stop  offset="1" style="stop-color:#FFFFFF;stop-opacity:0"/>
		</linearGradient>
		<path class="st29" d="M18.7,40.1c-1.4,0.4-6,2.1-5.3,3.5c0.6,1.3,11.2,1.8,12.8,5.5c0.7,1.6-1.6,2.9-1,4.6c0.5,1.3,4,4.6,6.2,6.1
			c1.7,1.2,4-1,3.1-2.8c-1.5-2.9,5.1-6.4,8.1-8c1.7-0.9-3.6-5.5-3.6-5.5L18.7,40.1z"/>
	</g>
	
		<linearGradient id="path5783_1_" gradientUnits="userSpaceOnUse" x1="23.5761" y1="33.0105" x2="21.5428" y2="28.3518" gradientTransform="matrix(0.8799 0 0 -0.8799 5.6428 69.0565)">
		<stop  offset="0" style="stop-color:#EEEEEB"/>
		<stop  offset="1" style="stop-color:#EEEEEB;stop-opacity:0"/>
	</linearGradient>
	<path id="path5783" class="st30" d="M19.2,41.4c1.3,0.9,3.8,0.4,5.3,1c3.6,1.6,8,3.4,7.2,0.2l-0.9,0.8l0-1.4l-2.1,0.5
		c0,0-1.6-1.3-2.4-1.8c-0.2-0.1-1,0.7-1,0.7l-0.1-0.9c-1.1-0.1-2.1-0.2-3-0.2C19.9,40.4,18.4,40.8,19.2,41.4z"/>
	<g id="path5803" class="st31">
		
			<radialGradient id="SVGID_12_" cx="119.963" cy="-93.5835" r="12.7114" gradientTransform="matrix(0.656 0 0 -0.8336 -36.3152 -26.1482)" gradientUnits="userSpaceOnUse">
			<stop  offset="0" style="stop-color:#FFFFFF"/>
			<stop  offset="1" style="stop-color:#FFFFFF;stop-opacity:0"/>
		</radialGradient>
		<path class="st32" d="M42.8,44.3c-0.5,1.8,6,4.2,5.5,5.5c-1.1,2.7-6.9,0.9-11.4,6.6c-0.6,0.8,0.9,3.7,0.7,3.4s-1.8-2.8-1.4-3.9
			c1.3-3.7,13.5-5.1,11.3-6.9C46.2,47.9,41.6,45.1,42.8,44.3z"/>
	</g>
	<path id="path6041" class="st33" d="M57.3,48c0,0.2-0.3,0.3-0.7,0.3c-0.4,0-0.7-0.1-0.7-0.3l0,0c0-0.2,0.3-0.3,0.7-0.3
		C57,47.7,57.3,47.8,57.3,48z"/>
	<path id="path6043" class="st33" d="M52.6,53.4c0,0.2-0.2,0.3-0.4,0.3c-0.2,0-0.4-0.1-0.4-0.3l0,0c0-0.2,0.2-0.3,0.4-0.3
		C52.4,53.1,52.6,53.3,52.6,53.4z"/>
	<path id="path6045" class="st33" d="M16.8,53.2c0,0.2-0.4,0.3-0.8,0.3s-0.8-0.1-0.8-0.3l0,0c0-0.2,0.4-0.3,0.8-0.3
		S16.8,53,16.8,53.2z"/>
	
		<linearGradient id="path5049_1_" gradientUnits="userSpaceOnUse" x1="36.7028" y1="-36.3935" x2="41.8187" y2="-40.4582" gradientTransform="matrix(0.4898 0 0 -0.4898 -5.2952 24.0271)">
		<stop  offset="0" style="stop-color:#FFFFFF"/>
		<stop  offset="1" style="stop-color:#FFFFFF;stop-opacity:0"/>
	</linearGradient>
	<path id="path5049" class="st34" d="M16.3,40.2c-4,2.5-10.3,3.4-3.5,5.1C12.1,43.5,14.7,43.7,16.3,40.2z"/>
	<g id="path10207" class="st35">
		
			<linearGradient id="SVGID_13_" gradientUnits="userSpaceOnUse" x1="107.3522" y1="-51.8634" x2="92.0121" y2="-10.5604" gradientTransform="matrix(0.4853 0 0 -0.4853 -5.1025 25.7474)">
			<stop  offset="0" style="stop-color:#6F99C6"/>
			<stop  offset="1" style="stop-color:#6F99C6;stop-opacity:0"/>
		</linearGradient>
		<path class="st36" d="M30.7,63c0,0,6.2-0.6,7.7-2.4c0.8-1.1-3.4-2.3-2.5-3.3c3.4-3.9,6.3-3.7,10.2-5.3c4-1.6,2.5-2.4,1.2-3.1
			c-2.2-1.2-7.1-2.5-5.5-5.4c1.6-2.9,15.8-7,15.8-7c4.3-1.5,3.8-4.1,1.7-6.4L46.7,17.5c0,0,0.6,12-1.9,17.1
			c-3.2,6.4-20,13.4-13,14.2c2.5,0.3,3.7,1.1,4.7,3C38.6,55.8,30.7,63,30.7,63z"/>
	</g>
</g>
</svg>
