<?xml version="1.0" encoding="utf-8"?>
<!-- Generator: Adobe Illustrator 22.1.0, SVG Export Plug-In . SVG Version: 6.00 Build 0)  -->
<svg version="1.1" id="图层_1" xmlns="http://www.w3.org/2000/svg" xmlns:xlink="http://www.w3.org/1999/xlink" x="0px" y="0px"
	 viewBox="0 0 64 64" style="enable-background:new 0 0 64 64;" xml:space="preserve">
<style type="text/css">
	.st0{fill:#212121;}
	.st1{fill:#424242;}
	.st2{fill:#FAFAFA;}
</style>
<g>
	<path class="st0" d="M61.5,27.5L37.1,2.2c-3-2.9-8-2.9-10.8,0L2.8,26.7c-8.9,9.1,6,8.3,11.4,11.8c2.5,1.6-7.2,3.7-5.1,5.9
		c2.1,2.2,11.7,4.1,13.8,6.2c2.1,2.1-4.1,4.4-2,6.6c2,2.1,6.4,0.1,7.3,5c0.6,3.6,8.4,1.8,12.1-1.3c2.3-2-4-2-1.9-4.1
		c1.8-1.9,3.6-2.7,5.2-3.2c2.9-0.9,6.1-0.7,7.4-3.9c1-2.6-7.7-4.6-5.3-6.3C51,39.2,71,37.2,61.5,27.5z M34.5,45
		C31.4,46,17.2,39.2,21,39.2C21.6,39.2,42.6,42.2,34.5,45z"/>
	<path class="st0" d="M53.3,52.3c-2.7,2.8,0.5,5.7,3.1,3.8C57.1,55.6,56.4,53,53.3,52.3z"/>
	<path class="st0" d="M55.3,49.7c0,1.3,9.2,2.1,8.7-0.3C63.3,45.4,56.3,45.7,55.3,49.7z"/>
	<path class="st0" d="M11,57.4c2.1,2.3,5.4-0.5,6.4-3.7C15.3,50.4,7.6,53.9,11,57.4z"/>
</g>
<path class="st1" d="M36,5.2l-6.5,11L18,35.8c-2.3-0.9-4.7-1.4-6.9-1.8c-0.9-0.3-1.8-0.5-2.6-0.8c-1.7-0.5-4.7-1.3-5.4-2
	c0.1-0.3,0.5-1.1,2-2.6l11.2-11.6L28.5,4.2c0.8-0.8,1.9-1.3,3.2-1.3s2.5,0.5,3.4,1.3L36,5.2z"/>
<path class="st2" d="M45.2,14.7c0,0.1-0.1,0.3-0.2,0.3l-4.4-3.7l-0.9,5.4l-3.7-2l-6,3.8l-0.6-2.4l-1.4-5.7l-3.2,7L17,17.5
	c-0.5,0-0.8-0.2-0.9-0.5L28.5,4.2c0.8-0.8,1.9-1.3,3.2-1.3s2.5,0.5,3.4,1.3l0.9,1L45.2,14.7z"/>
</svg>
