<?xml version="1.0" encoding="utf-8"?>
<!-- Generator: Adobe Illustrator 22.1.0, SVG Export Plug-In . SVG Version: 6.00 Build 0)  -->
<svg version="1.1" id="图层_1" xmlns="http://www.w3.org/2000/svg" xmlns:xlink="http://www.w3.org/1999/xlink" x="0px" y="0px"
	 viewBox="0 0 16 16" style="enable-background:new 0 0 16 16;" xml:space="preserve">
<style type="text/css">
	.st0{fill:#C7C6C6;}
</style>
<path class="st0" d="M12.3,0H3.7C2.7,0,2,0.7,2,1.7v12.7C2,15.3,2.7,16,3.7,16h8.7c0.9,0,1.7-0.7,1.7-1.7V1.7C14,0.7,13.3,0,12.3,0z
	 M13.3,14.3c0,0.6-0.4,1-1,1H3.7c-0.6,0-1-0.4-1-1V1.7c0-0.6,0.4-1,1-1h8.7c0.6,0,1,0.4,1,1C13.3,1.7,13.3,14.3,13.3,14.3z"/>
<path class="st0" d="M7.3,14.3C7.3,14.7,7.6,15,8,15s0.7-0.3,0.7-0.7l0,0c0-0.4-0.3-0.7-0.7-0.7S7.3,14,7.3,14.3z"/>
<path class="st0" d="M12.3,2H3.7C3.5,2,3.3,2.1,3.3,2.3V13c0,0.2,0.1,0.3,0.3,0.3h8.7c0.2,0,0.3-0.1,0.3-0.3V2.3
	C12.7,2.1,12.5,2,12.3,2z M12,12.7H4v-10h8V12.7z"/>
<path class="st0" d="M7.7,1.3c0,0.2,0.1,0.3,0.3,0.3c0.2,0,0.3-0.1,0.3-0.3c0,0,0,0,0,0C8.3,1.1,8.2,1,8,1C7.8,1,7.7,1.1,7.7,1.3
	C7.7,1.3,7.7,1.3,7.7,1.3z"/>
</svg>
