<?xml version="1.0" encoding="utf-8"?>
<!-- Generator: Adobe Illustrator 22.1.0, SVG Export Plug-In . SVG Version: 6.00 Build 0)  -->
<svg version="1.1" id="图层_1" xmlns="http://www.w3.org/2000/svg" xmlns:xlink="http://www.w3.org/1999/xlink" x="0px" y="0px"
	 viewBox="0 0 64 64" style="enable-background:new 0 0 64 64;" xml:space="preserve">
<style type="text/css">
	.st0{fill:url(#XMLID_3_);}
	.st1{fill:#040000;}
	.st2{fill:#EDEDEC;}
</style>
<g id="XMLID_1_">
	
		<linearGradient id="XMLID_3_" gradientUnits="userSpaceOnUse" x1="-218.5796" y1="-219.2237" x2="-218.1735" y2="-219.2237" gradientTransform="matrix(-80.4642 -113.7005 -113.7005 80.4642 -42465.7617 -7158.7397)">
		<stop  offset="0" style="stop-color:#0F69A2"/>
		<stop  offset="8.760613e-02" style="stop-color:#1B72AD"/>
		<stop  offset="0.2402" style="stop-color:#287FBC"/>
		<stop  offset="0.4151" style="stop-color:#3089C7"/>
		<stop  offset="0.6297" style="stop-color:#348ECD"/>
		<stop  offset="1" style="stop-color:#3690CF"/>
	</linearGradient>
	<circle id="XMLID_14_" class="st0" cx="32.2" cy="32" r="28.3"/>
	<path id="XMLID_15_" class="st1" d="M29.9,48.8c-1.4,0-2.6-0.5-3.7-1.4l-8.5-7.6c-1.4-1.3-2.1-3.2-1.7-5.1l2.1-11.4
		c0.4-1.9,1.7-3.6,3.6-4.2l10.9-3.9c0.6-0.2,1.2-0.3,1.8-0.3c1.3,0,2.6,0.5,3.6,1.4l8.8,7.9c1.5,1.3,2.1,3.3,1.7,5.3l-2.5,11.4
		c-0.4,1.9-1.8,3.4-3.6,4l-10.9,3.5C31.1,48.7,30.5,48.8,29.9,48.8z"/>
	<path id="XMLID_24_" class="st2" d="M32.2,0.2C14.6,0.2,0.4,14.4,0.4,32s14.2,31.8,31.8,31.8S64,49.6,64,32S49.8,0.2,32.2,0.2z
		 M23.1,5.1c2.4-1,13.4-3.5,23.1,2.1C46.9,7.5,47.3,8,47.3,9c0.1,2.3,0.2,6.9-0.1,12.4c0,0.4-0.5,0.6-0.8,0.4c0,0-9.4-9.8-23.3-16.1
		C22.8,5.5,22.8,5.2,23.1,5.1z M46.6,29l-2.5,11.4c-0.3,1.2-1.1,2.2-2.3,2.6L31,46.6c-1.2,0.4-2.5,0.1-3.4-0.7L19,38.3
		c-0.9-0.8-1.3-2-1.1-3.2l2.1-11.4c0.2-1.2,1.1-2.2,2.3-2.6l10.9-3.9c1.2-0.4,2.5-0.1,3.4,0.7l8.8,7.9C46.4,26.5,46.8,27.8,46.6,29z
		 M17.5,7.6c0.6-0.4,1.2-0.3,2.1,0c0,0,5.2,1.8,10.9,6.1c0.3,0.2,0.3,0.7-0.1,0.9c0,0-13,3.3-25.4,12.3c-0.2,0.1-0.5,0-0.5-0.3
		C4.8,24,6.9,14.3,17.5,7.6z M14.1,53.2c0,0.3-0.3,0.4-0.5,0.3c-2.1-1.6-9.3-8.6-9.8-21.2c0-0.8,0.4-1.2,1.1-1.8
		c0,0,4.5-3.5,10.7-6.3c0.3-0.2,0.7,0.1,0.7,0.5C16.2,25.2,12.5,38.4,14.1,53.2z M41.3,58.6c-2.4,1-13.4,3.5-23.1-2
		c-0.7-0.4-1.1-0.9-1.1-1.8c-0.1-2.3-0.2-6.9,0.1-12.4c0-0.4,0.5-0.6,0.8-0.4c0,0,9.4,9.8,23.3,16.1C41.5,58.2,41.5,58.5,41.3,58.6z
		 M46.7,56.2c-0.6,0.4-1.2,0.3-2.1,0c0,0-5.2-1.8-10.8-6.2c-0.3-0.2-0.3-0.7,0.1-0.9c0,0,13-3.3,25.5-12.2c0.2-0.1,0.5,0,0.5,0.3
		C59.5,39.9,57.4,49.5,46.7,56.2z M59.3,33.5c0,0-4.5,3.5-10.7,6.2c-0.3,0.1-0.7-0.1-0.7-0.5c0,0,3.9-13.2,2.5-28.5
		c0-0.3,0.3-0.4,0.5-0.3c2,1.6,9.2,8.7,9.6,21.3C60.5,32.5,60,32.9,59.3,33.5z"/>
</g>
</svg>
