<?xml version="1.0" encoding="utf-8"?>
<!-- Generator: Adobe Illustrator 22.1.0, SVG Export Plug-In . SVG Version: 6.00 Build 0)  -->
<svg version="1.1" id="图层_1" xmlns="http://www.w3.org/2000/svg" xmlns:xlink="http://www.w3.org/1999/xlink" x="0px" y="0px"
	 viewBox="0 0 64 64" style="enable-background:new 0 0 64 64;" xml:space="preserve">
<style type="text/css">
	.st0{fill:#58595B;}
	.st1{fill:#00ADF5;}
</style>
<rect class="st0" width="64" height="64"/>
<g>
	<path class="st1" d="M31.9,53.2H2.7V10.8h10.6v34.9h18.6V53.2z"/>
	<path class="st1" d="M31.9,53.2V10.8h14.3c4.4,0,7.8,0.9,10.2,2.6c2.4,1.7,3.5,4.2,3.5,7.3c0,2.3-0.8,4.3-2.2,6
		c-1.4,1.7-3.3,2.9-5.5,3.6v0.1c2.9,0.4,5.1,1.5,6.8,3.3c1.7,1.8,2.6,4.1,2.6,6.9c0,3.8-1.3,6.9-3.9,9.2s-6.2,3.4-10.7,3.4
		C47,53.2,31.9,53.2,31.9,53.2z M40.6,17.6V28h4c2,0,3.5-0.5,4.7-1.5c1.1-1,1.7-2.4,1.7-4.1c0-3.2-2.3-4.9-6.8-4.9h-3.6V17.6z
		 M40.6,34.8v11.6h5.2c2.2,0,3.9-0.5,5.1-1.6c1.2-1.1,1.8-2.5,1.8-4.4c0-1.8-0.6-3.2-1.8-4.2c-1.2-1-3-1.5-5.2-1.5L40.6,34.8
		L40.6,34.8z"/>
</g>
</svg>
