<?xml version="1.0" encoding="utf-8"?>
<!-- Generator: Adobe Illustrator 22.1.0, SVG Export Plug-In . SVG Version: 6.00 Build 0)  -->
<svg version="1.1" id="图层_1" xmlns="http://www.w3.org/2000/svg" xmlns:xlink="http://www.w3.org/1999/xlink" x="0px" y="0px"
	 viewBox="0 0 64 64" style="enable-background:new 0 0 64 64;" xml:space="preserve">
<style type="text/css">
	.st0{fill:#16232B;}
	.st1{fill:#ACCEE3;}
</style>
<path class="st0" d="M2.7,3.5h58.7v57.1H2.7V3.5z"/>
<path class="st1" d="M0,0.8v62.4h64V0.8H0z M2.7,3.5h58.7v57.1H2.7V3.5z M17.7,44.3c-0.3,0-0.4-0.1-0.4-0.4V15.3
	c0-0.2,0.1-0.3,0.3-0.3h4.2c0.2,0,0.3,0.1,0.3,0.3v24.7h11c0.2,0,0.3,0.1,0.2,0.3l-0.7,3.8c-0.1,0.2-0.2,0.3-0.4,0.3L17.7,44.3
	L17.7,44.3z M37.5,27.1c0-0.3,0-1.1-0.1-2.6c0-0.2,0.1-0.3,0.2-0.3c1.6-0.7,5.5-1.8,9.8-1.8c0.2,0,0.3,0.1,0.3,0.3v3.8
	c0,0.2-0.1,0.3-0.3,0.3c-1.7-0.1-4.2,0.1-5.1,0.5V44c0,0.2-0.1,0.3-0.3,0.3h-4.2c-0.2,0-0.3-0.1-0.3-0.3L37.5,27.1L37.5,27.1z"/>
</svg>
