<?xml version="1.0" encoding="utf-8"?>
<!-- Generator: Adobe Illustrator 22.1.0, SVG Export Plug-In . SVG Version: 6.00 Build 0)  -->
<svg version="1.1" id="图层_1" xmlns="http://www.w3.org/2000/svg" xmlns:xlink="http://www.w3.org/1999/xlink" x="0px" y="0px"
	 viewBox="0 0 64 64" style="enable-background:new 0 0 64 64;" xml:space="preserve">
<style type="text/css">
	.st0{fill:#FFFFFF;}
</style>
<path d="M59,64H5c-2.8,0-5-2.3-5-5V5c0-2.8,2.3-5,5-5h54c2.8,0,5,2.3,5,5v54C64,61.8,61.8,64,59,64z"/>
<path class="st0" d="M12.7,16.7h8.1c2.1,0,3.9,0.2,5.4,0.6s2.9,1.1,4.1,2.2c3.2,2.7,4.8,6.9,4.8,12.4c0,1.8-0.2,3.5-0.5,5
	s-0.8,2.9-1.5,4.1s-1.5,2.3-2.6,3.3c-0.8,0.7-1.7,1.3-2.7,1.8c-1,0.4-2,0.8-3.1,0.9c-1.1,0.2-2.4,0.3-3.8,0.3h-8.1
	c-1.1,0-2-0.2-2.5-0.5S9.4,46,9.2,45.4C9,44.8,8.9,44,8.9,43V20.5c0-1.3,0.3-2.3,0.9-2.9S11.3,16.7,12.7,16.7z M15.1,21.6v20.7h4.7
	c1,0,1.8,0,2.4-0.1s1.2-0.2,1.8-0.4c0.6-0.2,1.2-0.5,1.6-0.9c2.1-1.7,3.1-4.8,3.1-9c0-3-0.5-5.3-1.4-6.8s-2-2.5-3.4-2.9
	c-1.3-0.4-2.9-0.6-4.8-0.6C19.1,21.6,15.1,21.6,15.1,21.6z"/>
<path class="st0" d="M38.1,41.6l12.4-14.8H39.8c-0.7,0-1.3-0.2-1.7-0.5s-0.6-0.8-0.6-1.3c0-0.6,0.2-1,0.6-1.4
	c0.4-0.3,0.9-0.5,1.7-0.5h13.7c1.8,0,2.7,0.8,2.7,2.5c0,0.8-0.1,1.4-0.4,1.9c-0.3,0.5-0.9,1.2-1.8,2.3L42.4,43.6h12.8
	c0.8,0,1.3,0.2,1.7,0.5s0.6,0.7,0.6,1.3s-0.2,1-0.6,1.4c-0.4,0.3-0.9,0.5-1.7,0.5H39.5c-1.1,0-1.9-0.2-2.4-0.7s-0.8-1.1-0.8-1.9
	c0-0.3,0-0.5,0.1-0.8c0.1-0.2,0.2-0.4,0.4-0.6c0.1-0.2,0.4-0.5,0.6-0.8C37.7,42.1,37.9,41.8,38.1,41.6z"/>
</svg>
