<?xml version="1.0" encoding="utf-8"?>
<!-- Generator: Adobe Illustrator 22.1.0, SVG Export Plug-In . SVG Version: 6.00 Build 0)  -->
<svg version="1.1" id="图层_1" xmlns="http://www.w3.org/2000/svg" xmlns:xlink="http://www.w3.org/1999/xlink" x="0px" y="0px"
	 viewBox="0 0 64 64" style="enable-background:new 0 0 64 64;" xml:space="preserve">
<style type="text/css">
	.st0{fill:#FFFFFF;}
</style>
<path class="st0" d="M59,64H5c-2.8,0-5-2.3-5-5V5c0-2.8,2.3-5,5-5h54c2.8,0,5,2.3,5,5v54C64,61.8,61.8,64,59,64z"/>
<polygon points="18.4,41.1 18.4,45.1 2.4,45.1 2.4,18.9 6.4,18.9 6.4,41.1 "/>
<polygon points="61.6,18.2 61.6,22.1 53.6,22.1 53.6,45.3 49.6,45.3 49.6,22.1 41.5,22.1 41.5,18.2 "/>
<polygon points="38.5,32.2 38.5,35.2 31.4,35.2 31.4,43.2 28.4,43.2 28.4,35.2 21.2,35.2 21.2,32.2 28.4,32.2 28.4,24.4 31.4,24.4 
	31.4,32.2 "/>
</svg>
