<?xml version="1.0" encoding="utf-8"?>
<!-- Generator: Adobe Illustrator 22.1.0, SVG Export Plug-In . SVG Version: 6.00 Build 0)  -->
<svg version="1.1" id="图层_1" xmlns="http://www.w3.org/2000/svg" xmlns:xlink="http://www.w3.org/1999/xlink" x="0px" y="0px"
	 viewBox="0 0 64 64" style="enable-background:new 0 0 64 64;" xml:space="preserve">
<style type="text/css">
	.st0{fill:#FFFFFF;}
	.st1{fill:#417287;}
	.st2{display:none;fill:#FFFFFF;}
	.st3{fill:#040000;}
</style>
<g id="Laag_2">
	<g id="White_Square">
		<rect x="7.4" y="0.3" class="st0" width="50.2" height="63.4"/>
	</g>
	<rect x="9.3" y="2.2" class="st1" width="46.3" height="49.6"/>
	<g>
		<g>
			<path class="st0" d="M24.3,51.8L24.3,51.8C24.3,51.8,24.3,51.8,24.3,51.8L24.3,51.8z"/>
			<path class="st0" d="M52.1,49.1l-0.2-0.2l-0.2-0.2c-0.1-0.2-0.2-0.3-0.3-0.4c0,0-0.1-0.1-0.1-0.1c0.1-1.2,0.3-2.3,0.3-3.5
				c0-0.6,0.1-1.2,0-1.9c0-0.3,0-0.6,0-0.9c0-0.2,0-0.3,0-0.5v0c0,0,0-0.1,0,0v0v0l0-0.1l0-0.1c0-0.1,0-0.2,0-0.3
				c-0.1-0.7-0.4-1.3-0.7-1.9c0-0.1-0.1-0.1-0.1-0.2c0.3-0.3,0.6-0.5,1-0.7c0.2-0.1,0.4-0.2,0.6-0.2c0.2,0,0.5-0.1,0.7-0.1
				c-0.2,0-0.5,0-0.7,0.1c-0.2,0-0.5,0.1-0.7,0.2c-0.4,0.2-0.7,0.4-1,0.6c-0.3-0.4-0.6-0.8-0.9-1.2c-0.4-0.5-0.9-0.9-1.3-1.3
				l-0.7-0.6l-0.3-0.3L47.4,35l0,0l0,0c0,0,0,0,0,0l0,0l0,0l-0.2-0.2c-0.8-0.8-1.6-1.7-2.3-2.6c-0.3-0.5-0.7-0.9-1-1.4
				c0.1-0.1,0.3-0.2,0.4-0.3c0.2-0.2,0.4-0.4,0.6-0.6c0.3-0.5,0.6-1,0.8-1.5l0,0v0c0.1-0.4,0.2-0.7,0.2-1.1l0,0l0,0
				c0-0.5-0.3-1-0.2-1.5c-0.1,0.5,0.2,1,0.2,1.5c-0.1,0.4-0.2,0.7-0.3,1.1c-0.2,0.5-0.5,1-0.8,1.4c-0.2,0.2-0.4,0.4-0.6,0.5
				c-0.1,0.1-0.3,0.2-0.4,0.3c-0.2-0.4-0.5-0.9-0.7-1.3c-0.5-1.1-0.8-2.2-0.8-3.4c-0.1-1.2,0.1-2.4,0.5-3.5
				c-0.5,1.1-0.8,2.3-0.8,3.5c0,1.2,0.2,2.4,0.6,3.6c0.4,1.1,0.9,2.2,1.5,3.2c0,0,0,0,0,0c-0.2-0.1-0.4-0.2-0.6-0.2
				c-0.2,0-0.4,0-0.7,0.1c-0.4,0.1-0.8,0.2-1.2,0.2c-0.4,0-0.8-0.2-1.2-0.3c0.4,0.2,0.8,0.4,1.2,0.4c0.4,0.1,0.9,0,1.3-0.1
				c0.2,0,0.4,0,0.6,0c0.2,0,0.4,0.1,0.6,0.2c0.2,0.1,0.3,0.2,0.5,0.3c0.6,0.9,1.2,1.7,1.9,2.5l0.2,0.2l0,0l0,0l0,0l0.1,0.1l0.3,0.3
				l0.6,0.7c0.4,0.4,0.8,0.9,1.1,1.3c0.3,0.4,0.6,0.9,0.8,1.4s0.4,1,0.4,1.5c0,0.1,0,0.1,0,0.2l0,0.1v0.1v0v0c0,0,0,0,0,0v0
				c0,0.1,0,0.3,0,0.4c0,0.3,0,0.6,0,0.9c0,0.6-0.1,1.1-0.2,1.7c-0.1,0.6-0.2,1.2-0.3,1.7c-1-0.8-2-1.5-3-2.1
				c-0.3-0.2-0.6-0.4-1-0.5c0-0.3,0.1-0.7,0.1-1c0-0.5,0.1-1,0-1.6c0-0.4-0.1-0.8-0.2-1.2l0,0c0-0.1,0.2-0.2,0.3-0.3
				s0.3-0.2,0.4-0.2c0.3-0.1,0.6-0.2,0.9-0.3c-0.3,0-0.7,0.1-1,0.2c-0.2,0-0.3,0.1-0.5,0.2c-0.1,0-0.2,0.1-0.2,0.1c0,0,0,0-0.1,0
				c0,0,0,0,0,0c-0.2-0.5-0.4-1-0.7-1.4c-0.1-0.1-0.1-0.2-0.2-0.3c-0.1-0.1-0.1-0.2-0.2-0.3c-0.2-0.2-0.3-0.4-0.5-0.6
				c-0.3-0.4-0.7-0.7-1-1.1c-0.3-0.4-0.7-0.8-0.9-1.2c-0.3-0.4-0.5-0.9-0.5-1.4c0,0.5,0.2,1,0.4,1.5s0.5,0.9,0.8,1.3
				c0.3,0.4,0.6,0.8,0.9,1.2c0,0,0,0,0,0c-0.1,0-0.2,0-0.3,0.1c-0.1,0-0.3,0.1-0.4,0.2s-0.2,0.2-0.3,0.3c-0.1,0.1-0.1,0.3-0.1,0.4
				c0-0.1,0-0.3,0.1-0.4s0.2-0.2,0.3-0.2c0.1,0,0.3-0.1,0.4-0.1c0.1,0,0.3,0,0.4,0l0-0.1c0.1,0.1,0.2,0.2,0.2,0.4
				c0.1,0.1,0.1,0.2,0.2,0.3c0.1,0.1,0.1,0.2,0.2,0.3c0.2,0.4,0.4,0.9,0.5,1.4c0.1,0.5,0.2,0.9,0.2,1.4c0,0.5,0,1-0.1,1.4
				c0,0.2-0.1,0.5-0.1,0.7c0,0,0,0-0.1,0c-0.6-0.3-1.2-0.6-1.8-1c-1.1-0.7-2.1-1.5-2.9-2.4c-0.8-1-1.4-2.2-1.8-3.4L38,36.1l0-0.1
				l0-0.1l-0.2-0.5c-0.1-0.3-0.2-0.6-0.3-1c-0.2-0.6-0.3-1.3-0.5-2c-0.3-1.3-0.4-2.6-0.4-4c0-1.3,0.2-2.7,0.5-4
				c0-0.2,0.1-0.3,0.1-0.5l0.1-0.2l0.1-0.2c0.1-0.3,0.2-0.6,0.3-1c0.1-0.2,0.2-0.5,0.3-0.7c0.2-0.2,0.4-0.5,0.6-0.7
				c0.2-0.2,0.5-0.5,0.8-0.7c0.1-0.1,0.3-0.2,0.4-0.3L40,20l0,0l0,0l0,0h0l0.1,0c0,0,0.1,0,0.1-0.1c0.2-0.1,0.3-0.1,0.5-0.2
				c0.2,0,0.4-0.1,0.5-0.2c0.2-0.1,0.3-0.2,0.4-0.4c0.1-0.1,0.1-0.1,0.2-0.2c0.1-0.1,0.1-0.2,0.1-0.2c0.1-0.3,0.2-0.7,0.3-1
				s0.1-0.7,0.2-1c-0.1,0.3-0.1,0.7-0.2,1c-0.1,0.3-0.2,0.7-0.3,1c0,0.1-0.1,0.1-0.1,0.2c-0.1,0.1-0.1,0.1-0.2,0.2
				c-0.1,0.1-0.2,0.2-0.4,0.3c-0.1,0.1-0.3,0.1-0.5,0.1c-0.2,0-0.4,0.1-0.5,0.1c0,0-0.1,0-0.1,0.1l-0.1,0h0l0,0l0,0l0,0l0,0L39.7,20
				c-0.1,0.1-0.3,0.2-0.4,0.3c-0.3,0.2-0.6,0.4-0.8,0.7c-0.1,0.1-0.2,0.1-0.2,0.2c0.1-0.2,0.1-0.4,0.2-0.6c0.5-1.3,1-2.6,1.4-3.9
				c0.2-0.7,0.4-1.3,0.5-2c0,0,0-0.1,0-0.1l0.3,0c0,0,0,0,0,0c0.2,0.2,0.5,0.3,1.2-0.3s1-1.4,1-1.4s-0.9,0-1.6,0.5
				c-0.6,0.4-0.7,0.7-0.7,0.9l-0.3,0c0.1-0.6,0.1-1.2,0-1.9c-0.1-0.7-0.2-1.4-0.4-2s-0.4-1.3-0.5-2c0.1,0.7,0.3,1.3,0.4,2
				c0.1,0.7,0.3,1.3,0.3,2c0,0.7,0,1.3-0.1,2c-0.1,0.5-0.3,1.1-0.5,1.6l-0.4-0.2c0.1-0.2,0-0.6-0.4-1.1c-0.5-0.7-1.4-0.9-1.4-0.9
				s0.1,0.9,0.6,1.6c0.5,0.7,0.9,0.8,1.1,0.6c0,0,0,0,0,0l0.5,0.2c0,0.1-0.1,0.1-0.1,0.2c-0.6,1.6-1.4,3.2-2,4.9
				c0-0.1-0.1-0.2-0.1-0.3c-0.2-0.4-0.6-0.6-0.9-0.9c-0.3-0.3-0.7-0.5-1-0.8c-0.1-0.2-0.3-0.3-0.3-0.5c0-0.2,0-0.4,0.1-0.6
				c-0.1,0.2-0.2,0.4-0.1,0.6c0,0.2,0.1,0.4,0.3,0.6c0.3,0.3,0.6,0.6,0.9,0.9c0.3,0.3,0.6,0.6,0.8,0.9c0.1,0.2,0.2,0.3,0.2,0.5
				c-0.3,0.8-0.6,1.6-0.9,2.4c-0.1,0.2-0.2,0.5-0.2,0.7l0-0.1c-0.4,0-0.8,0-1.2-0.1s-0.7-0.3-1.1-0.5c-0.7-0.4-1.2-1-1.7-1.7
				c-0.4-0.7-0.8-1.4-0.9-2.2c-0.2-0.8-0.1-1.6,0.2-2.4c0.1-0.4,0.4-0.7,0.7-1c0.3-0.3,0.7-0.5,1-0.7c0.4-0.2,0.7-0.4,1.1-0.6
				c0.2-0.1,0.3-0.3,0.5-0.4c0.1-0.1,0.3-0.3,0.4-0.4c0.3-0.3,0.5-0.7,0.6-1.1c0.2-0.4,0.2-0.8,0.3-1.2c0.1-0.8-0.1-1.6-0.2-2.4
				c0.1,0.8,0.3,1.6,0.2,2.4c0,0.4-0.1,0.8-0.3,1.2c-0.2,0.4-0.4,0.7-0.6,1c-0.1,0.2-0.3,0.3-0.4,0.4c-0.1,0.1-0.3,0.3-0.5,0.4
				c-0.3,0.2-0.7,0.4-1.1,0.6c-0.4,0.2-0.7,0.4-1.1,0.7c-0.2,0.1-0.3,0.3-0.4,0.5c-0.1,0.2-0.2,0.4-0.3,0.5
				c-0.2,0.4-0.3,0.8-0.3,1.2c0,0.4,0,0.8,0.1,1.2c0.2,0.8,0.5,1.6,0.9,2.3c0.4,0.7,1,1.3,1.7,1.8c0.4,0.2,0.7,0.4,1.1,0.5
				c0.4,0.1,0.8,0.2,1.2,0.1c-0.3,1-0.4,2.1-0.5,3.2c0,0.4,0,0.9,0,1.3c-0.5-0.2-1-0.4-1.5-0.7c-0.7-0.4-1.3-0.8-1.9-1.4
				c-1.2-1-2.1-2.3-3-3.6c-0.9-1.3-1.6-2.8-2.3-4.2c-0.2-0.3-0.3-0.6-0.5-0.9c0.2-0.1,0.3-0.3,0.4-0.5c0.1-0.2,0.2-0.4,0.3-0.6
				c0.2-0.4,0.2-0.9,0.3-1.4c0.1-0.5,0.1-0.9,0.3-1.3c0.1-0.2,0.2-0.4,0.3-0.6c0.1-0.2,0.3-0.3,0.5-0.5c-0.2,0.1-0.4,0.3-0.5,0.4
				c-0.1,0.2-0.3,0.4-0.3,0.6c-0.2,0.4-0.3,0.9-0.3,1.3c-0.1,0.4-0.2,0.9-0.3,1.3c-0.2,0.4-0.4,0.7-0.7,1c-0.5-1-1.1-2-1.7-3
				c1.5,2.6,2.5,5.4,4,8c-0.3,0.3-0.6,0.5-1,0.6c-0.4,0.2-0.9,0.3-1.3,0.3c-0.4,0-0.9,0-1.3-0.1c-0.2-0.1-0.4-0.1-0.6-0.3
				c-0.2-0.1-0.4-0.3-0.6-0.4c-0.2-0.1-0.4-0.3-0.6-0.4c-0.1-0.1-0.2-0.1-0.3-0.1l-0.3-0.1c-0.4-0.2-0.9-0.3-1.3-0.4
				c-0.9-0.3-1.8-0.5-2.6-0.9c0.8,0.4,1.7,0.7,2.6,1c0.4,0.1,0.9,0.3,1.3,0.5l0.3,0.1c0.1,0,0.2,0.1,0.3,0.1
				c0.2,0.1,0.4,0.2,0.6,0.4c0.2,0.1,0.4,0.3,0.6,0.4c0.2,0.1,0.4,0.2,0.7,0.3c0.5,0.1,0.9,0.2,1.4,0.2c0.5,0,1-0.1,1.4-0.3
				c0.4-0.1,0.7-0.3,1-0.6c0.1,0.1,0.1,0.2,0.2,0.3c0.8,1.4,1.7,2.7,2.9,3.9c0.6,0.6,1.2,1.1,1.9,1.6c0.6,0.4,1.3,0.8,2,1
				c0,0.6,0.1,1.3,0.2,1.9c0,0.2,0,0.3,0.1,0.4c-0.6-0.1-1.3-0.3-1.9-0.5c-0.8-0.3-1.5-0.7-2.3-1s-1.5-0.7-2.4-1
				c-0.8-0.3-1.7-0.4-2.6-0.4c-0.1,0-0.2,0-0.3,0c-0.1,0-0.2,0-0.3,0c-0.2,0-0.4,0-0.6,0c-0.4,0-0.8-0.1-1.2-0.2
				c-0.8-0.2-1.6-0.5-2.3-0.9c-0.7-0.4-1.4-0.9-2-1.5c-0.6-0.6-1-1.3-1.3-2.1c0.2,0.8,0.6,1.6,1.2,2.2c0.5,0.6,1.2,1.2,1.9,1.7
				c0.7,0.4,1.5,0.8,2.3,1.1c0.4,0.1,0.8,0.2,1.3,0.3c0.2,0,0.4,0.1,0.6,0.1c0.1,0,0.2,0,0.3,0c0.1,0,0.2,0,0.3,0
				c0.8,0,1.6,0.2,2.4,0.5c0.8,0.3,1.5,0.7,2.2,1.1c0.7,0.4,1.5,0.8,2.3,1.2c0.8,0.3,1.6,0.6,2.4,0.8c0,0.2,0.1,0.4,0.1,0.7
				c0.1,0.3,0.2,0.7,0.2,1l0.1,0.5l0,0.1l0,0.1l0.1,0.3c0.2,0.7,0.4,1.4,0.7,2c0.3,0.7,0.7,1.3,1.1,1.9c0.2,0.2,0.4,0.5,0.6,0.7
				c-0.1,0-0.1,0-0.2,0c-0.6,0.1-1.2,0.3-1.8,0.4c-0.7,0.2-1.4,0.4-2,0.6c-0.9-0.6-1.8-1-2.6-1.5c-0.9-0.5-1.8-1.1-2.5-1.8l-1.2-1.1
				c-0.4-0.4-0.8-0.7-1.3-1c-0.4-0.3-0.9-0.6-1.5-0.8S25,36,24.5,35.9c-0.1,0-0.3,0-0.4,0c-0.1,0-0.3,0-0.4,0c-0.2,0-0.4,0-0.6,0
				l0-0.3c0,0,0,0,0,0c0.3-0.1,0.3-0.5-0.1-1.3c-0.4-0.8-1.3-1.1-1.3-1.1s-0.1,0.9,0.4,1.7c0.4,0.6,0.6,0.8,0.9,0.8l0,0.3
				c0,0-0.1,0-0.1,0c-0.5,0-1.1,0-1.6,0c-0.5,0-1-0.1-1.5-0.4c-0.1-0.1-0.2-0.1-0.3-0.2l-0.2-0.1l-0.2-0.1c-0.2-0.1-0.4-0.3-0.6-0.4
				c-0.9-0.6-1.6-1.3-2.4-2.1c-0.7-0.8-1.4-1.6-2-2.5c0.5,0.9,1.2,1.8,1.9,2.6c0.7,0.8,1.5,1.5,2.3,2.2c0.2,0.2,0.4,0.3,0.6,0.5
				l0.2,0.1l0.2,0.1c0.1,0.1,0.2,0.1,0.4,0.2c0.5,0.3,1,0.4,1.6,0.4c0.5,0.1,1.1,0.1,1.6,0.1c0.3,0,0.5,0,0.8,0c0.1,0,0.3,0,0.4,0
				c0.1,0,0.3,0,0.4,0c0.2,0,0.4,0.1,0.6,0.1L25,36.7c-0.2-0.1-0.6-0.1-1.2,0.4c-0.7,0.5-1,1.4-1,1.4s0.9-0.1,1.6-0.6
				c0.7-0.5,0.8-0.9,0.6-1.1l0.1-0.3c0.2,0.1,0.5,0.1,0.7,0.2c0.5,0.2,0.9,0.4,1.3,0.8c0.4,0.3,0.8,0.7,1.2,1l1.1,1.1
				c0.8,0.8,1.7,1.4,2.6,2c0.6,0.4,1.3,0.8,1.9,1.2c-0.1,0-0.2,0.1-0.3,0.1c-1.1,0.3-2.3,0.6-3.4,0.8c-0.6,0.1-1.2,0.1-1.7,0.1
				c-0.3,0-0.6,0-0.9-0.1l-0.2,0l-0.2,0c-0.1,0-0.3,0-0.4-0.1c-0.5-0.1-1.1-0.2-1.6-0.3c-0.2-0.1-0.3-0.1-0.5-0.2
				c-0.5-0.3-1.1-0.6-1.6-1c-1-0.7-2-1.5-3.1-2.1c-1.1-0.6-2.2-1.2-3.2-1.9s-2.1-1.3-3.1-2.1c1,0.8,2,1.5,3,2.2s2.1,1.3,3.2,2
				c1.1,0.6,2,1.5,3,2.2c0.4,0.3,0.8,0.5,1.2,0.8c-0.3-0.1-0.6-0.1-1-0.1c-0.6,0-1.3,0.1-1.9,0.2c-0.3,0.1-0.6,0.2-0.9,0.3
				c-0.1,0.1-0.3,0.1-0.4,0.2c-0.1,0.1-0.3,0.1-0.4,0.2c-1.1,0.5-2.3,0.8-3.4,1s-2.4,0.4-3.5,0.8c1.2-0.3,2.4-0.4,3.6-0.6
				c1.2-0.2,2.4-0.4,3.6-0.8c0.1-0.1,0.3-0.1,0.4-0.2c0.1-0.1,0.3-0.1,0.4-0.2c0.3-0.1,0.6-0.2,0.8-0.3c0.6-0.1,1.1-0.2,1.7-0.1
				c0.6,0.1,1.1,0.2,1.7,0.4c0.6,0.2,1.2,0.3,1.8,0.5c0.2,0,0.3,0.1,0.4,0.1l0.2,0l0.2,0c0.3,0,0.6,0.1,0.9,0.1c0.6,0,1.2,0,1.9,0
				c1.2-0.1,2.5-0.3,3.6-0.6c1.2-0.3,2.3-0.6,3.5-0.9c1-0.2,2-0.4,3-0.5c0.4,0.3,0.8,0.7,1.3,1c0.6,0.4,1.2,0.8,1.8,1.1
				c0.6,0.3,1.2,0.7,1.7,1c1.1,0.7,2.2,1.5,3.1,2.4c0.2,0.2,0.4,0.4,0.6,0.6c-0.1-0.1-0.2-0.1-0.3-0.1c-1-0.5-2.1-0.8-3.2-1
				c-1.1-0.2-2.2-0.2-3.4-0.1c-2.2,0.3-4.3,0.9-6.4,1c-0.3,0-0.5,0-0.8,0c-0.3,0-0.5,0-0.8,0c-0.5-0.1-1.1-0.2-1.6-0.2
				c-0.5-0.1-1.1-0.1-1.6-0.1c-0.3,0-0.5,0.1-0.8,0.1c-0.3,0.1-0.5,0.2-0.7,0.4c0.2-0.2,0.5-0.3,0.7-0.3c0.3-0.1,0.5-0.1,0.8-0.1
				c0.5,0,1.1,0.1,1.6,0.2c0.5,0.1,1.1,0.2,1.6,0.3c0.3,0,0.5,0.1,0.8,0.1c0.3,0,0.5,0,0.8,0c1.1,0,2.2-0.2,3.2-0.3
				c1.1-0.1,2.1-0.3,3.2-0.4c1-0.1,2.1,0,3.1,0.3c0.2,0,0.4,0.1,0.5,0.1c-0.3,0-0.6,0.1-0.8,0.1c-0.4,0.1-0.7,0.3-1,0.5
				c-0.3,0.2-0.5,0.4-0.8,0.7c-0.2,0.3-0.4,0.6-0.5,0.9c-0.1,0.3-0.1,0.5-0.2,0.8h0.3c0-0.2,0.1-0.5,0.2-0.7
				c0.1-0.3,0.3-0.6,0.5-0.8c0.2-0.2,0.4-0.4,0.7-0.6c0.3-0.2,0.5-0.3,0.8-0.3c0.3-0.1,0.6-0.1,0.9-0.1c0.6,0.1,1.2,0.3,1.8,0.6
				c0.6,0.3,1.2,0.6,1.7,0.9c0.3,0.2,0.6,0.3,0.9,0.5c0.1,0.1,0.1,0.1,0.2,0.2c0.1,0.1,0.2,0.2,0.3,0.3h2.8c-0.3-0.6-0.6-1.2-1-1.8
				C52.5,49.8,52.3,49.4,52.1,49.1z"/>
			<path class="st0" d="M55.3,17.5c0,0.4,0,0.8,0.1,1.2c-0.3-0.6-0.6-1.2-0.8-1.8c-0.4-0.9-0.8-1.9-1.1-2.8c-0.3-1-0.5-2-0.4-3
				c-0.1,1,0.1,2,0.3,3c0.3,1,0.6,2,1,2.9c0.4,0.9,0.8,1.9,1.2,2.8c0.1,0.3,0.2,0.5,0.3,0.8v-1.1c0-0.2-0.1-0.3-0.1-0.5
				c-0.1-0.5-0.2-1-0.2-1.4c0-0.5,0-1,0.1-1.4c0-0.2,0.1-0.4,0.2-0.6V15c-0.2,0.3-0.3,0.6-0.4,1C55.3,16.5,55.3,17,55.3,17.5z"/>
			<path class="st2" d="M55.8,51.8L55.8,51.8C55.8,51.8,55.8,51.8,55.8,51.8L55.8,51.8z"/>
			<path class="st0" d="M54.4,32.6c0,0.1-0.1,0.2-0.1,0.3c-0.6-0.6-1.1-1.2-1.6-1.8l-0.2-0.3c-0.1-0.1-0.1-0.2-0.2-0.3
				c-0.1-0.2-0.2-0.4-0.4-0.5c-0.2-0.4-0.4-0.7-0.6-1.1c-0.8-1.5-1.3-3.2-1.3-4.9c0-0.4,0-0.9,0-1.3c0-0.2,0.1-0.4,0.1-0.6l0.1-0.7
				c0.2-0.9,0.4-1.7,0.6-2.6c0.2-0.9,0.4-1.8,0.5-2.7c0-0.5,0-0.9,0-1.4c-0.1-0.5-0.2-0.9-0.3-1.4c0-0.1-0.1-0.1-0.1-0.2
				c0.2-0.2,0.3-0.3,0.5-0.5c0.2-0.2,0.3-0.5,0.4-0.8c0.2-0.5,0.3-1.1,0.4-1.6c0.1-0.5,0.2-1.1,0.4-1.6c0.1-0.2,0.3-0.5,0.5-0.7
				c0.2-0.2,0.4-0.3,0.7-0.4c-0.3,0.1-0.5,0.2-0.7,0.4c-0.2,0.2-0.4,0.4-0.5,0.7c-0.3,0.5-0.4,1-0.5,1.6s-0.3,1.1-0.4,1.6
				c-0.2,0.4-0.4,0.8-0.7,1.1c-0.1-0.3-0.2-0.5-0.4-0.8c-0.2-0.4-0.4-0.8-0.6-1.2c-0.4-0.8-0.9-1.6-1.5-2.2c0.5,0.7,0.9,1.5,1.3,2.3
				c0.2,0.4,0.4,0.8,0.5,1.2c0.2,0.4,0.3,0.8,0.4,1.2c0.2,0.8,0.2,1.7,0.1,2.6c0,0.1,0,0.2-0.1,0.4c-0.2-0.8-0.5-1.5-0.8-2.2
				c-0.5-1-1.3-1.9-2.2-2.5c-0.4-0.3-0.9-0.7-1.3-1.1c-0.4-0.4-0.7-0.8-0.9-1.3c-0.2-0.5-0.3-1.1-0.3-1.6c0-0.6,0-1.1,0.1-1.7
				c-0.1,0.6-0.1,1.1-0.1,1.7c0,0.6,0.1,1.1,0.3,1.6c0.2,0.5,0.5,1,0.9,1.4s0.8,0.8,1.3,1.1c0.9,0.7,1.6,1.6,2.1,2.5
				c0.5,0.9,0.7,1.8,0.9,2.8c-0.1,0.5-0.3,1-0.4,1.5c-0.3,0.7-0.5,1.5-0.7,2.3c-0.1,0-0.2,0-0.2,0.1c-0.3,0.1-0.6,0.2-0.9,0.2
				c-0.6,0-1.2-0.1-1.8-0.4c-0.6-0.2-1.1-0.6-1.6-1c-0.4-0.4-0.8-1-0.9-1.6c0.1,0.6,0.4,1.2,0.9,1.7c0.4,0.5,1,0.8,1.6,1.1
				c0.6,0.3,1.2,0.4,1.9,0.4c0.3,0,0.7,0,1-0.1c0,0,0,0,0.1,0L49.1,22c-0.1,0.2-0.1,0.5-0.1,0.7c-0.1,0.5-0.1,0.9-0.2,1.4
				c0,1,0,1.9,0.2,2.8c0.2,0.8,0.4,1.7,0.8,2.5c-0.5,0.3-0.9,0.6-1.4,0.8c-0.3,0.1-0.6,0.2-0.9,0.2c-0.3,0-0.6,0-0.9-0.2
				c0.1,0.1,0.3,0.2,0.4,0.2c0.2,0,0.3,0.1,0.5,0c0.3,0,0.6-0.1,0.9-0.2c0.5-0.2,1-0.4,1.5-0.6c0.2,0.4,0.4,0.9,0.6,1.3
				c0.1,0.2,0.2,0.4,0.4,0.6c0.1,0.1,0.1,0.2,0.2,0.3l0,0.1l0,0l0,0c0,0,0,0,0,0l0,0l0.1,0.2c0.5,0.8,1.1,1.6,1.7,2.2
				c0.6,0.7,1.2,1.3,1.8,2c0.4,0.4,0.7,0.8,1,1.2v-3.2c-0.3-0.3-0.5-0.5-0.8-0.7c0.1-0.7,0.4-1.4,0.8-2c0,0,0,0,0-0.1v-1.6
				c-0.2,0.4-0.5,0.9-0.7,1.3C54.8,31.6,54.6,32.1,54.4,32.6z"/>
			<path class="st0" d="M25.1,51.5l-0.2-0.1l-0.1,0l-0.1,0c-0.2,0-0.3-0.1-0.5-0.1c-0.2-0.2-0.3-0.3-0.5-0.4
				c-0.3-0.3-0.6-0.5-0.9-0.8c-0.1-0.1-0.3-0.3-0.4-0.5c-0.1-0.2-0.2-0.4-0.3-0.5c-0.1-0.4-0.1-0.8-0.1-1.2c-0.1,0.4-0.1,0.8,0,1.2
				c0.1,0.2,0.1,0.4,0.2,0.6c0.1,0.2,0.2,0.4,0.4,0.5c0.3,0.3,0.6,0.6,0.9,0.9c0,0,0.1,0.1,0.1,0.1c-0.5-0.1-1-0.3-1.5-0.4
				c-0.6-0.1-1.2-0.3-1.8-0.3c-0.6-0.1-1.2,0-1.8,0.1c-0.1,0-0.3,0.1-0.4,0.1s-0.3,0.1-0.4,0.1c-0.3,0.1-0.6,0.2-0.8,0.4
				c-0.4,0.3-0.8,0.5-1.2,0.9h0.3c0.3-0.2,0.7-0.5,1.1-0.7c0.3-0.1,0.5-0.2,0.8-0.3c0.1,0,0.3-0.1,0.4-0.1c0.1,0,0.3-0.1,0.4-0.1
				c0.6-0.1,1.1-0.1,1.7,0c0.6,0.1,1.1,0.2,1.7,0.4c0.6,0.2,1.1,0.4,1.7,0.5c0.2,0.1,0.4,0.1,0.6,0.2c0,0,0,0,0,0h0l0,0c0,0,0,0,0,0
				h1.8c-0.2-0.1-0.5-0.1-0.7-0.2L25.1,51.5z"/>
		</g>
	</g>
	<g>
		<path class="st3" d="M12.9,61.8c-0.8,0-1.4-0.1-1.7-0.2c-0.4-0.1-0.7-0.4-1-0.7c-0.3-0.3-0.5-0.6-0.6-1s-0.2-0.9-0.2-1.5v-5h1.8
			v4.9c0,0.5,0,0.8,0.1,1c0,0.2,0.1,0.4,0.2,0.5c0.2,0.2,0.4,0.3,0.6,0.4c0.2,0.1,0.6,0.1,1,0.1h2.1v1.4H12.9z"/>
		<path class="st3" d="M17.5,53.5v5c0,0.8,0.1,1.3,0.4,1.6c0.3,0.3,0.8,0.5,1.5,0.5c0.7,0,1.2-0.2,1.4-0.5c0.3-0.3,0.4-0.8,0.4-1.6
			v-5H23v5c0,0.6,0,1.1-0.1,1.4c-0.1,0.4-0.2,0.6-0.4,0.8c-0.3,0.4-0.7,0.7-1.3,0.9c-0.5,0.2-1.1,0.3-1.9,0.3
			c-0.7,0-1.4-0.1-1.9-0.3c-0.5-0.2-0.9-0.5-1.3-0.9c-0.2-0.2-0.3-0.5-0.4-0.8c-0.1-0.3-0.1-0.8-0.1-1.4v-5L17.5,53.5L17.5,53.5z"/>
		<path class="st3" d="M24.7,53.5h2.6l2.1,6.4l2.1-6.4h2.6v8.3h-1.7l0.1-6.5l-2.1,6.5h-1.9l-2.2-6.5l0.2,6.6h-1.8L24.7,53.5
			L24.7,53.5z"/>
		<path class="st3" d="M37.7,61.8h-1.8v-8.3h1.8V61.8z"/>
		<path class="st1" d="M38.8,57.5c0-1.4,0.3-2.5,1-3.2c0.7-0.7,1.7-1.1,3.1-1.1c1.4,0,2.5,0.4,3.1,1.1c0.7,0.7,1,1.8,1,3.3
			c0,1.5-0.3,2.6-1,3.3c-0.7,0.7-1.7,1.1-3.1,1.1c-1.4,0-2.5-0.4-3.1-1.1C39.2,60.2,38.8,59.1,38.8,57.5z M43,54.7
			c-0.7,0-1.3,0.2-1.7,0.7c-0.4,0.5-0.6,1.2-0.6,2.1c0,1,0.2,1.8,0.5,2.3s0.9,0.7,1.7,0.7c0.8,0,1.3-0.2,1.7-0.7
			c0.4-0.5,0.5-1.2,0.5-2.2c0-1-0.2-1.7-0.5-2.2C44.3,55,43.8,54.7,43,54.7z"/>
		<path class="st1" d="M48.3,53.5h2.2l3.4,6l-0.1-6h1.8v8.3h-2l-3.6-6.3l0.1,6.3h-1.8V53.5L48.3,53.5z"/>
	</g>
</g>
</svg>
