<?xml version="1.0" encoding="utf-8"?>
<!-- Generator: Adobe Illustrator 22.1.0, SVG Export Plug-In . SVG Version: 6.00 Build 0)  -->
<svg version="1.1" id="图层_2" xmlns="http://www.w3.org/2000/svg" xmlns:xlink="http://www.w3.org/1999/xlink" x="0px" y="0px"
	 viewBox="0 0 64 64" style="enable-background:new 0 0 64 64;" xml:space="preserve">
<style type="text/css">
	.st0{fill:#FFFFFF;}
</style>
<path class="st0" d="M24,14.4c1,0.1,1.6-1.6,0.6-2.3C23.7,11.2,22.2,14,24,14.4z"/>
<path class="st0" d="M27.3,12.2c1.3,0.2,1.5-1.7,0.5-2.2C26.4,9.3,25.8,11.8,27.3,12.2z"/>
<path class="st0" d="M12.2,26.7c0.6-0.2,1-0.7,0.4-1.4c-0.6-0.6-0.7-0.5-1.3-0.4C9,25.6,11,27,12.2,26.7z"/>
<path class="st0" d="M43.6,17.8c0.6,0.1,1.2,0.1,1.8-0.2c0.5-0.4,0.2-1,0.6-1.3c0.6-0.3,0.8-1,0.6-1.6c-0.3-0.6-0.8-1-1.3-1.4
	c-0.5-0.5-1.3-0.6-1.9-0.2c-0.9,0.7-1.4,1.8-1.3,2.9C42.3,16.9,42.9,17.6,43.6,17.8L43.6,17.8z"/>
<path class="st0" d="M48.8,23.9c1.9,0,1.7-3.6-0.2-2.4C47.5,22.2,47,23.9,48.8,23.9z"/>
<path class="st0" d="M11.1,31.8c0.5,0.2,1,0.2,1.5-0.1c0.8-0.7-0.1-1.3-0.5-1.5c-0.3-0.2-1.5,0-1.7,0.6
	C10.1,31.4,10.7,31.6,11.1,31.8L11.1,31.8z"/>
<path class="st0" d="M16.9,48.8c0.1,1.4,1.3,2.4,2.7,2.4c1.5-0.2,2.2-1,2.4-1.7c0.1-0.4,0.1-0.9,0.1-1.3c-0.1-1.4-1.3-2.5-2.8-2.4
	c-1.4,0.1-2.5,1.3-2.4,2.8C16.8,48.7,16.9,48.8,16.9,48.8z"/>
<path class="st0" d="M55,31.7c0,0,0.3-1.4-0.9-1.7c-0.8-0.2-2,0.2-2,1.2S54.7,33,55,31.7L55,31.7z"/>
<path class="st0" d="M56,37.2c-0.4-0.4-1-0.5-1.5-0.3c-0.5,0.1-1,0.5-1.2,1c-0.1,0.4,0,1.5,2.4,0.8C56.4,38.5,56.4,37.7,56,37.2
	L56,37.2z"/>
<path class="st0" d="M51.1,34.7c-0.3,0-0.5,0-0.7,0.3c-0.2,0.3-0.3,0.6-0.2,0.9c0,0.6,0.5,1.1,1.1,1.1C52.5,37,52.6,34.7,51.1,34.7
	L51.1,34.7z"/>
<path class="st0" d="M43.1,23.8c-0.8,0.3,0.4,1.5,0.9,1.1C45.1,24.3,44,23.5,43.1,23.8z"/>
<path class="st0" d="M44.2,45c-0.4,0-0.6,0-0.9,0.3c-0.2,0.2-0.3,0.5-0.3,0.8c0.1,0.7,0.7,1.2,1.4,1.2c0.7-0.1,1.3-0.6,1.3-1.4
	C45.8,45.2,45,45,44.2,45L44.2,45z"/>
<path class="st0" d="M48.6,40.3L48.6,40.3C48,40.6,48,40,48,39.8l0,0c-0.1-0.4-0.9-0.6-1.1-0.7c-0.8-0.1-1.5-0.5-1.9-1.1
	c-0.6-0.8-0.2-1.3,0.3-1.7c0.6-0.4,0.3-0.4,1-0.7c0.4-0.1,0.7-0.3,0.9-0.7c0.4-0.4,0.8-0.7,1.4-0.8c0.4-0.1,0.7-0.2,1-0.5
	c0.2-0.1,0.4-0.6-0.4-0.7c-0.6,0-1.1-0.4-1.5-0.9c-0.1-0.3-0.2-1.1-1.3-0.7c-1.5,0.5-2.3,0.3-2.7-0.2c-0.6-0.9-1-1.9-1.3-2.9
	c-0.1-0.7-0.1-0.8-1-2.2s0.2-2.6,0.8-3.3c0.7-0.7,1.6-1.3,2.6-1.7c0.8-0.5,0.5-1.7-0.6-2.1c-2-0.9-2.1,0.8-2.3,1.7
	c-0.1,0.9-0.9,0.9-1.2,0.8c-0.3-0.1-0.7-0.1-1.2,0.6c-0.7,1-2.9-0.8-3.3-1.1c-0.4-0.3-1-0.9-0.9-1.7c0.1-0.7,0.1-0.7,0-1.1
	c-0.1-0.2-0.1-0.5-0.1-0.7c0.3-1.5,1.6-0.3,1.9-2.5c-0.3-2.4-2.2-1.7-2.8-1.1c-0.7,0.6-0.7,1.1,0,1.9s0.7,1,0.5,1.5
	s-0.3,0.2-0.3,0.9c-0.3,1.6-1.3,1.9-1.3,1.9c-0.9,0.1-1.9,0-2.7-0.3c-0.8-0.4-1.3-1.1-1.5-1.9c-0.2-0.9,0-1.2-1.2-1.7
	c-1.2-0.5-1.6,0.5-1.1,1c0.5,0.5,0.8,0.1,0.9,1c0.1,0.9,0.1,0.8,0.5,1.4c0.4,0.6-0.6,0.8-1.5,1c-0.7,0.2-1.4,0.6-1.8,1.2
	c-0.4,0.4-0.9,0.6-1.5,0.7c-0.5,0.1-0.9,0.2-1.3,0.4c-0.5,0.3-1.5-0.2-1.9-0.8c-0.5-0.5-1-1-1.5-1.5c-1-1,0-1.4-0.7-2.1
	c-1.2-0.8-1.9,0.6-1.8,1.3c0.1,0.7,0.8,0.6,0.9,1s-0.4,0.6,0,1.1c0.4,0.5,0.5,0.5,2.3,1.3c1.8,0.8,0.8,2.3,0.5,3
	c-0.3,0.7-0.3,0.9-1.2,1c-0.8,0-1.6-0.2-2.3-0.7c-0.6-0.3-1.5-0.3-1.3,0.4c0.2,0.7,1,0.6,1.7,0.6c0.7,0.1,1.4,0.3,2.1,0.6
	c0.8,0.3,0.2,1.5,0.1,2.1s-1.5,0.9-3,0.7s-1.9,0.1-2,0.5c0,0.4,0.2,0.6,2.9,0.2s2.4,1.8,2.6,3.1c0.1,0.5,0.2,1,0.2,1.5
	c-0.1,0.5-0.4,1-0.8,1.2c-0.2,0.1-1.2-0.3-1.6-0.2c-0.3,0.1-0.6,0.1-0.9,0c-0.7,0-0.7,0-1.2,0.2c-0.2,0.2-0.5,0.2-0.8,0.3
	c-0.6,0-1.2,0.1-1.7,0.4c-0.4,0.3-0.8,0.3-1.2,0c-1-0.3-1.5,0.4-0.8,1.2c0.3,0.3,0.5,0.7,1.2,0.4c0.7-0.3,1.3-0.6,1.8-1.1
	c0.9-0.7,1.3-0.5,2.4-0.5c0.8-0.1,1.7,0.1,2.3,0.6c1.3,0.7,0.6,0.7,0.3,0.9c-0.3,0.2-0.5,0.5-0.3,1.3c0.2,0.8,1.1,0.9,2.1,0.3
	c1-0.5,1.2,0.8,1.3,1.3c0,0.9,0.5,1.7,1.3,2.1c1.1,0.6,3.2-0.3,4.4-0.6c0.9-0.3,2,0.1,2.5,0.9c0.5,0.8-0.3,1.3,0,2.5
	c0.3,1.2,0,1.8,0.5,3.1c0.5,1.3,1.6,0.5,2.1-0.1c0.3-0.7,0.3-1.5,0-2.1c-0.2-0.4-0.3-0.4-0.4-1.7c0.2-1.1-0.3-1.2-0.3-1.6
	s0.1-0.6,0.7-1c0.6-0.5,1.4-0.8,2.2-0.8c1.6-0.3,2.3,0.5,3.3,1.5c0.9,1.1,2.8,0.4,2.8,0.4c1.5-0.5,0.3-1.5-0.1-2.2
	c-0.4-0.7,0.2-0.9,1.4-1.1c1.2-0.2,1.5-0.8,1.3-1.7c-0.2-0.8,0-0.7,0.3-1.1c0.3-0.4,0.3-0.4,0.8-0.4c0.7,0.2,1.4,0.5,2,1
	c0.2,0.2,0.4,0.4,0.6,0.6c0.1,0,0.1,0,0.2,0c1.3,0,0.7,0.5,1,0.9c0.1,0.2,0.3,0.3,0.5,0.4c0.9,0.4,2.3,0.4,1.5-0.9
	c-0.3-0.6-0.9-0.8-1.5-0.5c0,0-0.1,0-0.1,0L48.6,40.3z"/>
<path class="st0" d="M33,52.5c-0.3-0.2-0.4-0.4-0.8-0.3c-0.3,0-0.5,0.2-0.7,0.4c-0.4,0.5-0.4,1.3,0.1,1.8c0.6,0.4,1.4,0.4,1.9-0.2
	C33.9,53.6,33.6,53,33,52.5L33,52.5z"/>
<path class="st0" d="M32,0C14.3,0,0,14.3,0,32s14.3,32,32,32s32-14.3,32-32S49.7,0,32,0z M32,60.7c-15.9,0-28.7-12.9-28.7-28.8
	S16.2,3.2,32.1,3.2c15.8,0,28.7,12.9,28.7,28.7C60.8,47.8,47.9,60.7,32,60.7C32,60.7,32,60.7,32,60.7z"/>
</svg>
