<?xml version="1.0" encoding="utf-8"?>
<!-- Generator: Adobe Illustrator 22.1.0, SVG Export Plug-In . SVG Version: 6.00 Build 0)  -->
<svg version="1.1" id="图层_1" xmlns="http://www.w3.org/2000/svg" xmlns:xlink="http://www.w3.org/1999/xlink" x="0px" y="0px"
	 viewBox="0 0 64 64" style="enable-background:new 0 0 64 64;" xml:space="preserve">
<style type="text/css">
	.st0{fill:#FFFFFF;}
</style>
<g>
	<path d="M60.5,40.1c0-0.4-0.1-0.8,0-1.2c1-4.8,1.9-9.6,1.8-14.5c0-2.3-0.5-4.5-1.6-6.6c-2.8-5.3-6.9-9.4-12.1-12.2
		c-8.9-4.7-18.3-6-28.2-4.4C13.5,2.3,8.3,6,4.6,11.9c-2,3.2-3.2,6.7-3.8,10.4C0.1,27,0.1,31.6,1.3,36.2c0.4,1.5,1.1,2.9,1.7,4.4
		c0.2,0.4,0.2,0.7-0.3,0.9c-1.8,0.6-2.4,2.5-1.4,4.1c0.8,1.2,1.9,2.1,3.3,2.5c0.8,0.2,1.7,0.3,2.5-0.2c0.3-0.2,0.8-0.1,1.2,0.1
		c0.3,0.1,0.5,0.5,0.8,0.7c3.2,2.8,6.2,5.8,9.8,8c1.3,0.8,2.1,2,2.7,3.3c0.1,0.2,0.2,0.3,0.3,0.6c0.4-0.8,0.7-1.6,1.1-2.3
		c0.1-0.2,0.3-0.3,0.4-0.4c1.4,1.5,2.3,3.2,3,5.3c0.5-1.4,1-2.7,1.5-4c1.1,0.8,2.1,1.5,2.5,2.9c0.6-1.1,1.1-2,1.7-3.1
		c0.5,1.3,0.9,2.4,1.3,3.5c1.1-1.9,2.1-3.7,3.3-5.6c0.1,1.2,0.3,2.3,0.4,3.3c0.9-1.3,1.7-2.7,3.2-3.6v2.1c0.2-0.2,0.3-0.4,0.4-0.6
		c0.9-1,1.8-2,2.7-2.9c0.3-0.3,0.8-0.5,1.2-0.6c0.9-0.2,1.9-0.3,2.8-0.4c0,0.3-0.1,0.7-0.1,1.3c0.5-0.7,0.9-1.2,1.4-1.7
		c0.9-0.9,1.7-1.8,2.7-2.5c1.7-1,3.2-2.2,4.5-3.8c0.1-0.2,0.3-0.3,0.5-0.6c1,1.1,2.2,0.6,3.4,0.5c1.6-0.2,2.6-1.1,3.1-2.7
		c0.1-0.3,0.2-0.5,0.2-0.8C63.5,41.8,62.5,40.1,60.5,40.1z M58.8,43.4c-0.7,0.2-0.9,0.6-0.9,1.3c0,0.4,0.1,0.8,0.1,1.3
		c-0.1,0-0.1,0-0.2,0c-1.3-0.7-2-0.2-2.8,0.9c-1,1.4-2.3,2.5-3.7,3.5c-1.1,0.8-2.2,1.7-3.3,2.6c0-0.2-0.1-0.5-0.1-0.9
		c-0.2,0.3-0.3,0.5-0.4,0.6c-0.3,0.3-0.7,0.6-1,0.6c-2,0-3.5,1-4.5,2.6c-0.2,0.3-0.5,0.6-0.8,1c-0.1-0.5-0.1-1-0.2-1.4
		c-0.1-0.1-0.1-0.1-0.2-0.1c-0.5,0.5-1.1,0.9-1.6,1.4c-0.5,0.5-1,1-1.6,1.6c-0.3-0.8-0.7-1.6-0.9-2.2c-1,1.4-2,2.9-3,4.4
		c-0.1,0-0.2,0-0.2-0.1c-0.4-0.9-0.8-1.8-1.2-2.8c-0.6,1-1.1,1.9-1.7,2.9c-0.9-0.8-1.8-1.6-2.8-2.3c-0.4,1.2-0.7,2.3-1.1,3.6
		c-1-1.6-1.6-3.1-3.1-4l0,0c-0.1-0.1-0.2-0.2-0.4-0.3c-0.4,0.5-0.7,1-1.1,1.5c-0.1,0-0.2,0-0.2-0.1c-0.7-1.5-1.8-2.4-3.2-3.3
		c-2.9-1.6-5.1-4-7.5-6.3c-0.2-0.2-0.5-0.3-0.7-0.4c-0.1-0.1-0.3-0.2-0.4-0.3C9.6,48.4,9.2,48,9,47.5c-0.5-1.1-1.4-1.2-2.5-1.1
		c-0.2,0-0.3,0-0.5,0c-0.6-1.9-0.6-1.9-2.3-2c0.3-0.2,0.5-0.3,0.7-0.5c0.7-0.5,0.7-0.9,0-1.3c-0.1-0.1-0.2-0.1-0.3-0.2
		c0.4-0.2,0.5-0.4,0.4-1c-0.2-1.4-1.2-2.3-1.5-3.6c-0.3-1.3-0.8-2.5-1-3.8c-1.2-6.9-0.6-13.6,2.6-19.9C8,7.5,13.4,3.5,20.8,2.3
		c8.6-1.4,16.9-0.5,24.8,3.1c6.3,2.8,11.2,7.2,14.3,13.5c0.8,1.6,1.2,3.3,1.3,5c0.3,4.1-0.1,8.2-0.9,12.3c-0.1,0.5-0.3,0.9-0.4,1.3
		c-0.1,0.7-0.4,1.3-0.3,2c0.1,0.7-0.1,0.9-0.6,1.2c-0.1,0-0.1,0.1-0.3,0.2c0.2,0.2,0.4,0.3,0.6,0.4c-0.3,0.3-0.6,0.6-1.1,1
		c0.9,0.3,1.7,0.5,2.6,0.8C60,43.1,59.4,43.3,58.8,43.4z"/>
	<path class="st0" d="M59.2,41.2c-0.2-0.1-0.4-0.2-0.6-0.4c0.1-0.1,0.2-0.2,0.3-0.2c0.5-0.2,0.7-0.5,0.6-1.2c-0.1-0.6,0.1-1.3,0.3-2
		c0.1-0.5,0.3-0.9,0.4-1.3c0.8-4.1,1.2-8.2,0.9-12.3c-0.1-1.7-0.5-3.4-1.3-5c-3.1-6.3-8-10.7-14.3-13.5c-7.9-3.6-16.3-4.4-24.8-3.1
		C13.4,3.5,8,7.5,4.6,14.2c-3.1,6.3-3.8,13-2.6,19.9c0.2,1.3,0.7,2.5,1,3.8c0.3,1.3,1.3,2.2,1.5,3.6c0.1,0.6,0,0.7-0.4,1
		c0.1,0.1,0.2,0.2,0.3,0.2c0.7,0.5,0.7,0.8,0,1.3c-0.2,0.2-0.4,0.3-0.7,0.5c1.7,0.1,1.7,0.1,2.3,2c0.1,0,0.3,0,0.5,0
		c1-0.1,1.9,0,2.5,1.1c0.2,0.5,0.6,0.9,0.9,1.3c0.1,0.1,0.3,0.2,0.4,0.3c0.2,0.1,0.5,0.2,0.7,0.4c2.4,2.3,4.6,4.7,7.5,6.3
		c1.4,0.8,2.6,1.7,3.2,3.3c0,0,0.1,0,0.2,0.1c0.3-0.5,0.7-1,1.1-1.5c0.1,0.1,0.2,0.2,0.4,0.3l0,0c1.5,0.9,2.1,2.5,3.1,4
		c0.4-1.3,0.8-2.4,1.1-3.6c1,0.8,1.9,1.6,2.8,2.3c0.6-1,1.2-2,1.7-2.9c0.4,1,0.8,1.9,1.2,2.8c0.1,0,0.2,0,0.2,0.1c1-1.5,2-3,3-4.4
		c0.3,0.6,0.6,1.4,0.9,2.2c0.6-0.6,1.1-1.1,1.6-1.6c0.5-0.5,1-0.9,1.6-1.4c0.1,0,0.1,0.1,0.2,0.1c0.1,0.4,0.1,0.9,0.2,1.4
		c0.3-0.4,0.6-0.7,0.8-1c1.1-1.6,2.5-2.6,4.5-2.6c0.4,0,0.7-0.4,1-0.6c0.2-0.1,0.3-0.4,0.4-0.6c0,0.4,0.1,0.7,0.1,0.9
		c1.1-0.9,2.1-1.9,3.3-2.6c1.4-1,2.8-2.1,3.7-3.5c0.7-1.1,1.5-1.6,2.8-0.9c0,0,0.1,0,0.2,0c0-0.4-0.1-0.8-0.1-1.3
		c0-0.7,0.2-1.1,0.9-1.3c0.6-0.1,1.2-0.3,2-0.5c-0.9-0.3-1.7-0.5-2.6-0.8C58.6,41.8,58.9,41.5,59.2,41.2z M41.5,42
		c-0.7,1.5-1.8,2.4-3.5,2.6c-0.4,0.1-0.9,0.1-1.3,0.1c-1.4,0.1-2.1,0.7-2.2,2c-0.1,0.8-0.1,1.6-0.1,2.4c0,0.5,0,1-0.2,1.4
		c-0.2,0.8-0.7,1.5-1.6,1.6c-0.9,0.2-1.7-0.1-2-0.9c-0.3,0.3-0.6,0.7-1,0.9c-0.9,0.5-2.1,0.1-2.5-0.9c-0.2-0.6-0.3-1.3-0.4-2
		c-0.1-1-0.1-2-0.1-3c0-0.6-0.4-1-1.1-1.1c-0.6,0-1.1-0.1-1.7-0.2c-1.9-0.3-3.1-1.4-3.8-3.2c-0.4-1.2-0.6-2.5-0.4-3.8
		c0.3-1.6,1-2.3,2.5-2.7c1.7-0.3,3.3-0.3,4.9,0.2c0.6,0.2,1.1,0.7,1.6,1.2c0.5,0.6,0.9,1.3,1.4,2c0.6,0.7,0.9,0.7,1.5,0
		c0.4-0.4,0.7-0.9,1-1.4c0.7-1.2,1.7-2,3.1-2c1.1,0,2.1-0.1,3.2,0c2,0.2,2.8,1,3.1,2.9C42.2,39.4,42,40.8,41.5,42z"/>
	<path d="M41.9,38.1c-0.3-2-1.1-2.7-3.1-2.9c-1-0.1-2.1,0-3.2,0c-1.5,0-2.4,0.8-3.1,2c-0.3,0.5-0.6,0.9-1,1.4c-0.6,0.7-1,0.7-1.5,0
		c-0.5-0.6-0.9-1.4-1.4-2c-0.4-0.5-1-1-1.6-1.2c-1.6-0.5-3.3-0.5-4.9-0.2c-1.6,0.3-2.3,1.1-2.5,2.7c-0.2,1.3,0,2.6,0.4,3.8
		c0.6,1.8,1.8,2.9,3.8,3.2c0.6,0.1,1.1,0.2,1.7,0.2c0.7,0,1,0.4,1.1,1.1c0.1,1,0.1,2,0.1,3c0.1,0.7,0.1,1.4,0.4,2
		c0.4,1,1.7,1.4,2.5,0.9c0.4-0.2,0.7-0.6,1-0.9c0.4,0.8,1.1,1.1,2,0.9c0.9-0.2,1.4-0.8,1.6-1.6c0.1-0.4,0.1-0.9,0.2-1.4
		c0.1-0.8,0-1.6,0.1-2.4c0.2-1.4,0.9-2,2.2-2c0.4,0,0.9-0.1,1.3-0.1c1.6-0.2,2.8-1,3.5-2.6C42,40.8,42.2,39.4,41.9,38.1z M27.4,42.6
		c-0.9,0.9-2.4,0.9-3.2-0.1c-0.3-0.3-0.5-0.8-0.7-1.2c-0.2-0.4-0.4-0.8-0.6-1.2c1-0.1,2-0.3,3-0.3c0.9,0,1.6,0.3,2,1.2
		c0.1,0.3,0.4,0.6,0.5,0.8C28,42.2,27.6,42.4,27.4,42.6z M38.5,40.9c-0.2,0.4-0.4,0.9-0.7,1.2c-0.9,1.1-2.4,1.1-3.3,0.1
		c-0.3-0.3-0.6-0.4-0.9-0.7c0.5-0.9,1-2.1,2.4-2.1c1,0,2,0.2,3,0.3C38.8,40.2,38.7,40.6,38.5,40.9z"/>
	<path class="st0" d="M33.5,41.5c0.5-0.9,1-2.1,2.4-2.1c1,0,2,0.2,3,0.3c-0.2,0.4-0.4,0.8-0.5,1.1c-0.2,0.4-0.4,0.9-0.7,1.2
		c-0.9,1.1-2.4,1.1-3.3,0.1C34.2,42,33.9,41.8,33.5,41.5z"/>
	<path class="st0" d="M22.9,40.1c1-0.1,2-0.3,3-0.3c0.9,0,1.6,0.3,2,1.2c0.1,0.3,0.4,0.6,0.5,0.8c-0.4,0.3-0.7,0.5-1,0.7
		c-0.9,0.9-2.4,0.9-3.2-0.1c-0.3-0.3-0.5-0.8-0.7-1.2C23.2,41,23.1,40.6,22.9,40.1z"/>
</g>
</svg>
