<?xml version="1.0" encoding="utf-8"?>
<!-- Generator: Adobe Illustrator 22.1.0, SVG Export Plug-In . SVG Version: 6.00 Build 0)  -->
<svg version="1.1" id="图层_1" xmlns="http://www.w3.org/2000/svg" xmlns:xlink="http://www.w3.org/1999/xlink" x="0px" y="0px"
	 viewBox="0 0 64 64" style="enable-background:new 0 0 64 64;" xml:space="preserve">
<style type="text/css">
	.st0{fill:#C6C7C7;}
</style>
<g>
	<g>
		<g>
			<g>
				<path class="st0" d="M11.1,23.8c-0.6-1.1-1.6-1.1-2.2,0L0.3,39.6c-0.6,1.1-0.1,2.1,1.2,2.1h16.9c1.3,0,1.8-0.9,1.2-2.1
					L11.1,23.8z"/>
			</g>
			<g>
				<path class="st0" d="M26.3,40.2c-0.6,1.1-1.6,1.1-2.2,0l-8.6-15.8c-0.6-1.1-0.1-2.1,1.2-2.1h16.9c1.3,0,1.8,0.9,1.2,2.1
					L26.3,40.2z"/>
			</g>
			<g>
				<path class="st0" d="M62.9,30.9c1.1,0.6,1.1,1.7,0,2.3l-13.7,7.9c-1.1,0.6-2,0.1-2-1.2V24.2c0-1.3,0.9-1.8,2-1.2L62.9,30.9z"/>
			</g>
			<g>
				<path class="st0" d="M44,39.4c0,1.3-1,2.3-2.3,2.3h-2c-1.2,0-2.3-1-2.3-2.3V24.6c0-1.3,1-2.3,2.3-2.3h2c1.2,0,2.3,1,2.3,2.3
					V39.4z"/>
			</g>
		</g>
	</g>
</g>
</svg>
