<?xml version="1.0" encoding="utf-8"?>
<!-- Generator: Adobe Illustrator 22.1.0, SVG Export Plug-In . SVG Version: 6.00 Build 0)  -->
<svg version="1.1" id="图层_1" xmlns="http://www.w3.org/2000/svg" xmlns:xlink="http://www.w3.org/1999/xlink" x="0px" y="0px"
	 viewBox="0 0 64 64" style="enable-background:new 0 0 64 64;" xml:space="preserve">
<style type="text/css">
	.st0{fill:#FF9E16;}
</style>
<g>
	<path class="st0" d="M60,32L60,32c0-5,0-10,0-15c0-0.7-0.2-1.2-0.9-1.6c-8.7-5-17.3-10-26-15c-0.6-0.3-1.1-0.4-1.7,0
		c-8.6,5-17.3,10-26,15c-0.7,0.4-1,0.9-1,1.7c0,9.9,0,19.7,0,29.6c0,0.9,0.3,1.5,1.1,1.9c8.6,4.9,17.3,9.9,25.9,14.9
		c0.6,0.3,1,0.3,1.6,0c2.3-1.4,4.6-2.7,6.9-4c6.4-3.7,12.7-7.3,19.1-11c0.5-0.3,0.9-0.5,0.9-1.2C60,42.2,60,37.1,60,32z M57.2,47.7
		c-8.1,4.6-16.1,9.2-24.1,13.9c-0.6,0.4-1.1,0.3-1.7,0c-8.1-4.7-16.1-9.3-24.2-13.9c-0.7-0.4-1-0.9-1-1.8c0-9.2,0-18.4,0-27.6
		c0-0.8,0.2-1.3,1-1.8c8.1-4.7,16.2-9.4,24.4-14.1c0.5-0.3,0.9-0.3,1.4,0c8.2,4.7,16.4,9.5,24.6,14.2c0.5,0.3,0.7,0.6,0.7,1.2
		c0,4.7,0,9.4,0,14.2h0.1c0,4.6,0,9.1,0,13.7C58.4,46.6,58.2,47.1,57.2,47.7z"/>
	<path class="st0" d="M56.2,44.9c0,0.7-0.2,1.1-0.8,1.4c-0.5,0.2-1,0.6-1.6,0.9c-0.1-0.3-0.1-0.5-0.1-0.6c-1.4,0.1-2.7,0.2-4.1,0.3
		c-0.7,0.1-1-0.2-1.3-0.8c-0.8-2.2-1.7-4.4-2.5-6.7c-0.4-1.2-1-2.1-2.2-2.5c-1.9-0.7-3.8-1.4-5.7-2.1c-0.7-0.2-1.1-0.6-1.3-1.3
		c-0.9-2.3,0.1-4.2,1.1-6.1c1.6,0.9,3.1,1.7,4.6,2.5c0.7,0.4,1.3,0.4,2-0.1c2.6-1.9,5.2-3.7,7.4-6.1c0.7-0.8,0.5-1.5,0.1-2.1
		c-0.4-0.5-0.9-1-1.7-0.5c-0.2,0.1-0.5-0.1-0.8-0.2c-0.4,0.9-1.1,1.7-0.6,2.8c0.3,0.6,0,1.1-0.6,1.4c-1.4,0.6-2.8,1.3-4.2,1.8
		c-0.2,0.1-0.6,0.1-0.8-0.1c-1.6-1.1-3.2-2.2-4.8-3.4c-0.2-0.2-0.5-0.8-0.4-1c0.3-0.5,0.7-0.9,1.4-0.6c0.4,0.2,0.9,0.4,1.3,0.6
		c0.8,0.3,1.3,0.1,1.8-0.7c0.3-0.6,0.5-1.4,1.4-1.5c0.1,0,0.1-0.5,0-0.7c-0.3-0.6-0.3-1,0.2-1.7c0.8-0.9,0.4-2.2,0-3.3
		c-0.6-1.9-2.8-2.9-4.9-2.5c-2.2,0.5-3.5,2.1-3.3,4.3c0.1,0.6-0.1,1.3,0.1,1.9c0.3,1.6-1.5,2.9-2.9,2.5c-1.9-0.6-3.9-1-5.7-1.7
		c-1.9-0.7-3.3-0.5-4.7,1.1c-1.6,1.8-3.5,3.4-5.2,5.2c-0.5,0.5-0.5,1.8,0.1,2.4c0.5,0.5,1,0.8,1.8,0.3c1.2-0.7,1.5-1.2,1.2-2.7
		c-0.2-0.7,0-1.1,0.7-1.5c1.1-0.7,2.2-1.5,3.3-2.2c0.4-0.3,0.8-0.3,1.2,0c1,0.6,2,1.2,3,1.8c0.3,0.2,0.5,0.7,0.4,1
		c0,0.7-0.2,1.5-0.4,2.2c-0.6,2.7,0.2,5.4,0.7,8c0.1,0.7,0.1,1.2-0.4,1.8c-1.2,1.6-2.3,3.3-3.5,5c-0.1-0.1-0.2-0.1-0.3-0.2
		c-0.8-1.6-2.2-2.2-3.8-2.7c-1.3-0.4-2.5-1-2.9-2.4c-0.2-0.7-0.7-0.7-1.3-0.4c-1,0.6-2.1,1.1-3.1,1.7c-0.7,0.4-1.1,1.1-1.3,2.1
		c0.6-0.2,0.9-0.3,1.3-0.4c0.5-0.2,1-0.4,1.6-0.5c1.5-0.3,2.6,0.2,3.7,1.3c1.6,1.8,3.4,3.4,5.1,5.2c0.8,0.8,1.8,0.9,2.7,0.1
		c2-1.6,4-3.2,6-4.9c1.5-1.3,3.2-1.6,5.1-1c1,0.3,2,0.6,3,0.8c0.7,0.1,1.1,0.4,1.2,1.1c0.2,1.3,1,2.2,1.8,3.2
		c1.3,1.6,2.8,3.1,3.2,5.3c0,0.3,0.3,0.5,0.5,0.8c-2.1,1.2-4.2,2.5-6.4,3.7c-2.9,1.7-5.8,3.3-8.7,5c-0.6,0.3-1,0.3-1.6,0
		c-7.4-4.3-14.9-8.6-22.3-12.9c-0.6-0.3-0.8-0.7-0.8-1.4c0-8.6,0-17.3,0-25.9c0-0.7,0.2-1,0.8-1.4c7.5-4.3,14.9-8.6,22.3-12.9
		c0.5-0.3,0.9-0.3,1.5,0c7.5,4.3,14.9,8.6,22.4,12.9c0.5,0.3,0.8,0.7,0.8,1.3C56.2,27.6,56.2,36.3,56.2,44.9z"/>
</g>
</svg>
