<?xml version="1.0" encoding="utf-8"?>
<!-- Generator: Adobe Illustrator 22.1.0, SVG Export Plug-In . SVG Version: 6.00 Build 0)  -->
<svg version="1.1" id="图层_1" xmlns="http://www.w3.org/2000/svg" xmlns:xlink="http://www.w3.org/1999/xlink" x="0px" y="0px"
	 viewBox="0 0 64 64" style="enable-background:new 0 0 64 64;" xml:space="preserve">
<style type="text/css">
	.st0{fill:#FFFFFF;}
</style>
<path class="st0" d="M32,0.5C14.6,0.5,0.5,14.6,0.5,32S14.6,63.5,32,63.5S63.5,49.4,63.5,32S49.4,0.5,32,0.5z M32,60.2
	c-15.6,0-28.3-12.7-28.2-28.3c0-15.6,12.7-28.3,28.3-28.2c15.6,0,28.2,12.7,28.2,28.3C60.3,47.6,47.7,60.2,32,60.2L32,60.2L32,60.2z
	"/>
<path class="st0" d="M42.1,26.4c-0.4-1.4-0.7-2.5-0.9-3.4c-0.6-1.2-4-1.3-6-0.5c-1.7,0.7-3.4,2-3.3,3.4c0.1,0.7,0.2,1.5,0.4,2.4
	c1,4.7,3.9,13.7,3.6,15.3c0.2-1.2-2-7-3.5-11.7c-6.3-5.6-11-7.2-14.3-6.3s-5.5,4.4-6.1,7.8c-1.2,6.6,1.7,14,3,14.7
	c0.3,0.2,0.9,1.1,3.4,0.4c1.6-0.3,2.9-1.3,3.7-2.7c0.5-1.6-1.2-8.2-1.2-11.1l0,0c0-0.2,0-0.4,0-0.7c-0.1-1.1,0.7-2.1,1.8-2.1
	c-0.8,0.2-1,1-1.2,2c1.5,0.6,3,1.8,6.5,4.7c4.5,3.8,7.4,8.6,10.5,9.4c3.7,0.9,6.1-1.1,6.6-4.9c0.4-2.8-1.1-9.1-2.3-13.7
	C42.6,28.2,42.3,27.3,42.1,26.4L42.1,26.4z"/>
<path class="st0" d="M41.4,15.5c0.4,0.8,0.6,1.7,0.6,2.6c0,0.6-0.1,1.1-0.4,1.6c0,0.2,0,0.4,0,0.6c0,0.2,0,0.4,0,0.7
	c0.4,0.1,0.8,0.2,1.1,0.3c1.8-1.7,2.4-4.3,2-5.2c-1.7-1.6-3.9-2.6-6.2-2.9C39.7,13.7,40.7,14.5,41.4,15.5z M42.8,26.3l1.7,1.4
	c1.1-0.7,2.2-1.5,3.1-2.4l0.1-0.1c-1.5-1.2-3.2-2.1-4.9-3c-0.3,0.2-0.6,0.5-1,0.6c0.1,0.7,0.4,1.7,0.7,2.8L42.8,26.3L42.8,26.3z
	 M48.2,25.6L48,25.8c-0.9,0.9-1.9,1.7-3,2.4c1,1,2.2,1.7,3.5,2.1c0.9-0.7,1.7-1.6,2.2-2.6C50.3,27.2,49.3,26.5,48.2,25.6z
	 M53.4,25.6c-0.5-1.2-1.3-2.3-2.3-3.2c-0.8,1-1.7,2-2.6,2.9c1.2,1,2.2,1.8,2.5,2.1c0.8-0.3,1.6-0.8,2.3-1.4c0-0.1,0-0.1,0-0.2
	L53.4,25.6z M41.1,21.9c-0.2-0.8-0.2-1.5,0-2.3v-0.1c0.4-1.2,0.3-2.6-0.3-3.7c-1.1-1.8-3.3-2.6-5.3-1.9c-1.5,0.6-1.1,4.5-0.2,7.8
	C37.2,21.1,39.2,21.1,41.1,21.9L41.1,21.9z M49.5,30.2c0.7-0.3,1.3-0.7,1.9-1.2c0.7-0.6,1.2-1.3,1.6-2.1c-0.6,0.4-1.2,0.8-1.8,1
	c-0.5,0.9-1.1,1.7-1.8,2.3L49.5,30.2z M41.8,22.2l0.5-0.3l-0.5-0.2C41.7,21.9,41.7,22.1,41.8,22.2L41.8,22.2z M43.3,21.8
	c1.7,0.9,3.3,1.9,4.8,3.1c0.9-0.9,1.8-1.9,2.6-2.9c-1.9-2.1-4.3-4.2-4.3-4.2l-1.1-0.9c0,0.6-0.1,1.2-0.3,1.8
	C44.8,19.8,44.1,20.9,43.3,21.8L43.3,21.8z M34.7,21.9c-0.4-1.6-1.3-5.2-0.6-7.2c-2.1,1.6-3,4.6-2.4,9.6
	C32.5,23.2,33.5,22.4,34.7,21.9z"/>
</svg>
