<?xml version="1.0" encoding="utf-8"?>
<!-- Generator: Adobe Illustrator 22.1.0, SVG Export Plug-In . SVG Version: 6.00 Build 0)  -->
<svg version="1.1" id="图层_1" xmlns="http://www.w3.org/2000/svg" xmlns:xlink="http://www.w3.org/1999/xlink" x="0px" y="0px"
	 viewBox="0 0 64 64" style="enable-background:new 0 0 64 64;" xml:space="preserve">
<style type="text/css">
	.st0{fill:#FFFFFF;}
	.st1{fill:#4C4E4B;}
</style>
<path class="st0" d="M59,64H5c-2.8,0-5-2.3-5-5V5c0-2.8,2.3-5,5-5h54c2.8,0,5,2.3,5,5v54C64,61.8,61.8,64,59,64z"/>
<g>
	<path class="st1" d="M12.7,35.9h-1.6c0-0.6,0-1.6-0.1-3.1c-0.1-1.4-0.1-2.3-0.1-2.7h-0.1c0,0.2-0.1,0.6-0.3,1.2s-0.4,1.4-0.9,2.6
		c-0.4,1.1-0.6,1.8-0.6,2H7.9c0-0.2-0.2-0.9-0.6-2c-0.4-1.1-0.7-1.9-0.8-2.4s-0.2-0.9-0.3-1.4H6.1c0,0.4,0,1.4-0.1,2.9
		c-0.1,1.5-0.1,2.4-0.1,2.9H4.4c0-0.1,0.1-1.2,0.4-3.2c0.3-2,0.4-3.3,0.4-3.8h2.1c0,0.4,0.2,1.3,0.7,2.7c0.4,1.4,0.7,2.2,0.7,2.6
		h0.1c0-0.4,0.2-1.3,0.7-2.6c0.5-1.4,0.7-2.3,0.7-2.6h2.1c0,0.7,0.1,2.1,0.3,4C12.7,34.8,12.7,35.8,12.7,35.9z"/>
	<path class="st1" d="M19.2,33.3c0,0.9-0.3,1.6-0.8,2.1c-0.6,0.5-1.2,0.8-2,0.8c-0.7,0-1.3-0.2-1.8-0.7s-0.8-1.1-0.8-2
		c0-0.9,0.3-1.6,0.8-2.1s1.2-0.8,2-0.8c0.7,0,1.3,0.2,1.8,0.7C18.9,31.8,19.2,32.4,19.2,33.3z M17.8,33.4c0-0.5-0.1-1-0.4-1.3
		s-0.6-0.5-1-0.5c-0.4,0-0.7,0.2-0.9,0.5c-0.2,0.3-0.4,0.7-0.4,1.2c0,0.5,0.1,1,0.4,1.3c0.2,0.4,0.6,0.5,1,0.5
		c0.4,0,0.7-0.2,0.9-0.5C17.6,34.3,17.8,33.9,17.8,33.4z"/>
	<path class="st1" d="M23.3,34.9l-0.1,1C23,36,22.7,36,22.3,36c-0.6,0-1-0.2-1.3-0.5c-0.3-0.3-0.4-0.9-0.4-1.8c0-0.5,0-1.2,0-1.8
		c-0.2,0-0.4,0-0.7,0l0-1.1c0.3,0,0.5,0,0.8,0c0-0.2,0-0.7,0-1.5l1.3-0.2c-0.1,0.7-0.1,1.3-0.1,1.7c0.3,0,0.8,0,1.3,0l0,1.1
		c-0.5,0-1,0-1.3,0c0,0.5,0,1,0,1.5c0,0.6,0.1,1.1,0.2,1.3s0.4,0.3,0.7,0.3C22.9,35,23.1,35,23.3,34.9z"/>
	<path class="st1" d="M29,35.9h-1.4c0.1-0.9,0.1-1.8,0.1-2.6c0-0.6-0.1-1.1-0.2-1.3c-0.2-0.2-0.4-0.3-0.8-0.3
		c-0.4,0-0.8,0.1-1.1,0.4c0,1.5,0,2.8,0.1,3.8h-1.4c0-1.1,0.1-2.4,0.1-4c0-1.4-0.1-2.6-0.2-3.6l1.5-0.1c-0.1,1.2-0.1,2.2-0.1,3h0.1
		c0.5-0.4,1-0.6,1.6-0.6c0.6,0,1,0.1,1.4,0.4c0.3,0.3,0.5,0.7,0.5,1.4c0,0.1,0,0.2,0,0.4c0,0.2,0,0.3,0,0.4
		C28.9,33.9,29,34.7,29,35.9z"/>
	<path class="st1" d="M34.8,32.8c0,0.2,0,0.4,0,0.7l-3.5,0.1c0,0.4,0.2,0.7,0.5,1c0.3,0.3,0.7,0.4,1.2,0.4c0.5,0,1.1-0.1,1.7-0.2
		l-0.1,1c-0.5,0.2-1.1,0.3-1.8,0.3c-0.9,0-1.6-0.3-2.1-0.8c-0.5-0.5-0.7-1.1-0.7-1.9c0-0.8,0.2-1.4,0.7-2c0.5-0.6,1.1-0.8,1.9-0.8
		c0.8,0,1.3,0.2,1.7,0.6S34.8,32.2,34.8,32.8z M33.6,32.8c0-0.8-0.4-1.2-1.1-1.2c-0.7,0-1.1,0.4-1.2,1.3L33.6,32.8z"/>
	<path class="st1" d="M39.3,30.8L39,32.1c-0.3-0.1-0.5-0.2-0.8-0.2c-0.5,0-0.9,0.2-1,0.7c0,1.4,0,2.5,0,3.3h-1.4
		c0.1-1.1,0.1-2,0.1-2.6c0-0.9-0.1-1.7-0.3-2.4l1.4-0.2c0.1,0.4,0.1,0.6,0.1,0.7h0.1c0.3-0.5,0.8-0.8,1.3-0.8
		C38.7,30.6,39,30.7,39.3,30.8z"/>
	<path class="st1" d="M41.6,35.9h-1.5c0.1-1.2,0.1-2.6,0.1-4c0-1.4-0.1-2.6-0.2-3.6l1.6-0.1c-0.1,1-0.1,2.2-0.1,3.6
		C41.6,33.4,41.6,34.7,41.6,35.9z"/>
	<path class="st1" d="M48.1,33.3c0,0.9-0.3,1.6-0.8,2.1c-0.6,0.5-1.2,0.8-2,0.8c-0.7,0-1.3-0.2-1.8-0.7s-0.8-1.1-0.8-2
		c0-0.9,0.3-1.6,0.8-2.1s1.2-0.8,2-0.8c0.7,0,1.3,0.2,1.8,0.7C47.8,31.8,48.1,32.4,48.1,33.3z M46.7,33.4c0-0.5-0.1-1-0.4-1.3
		s-0.6-0.5-1-0.5c-0.4,0-0.7,0.2-0.9,0.5c-0.2,0.3-0.4,0.7-0.4,1.2c0,0.5,0.1,1,0.4,1.3c0.2,0.4,0.6,0.5,1,0.5
		c0.4,0,0.7-0.2,0.9-0.5C46.5,34.3,46.7,33.9,46.7,33.4z"/>
	<path class="st1" d="M53.9,35.9l-1.3,0c0-0.1,0-0.3,0-0.4h-0.1c-0.4,0.3-0.9,0.5-1.5,0.5c-0.7,0-1.2-0.2-1.6-0.7
		c-0.4-0.5-0.6-1.1-0.6-1.8c0-0.8,0.2-1.5,0.7-2c0.4-0.6,1.1-0.9,1.8-0.9c0.5,0,0.9,0.1,1.1,0.3h0.1c0-0.8,0-1.7-0.1-2.6l1.5,0
		c-0.1,0.8-0.1,2-0.1,3.6C53.8,33.5,53.9,34.8,53.9,35.9z M52.6,34.7c0-1.1,0-2.1-0.1-2.8c-0.2-0.2-0.5-0.3-0.9-0.3
		c-0.5,0-0.8,0.2-1.1,0.5c-0.2,0.4-0.3,0.8-0.3,1.3c0,0.5,0.1,0.8,0.3,1.2c0.2,0.3,0.5,0.5,0.9,0.5C52,35.1,52.4,35,52.6,34.7z"/>
	<path class="st1" d="M59.7,32.8c0,0.2,0,0.4,0,0.7l-3.5,0.1c0,0.4,0.2,0.7,0.5,1c0.3,0.3,0.7,0.4,1.2,0.4c0.5,0,1.1-0.1,1.7-0.2
		l-0.1,1c-0.5,0.2-1.1,0.3-1.8,0.3c-0.9,0-1.6-0.3-2.1-0.8c-0.5-0.5-0.7-1.1-0.7-1.9c0-0.8,0.2-1.4,0.7-2c0.5-0.6,1.1-0.8,1.9-0.8
		c0.8,0,1.3,0.2,1.7,0.6C59.6,31.6,59.7,32.2,59.7,32.8z M58.5,32.8c0-0.8-0.4-1.2-1.1-1.2c-0.7,0-1.1,0.4-1.2,1.3L58.5,32.8z"/>
</g>
</svg>
