<?xml version="1.0" encoding="utf-8"?>
<!-- Generator: Adobe Illustrator 22.1.0, SVG Export Plug-In . SVG Version: 6.00 Build 0)  -->
<svg version="1.1" id="图层_1" xmlns="http://www.w3.org/2000/svg" xmlns:xlink="http://www.w3.org/1999/xlink" x="0px" y="0px"
	 viewBox="0 0 64 64" style="enable-background:new 0 0 64 64;" xml:space="preserve">
<style type="text/css">
	.st0{fill:#C7C6C6;}
</style>
<path class="st0" d="M60.3,29c0.1-0.2,0.2-0.4,0.3-0.6c1.4-2.6,2.4-5.3,2.8-8.2c0.4-2.9,0-5.7-1.9-8.1c-0.5-0.7-1-1.4-1.5-2.1
	c-1.3-2-3.1-3.2-5.3-3.9c-2.9-0.9-5.8-0.9-8.8-0.6C42.2,6,38.6,7,35.1,8.5c-0.3,0.1-0.6,0.1-0.9,0C28.3,6.1,22.3,4.7,16,5.2
	c-0.2,0-0.4-0.1-0.5-0.3c-0.3-0.5-0.7-0.9-1-1.5s-0.9-0.7-1.4-0.5C12.4,3,11.9,3.4,11.5,4c-0.4,0.6-0.4,1-0.1,1.5
	C11.7,6,11.7,6,11.1,6.1C8,7.2,5.5,9,3.8,11.8C3.4,12.4,3,13,2.7,13.5c-2.1,3-2.5,6.3-1.9,9.8c0.6,3.4,2,6.4,3.9,9.2
	c0.2,0.3,0.2,0.6,0,0.9c-2,3.3-3.6,6.8-4,10.8c-0.2,2.6,0.2,5.1,1.8,7.3c0.6,0.9,1.2,1.7,1.9,2.6c0.5,0.7,1.2,1.3,1.8,1.9
	c1.5,1,3.1,1.7,4.9,2.1c1.5,0.3,2.9,0.4,4.4,0.4c1.2-0.1,2.5-0.2,3.7-0.4c5-0.8,9.7-2.4,14.1-4.8c0.4-0.2,0.7-0.2,1-0.1
	c3.2,0.9,6.5,1.5,9.8,1.3c1.2-0.1,2,0.2,2.5,1.3c0.1,0.2,0.3,0.4,0.6,0.5c1.2,0.2,2.6-0.7,2.6-2c0-0.5,0.2-0.6,0.6-0.7
	c2.7-0.8,5-2.1,6.8-4.3c0.9-1.1,1.6-2.5,2.4-3.7c1.3-2,1.8-4.2,1.8-6.5c0-1.7-0.3-3.4-0.8-5.1c-0.4-1.1-0.8-2.2-1.3-3.3
	c-0.1-0.2-0.1-0.3,0-0.4C59.8,29.9,60,29.4,60.3,29z M6.3,53.1c-1.2-0.5-2.1-1.3-2.2-2.7C4,49.6,3.8,48.9,3.9,48
	c0.7,1,1.4,1.9,2,2.8C6.5,51.6,7,52.4,7.7,53c0.6,0.4,1.3,0.8,1.9,1.3C8.5,54,7.3,53.7,6.3,53.1z M19.9,17.3
	c-4.6,3.5-8.7,7.4-12.2,11.9c-0.2,0.2-0.3,0.4-0.5,0c-1.9-3-3.3-6.2-3.6-9.8c0-0.4,0-0.9-0.1-1.3c0-1.5,0.2-2.9,0.8-4.3
	c0.1-0.3,0.3-0.6,0.5-0.8c2.1-2.1,4.7-3.1,7.5-3.7c0.6-0.1,1.3-0.2,1.9-0.3c0.3,0,0.5,0,0.6,0.3c1.7,2.4,3.4,4.9,5.1,7.3
	C20.2,16.9,20.2,17,19.9,17.3z M28.9,11.4c-2.2,1.2-4.3,2.5-6.3,3.9c-0.2,0.2-0.4,0.2-0.6-0.1c-1.4-2-2.9-4.1-4.3-6.1
	c0,0,0-0.1-0.1-0.2c4,0.1,7.9,0.9,11.6,2.2C29.2,11.3,29,11.3,28.9,11.4z M39.1,50.2c1-0.7,2-1.3,2.9-1.9c0.2-0.1,0.3,0,0.4,0.1
	c0.5,0.8,1.1,1.5,1.7,2.4C42.3,50.7,40.8,50.6,39.1,50.2z M58,45.6c-0.1,0.3-0.2,0.5-0.4,0.7c-2.1,2.2-4.7,3.3-7.6,4
	c-0.9,0.2-1.8,0.3-2.8,0.4c-0.2,0-0.4,0-0.5-0.2c-0.8-1.2-1.6-2.3-2.4-3.5c-0.3-0.4,0-0.5,0.2-0.7c4.2-3.1,7.9-6.7,11.2-10.7
	c0.4-0.5,0.7-0.9,1.1-1.5C58.5,37.9,59.3,41.6,58,45.6z M56.2,10.1c0.3,0,0.6,0.2,0.9,0.3c1.9,0.7,3.1,2,3.1,4.2
	c0,1,0.1,2.1-0.2,3.1C59.9,14.6,57.8,12.5,56.2,10.1z"/>
</svg>
