<?xml version="1.0" encoding="utf-8"?>
<!-- Generator: Adobe Illustrator 22.1.0, SVG Export Plug-In . SVG Version: 6.00 Build 0)  -->
<svg version="1.1" id="图层_1" xmlns="http://www.w3.org/2000/svg" xmlns:xlink="http://www.w3.org/1999/xlink" x="0px" y="0px"
	 viewBox="0 0 64 64" style="enable-background:new 0 0 64 64;" xml:space="preserve">
<style type="text/css">
	.st0{fill:#89CEC0;}
	.st1{fill:#B3DFD7;}
	.st2{fill:#25B8A0;}
	.st3{fill:#62C3A7;}
</style>
<path class="st0" d="M38.7,46.6c0,4.5-0.1,13.7-0.1,13.9l-6,1l-7.3-1.2c0-4,0-8,0-11.9c0-1.2-0.3-2.3-0.9-3.3
	c-1.3-2.4-5.4-9.6-9.9-17.3v0C8.6,17.4,2.1,6.2,0.7,4.1C0.6,4.1,0.5,4,0.5,3.9c0,0-0.1-0.1-0.1-0.1c0,0,0,0,0,0
	C0.1,2.5,0.6,2.1,2,2.1c3.7,0.1,7.4,0.1,11,0c0.9,0,1.4,0.2,1.8,1c4.7,8.7,14.4,26.5,17,31.3v0c0.4,0.7,0.6,1.2,0.7,1.2
	c0.7,1.2,3.5,6.7,5.3,9.6C38.2,45.9,38.4,46.3,38.7,46.6z"/>
<path class="st1" d="M14.5,27.6c0,0,0,0.1,0,0.1v0c-0.4,2-0.2,21.6-0.2,31c0,0.2,0,0.4,0,0.6L0.3,57c0-2-0.1-51.7,0-53.2
	c0,0,0,0,0,0c0,0,0.1,0,0.1,0.1C2,5.7,13.6,25.9,14.5,27.6z"/>
<path class="st2" d="M63.5,56.4l-13.7,2.3c0-0.1,0-20.3,0-30.3c0-0.9,0.2-1.7,0.5-2.4c0,0,0,0,0,0c0.1-0.3,12.7-22.8,13.2-23.1v1.8
	C63.4,21.6,63.5,56.1,63.5,56.4z"/>
<path class="st3" d="M63.4,2.9c-0.5,0.3-23.1,40.9-24.8,43.8c-1.5-2-6.9-11.6-6.8-12.2C32.7,32.9,50,2.1,51,2.1
	c3.9,0.1,7.7,0.1,11.6,0C63.5,2.1,63.4,2.9,63.4,2.9z"/>
</svg>
