<?xml version="1.0" encoding="utf-8"?>
<!-- Generator: Adobe Illustrator 22.1.0, SVG Export Plug-In . SVG Version: 6.00 Build 0)  -->
<svg version="1.1" id="图层_1" xmlns="http://www.w3.org/2000/svg" xmlns:xlink="http://www.w3.org/1999/xlink" x="0px" y="0px"
	 viewBox="0 0 64 64" style="enable-background:new 0 0 64 64;" xml:space="preserve">
<style type="text/css">
	.st0{fill:#005BAB;}
	.st1{fill:#FFFFFF;}
	.st2{fill:#E73534;}
</style>
<ellipse class="st0" cx="29.5" cy="31.7" rx="26" ry="26"/>
<path class="st1" d="M35.4,45.4c11.1,4.6,9.2-7,3.3-15.8c-3.4-5-7.7-9.2-10.5-11.2c-9.2-6.7-14.8-2.6-8.4,10.6
	c2.1,4.3,4.8,7.1,6.9,9.9c1.6,2.1,4.7,3.1,3.6,4.1C29,43.9,26,39.1,26,39.1c-2.2-2.7-4.3-5.5-6.5-9.4c-5-8.9-4.3-18.1,4.7-14.1
	c7.6,3.4,14.9,12.8,17.9,19.6c1.4,3.1,5,15.4-6.7,10.4"/>
<path class="st2" d="M0.8,39.4c4.9-3.3,9.5-5.4,17.4-8c11.1-3.7,19.4-6.1,29.7-11.3c5-2.5,12.4-7.4,15.3-12.1
	c-0.9,1.7-3.4,5.2-4.6,6.7C44.7,32.2,15.1,31.2,1,39.6"/>
<path class="st1" d="M7.9,26.7c4.5,0,4,0,4.1,0c0.1,0,3.6,6,3.6,6.1c0,0,0-2.1,0-4.9c0-0.3-0.9-1.2-0.8-1.2c1.3,0,2.9,0,2.9,0
	c-0.6,0.7-0.8,0.7-0.8,1.1c0,1.5,0,4.1,0,7.1c0,0.5,0.3,0.6,0.9,1.4h-4.1c-1.3-2.2-3.8-6.4-3.8-6.4c0,0-0.1,2.6,0,4.7
	c0,0.7,0.3,0.9,0.9,1.5c0,0,0.7,0-3.2,0c1.2-0.6,1-1.4,1-1.4c0-2.9,0-5.3,0-6.9C8.6,27.7,8.6,27.7,7.9,26.7"/>
<g>
	<path class="st1" d="M21.9,31.1c0.4-1.3,0.7-2.5,0.8-3.2c0-0.1-0.3-0.6-0.8-1.1l0-0.1c2.4,0,4.9,0,4.9,0c0.7,1.6,2.1,6,3.3,8.8
		c0.3,0.7,0.8,0.9,0.8,0.9c-2,0-5.8,0-5.8,0c1-0.9,0.9-0.9,0.4-2.2h-3.2c-0.7,1.5,0.2,2.2,0.3,2.2c-0.7,0-3.2,0-3.2,0
		c1.3-0.9,1.3-1.2,1.3-1.2C21.1,33.8,21.5,32.4,21.9,31.1l1.3,0c-0.3,0.9-0.6,1.8-0.6,1.8h2.5l-1.4-3.6c0,0-0.3,0.9-0.6,1.8
		L21.9,31.1z"/>
</g>
<g>
	<path class="st1" d="M43.7,31.3c0.4-1.3,0.7-2.5,0.8-3.2c0-0.1-0.3-0.6-0.8-1.1l0-0.1c2.4,0,4.9,0,4.9,0c0.7,1.6,2.1,6.1,3.3,8.8
		c0.3,0.7,0.8,0.9,0.8,0.9c-2,0-5.8,0-5.8,0c1-0.9,0.9-0.9,0.4-2.2h-3.2c-0.7,1.5,0.2,2.2,0.3,2.2c-0.7,0-3.2,0-3.2,0
		c1.3-0.9,1.3-1.2,1.3-1.2C42.9,34,43.4,32.6,43.7,31.3l1.3,0c-0.3,0.9-0.6,1.8-0.6,1.8H47l-1.4-3.6c0,0-0.3,0.9-0.6,1.8L43.7,31.3z
		"/>
</g>
<path class="st1" d="M39.6,29.1c-0.1-1.9,0-2.5,0-2.5c-0.8,0.7-0.4,0.6-2.4,0.2c-5.8-1-6.3,4.5-3.1,5.7c2.7,1,3.6,1.2,3.2,2.2
	c-0.1,0.3-2.6,1.5-5.1-0.9l0.1,3.2c0.3-0.3,1.2-0.9,1.2-0.9c0,0,2.7,1.2,5.1-0.1c3.7-1.9,1.9-5-2.1-6.2C33.2,29,36.3,26.6,39.6,29.1
	"/>
<path class="st2" d="M63.3,8.2C59.3,20,43.4,29,30,37.7C22,43,14,49,8.4,54.1c-1.5,1.4,0.3-0.5-0.3,0.1c7.7-8.9,16.6-14.1,21.5-17.5
	c8.3-5.6,13-7,27.3-20.2"/>
<path class="st1" d="M35.4,45.4c11.1,4.6,9.2-7,3.3-15.8c-3.4-5-7.5-9-10.5-11.2c-3.5-2.6-3.9-2.8-3.9-2.8
	c7.8,3.7,14.9,12.8,17.9,19.6c1.4,3.1,5,15.4-6.7,10.4"/>
<path class="st1" d="M29.9,8c0,0.1-0.1,0.2-0.2,0.2S29.4,8.2,29.4,8c0-0.1,0.1-0.2,0.2-0.2S29.9,7.9,29.9,8z"/>
<path class="st1" d="M31.3,11.3c0,0.1-0.1,0.3-0.3,0.3s-0.3-0.1-0.3-0.3c0-0.1,0.1-0.3,0.3-0.3S31.3,11.1,31.3,11.3z"/>
<path class="st1" d="M35.1,16.5c0,0.1-0.1,0.3-0.3,0.3c-0.1,0-0.3-0.1-0.3-0.3c0-0.1,0.1-0.3,0.3-0.3C35,16.2,35.1,16.4,35.1,16.5z"
	/>
<path class="st1" d="M29,13.1c0,0.1-0.1,0.2-0.2,0.2c-0.1,0-0.2-0.1-0.2-0.2c0-0.1,0.1-0.2,0.2-0.2C28.9,12.8,29,12.9,29,13.1z"/>
<path class="st1" d="M31.3,14.3c0,0.1-0.1,0.2-0.2,0.2c-0.1,0-0.2-0.1-0.2-0.2c0-0.1,0.1-0.2,0.2-0.2C31.2,14.1,31.3,14.2,31.3,14.3
	z"/>
<path class="st1" d="M28.3,10.9c0,0.1-0.1,0.3-0.3,0.3c-0.1,0-0.3-0.1-0.3-0.3c0-0.1,0.1-0.3,0.3-0.3C28.2,10.6,28.3,10.8,28.3,10.9
	z"/>
<path class="st1" d="M24.9,13c0,0.1-0.1,0.2-0.2,0.2c-0.1,0-0.2-0.1-0.2-0.2c0-0.1,0.1-0.2,0.2-0.2C24.8,12.8,24.9,12.9,24.9,13z"/>
<path class="st1" d="M25.5,13.4c0,0.1-0.1,0.2-0.2,0.2c-0.1,0-0.2-0.1-0.2-0.2c0-0.1,0.1-0.2,0.2-0.2C25.4,13.2,25.5,13.3,25.5,13.4
	z"/>
<path class="st1" d="M26.1,13.8c0,0.1-0.1,0.2-0.2,0.2c-0.1,0-0.2-0.1-0.2-0.2c0-0.1,0.1-0.2,0.2-0.2C26,13.6,26.1,13.7,26.1,13.8z"
	/>
<path class="st1" d="M25.2,14.7c0,0.1-0.1,0.2-0.2,0.2c-0.1,0-0.2-0.1-0.2-0.2c0-0.1,0.1-0.2,0.2-0.2C25.1,14.4,25.2,14.5,25.2,14.7
	z"/>
<path class="st1" d="M20.2,18.1c0,0.1-0.1,0.2-0.2,0.2c-0.1,0-0.2-0.1-0.2-0.2c0-0.1,0.1-0.2,0.2-0.2C20.1,17.9,20.2,18,20.2,18.1z"
	/>
<path class="st1" d="M21.1,19.2c0,0.1-0.1,0.2-0.2,0.2c-0.1,0-0.2-0.1-0.2-0.2c0-0.1,0.1-0.2,0.2-0.2C21,19,21.1,19.1,21.1,19.2z"/>
<path class="st1" d="M20.4,37.1c0,0.1-0.1,0.2-0.2,0.2c-0.1,0-0.2-0.1-0.2-0.2s0.1-0.2,0.2-0.2C20.3,36.9,20.4,37,20.4,37.1z"/>
<path class="st1" d="M20.6,42.1c0,0.1-0.1,0.3-0.3,0.3c-0.1,0-0.3-0.1-0.3-0.3c0-0.1,0.1-0.3,0.3-0.3C20.4,41.8,20.6,41.9,20.6,42.1
	z"/>
<path class="st1" d="M17.7,44.6c0,0.1-0.1,0.2-0.2,0.2c-0.1,0-0.2-0.1-0.2-0.2c0-0.1,0.1-0.2,0.2-0.2C17.7,44.4,17.7,44.5,17.7,44.6
	z"/>
<path class="st1" d="M14.4,45.6c0,0.1-0.1,0.3-0.3,0.3s-0.3-0.1-0.3-0.3c0-0.1,0.1-0.3,0.3-0.3S14.4,45.5,14.4,45.6z"/>
<path class="st1" d="M13.7,43.3c0,0.1-0.1,0.3-0.3,0.3c-0.1,0-0.3-0.1-0.3-0.3c0-0.1,0.1-0.3,0.3-0.3C13.6,43.1,13.7,43.2,13.7,43.3
	z"/>
<path class="st1" d="M13.3,44.8c0,0.1-0.1,0.2-0.2,0.2c-0.1,0-0.2-0.1-0.2-0.2c0-0.1,0.1-0.2,0.2-0.2C13.2,44.6,13.3,44.7,13.3,44.8
	z"/>
<path class="st1" d="M10.8,43.6c0,0.1-0.1,0.2-0.2,0.2c-0.1,0-0.2-0.1-0.2-0.2s0.1-0.2,0.2-0.2C10.7,43.4,10.8,43.5,10.8,43.6z"/>
<path class="st1" d="M19.6,47.6c0,0.1-0.1,0.2-0.2,0.2c-0.1,0-0.2-0.1-0.2-0.2c0-0.1,0.1-0.2,0.2-0.2C19.5,47.4,19.6,47.5,19.6,47.6
	z"/>
<path class="st1" d="M22.2,45.7c0,0.1-0.1,0.3-0.3,0.3c-0.1,0-0.3-0.1-0.3-0.3c0-0.1,0.1-0.3,0.3-0.3C22.1,45.4,22.2,45.6,22.2,45.7
	z"/>
<path class="st1" d="M22.5,48.2c0,0.1-0.1,0.2-0.2,0.2c-0.1,0-0.2-0.1-0.2-0.2s0.1-0.2,0.2-0.2C22.4,48,22.5,48.1,22.5,48.2z"/>
<path class="st1" d="M33.4,45.8c0,0.1-0.1,0.2-0.2,0.2C33,46,33,45.9,33,45.8c0-0.1,0.1-0.2,0.2-0.2C33.3,45.6,33.4,45.7,33.4,45.8z
	"/>
<path class="st1" d="M28.3,47.6c0,0.1-0.1,0.2-0.2,0.2c-0.1,0-0.2-0.1-0.2-0.2s0.1-0.2,0.2-0.2C28.2,47.4,28.3,47.5,28.3,47.6z"/>
<path class="st1" d="M41.9,50.2c0,0.1-0.1,0.2-0.2,0.2c-0.1,0-0.2-0.1-0.2-0.2s0.1-0.2,0.2-0.2C41.8,50,41.9,50.1,41.9,50.2z"/>
<path class="st1" d="M43,40.2c0,0.1-0.1,0.3-0.3,0.3c-0.1,0-0.3-0.1-0.3-0.3c0-0.1,0.1-0.3,0.3-0.3C42.9,39.9,43,40,43,40.2z"/>
<path class="st1" d="M40.9,41.6c0,0.1-0.1,0.2-0.2,0.2c-0.1,0-0.2-0.1-0.2-0.2c0-0.1,0.1-0.2,0.2-0.2C40.9,41.4,40.9,41.5,40.9,41.6
	z"/>
<path class="st1" d="M43,42c0,0.1-0.1,0.3-0.3,0.3c-0.1,0-0.3-0.1-0.3-0.3c0-0.1,0.1-0.3,0.3-0.3C42.9,41.7,43,41.8,43,42z"/>
<path class="st1" d="M40.9,44.5c0,0.1-0.1,0.2-0.2,0.2c-0.1,0-0.2-0.1-0.2-0.2s0.1-0.2,0.2-0.2C40.9,44.3,40.9,44.4,40.9,44.5z"/>
<path class="st1" d="M46.3,38.7c0,0.1-0.1,0.2-0.2,0.2c-0.1,0-0.2-0.1-0.2-0.2c0-0.1,0.1-0.2,0.2-0.2C46.2,38.5,46.3,38.6,46.3,38.7
	z"/>
<path class="st1" d="M46.8,40c0,0.1-0.1,0.3-0.3,0.3c-0.1,0-0.3-0.1-0.3-0.3c0-0.1,0.1-0.3,0.3-0.3C46.7,39.8,46.8,39.9,46.8,40z"/>
<path class="st1" d="M50.4,41.6c0,0.1-0.1,0.3-0.3,0.3c-0.1,0-0.3-0.1-0.3-0.3c0-0.1,0.1-0.3,0.3-0.3C50.3,41.3,50.4,41.4,50.4,41.6
	z"/>
<path class="st1" d="M46.7,44.3c0,0.1-0.1,0.2-0.2,0.2c-0.1,0-0.2-0.1-0.2-0.2c0-0.1,0.1-0.2,0.2-0.2C46.6,44.1,46.7,44.2,46.7,44.3
	z"/>
<path class="st1" d="M49.1,42.1c0,0.1-0.1,0.2-0.2,0.2c-0.1,0-0.2-0.1-0.2-0.2c0-0.1,0.1-0.2,0.2-0.2C49,41.9,49.1,42,49.1,42.1z"/>
<path class="st1" d="M48.6,45.5c0,0.1-0.1,0.2-0.2,0.2s-0.2-0.1-0.2-0.2c0-0.1,0.1-0.2,0.2-0.2S48.6,45.4,48.6,45.5z"/>
<g>
	<path class="st1" d="M49.6,39.8c0,0.2-0.1,0.3-0.3,0.3c-0.2,0-0.3-0.1-0.3-0.3c0-0.2,0.1-0.3,0.3-0.3
		C49.5,39.5,49.6,39.6,49.6,39.8z"/>
</g>
<g>
	<polygon class="st1" points="49.3,38.8 49.2,39.7 48.3,39.8 49.2,39.9 49.3,40.8 49.4,39.9 50.3,39.8 49.4,39.7 	"/>
</g>
<g>
	<path class="st1" d="M47.3,45.5c0,0.2-0.1,0.3-0.3,0.3c-0.2,0-0.3-0.1-0.3-0.3c0-0.2,0.1-0.3,0.3-0.3
		C47.2,45.2,47.3,45.3,47.3,45.5z"/>
</g>
<g>
	<polygon class="st1" points="47,44.5 46.9,45.4 46,45.5 46.9,45.6 47,46.5 47.1,45.6 48,45.5 47.1,45.4 	"/>
</g>
<g>
	<path class="st1" d="M23,18.6c0,0.2-0.1,0.3-0.3,0.3c-0.2,0-0.3-0.1-0.3-0.3c0-0.2,0.1-0.3,0.3-0.3C22.9,18.2,23,18.4,23,18.6z"/>
</g>
<g>
	<polygon class="st1" points="22.7,17.6 22.6,18.5 21.7,18.6 22.6,18.7 22.7,19.6 22.8,18.7 23.7,18.5 22.8,18.5 	"/>
</g>
<g>
	<path class="st1" d="M35.1,10.7c0,0.2-0.1,0.3-0.3,0.3c-0.2,0-0.3-0.1-0.3-0.3s0.1-0.3,0.3-0.3C35,10.3,35.1,10.5,35.1,10.7z"/>
</g>
<g>
	<polygon class="st1" points="34.8,9.7 34.7,10.6 33.8,10.7 34.7,10.8 34.8,11.7 34.9,10.8 35.8,10.6 34.9,10.6 	"/>
</g>
<g>
	<path class="st1" d="M20.4,50.7c0,0.2-0.1,0.3-0.3,0.3c-0.2,0-0.3-0.1-0.3-0.3c0-0.2,0.1-0.3,0.3-0.3
		C20.3,50.4,20.4,50.5,20.4,50.7z"/>
</g>
<g>
	<polygon class="st1" points="20.1,49.7 20,50.6 19.1,50.7 20,50.8 20.1,51.7 20.2,50.8 21.1,50.7 20.2,50.6 	"/>
</g>
<path class="st2" d="M4.1,37.3c-1.4,0.7-2.7,1.4-3.8,2.1L1,39.6c0.9-0.6,2.1-1.2,3.3-1.7"/>
<path class="st2" d="M11.6,50.5c-1.3,1.1-2.6,2.4-4,3.6L7.5,55c1.2-1.3,2.8-2.6,4.5-4.1"/>
</svg>
