<?xml version="1.0" encoding="utf-8"?>
<!-- Generator: Adobe Illustrator 22.1.0, SVG Export Plug-In . SVG Version: 6.00 Build 0)  -->
<svg version="1.1" id="图层_1" xmlns="http://www.w3.org/2000/svg" xmlns:xlink="http://www.w3.org/1999/xlink" x="0px" y="0px"
	 viewBox="0 0 64 64" style="enable-background:new 0 0 64 64;" xml:space="preserve">
<style type="text/css">
	.st0{fill:#FFFFFF;}
</style>
<g>
	<g>
		<path class="st0" d="M32.8,1C49.9,1.4,63.4,15.6,63,32.8C62.6,49.9,48.4,63.4,31.2,63C14.1,62.6,0.6,48.4,1,31.2c0,0,0,0,0-0.1
			C1.5,14.1,15.7,0.6,32.8,1z M32.8,4.2C17.4,3.8,4.6,15.9,4.2,31.2c-0.4,15.3,11.7,28.1,27,28.6c15.3,0.4,28.1-11.7,28.6-27
			c0,0,0,0,0-0.1C60.2,17.4,48.1,4.6,32.8,4.2z"/>
	</g>
</g>
<path class="st0" d="M34.9,22c-1.2,1.2-0.7,3.8,1.2,5.8c1.9,2,4.5,2.6,5.7,1.4c1.2-1.2,0.8-3.8-1.1-5.8C38.7,21.4,36.1,20.8,34.9,22
	L34.9,22z M50.4,14.5c2.4,2.5,4.3,5.6,5.5,8.9c0,0,0.8,2.3-1.8,2.3h-6.2c0,0-2-0.2-2.1,1.5c-0.1,2.1-0.1,3.8-0.1,3.8
	c0.1,1.2,0.5,2.4,1.3,3.3l6.4,6.7c1,1,1.1,2.5,0.3,3.7c-3.2,5.5-8.4,9.6-14.5,11.4c-1.9,0.6-2.1-1-2-2c0-0.7,0.8-15.5,0.8-15.5
	c0.2-1.6-0.3-3.2-1.4-4.4c-2-2.1-3.3-3.5-3.3-3.5s-1.4-1.4-3.4-3.5c-1.1-1.2-2.7-1.8-4.3-1.6H10c-1,0-2.6-0.2-1.9-2.1
	c2.2-6,6.5-11,12.2-13.9c1.2-0.8,2.7-0.5,3.6,0.5l6.4,6.7c0.9,0.8,2,1.3,3.2,1.4c0,0,1.7,0.1,3.8,0.1c1.7,0,1.6-2,1.6-2
	s0.3-4.1,0.4-6.2c-0.1-0.9,0.5-1.7,1.3-1.8c0.3,0,0.7,0,1,0.2C44.9,9.9,47.9,12,50.4,14.5L50.4,14.5z"/>
</svg>
