<?xml version="1.0" encoding="utf-8"?>
<!-- Generator: Adobe Illustrator 22.1.0, SVG Export Plug-In . SVG Version: 6.00 Build 0)  -->
<svg version="1.1" id="图层_1" xmlns="http://www.w3.org/2000/svg" xmlns:xlink="http://www.w3.org/1999/xlink" x="0px" y="0px"
	 viewBox="0 0 64 64" style="enable-background:new 0 0 64 64;" xml:space="preserve">
<style type="text/css">
	.st0{fill:#FFFFFF;}
	.st1{fill:#302E31;}
	.st2{fill:#C4C2C4;}
</style>
<g id="_x23_ffffffff">
	<path class="st0" d="M27.9,1.2C34.5,0.3,41.4,1.6,47.3,5c6.6,3.7,11.7,9.8,14.1,17c2.3,6.5,2.2,13.8-0.1,20.3
		c-2.5,7.3-8,13.6-14.8,17.2c-9,4.8-20.4,4.8-29.4-0.2c-6.4-3.5-11.4-9.2-14.1-16c-2.6-6.6-2.8-14-0.7-20.7c2-6.2,6-11.8,11.3-15.6
		C17.8,3.9,22.8,1.9,27.9,1.2 M27.6,4.2C21.7,5.1,16.1,8,11.9,12.3c-5,5.1-8,12.2-8,19.3c-0.1,6.3,2,12.5,5.8,17.5
		c4,5.3,9.9,9,16.4,10.4c6.4,1.4,13.2,0.5,18.9-2.6c6.2-3.2,11.2-8.9,13.5-15.5c2.4-6.6,2.2-14-0.6-20.4
		c-2.6-6.2-7.5-11.4-13.5-14.3C39.3,4.2,33.3,3.3,27.6,4.2z"/>
</g>
<g id="_x23_302e31ff">
	<path class="st1" d="M27.6,4.2c5.7-0.9,11.7,0,16.8,2.5c6,2.9,10.9,8.1,13.5,14.3c2.7,6.4,2.9,13.9,0.6,20.4
		c-2.3,6.6-7.3,12.3-13.5,15.5c-5.7,3-12.6,3.9-18.9,2.6c-6.5-1.4-12.4-5.1-16.4-10.4c-3.8-5-5.9-11.2-5.8-17.5c0-7.2,3-14.2,8-19.3
		C16.1,8,21.7,5.1,27.6,4.2 M16.9,16.4c-0.8,3.5-0.2,7.2,1.4,10.4c1,0.1,2,0.2,3,0.3c3.1,0.6,6,2.5,7.8,5.1c2.4,3.3,3,7.9,1.5,11.8
		c-1.3,3.5-4.3,6.4-7.8,7.6c-2.7,0.9-5.6,0.8-8.3,0c3,1.4,6.4,1.9,9.6,1.2c4.2-0.8,8-3.4,10.2-7.1c-1.5-3-2-6.6-1-9.8
		c1.2-4,4.5-7.3,8.6-8.5c3.2-1,6.8-0.6,9.8,1.1c3,1.7,5.3,4.7,6.2,8c-0.1-2.5-1.2-5-2.6-7c-2.7-4-7.4-6.4-12.2-6.6
		c-2.2,4-6.7,6.6-11.3,6.4c-5.9,0.1-11.3-4.6-12.2-10.4c-0.7-3.8,0.5-7.9,3.1-10.8c0.6-0.8,1.5-1.3,2.2-2
		C20.8,8.1,17.8,12,16.9,16.4z"/>
</g>
<g id="_x23_c4c2c4ff">
	<path class="st2" d="M16.9,16.4c0.9-4.4,3.9-8.3,7.9-10.4c-0.7,0.7-1.5,1.3-2.2,2c-2.6,2.8-3.8,7-3.1,10.8
		c0.9,5.8,6.4,10.5,12.2,10.4c4.6,0.2,9.1-2.4,11.3-6.4c4.8,0.2,9.4,2.6,12.2,6.6c1.4,2.1,2.5,4.5,2.6,7c-0.9-3.4-3.1-6.3-6.2-8
		c-2.9-1.7-6.6-2.1-9.8-1.1c-4,1.2-7.4,4.5-8.6,8.5c-1,3.2-0.6,6.8,1,9.8c-2.1,3.7-6,6.3-10.2,7.1c-3.2,0.7-6.6,0.2-9.6-1.2
		c2.7,0.8,5.6,0.9,8.3,0c3.6-1.2,6.5-4.1,7.8-7.6c1.4-3.9,0.9-8.4-1.5-11.8c-1.8-2.6-4.7-4.5-7.8-5.1c-1-0.2-2-0.3-3-0.3
		C16.7,23.6,16.1,19.9,16.9,16.4z"/>
</g>
</svg>
