<?xml version="1.0" encoding="utf-8"?>
<!-- Generator: Adobe Illustrator 22.1.0, SVG Export Plug-In . SVG Version: 6.00 Build 0)  -->
<svg version="1.1" id="图层_1" xmlns="http://www.w3.org/2000/svg" xmlns:xlink="http://www.w3.org/1999/xlink" x="0px" y="0px"
	 viewBox="0 0 64 64" style="enable-background:new 0 0 64 64;" xml:space="preserve">
<style type="text/css">
	.st0{fill:#FEFEFE;}
</style>
<path class="st0" d="M59.8,46.7c-1.3-3.8-2.7-7.7-4.4-11.3c-1.9-4.1-4.5-7.7-8-10.5c-0.5-0.4-1.5-0.7-1.4-1.2c0.2-0.6,1.1-0.8,1.8-1
	c3.1-1.1,6.3-1.3,9.5-0.9c0.7,0.1,1-0.1,1.1-0.8c0.2-1.5,0.4-2.9,0.7-4.4c0.1-0.7-0.1-1-0.8-1.1c-3.1-0.6-6.2-1.2-9.3-1.6
	c-5.4-0.7-10.7-0.6-15.8,1.5c-0.5,0.2-1,0.6-1.7,0.6c0-0.2,0-0.5,0-0.7C31.7,11.3,33.4,8,35.6,5c0.5-0.7,0.5-1-0.2-1.5
	c-1.3-1-2.6-2.1-3.9-3.2c-0.4-0.1-0.5,0.2-0.7,0.4C28,3.8,25.4,7,23,10.4c-2.2,3.2-3.9,6.7-4.7,10.5c-0.2,1.1-0.4,2.3-0.6,3.6
	c-0.2-0.1-0.4-0.2-0.6-0.3c-0.3-0.2-0.7-0.4-1-0.7c-2.7-2.2-4.5-4.9-5.9-8.1C10,14.7,9.7,14.6,9,14.9c-1.6,0.7-3.2,1.2-4.9,1.8
	c0.1,1.5,0.8,2.8,1.3,4.2C8,28.3,11,35.5,17.8,40.2c0.5,0.4,0.3,0.5-0.1,0.7c-0.8,0.4-1.6,0.8-2.5,1c-2.8,0.8-5.6,0.9-8.5,0.6
	c-0.7-0.1-1,0.1-1.1,0.9c-0.2,1.5-0.4,2.9-0.7,4.4c-0.1,0.7,0,0.9,0.7,1.1c3.3,0.6,6.7,1.3,10.1,1.6C19.8,51,23.9,51,28,49.9
	c1.5-0.4,3-1,4.6-1.7c0,0.4,0,0.6,0,0.9c0,0.3,0,0.6-0.1,0.9c-0.5,3.5-2,6.5-4.1,9.3c-0.5,0.6-0.4,0.9,0.2,1.4
	c1,0.7,1.9,1.5,2.9,2.3c1.3,1,1.3,1,2.4-0.1c2.2-2.7,4.5-5.4,6.6-8.2c2.5-3.5,4.4-7.2,5.3-11.5c0.2-1.1,0.4-2.2,0.6-3.3
	c0.7,0.3,1.2,0.7,1.7,1.1c2.6,2.1,4.4,4.8,5.7,7.9c0.4,0.8,0.7,0.9,1.4,0.6c1.4-0.6,2.8-1.2,4.2-1.7C59.9,47.5,60,47.2,59.8,46.7z
	 M32,40.6c-4.7,0-8.5-3.8-8.4-8.5c0-4.7,3.8-8.4,8.6-8.4c4.7,0,8.4,3.8,8.3,8.5C40.4,36.8,36.7,40.6,32,40.6z"/>
</svg>
