<?xml version="1.0" encoding="utf-8"?>
<!-- Generator: Adobe Illustrator 22.1.0, SVG Export Plug-In . SVG Version: 6.00 Build 0)  -->
<svg version="1.1" id="图层_1" xmlns="http://www.w3.org/2000/svg" xmlns:xlink="http://www.w3.org/1999/xlink" x="0px" y="0px"
	 viewBox="0 0 64 64" style="enable-background:new 0 0 64 64;" xml:space="preserve">
<style type="text/css">
	.st0{fill:#001C26;}
	.st1{fill:#28BCEE;}
</style>
<path class="st0" d="M2.7,3.5h58.7v57.1H2.7V3.5z"/>
<path class="st1" d="M0,0.8v62.4h64V0.8H0z M2.7,3.5h58.7v57.1H2.7V3.5z M15.5,15.4c0-0.2,0.4-0.3,0.6-0.3c1.7-0.1,4.2-0.1,6.9-0.1
	c7.4,0,10.3,4.1,10.3,9.3c0,6.8-4.9,9.7-10.9,9.7c-1,0-1.4-0.1-2.1-0.1v10.2c0,0.2-0.1,0.3-0.3,0.3h-4.1c-0.2,0-0.3-0.1-0.3-0.3
	V15.4L15.5,15.4z M20.2,29.6c0.6,0.1,1.1,0.1,2.2,0.1c3.1,0,6.1-1.1,6.1-5.3c0-3.4-2.1-5.1-5.7-5.1c-1.1,0-2.1,0.1-2.6,0.1
	L20.2,29.6L20.2,29.6z M43.1,26.4c-2.1,0-2.8,1.1-2.8,1.9c0,1,0.5,1.6,3.3,3.1c4.2,2,5.5,4,5.5,6.8c0,4.3-3.3,6.6-7.7,6.6
	c-2.3,0-4.3-0.5-5.5-1.1c-0.2-0.1-0.2-0.2-0.2-0.4v-3.9c0-0.3,0.1-0.3,0.3-0.2c1.7,1.1,3.6,1.6,5.4,1.6c2.1,0,3-0.9,3-2.1
	c0-1-0.6-1.8-3.3-3.2c-3.8-1.8-5.4-3.7-5.4-6.7c0-3.4,2.7-6.3,7.4-6.3c2.3,0,3.9,0.3,4.8,0.7c0.2,0.1,0.3,0.3,0.3,0.5v3.7
	c0,0.2-0.1,0.3-0.4,0.3C46.6,26.9,44.9,26.4,43.1,26.4L43.1,26.4z"/>
</svg>
