<?xml version="1.0" encoding="utf-8"?>
<!-- Generator: Adobe Illustrator 22.1.0, SVG Export Plug-In . SVG Version: 6.00 Build 0)  -->
<svg version="1.1" id="图层_1" xmlns="http://www.w3.org/2000/svg" xmlns:xlink="http://www.w3.org/1999/xlink" x="0px" y="0px"
	 viewBox="0 0 64 64" style="enable-background:new 0 0 64 64;" xml:space="preserve">
<style type="text/css">
	.st0{fill:#45A4D8;}
</style>
<path class="st0" d="M60.3,32.7c-2.2,5.6-6.6,9.9-11.2,13.5c-7.9,6.3-19.7,13-29.9,8.1c-0.5-0.2-0.7-0.1-0.7-0.7c0-3.8,0-7.9,0-11.7
	c3,3.2,7.2,5.1,11.9,5.1c9.1,0,16.4-7.3,16.4-16.4c0-9.1-7.3-16.4-16.4-16.4c-9.1,0-16.4,7.3-16.4,16.4c0,1.3,0.4,14.3,0.4,19.6
	c0,0.3,0.1,0.6-0.1,0.7c-0.3,0.2-2.8-2.4-3.8-3.4c-1.9-2.5-3.7-5-5-7.9C4.4,36.9,3.4,34,3,30.9c-0.6-5.4,0.9-10.2,4.3-14.3
	c4.3-5.2,10-7.7,16.6-8.4c6.6-0.7,13.2,0.7,19.3,3.1c5.4,2,10.9,5,14.7,9.4C60.9,24.1,62,28.4,60.3,32.7z"/>
<circle class="st0" cx="31" cy="30.8" r="12.3"/>
</svg>
