<?xml version="1.0" encoding="utf-8"?>
<!-- Generator: Adobe Illustrator 22.1.0, SVG Export Plug-In . SVG Version: 6.00 Build 0)  -->
<svg version="1.1" id="图层_1" xmlns="http://www.w3.org/2000/svg" xmlns:xlink="http://www.w3.org/1999/xlink" x="0px" y="0px"
	 viewBox="0 0 64 64" style="enable-background:new 0 0 64 64;" xml:space="preserve">
<style type="text/css">
	.st0{fill:#4CA84C;}
	.st1{fill:#F9FBF9;}
	.st2{fill:#FAFCFA;}
</style>
<path class="st0" d="M59,64H5c-2.8,0-5-2.3-5-5V5c0-2.8,2.3-5,5-5h54c2.8,0,5,2.3,5,5v54C64,61.8,61.8,64,59,64z"/>
<path class="st1" d="M33.7,22.8c-3.2-5.5-9.4-8.1-15.1-6.5C12.5,18,8.3,23.6,8.2,30.4c-0.1,3.4,0,25.6,0,25.6h5.5l0-10.9
	c0,0,10.9-0.1,12.1-0.5c3.6-1,6.4-3.4,8.3-7.1C36.7,32.6,36.5,27.6,33.7,22.8z M23,39.3c-2.7,0.2-9.2,0.1-9.2,0.1l0-5.6
	c0-1.3-0.1-2.7,0-4c0.3-4.6,3.9-8.1,8.3-8.1c4.4,0,8,3.7,8.3,8.4C30.6,34.7,27.4,38.9,23,39.3z"/>
<polygon class="st2" points="61.3,44.4 54.6,44.4 46.8,33.8 39.2,44.4 32.5,44.4 42.8,29.8 33.7,16 40.3,16 46.7,25.5 53.4,15.8 
	60.3,15.8 51.1,29.7 "/>
</svg>
