<?xml version="1.0" encoding="utf-8"?>
<!-- Generator: Adobe Illustrator 22.1.0, SVG Export Plug-In . SVG Version: 6.00 Build 0)  -->
<svg version="1.1" id="图层_1" xmlns="http://www.w3.org/2000/svg" xmlns:xlink="http://www.w3.org/1999/xlink" x="0px" y="0px"
	 viewBox="0 0 64 64" style="enable-background:new 0 0 64 64;" xml:space="preserve">
<style type="text/css">
	.st0{fill:#0074AA;}
</style>
<path class="st0" d="M44.3,18.4c-2.9-3-6.5-4.2-10.6-4.2c-1.9,0-3.8,0.3-5.6,0.8c-1.9,0.5-3.7,1.2-5.3,2.3c-0.2,0.1-0.3,0.3-0.3,0.6
	c0,1.9,0,3.8,0,5.8c0,1.8,0,3.5,0,5.3c0,3.7,0,7.4,0,11c0,0.3,0.1,0.5,0.4,0.7c1.2,0.5,2.3,0.9,3.6,1.2c2,0.5,4,0.7,6.1,0.8
	c2.2,0.1,4.3-0.1,6.4-0.8c4-1.4,6.8-4,8.4-7.9c1-2.5,1.1-5.2,0.7-7.9C47.5,23.1,46.3,20.5,44.3,18.4L44.3,18.4z"/>
<path class="st0" d="M32,0C14.3,0,0,14.3,0,32s14.3,32,32,32s32-14.3,32-32S49.7,0,32,0z M53.2,34.3c-1.2,3.1-3.3,5.5-6,7.3
	c-2.8,1.9-6,3-9.4,3.5c-4.3,0.6-8.5,0-12.6-1.1c-0.8-0.2-1.6-0.5-2.4-0.8c-0.3-0.1-0.4-0.1-0.4,0.3c0,2.2,0,4.3,0,6.5
	c0,0.2,0.1,0.4,0.3,0.5c0.5,0.1,0.9,0.3,1.3,0.6c0.2,0.2,0.4,0.4,0.4,0.7c0,0.4-0.2,0.6-0.6,0.6c-1.3,0-2.6,0-3.9,0
	c-1.3,0-2.5,0-3.8,0c-0.3,0-0.5-0.1-0.6-0.4c-0.1-0.3,0-0.5,0.2-0.8c0.4-0.4,0.9-0.5,1.3-0.7c0.5-0.2,0.5-0.1,0.5-0.7
	c0-9.8,0-19.6,0-29.5c0-0.2,0.1-0.4-0.1-0.4c-0.1-0.1-0.3,0.1-0.4,0.2c-1.5,1.2-2.8,2.4-3.9,4c0,0-0.1,0.1-0.1,0.1
	c-0.4,0.5-0.6,1-0.4,1.7c0.1,0.3,0.1,0.7,0,1c-0.1,0.2-0.2,0.4-0.4,0.6c-0.3,0.2-0.5,0.2-0.8-0.1c-0.8-1.3-1.7-2.6-2.5-3.9
	C9,23.3,9,23.2,9.2,23c1.1-1.2,2.4-2.3,3.7-3.3c3.3-2.6,6.9-4.7,10.9-6.1c2.6-0.9,5.3-1.5,8-1.8c3.2-0.3,6.4,0,9.5,0.9
	c3.3,1,6.2,2.6,8.5,5.1c2.4,2.5,3.8,5.5,4.2,8.9C54.4,29.2,54.2,31.8,53.2,34.3z"/>
</svg>
