<?xml version="1.0" encoding="utf-8"?>
<!-- Generator: Adobe Illustrator 22.1.0, SVG Export Plug-In . SVG Version: 6.00 Build 0)  -->
<svg version="1.1" id="图层_1" xmlns="http://www.w3.org/2000/svg" xmlns:xlink="http://www.w3.org/1999/xlink" x="0px" y="0px"
	 viewBox="0 0 64 64" style="enable-background:new 0 0 64 64;" xml:space="preserve">
<style type="text/css">
	.st0{fill:#257D3D;}
</style>
<g>
	<path class="st0" d="M32.1,0C14.4,0,0,14.3,0,31.8C0,49.6,14.2,64,31.9,64C49.6,64,64,49.7,64,32.1C64,14.4,49.7,0,32.1,0z
		 M44.2,17.2c2.6,0,4.7,2.2,4.7,4.8c0,2.6-2.2,4.8-4.8,4.8c-2.6,0-4.8-2.2-4.8-4.8C39.4,19.3,41.5,17.2,44.2,17.2z M19.9,17.2
		c2.6,0,4.7,2.2,4.7,4.8c0,2.6-2.2,4.8-4.8,4.8c-2.6,0-4.8-2.2-4.8-4.8C15.1,19.3,17.3,17.2,19.9,17.2z M33.8,52.7
		c-11.9,1-20.8-7.9-22.3-17.5c1.7,1.8,3.3,3.4,5,5.1c1.6-1.7,3.1-3.4,4.6-5.1c1.9,2,3.8,3.9,5.7,5.9c1.7-1.8,3.3-3.7,5.1-5.5
		c1.8,1.8,3.5,3.7,5.3,5.5c1.9-2,3.7-3.9,5.5-5.9c1.6,1.7,3.2,3.4,4.8,5.1c1.6-1.7,3.3-3.4,4.9-5.2C51.8,42,45.4,51.7,33.8,52.7z"/>
</g>
</svg>
