<?xml version="1.0" encoding="utf-8"?>
<!-- Generator: Adobe Illustrator 22.1.0, SVG Export Plug-In . SVG Version: 6.00 Build 0)  -->
<svg version="1.1" id="图层_1" xmlns="http://www.w3.org/2000/svg" xmlns:xlink="http://www.w3.org/1999/xlink" x="0px" y="0px"
	 viewBox="0 0 64 64" style="enable-background:new 0 0 64 64;" xml:space="preserve">
<style type="text/css">
	.st0{fill:#4598D4;}
	.st1{fill:#FFFFFF;}
</style>
<rect class="st0" width="64.2" height="64.2"/>
<path class="st1" d="M47.8,28.5c-7.5-5.1-14.9-10.3-22.4-15.3c-2-1.4-3.9-3-6.3-3.8c-0.5-0.1-0.9-0.1-1.4,0c-2.9,1-3.6,3.1-3.6,6
	c0.1,11.4,0,22.7,0,34.1c0,0.5,0,0.9,0,1.3c0.2,2.6,2.3,4.4,4.9,4.1c1.1-0.1,2.1-0.8,3-1.4c8.6-5.9,17.2-11.8,25.8-17.7
	C50.8,33.8,50.9,30.5,47.8,28.5z M45,34c-8,5.4-16,10.9-24,16.3c-0.2,0.1-0.4,0.3-0.7,0.4c-1.5,0.9-2.8,0.2-2.9-1.5
	c0-1.8,0-3.7,0-5.5V32.2c0-5.5,0-11,0-16.5c0-0.4,0-0.9,0.1-1.3c0.3-1,1.3-1.5,2.2-1.1c0.4,0.2,0.8,0.4,1.1,0.7
	c8,5.4,16.1,10.9,24.1,16.3C47.2,31.8,47.2,32.5,45,34z"/>
</svg>
