<?xml version="1.0" encoding="utf-8"?>
<!-- Generator: Adobe Illustrator 22.1.0, SVG Export Plug-In . SVG Version: 6.00 Build 0)  -->
<svg version="1.1" id="图层_1" xmlns="http://www.w3.org/2000/svg" xmlns:xlink="http://www.w3.org/1999/xlink" x="0px" y="0px"
	 viewBox="0 0 64 64" style="enable-background:new 0 0 64 64;" xml:space="preserve">
<style type="text/css">
	.st0{fill:#311739;}
	.st1{fill:#B380B6;}
</style>
<g>
	<rect x="2.7" y="3.5" class="st0" width="58.7" height="57.1"/>
	<path class="st1" d="M2.7,3.5h58.7v57.1H2.7V3.5z M0,63.2h64V0.8H0V63.2z M38.4,27.1c0-0.3,0-1.1-0.1-2.6c0-0.2,0-0.3,0.2-0.3
		c1.6-0.7,5.4-1.8,9.8-1.8c0.2,0,0.3,0.1,0.3,0.3v3.9c0,0.2-0.1,0.3-0.3,0.3c-1.7-0.1-4.1,0.1-5,0.5v16.8c0,0.2-0.1,0.3-0.3,0.3
		h-4.2c-0.2,0-0.3-0.1-0.3-0.3L38.4,27.1L38.4,27.1z M21.3,29.6c0.6,0.1,1.1,0.1,2.2,0.1c3.1,0,6.1-1.1,6.1-5.3
		c0-3.4-2.1-5.1-5.7-5.1c-1.1,0-2.1,0.1-2.6,0.1V29.6z M16.6,15.4c0-0.2,0.1-0.3,0.3-0.3c1.7-0.1,4.2-0.1,6.9-0.1
		c7.4,0,10.6,4.1,10.6,9.3c0,6.8-4.9,9.7-10.9,9.7c-1,0-1.4-0.1-2.1-0.1v10.2c0,0.2-0.1,0.3-0.3,0.3h-4.1c-0.2,0-0.3-0.1-0.3-0.3
		L16.6,15.4L16.6,15.4z"/>
</g>
</svg>
