<?xml version="1.0" encoding="utf-8"?>
<!-- Generator: Adobe Illustrator 22.1.0, SVG Export Plug-In . SVG Version: 6.00 Build 0)  -->
<svg version="1.1" id="图层_1" xmlns="http://www.w3.org/2000/svg" xmlns:xlink="http://www.w3.org/1999/xlink" x="0px" y="0px"
	 viewBox="0 0 64 64" style="enable-background:new 0 0 64 64;" xml:space="preserve">
<style type="text/css">
	.st0{fill:url(#SVGID_1_);}
	.st1{fill:#FFFFFF;}
</style>
<linearGradient id="SVGID_1_" gradientUnits="userSpaceOnUse" x1="0.2" y1="32.1" x2="64" y2="32.1" gradientTransform="matrix(6.123234e-17 -1 1 6.123234e-17 0 64.2)">
	<stop  offset="0" style="stop-color:#1959A8"/>
	<stop  offset="1" style="stop-color:#4EBCDD"/>
</linearGradient>
<path class="st0" d="M64,5.2V59c0,2.8-2.3,5-5,5H5.2c-2.8,0-5-2.3-5-5V5.2c0-2.8,2.3-5,5-5H59C61.8,0.2,64,2.5,64,5.2z"/>
<g>
	<g>
		<path class="st1" d="M35.5,31.9c0,3.5-0.6,6.6-1.9,9.2c-1.3,2.6-3.1,4.6-5.5,6s-5.3,2.1-8.6,2.1c-5.1,0-9-1.5-11.8-4.5
			s-4.2-7.3-4.2-12.8c0-5.4,1.4-9.6,4.2-12.5c2.8-3,6.7-4.4,11.8-4.4s9,1.5,11.8,4.5C34.2,22.4,35.5,26.6,35.5,31.9z M29.7,31.9
			c0-4-0.9-7-2.6-9.2c-1.7-2.1-4.2-3.2-7.5-3.2s-5.9,1.1-7.6,3.2c-1.7,2.2-2.6,5.2-2.6,9.2s0.9,7.1,2.6,9.4c1.8,2.2,4.3,3.4,7.5,3.4
			c3.3,0,5.9-1.1,7.6-3.2C28.9,39.3,29.7,36.1,29.7,31.9z"/>
	</g>
</g>
<g>
	<g>
		<path class="st1" d="M55,49.1V35.3c0-2.5-0.4-4.3-1.2-5.4c-0.8-1.1-2-1.6-3.7-1.6c-1.8,0-3.3,0.7-4.3,2.1c-1,1.4-1.6,3.3-1.6,5.7
			v13h-5.6v-19c0-1.9-0.1-3.8-0.2-5.7h5.3c0.2,2.4,0.3,4,0.3,4.8H44c1-1.8,2.1-3.2,3.3-4c1.3-0.8,2.9-1.2,4.9-1.2
			c2.8,0,4.9,0.8,6.3,2.4c1.4,1.6,2.1,4.1,2.1,7.5v15.2H55z"/>
	</g>
</g>
</svg>
