<?xml version="1.0" encoding="utf-8"?>
<!-- Generator: Adobe Illustrator 22.1.0, SVG Export Plug-In . SVG Version: 6.00 Build 0)  -->
<svg version="1.1" id="图层_1" xmlns="http://www.w3.org/2000/svg" xmlns:xlink="http://www.w3.org/1999/xlink" x="0px" y="0px"
	 viewBox="0 0 64 64" style="enable-background:new 0 0 64 64;" xml:space="preserve">
<style type="text/css">
	.st0{fill:#FAC61E;}
	.st1{fill:#ED6A57;}
	.st2{fill:#52ABD3;}
	.st3{fill:#FB667C;}
	.st4{fill:#D34841;}
	.st5{fill:#62BE6F;}
	.st6{fill:#3DA95E;}
	.st7{fill:#9566AC;}
	.st8{fill:#563A84;}
	.st9{fill:#D64841;}
	.st10{fill:#9465AB;}
	.st11{fill:#3C8FBA;}
	.st12{fill:#F9A029;}
</style>
<polygon points="64.1,26.4 64.1,39.3 62.9,39.9 54.4,44.4 54.4,56 41.3,63.1 41.3,63 41.3,63.1 32,57.3 22.6,63.1 22.6,63.1 
	22.6,63.2 8.7,55.2 8.7,43.9 -0.1,38.7 -0.1,25.8 10.2,19.8 10.5,7.2 22.3,0.8 33.2,7.2 43.4,1.7 54.8,8.5 55,21.1 55,21.1 "/>
<polygon class="st0" points="50.6,20.7 43.5,24.7 34.2,19 33.1,18.4 32,19 21.4,24.7 14.5,20.3 21.9,16 25,14.3 22,12.3 14.8,7.4 
	22.3,3.4 32.1,9.2 33.2,9.8 34.3,9.2 43.4,4.3 50.3,8.6 43.6,12.1 40.4,13.8 43.4,15.9 "/>
<polygon class="st1" points="30.5,44.3 30.5,54.3 20.4,48.3 20.4,59.3 10.9,53.9 10.9,42.6 2.1,37.5 2.1,27.3 11.9,32.9 11.9,21.2 
	12,21.3 20.7,26.9 20.5,38.1 "/>
<polygon class="st2" points="61.9,27.9 61.9,38 52.1,43.1 52.1,54.7 43.5,59.3 43.5,48.2 33.2,54.4 33.2,44.6 44.1,38.3 44.1,26.9 
	52.8,22.1 52.8,33 "/>
<polygon class="st3" points="24.7,38.1 32.7,33.4 40,38.1 32.1,42.7 "/>
<polygon class="st4" points="40,38.1 32.8,36.9 24.7,38.1 32.1,42.7 "/>
<polygon class="st5" points="22.9,26.4 22.7,36.9 31.7,31.9 31.7,21.7 "/>
<polygon class="st6" points="22.9,26.4 29,26.2 31.7,29.9 31.7,31.9 22.7,36.9 "/>
<polygon class="st7" points="33.5,21.2 33.5,31.7 41.8,37.1 41.9,26.4 "/>
<polygon class="st8" points="33.5,31.7 34.5,25.1 41.9,27.1 41.9,37 "/>
<polygon class="st8" points="41.3,52.1 41.3,60.5 34.5,56.2 "/>
<polygon class="st6" points="29.5,56.3 22.6,60.5 22.6,52.2 "/>
<polygon class="st5" points="52.6,9.8 44.7,14.1 52.7,19.5 "/>
<polygon class="st6" points="52.6,9.8 48.7,13.7 50.1,17.7 52.7,19.5 "/>
<polygon class="st9" points="55,23.6 59.8,26.5 55,29.2 "/>
<polygon class="st10" points="12.5,8.6 20.8,14.1 12.5,18.9 "/>
<polygon class="st8" points="12.5,9.8 16.3,13.4 15.2,17.3 12.5,18.9 "/>
<polygon class="st4" points="9.7,22.6 4.2,25.9 9.7,29.1 "/>
<polygon class="st11" points="44.1,26.9 50.7,25.1 50.7,36.3 59.8,32 59.8,36.3 50.7,41.8 49.9,53.2 43.5,59.3 43.5,48.2 33.2,54.4 
	33.2,44.6 44.1,38.3 "/>
<polygon class="st4" points="20.7,26.9 13.6,25.1 13.6,35.6 4.2,31.5 4.2,35.6 13.6,41.7 14,53.4 20.4,59.3 20.4,48.3 30.5,54.3 
	30.5,44.3 20.5,38.1 "/>
<polygon class="st12" points="14.8,7.4 21.4,6.4 32.5,12.2 46.5,7.1 40.4,13.8 50.6,20.7 43.5,24.7 33.1,18.4 21.4,24.7 14.5,20.3 
	25,14.3 "/>
</svg>
