<?xml version="1.0" encoding="utf-8"?>
<!-- Generator: Adobe Illustrator 22.1.0, SVG Export Plug-In . SVG Version: 6.00 Build 0)  -->
<svg version="1.1" id="图层_1" xmlns="http://www.w3.org/2000/svg" xmlns:xlink="http://www.w3.org/1999/xlink" x="0px" y="0px"
	 viewBox="0 0 64 64" style="enable-background:new 0 0 64 64;" xml:space="preserve">
<style type="text/css">
	.st0{fill:#3499DD;}
	.st1{fill:#FFFFFF;}
</style>
<circle class="st0" cx="32" cy="32" r="31"/>
<path class="st1" d="M45.9,39.6c0,0-1,2.7-2.8,5.2c0,0,3.2,1.1,3,3.9c0,0,0.1,3.2-6.9,3c0,0-5-0.4-6.4-2.5h-1.3
	c-1.5,2.1-6.4,2.5-6.4,2.5c-7,0.3-6.9-3-6.9-3c-0.3-2.9,3-3.9,3-3.9c-1.8-2.5-2.8-5.2-2.8-5.2c-4.4,7.1-3.9-1-3.9-1
	c0.8-4.8,4.3-8,4.3-8c-0.5-4.4,1.3-5.2,1.3-5.2C20.2,12.1,31.7,12.3,32,12.3c0.3,0,11.8-0.3,12.2,13.2c0,0,1.8,0.8,1.3,5.2
	c0,0,3.5,3.2,4.3,8C49.8,38.6,50.3,46.7,45.9,39.6z"/>
</svg>
