<?xml version="1.0" encoding="utf-8"?>
<!-- Generator: Adobe Illustrator 22.1.0, SVG Export Plug-In . SVG Version: 6.00 Build 0)  -->
<svg version="1.1" id="图层_1" xmlns="http://www.w3.org/2000/svg" xmlns:xlink="http://www.w3.org/1999/xlink" x="0px" y="0px"
	 viewBox="0 0 64 64" style="enable-background:new 0 0 64 64;" xml:space="preserve">
<style type="text/css">
	.st0{fill:#19191A;}
	.st1{fill:#0E0F0F;}
	.st2{fill:#FFFFFF;}
</style>
<rect class="st0" width="64" height="64"/>
<polygon class="st1" points="48.1,41.3 48.1,50.6 37.9,64 0,64 0,44.3 15.9,22.7 23.9,27.3 32,22.7 40.1,27.3 40.1,36.6 46.9,32.7 
	42.4,38 "/>
<polygon class="st2" points="15.9,22.7 15.9,41.3 32,50.6 40.1,46 48.1,50.6 48.1,41.3 40.1,36.7 40.1,36.7 32,41.3 23.9,36.7 
	23.9,27.3 32,22.7 40.1,27.3 40.1,27.3 40.1,36.7 40.1,36.7 40.1,36.7 48.1,32 48.1,22.7 32,13.4 "/>
</svg>
