<?xml version="1.0" encoding="utf-8"?>
<!-- Generator: Adobe Illustrator 22.1.0, SVG Export Plug-In . SVG Version: 6.00 Build 0)  -->
<svg version="1.1" id="图层_1" xmlns="http://www.w3.org/2000/svg" xmlns:xlink="http://www.w3.org/1999/xlink" x="0px" y="0px"
	 viewBox="0 0 64 64" style="enable-background:new 0 0 64 64;" xml:space="preserve">
<style type="text/css">
	.st0{fill:#FFFFFF;}
	.st1{fill:#3361AD;}
</style>
<path class="st0" d="M60.5,36.8l0,7.8l-0.1,0v0c-0.3-0.1-0.5-0.3-0.6-0.3c-0.8,0-1.5,0-2.3,0c-10.1,0.4-18.9-3-26.6-9.5
	c-2-1.7-4-3.3-6.1-4.7c-6.5-4-13.5-5.4-21.4-4.2L3.6,20l0.2,0c12.6-1.2,22.9,3.5,32.1,11.7c6.1,5.5,13.7,7.4,22,7
	C59.7,38.7,60.3,38.1,60.5,36.8L60.5,36.8z"/>
<path class="st1" d="M57.5,50.5c-7.5,4.4-15,8.9-22.7,12.9c-1.6,0.9-4.5,0.8-6.2-0.1c-7.6-4-15-8.4-22.3-13c-1.5-1-2.9-3.3-3-5.1
	c-0.4-6.3-0.1-12.6-0.1-19.4c7.9-1.2,14.9,0.2,21.4,4.2c2.2,1.3,4.2,3,6.1,4.7c7.6,6.6,16.4,9.9,26.6,9.5c0.8,0,1.5,0,2.3,0
	c0.2,0,0.3,0.1,0.6,0.3v0C60.9,47.2,59.7,49.2,57.5,50.5z"/>
<path class="st1" d="M60.5,36c0,0.3,0,0.6,0,0.8c-0.1,1.3-0.8,1.9-2.5,2c-8.2,0.3-15.8-1.6-22-7C26.7,23.5,16.4,18.8,3.8,20
	c-0.2,0-0.3,0-0.5,0c-0.1-2.9,1-4.9,3.2-6.2c7.4-4.3,14.8-8.5,22.3-12.7c2.1-1.2,4.2-1.2,6.3,0c7.5,4.3,15,8.6,22.4,13
	c2.1,1.2,3,3.1,3,5.5C60.4,25,60.4,30.5,60.5,36z"/>
</svg>
