<?xml version="1.0" encoding="utf-8"?>
<!-- Generator: Adobe Illustrator 22.1.0, SVG Export Plug-In . SVG Version: 6.00 Build 0)  -->
<svg version="1.1" id="图层_1" xmlns="http://www.w3.org/2000/svg" xmlns:xlink="http://www.w3.org/1999/xlink" x="0px" y="0px"
	 viewBox="0 0 64 64" style="enable-background:new 0 0 64 64;" xml:space="preserve">
<style type="text/css">
	.st0{fill:#04FFFB;}
</style>
<path class="st0" d="M56.2,63.3c-5.1,0-9.4,0.2-13.6-0.1c-1.1-0.1-2.4-1.5-3.1-2.6c-2.7-4.4-5.5-8.8-7.7-13.5
	c-2-4.2-4.7-5.2-9.3-3.7V63H8.5V30.1c8.1,0,15.9,0.1,23.7,0c5.9-0.1,9.8-5.3,7.4-10.6c-1-2.3-3.9-4.4-6.3-5.1
	c-3.1-0.9-6.7-0.2-10.4-0.2c-0.2,3-0.4,5.7-0.7,9.2c-4.7-3.7-9.8-6.4-12.7-10.5c-2-2.8-1.1-7.7-1.6-11.9c10.2,0,19.5-0.7,28.7,0.2
	C45.6,2,51.4,8,53.7,16.9c2.2,8.4-0.9,16.3-8.2,21.8c-0.7,0.5-1.4,1-2.4,1.8C47.4,47.9,51.5,55.2,56.2,63.3z"/>
</svg>
