<?xml version="1.0" encoding="utf-8"?>
<!-- Generator: Adobe Illustrator 22.1.0, SVG Export Plug-In . SVG Version: 6.00 Build 0)  -->
<svg version="1.1" id="图层_1" xmlns="http://www.w3.org/2000/svg" xmlns:xlink="http://www.w3.org/1999/xlink" x="0px" y="0px"
	 viewBox="0 0 64 64" style="enable-background:new 0 0 64 64;" xml:space="preserve">
<style type="text/css">
	.st0{fill:#DC878A;}
	.st1{fill:#E79D93;}
	.st2{fill:#DA5A56;}
	.st3{fill:#C84844;}
	.st4{fill:#BE3E3E;}
	.st5{fill:#DE5E58;}
	.st6{fill:#D9353B;}
	.st7{fill:#E24944;}
	.st8{fill:#DD2525;}
	.st9{fill:#CF2626;}
</style>
<polygon class="st0" points="32,0.2 4.8,14.4 19.1,22.8 32,16.3 "/>
<polygon class="st1" points="32,0.2 59.3,14.4 44.9,22.8 32,16.3 "/>
<polygon class="st2" points="4.8,14.4 19.1,22.8 4.8,30.4 "/>
<polygon class="st2" points="4.8,47.6 19.1,39 4.8,30.4 "/>
<polygon class="st3" points="32,63.8 4.8,47.6 19.1,39 32,47.6 "/>
<path class="st4" d="M59.3,47.6C58.8,47.6,32,63.8,32,63.8V47.6L44.9,39L59.3,47.6z"/>
<polygon class="st5" points="59.3,30.4 44.9,39 59.3,47.6 "/>
<polygon class="st5" points="59.3,14.4 44.9,22.8 59.3,30.4 "/>
<polygon class="st6" points="32,16.3 19.1,22.8 32,30.4 "/>
<polygon class="st7" points="44.9,22.8 32,30.4 32,16.3 "/>
<polygon class="st8" points="32,30.4 19.1,39 4.8,30.4 19.1,22.8 "/>
<path class="st1" d="M44.9,22.8"/>
<polygon class="st8" points="32,30.4 44.9,39 59.3,30.4 44.9,22.8 "/>
<polygon class="st9" points="32,30.4 19.1,39 32,47.6 44.9,39 "/>
</svg>
