<?xml version="1.0" encoding="utf-8"?>
<!-- Generator: Adobe Illustrator 22.1.0, SVG Export Plug-In . SVG Version: 6.00 Build 0)  -->
<svg version="1.1" id="图层_2" xmlns="http://www.w3.org/2000/svg" xmlns:xlink="http://www.w3.org/1999/xlink" x="0px" y="0px"
	 viewBox="0 0 64 64" style="enable-background:new 0 0 64 64;" xml:space="preserve">
<style type="text/css">
	.st0{fill:#FFFFFF;}
	.st1{fill:#E60012;}
</style>
<g>
	<g>
		<path class="st0" d="M2,26.4c6.9-2.2,14.9,0,20.9,11.1c0.5,1.1,1.3,0.8,1.2-0.3c0.1-1.1,0-5.8-3-10c-0.1-0.2,0-0.3,0.2-0.5
			c0.7-0.5,5.8-1.6,11.5-5.7c0.4-0.3,2.3-1.2,2-3.9c-1-6.7-6.3-11.2-7.8-12.1c-1.5-0.9-1.3,0.7-1.3,0.9c-0.3,5.2-1.8,12.8-7.3,17.9
			c-2-0.6-2.7-2-2.7-2s7.5-9.7,5.5-17.5c-0.5-2.2-1.1-3-3.5-2.5c-2.4,0.5-8.2,2.3-8.2,2.3S8.6,4.6,9.3,5.5c0.7,0.9,4.1,4.4,1.3,14
			c-2.5-0.9-8.1-1.9-8.7-0.4C1.4,20.7-0.5,26.3,2,26.4z"/>
		<path class="st0" d="M25.8,30.2c-0.1,0.4,0.3,2.7,0,4.7c-0.6,1.4-0.8,2.3,0.4,3.2c1.1,0.9,9.5,4.8,14.5,10.1
			c1.9,1.9,2.8-0.5,1.4-1.6c-0.4-0.4-2.2-2-2.1-2.6c0-0.6,1.1,0.5,1.4,0.9c-1-2.1,1.2-4.7,3.6-1.7c1,0.9,0.3,3.2-0.5,3.8
			c0.9-0.9-0.7-3.2-2-1.9c-0.7,0.6,1.2,2.1,1.6,2.4c0.4,0.4,1.9-0.9,2.4-1.7c0.4-0.5,0.9-1,1.7-4.3c0.2-0.9,0.6-1.2,1.3-2
			c0.8-0.8,12.1-10.3,13.4-14.3c0.7-2.1,0.4-2.8-1.2-1.3c-1.6,1.5-10.2,8-13.5,8.9c-3.3,0.9-3.8-0.7-3.4-1.1
			c0.3-0.3,7.6-8.2-0.5-3.9c-3,1.1-5.9-1.3-6.5-3.5c-1.3-4.1-1.2-4.9-4.2-2.4c-1.6,1.3-4.4,2.7-5.4,3.1c-3.2,0.8-4.5,4.3-1.9,4.7
			c2.6,0.4,4-0.1,3.3,0.7c-0.7,0.7-1.8,1.4-0.6,2.1c1.2,0.6,3.4,2.2,3.6,2.4c0.1,0.2,1.2,0.3,1.5-0.5c0.3-0.8,0-1-0.2-1.1
			c-0.2-0.1,0-0.5,0.5-0.4c0.5,0.1,1.7-0.4,2-0.6c0.3-0.2,3.6-0.8,4.5,0.4c-0.9,0.3-1.2-0.3-2.5,0.2c-0.7,0.3-2.5,0.5-3.3,2.4
			c-0.6,1.4-0.8,4.3-3.4,3.4c-2.5-0.8-5.1-1.6-4.7-4.1C27.4,31.9,27.2,30.3,25.8,30.2z"/>
		<path d="M30.4,32.1c1.2,0.7,1.6,1.1,1.8,1.3s1,0.2,0.9-0.5c-0.4-0.6-1.6-1.5-2-1.5C30.7,31.3,30.1,31.4,30.4,32.1z"/>
	</g>
	<g>
		<path class="st0" d="M5.9,62.1l-2.5-4C3.1,58,2.7,58,2,58v4.1H0.8v-9.4c0,0,0.4,0,1,0c0.6,0,1.1,0,1.3,0c2.2,0,3.4,0.9,3.4,2.7
			c0,0.6-0.2,1.1-0.5,1.6c-0.4,0.5-0.8,0.8-1.3,0.9l2.7,4.3H5.9z M2,53.8v3c0.3,0,0.6,0.1,0.9,0.1c0.8,0,1.3-0.1,1.7-0.4
			c0.3-0.2,0.5-0.7,0.5-1.3c0-0.5-0.2-0.9-0.6-1.1c-0.4-0.2-1-0.3-1.8-0.3C2.7,53.8,2.4,53.8,2,53.8z"/>
		<path class="st0" d="M12.4,62.1v-4.3c0-0.5-0.1-0.9-0.4-1.2c-0.3-0.3-0.6-0.4-1.1-0.4c-0.3,0-0.6,0.1-0.9,0.3
			c-0.3,0.2-0.5,0.4-0.7,0.6v5.1H8.2v-9.6h1.2V56c0.2-0.3,0.4-0.5,0.8-0.6c0.4-0.2,0.7-0.3,1.1-0.3c0.7,0,1.3,0.2,1.7,0.7
			c0.4,0.5,0.6,1.1,0.6,2v4.3H12.4z"/>
		<path class="st0" d="M25.8,58.6c0-1.1,0.3-1.9,0.9-2.6c0.6-0.6,1.3-1,2.2-1c1,0,1.7,0.3,2.3,0.9c0.5,0.6,0.8,1.5,0.8,2.6
			c0,1.1-0.3,2-0.8,2.6c-0.6,0.6-1.3,1-2.3,1c-1,0-1.7-0.3-2.3-1C26.1,60.6,25.8,59.7,25.8,58.6z M27.1,58.6c0,1.7,0.6,2.6,1.8,2.6
			c0.6,0,1-0.2,1.3-0.7c0.3-0.5,0.5-1.1,0.5-1.9c0-1.7-0.6-2.5-1.8-2.5c-0.6,0-1,0.2-1.3,0.7C27.2,57.2,27.1,57.8,27.1,58.6z"/>
		<path class="st1" d="M38.4,55.8l-0.6,0.9c-0.1-0.1-0.3-0.2-0.7-0.4c-0.3-0.1-0.6-0.2-0.9-0.2c-0.7,0-1.2,0.2-1.6,0.7
			c-0.4,0.5-0.6,1.1-0.6,1.9c0,0.8,0.2,1.4,0.6,1.8c0.4,0.4,0.9,0.6,1.6,0.6c0.5,0,1.1-0.2,1.6-0.6l0.5,1C37.8,62,37,62.2,36,62.2
			c-0.9,0-1.7-0.3-2.3-0.9c-0.6-0.6-0.9-1.5-0.9-2.5c0-1.1,0.3-2,0.9-2.6c0.6-0.7,1.5-1,2.6-1c0.4,0,0.7,0.1,1.1,0.2
			C37.9,55.5,38.2,55.6,38.4,55.8z"/>
		<path class="st1" d="M45.5,58.8h-4.9c0,0.8,0.2,1.4,0.7,1.8c0.4,0.4,0.9,0.6,1.5,0.6c0.7,0,1.3-0.2,1.7-0.6l0.5,0.9
			c-0.2,0.2-0.5,0.3-0.9,0.5c-0.5,0.2-1,0.3-1.6,0.3c-0.9,0-1.6-0.3-2.2-0.9c-0.7-0.6-1-1.5-1-2.6c0-1.1,0.3-2,1-2.7
			c0.6-0.6,1.3-0.9,2.2-0.9c1,0,1.7,0.3,2.3,0.8c0.5,0.5,0.8,1.2,0.8,2.1C45.6,58.3,45.6,58.5,45.5,58.8z M42.6,56.1
			c-0.5,0-1,0.2-1.4,0.5c-0.3,0.3-0.5,0.7-0.6,1.2h3.8c0-0.5-0.2-0.9-0.5-1.2C43.6,56.3,43.1,56.1,42.6,56.1z"/>
		<path class="st1" d="M50.6,56.4c-0.3-0.2-0.5-0.3-0.8-0.3c-0.4,0-0.8,0.2-1.1,0.6c-0.3,0.4-0.5,0.9-0.5,1.4v3.9H47v-6.8h1.2v1.1
			c0.4-0.8,1.1-1.2,2-1.2c0.2,0,0.5,0,0.9,0.1L50.6,56.4z"/>
		<path class="st1" d="M51.5,58.6c0-1.1,0.3-1.9,0.9-2.6c0.6-0.6,1.3-1,2.2-1c1,0,1.7,0.3,2.3,0.9c0.5,0.6,0.8,1.5,0.8,2.6
			c0,1.1-0.3,2-0.8,2.6c-0.6,0.6-1.3,1-2.3,1c-1,0-1.7-0.3-2.3-1C51.8,60.6,51.5,59.7,51.5,58.6z M52.8,58.6c0,1.7,0.6,2.6,1.8,2.6
			c0.6,0,1-0.2,1.3-0.7c0.3-0.5,0.5-1.1,0.5-1.9c0-1.7-0.6-2.5-1.8-2.5c-0.6,0-1,0.2-1.3,0.7C53,57.2,52.8,57.8,52.8,58.6z"/>
		<path class="st1" d="M58.5,61.6l0.4-1.1c0.7,0.4,1.2,0.7,1.6,0.7c0.7,0,1.1-0.3,1.1-0.9c0-0.5-0.4-0.8-1.1-1.2
			c-0.6-0.3-0.9-0.4-1.1-0.6c-0.2-0.1-0.4-0.3-0.5-0.5c-0.1-0.2-0.2-0.3-0.3-0.5c-0.1-0.2-0.1-0.4-0.1-0.6c0-0.6,0.2-1,0.6-1.3
			c0.4-0.3,0.9-0.5,1.6-0.5c0.5,0,1.1,0.2,1.9,0.5l-0.3,1.1c-0.5-0.4-1-0.6-1.5-0.6c-0.3,0-0.5,0.1-0.7,0.2
			c-0.2,0.1-0.3,0.3-0.3,0.5c0,0.4,0.2,0.8,0.7,1l0.9,0.4c0.5,0.2,0.9,0.5,1.2,0.8c0.2,0.3,0.4,0.7,0.4,1.2c0,0.6-0.2,1.1-0.6,1.4
			c-0.4,0.3-1,0.5-1.8,0.5C59.8,62.2,59.2,62,58.5,61.6z"/>
		<g>
			<path class="st0" d="M16.6,54.1c0.2,0,0.4-0.1,0.5-0.2c0.1-0.1,0.2-0.3,0.2-0.5c0-0.2-0.1-0.4-0.2-0.5c-0.1-0.1-0.3-0.2-0.5-0.2
				c-0.2,0-0.4,0.1-0.5,0.2c-0.1,0.1-0.2,0.3-0.2,0.5c0,0.2,0.1,0.4,0.2,0.5C16.2,54.1,16.4,54.1,16.6,54.1z"/>
			<polygon class="st0" points="16,56.2 16,62.1 17.2,62.1 17.2,55.2 16,55.2 			"/>
		</g>
		<path class="st0" d="M22.3,55.1c-0.9,0-1.6,0.3-2,1v-0.9h-0.4h-0.8v6.8h1.2V57c0.2-0.2,0.4-0.4,0.7-0.6c0.3-0.2,0.6-0.2,0.9-0.2
			c0.5,0,0.9,0.1,1.1,0.4c0.2,0.3,0.3,0.8,0.3,1.5v4h1.2v-4.2C24.5,56,23.8,55.1,22.3,55.1z"/>
	</g>
</g>
</svg>
