<?xml version="1.0" encoding="utf-8"?>
<!-- Generator: Adobe Illustrator 22.1.0, SVG Export Plug-In . SVG Version: 6.00 Build 0)  -->
<svg version="1.1" id="图层_1" xmlns="http://www.w3.org/2000/svg" xmlns:xlink="http://www.w3.org/1999/xlink" x="0px" y="0px"
	 viewBox="0 0 64 64" style="enable-background:new 0 0 64 64;" xml:space="preserve">
<style type="text/css">
	.st0{fill:#FF6500;}
	.st1{fill:#FFFFFF;}
</style>
<path class="st0" d="M59,64H5c-2.8,0-5-2.3-5-5V5c0-2.8,2.3-5,5-5h54c2.8,0,5,2.3,5,5v54C64,61.8,61.8,64,59,64z"/>
<g>
	<path class="st1" d="M3.5,25.3l1.2-1.4c0.6,0.6,1.5,1,2.2,1c0.9,0,1.3-0.3,1.3-0.9c0-0.6-0.5-0.8-1.3-1.1l-1.2-0.5
		c-0.9-0.4-1.8-1.2-1.8-2.5c0-1.5,1.4-2.7,3.3-2.7c1.1,0,2.2,0.4,2.9,1.2l-1,1.3c-0.6-0.5-1.2-0.7-1.9-0.7c-0.7,0-1.2,0.3-1.2,0.8
		c0,0.6,0.6,0.8,1.4,1.1l1.2,0.5c1.1,0.5,1.8,1.2,1.8,2.5c0,1.5-1.3,2.8-3.4,2.8C5.7,26.6,4.5,26.2,3.5,25.3z"/>
	<path class="st1" d="M11.3,23c0-2.3,1.6-3.6,3.3-3.6c2,0,3,1.4,3,3.3c0,0.4,0,0.7-0.1,0.9h-4.2c0.2,1,0.9,1.5,1.8,1.5
		c0.5,0,1-0.2,1.5-0.5l0.7,1.2c-0.7,0.5-1.6,0.8-2.5,0.8C12.9,26.6,11.3,25.3,11.3,23z M15.8,22.2c0-0.8-0.3-1.3-1.2-1.3
		c-0.7,0-1.2,0.4-1.4,1.3H15.8z"/>
	<path class="st1" d="M18.5,24.5c0-1.5,1.2-2.3,3.9-2.5c0-0.6-0.3-1-1.1-1c-0.6,0-1.2,0.2-1.8,0.6l-0.7-1.4c0.9-0.5,1.9-0.9,3-0.9
		c1.8,0,2.8,1,2.8,3.1v4h-1.7l-0.1-0.7h-0.1c-0.6,0.5-1.2,0.9-2,0.9C19.3,26.6,18.5,25.7,18.5,24.5z M22.4,24.4v-1.2
		c-1.5,0.2-1.9,0.6-1.9,1.1c0,0.4,0.3,0.7,0.8,0.7C21.7,25,22.1,24.8,22.4,24.4z"/>
	<path class="st1" d="M26.2,19.5h1.7l0.1,0.9h0.1c0.6-0.6,1.2-1.1,2.1-1.1c1,0,1.6,0.4,1.9,1.2c0.6-0.6,1.3-1.2,2.2-1.2
		c1.5,0,2.2,1.1,2.2,2.8v4.3h-2.1v-4.1c0-1-0.3-1.3-0.9-1.3c-0.3,0-0.7,0.2-1.2,0.7v4.7h-2.1v-4.1c0-1-0.3-1.3-0.9-1.3
		c-0.3,0-0.7,0.2-1.2,0.7v4.7h-2.1V19.5z"/>
	<path class="st1" d="M38.2,24.3v-7.7h2.1v7.7c0,0.4,0.2,0.6,0.4,0.6c0.1,0,0.1,0,0.3,0l0.2,1.5c-0.2,0.1-0.6,0.2-1,0.2
		C38.7,26.6,38.2,25.7,38.2,24.3z"/>
	<path class="st1" d="M41.8,23c0-2.3,1.6-3.6,3.3-3.6c2,0,3,1.4,3,3.3c0,0.4,0,0.7-0.1,0.9h-4.2c0.2,1,0.9,1.5,1.8,1.5
		c0.5,0,1-0.2,1.5-0.5l0.7,1.2c-0.7,0.5-1.6,0.8-2.5,0.8C43.3,26.6,41.8,25.3,41.8,23z M46.3,22.2c0-0.8-0.3-1.3-1.2-1.3
		c-0.7,0-1.2,0.4-1.4,1.3H46.3z"/>
	<path class="st1" d="M48.8,25.7l0.9-1.3c0.6,0.5,1.2,0.7,1.8,0.7c0.6,0,0.9-0.2,0.9-0.6c0-0.5-0.7-0.7-1.4-0.9
		c-0.9-0.3-1.8-0.9-1.8-2c0-1.3,1.1-2.2,2.7-2.2c1.1,0,1.9,0.4,2.4,0.9l-0.9,1.2c-0.5-0.4-1-0.6-1.5-0.6c-0.5,0-0.8,0.2-0.8,0.6
		c0,0.4,0.7,0.6,1.4,0.9c0.9,0.3,1.9,0.8,1.9,2.1c0,1.3-1,2.2-2.9,2.2C50.6,26.6,49.5,26.2,48.8,25.7z"/>
	<path class="st1" d="M55,25.7l0.9-1.3c0.6,0.5,1.2,0.7,1.8,0.7c0.6,0,0.9-0.2,0.9-0.6c0-0.5-0.7-0.7-1.4-0.9
		c-0.9-0.3-1.8-0.9-1.8-2c0-1.3,1.1-2.2,2.7-2.2c1.1,0,1.9,0.4,2.4,0.9l-0.9,1.2c-0.5-0.4-1-0.6-1.5-0.6c-0.5,0-0.8,0.2-0.8,0.6
		c0,0.4,0.7,0.6,1.4,0.9c0.9,0.3,1.9,0.8,1.9,2.1c0,1.3-1,2.2-2.9,2.2C56.8,26.6,55.7,26.2,55,25.7z"/>
	<path class="st1" d="M8.5,35.9H6v-1.7h7.1v1.7h-2.5v7.4H8.5V35.9z"/>
	<path class="st1" d="M12.9,39.8c0-2.3,1.6-3.6,3.3-3.6c2,0,3,1.4,3,3.3c0,0.4,0,0.7-0.1,0.9h-4.2c0.2,1,0.9,1.5,1.8,1.5
		c0.5,0,1-0.2,1.5-0.5l0.7,1.2c-0.7,0.5-1.6,0.8-2.5,0.8C14.4,43.4,12.9,42.1,12.9,39.8z M17.3,39c0-0.8-0.3-1.3-1.2-1.3
		c-0.7,0-1.2,0.4-1.4,1.3H17.3z"/>
	<path class="st1" d="M21.7,39.6l-2-3.3h2.2l0.6,1.1c0.2,0.4,0.4,0.8,0.6,1.2h0.1c0.1-0.4,0.3-0.8,0.5-1.2l0.5-1.1h2.1l-2,3.6
		l2.1,3.4h-2.2l-0.7-1.1c-0.2-0.4-0.4-0.8-0.7-1.2h-0.1c-0.2,0.4-0.4,0.8-0.5,1.2l-0.5,1.1h-2.1L21.7,39.6z"/>
	<path class="st1" d="M27.4,40.7v-2.8h-0.9v-1.5l1.1-0.1l0.2-1.8h1.7v1.8h1.7v1.6h-1.7v2.8c0,0.8,0.4,1.1,0.9,1.1
		c0.2,0,0.5-0.1,0.7-0.1l0.3,1.5c-0.4,0.1-0.9,0.3-1.5,0.3C28,43.4,27.4,42.3,27.4,40.7z"/>
	<path class="st1" d="M32.4,40.6v-4.3h2.1v4.1c0,1,0.3,1.3,0.9,1.3c0.5,0,0.8-0.2,1.2-0.8v-4.6h2.1v7h-1.7l-0.1-1h-0.1
		c-0.6,0.7-1.2,1.1-2.2,1.1C33,43.4,32.4,42.4,32.4,40.6z"/>
	<path class="st1" d="M40.4,36.3h1.7l0.1,1.2h0.1c0.5-0.9,1.3-1.4,2-1.4c0.4,0,0.6,0.1,0.8,0.1l-0.3,1.8c-0.2-0.1-0.5-0.1-0.8-0.1
		c-0.5,0-1.2,0.3-1.5,1.3v4h-2.1V36.3z"/>
	<path class="st1" d="M45.4,39.8c0-2.3,1.6-3.6,3.3-3.6c2,0,3,1.4,3,3.3c0,0.4,0,0.7-0.1,0.9h-4.2c0.2,1,0.9,1.5,1.8,1.5
		c0.5,0,1-0.2,1.5-0.5l0.7,1.2c-0.7,0.5-1.6,0.8-2.5,0.8C47,43.4,45.4,42.1,45.4,39.8z M49.9,39c0-0.8-0.3-1.3-1.2-1.3
		c-0.7,0-1.2,0.4-1.4,1.3H49.9z"/>
	<path class="st1" d="M52.5,42.5l0.9-1.3c0.6,0.5,1.2,0.7,1.8,0.7c0.6,0,0.9-0.2,0.9-0.6c0-0.5-0.7-0.7-1.4-0.9
		c-0.9-0.3-1.8-0.9-1.8-2c0-1.3,1.1-2.2,2.7-2.2c1.1,0,1.9,0.4,2.4,0.9L57,38.3c-0.5-0.4-1-0.6-1.5-0.6c-0.5,0-0.8,0.2-0.8,0.6
		c0,0.4,0.7,0.6,1.4,0.9c0.9,0.3,1.9,0.8,1.9,2.1c0,1.3-1,2.2-2.9,2.2C54.2,43.4,53.2,43,52.5,42.5z"/>
</g>
</svg>
