<?xml version="1.0" encoding="utf-8"?>
<!-- Generator: Adobe Illustrator 22.1.0, SVG Export Plug-In . SVG Version: 6.00 Build 0)  -->
<svg version="1.1" xmlns="http://www.w3.org/2000/svg" xmlns:xlink="http://www.w3.org/1999/xlink" x="0px" y="0px"
	 viewBox="0 0 64 64" style="enable-background:new 0 0 64 64;" xml:space="preserve">
<style type="text/css">
	.st0{fill:#FFFFFF;}
	.st1{fill:#C73130;}
</style>
<g id="图层_2">
	<polygon class="st0" points="39.9,5.1 7.1,9.9 15.4,52.8 33.1,47.9 56.2,17.4 	"/>
</g>
<g id="图层_1">
	<g id="surface1">
		<path class="st1" d="M39.6,6l16,12.3L52,48l-32.4,9.6l-6.7-21.1L8.7,10.3L39.6,6 M41,1L3.2,6.2l5,31.4l8.3,25.9l39.9-11.8
			l4.4-35.5L41,1z"/>
		<path class="st1" d="M41.5,20l-8.3-8.8L7.9,14.8l1.7,20.1l8.5,25.9l35.5-11.3L58.3,17L41.5,20z M15.3,47.9l-2.2-7.1L26,38.3
			l3.5,6.3L15.3,47.9z M28.3,33.4c-0.2,0.5-3.5-5.7-3.5-5.7l-12,2.4l-2.5-5.8l23.3-3.9l8.3,10.1C42,30.4,28.5,32.9,28.3,33.4z"/>
	</g>
</g>
</svg>
