<?xml version="1.0" encoding="utf-8"?>
<!-- Generator: Adobe Illustrator 22.1.0, SVG Export Plug-In . SVG Version: 6.00 Build 0)  -->
<svg version="1.1" id="图层_2_1_" xmlns="http://www.w3.org/2000/svg" xmlns:xlink="http://www.w3.org/1999/xlink" x="0px"
	 y="0px" viewBox="0 0 64 64" style="enable-background:new 0 0 64 64;" xml:space="preserve">
<style type="text/css">
	.st0{fill:url(#SVGID_1_);}
</style>
<linearGradient id="SVGID_1_" gradientUnits="userSpaceOnUse" x1="31.9329" y1="65.8265" x2="31.9329" y2="2" gradientTransform="matrix(1 0 0 -1 0 66)">
	<stop  offset="0.6923" style="stop-color:#BCD980"/>
	<stop  offset="0.8242" style="stop-color:#9FBF58"/>
</linearGradient>
<path class="st0" d="M31.8,31.6c-0.2-0.5-0.2-0.7-0.6-0.4c-0.4,0.4-0.7,0.2-0.8,0.5c-0.1,0.2,0.1,0.2,0.2,0.6
	c0.1,0.4,0.5,0.6,0.5,0.6c0.2-0.4,0.1-0.4,0.4-0.7C31.8,31.8,31.9,32.1,31.8,31.6z M31,54.9c-0.5-1.6-0.7-2.9-1.2-4
	c-0.5-1.1-0.7-2.2-0.5-3.5c0.2-1.2,0-2.9-0.5-2.8c-0.5,0.1-0.8,0.1-1.6-0.1c-0.7-0.2-1.8-1.3-2.4-1.7c-0.6-0.4-1-0.8-1.4-1.3
	c-0.5-0.5,0.1-1.1-0.5-1.5c-0.5-0.4-1.2-1-1.6-1.2c-0.2-0.2-0.7-0.4-1.1,0c-0.4,0.4-0.7,0.8-1.3,0.7c-0.6-0.1-1.2-0.7-1.6-0.2
	c-0.5,0.4-0.6,0.7-1,0.7s-0.8-0.2-0.8-0.6s0.2-0.8-0.6-0.5c-0.8,0.2-1.7,0.5-1.9-0.1c-0.2-0.6-0.6-0.7-0.7-1.1
	c-0.1-0.4-0.1-1.1,0-1.3c0.1-0.2-0.1-0.6-0.5-0.7c-0.4-0.1-0.1-0.4-0.1-0.8c0-0.5-0.7,0.1-0.8-0.5c-0.1-0.6,0.8-1.6,0.5-1.9
	c-0.4-0.5-0.5,0-0.5,0s-0.8,0.1-1.3,0.1C9,32.5,8,31.7,7.7,32c-0.4,0.2-0.4-0.1-0.8-0.1c-0.5-0.1-1,0.2-1.6-0.1
	c-0.5-0.4-1.4-0.8-1.4-1.2c0-0.4-0.6-1-0.6-1.3c0-0.4-0.4-0.8-0.6-1C2.4,28.1,2.8,27,2.8,27H2.3c0,0,0,0.1-0.5,0.1H1.4
	c-0.5-0.2-0.8-0.6-1.2-0.8c0,0,0,0-0.1,0v30.2c0,4.1,3.4,7.5,7.5,7.5h21.3l0.6-0.6c0.6-0.6,1.4-2.5,1.4-3.6
	C30.9,58.7,31.5,56.5,31,54.9z M28.2,37.8c0-0.4,0.1-0.4-0.5-0.4c-0.6-0.1-0.8-0.2-0.8,0.1c0.1,0.4,0.2,0.4,0.5,0.5
	c0.1,0.1,0.6,0.4,0.6,0.4c0.4,0.1,0.8,0.1,0.7-0.2C28.6,37.8,28.4,38.2,28.2,37.8z M7.6,0.3C3.5,0.2,0.1,3.4,0.1,7.6v9.6
	c0-0.1,0.1-0.2,0.2-0.2c0.1-0.2,0.4-0.4,0.5-0.5c0.1-0.1,0.2-0.1,0.4-0.2c1-0.6,2.2-0.7,3.4-0.8c0.1,0,0.2-0.1,0.4-0.1
	c0.4-0.1,0.7-0.4,1-0.5c0.5-0.2,0.8-0.1,1.6,0.2c0.8,0.5,1.6,0,1.7-0.2c0.1-0.2-0.2-0.4-0.1-1.5c0.1-1.1,0.7-1.6,1.2-2.1
	c0.5-0.5,1.6-1.1,1.8-1.7c0.2-0.6,0.5-0.7,1.2-0.5c0.6,0.2,1.2,0,1.2,0l0.1-0.2c0,0-0.2-0.1,0.1-0.7c0.4-0.5,1.1-1.5,1.3-1.2
	C16.3,7,16.2,6.7,16.7,6c0.5-0.7,0.4-1.2,1.4-1.2c1.1-0.1,1.4-0.2,2.1-0.5c0.6-0.2,1.2-0.8,1.2-1.3s-0.2-1.1,0.7-1.2
	c1-0.1,1.2-0.1,2.4-0.8c0.4-0.2,0.6-0.5,1-0.6H7.6z M62.8,38.4c0,0.1-0.1,0.4-0.1,0.5c-0.2,0.5-0.4,0.7-0.8,1.1
	c-0.7,0.6-0.8,0.1-1.7,0.2c-0.8,0.1-1,0.5-1.8,1.2c-0.8,0.7-1.6,1-1.8,0.5c-0.2-0.5-0.8-0.1-0.8-0.1s0,0.2-0.8,0.4
	c-0.8,0.1,0-0.4-1-0.4S53,42,53,42s0.2,0.4-0.4,0.4s-0.6-0.8-1.2-0.8c-0.5,0-0.4-0.2-1,0.5c-0.6,0.7-1.6,0.2-1.8,1
	c-0.4,0.7,0.1,0.5-0.6,1.1c-0.7,0.6-1.6,0.8-1.8,1.7c-0.4,1.2-0.2,0.8-1.3,0.8c-1.1,0-1.1-0.1-1.8,0.4c-0.8,0.5-1.1,0.8-1.8,1.1
	c-0.7,0.2-1.2,0.5-1.8,0.7C38.9,49,39.4,50.2,39,51c-0.5,0.8-0.8,1.8-0.8,3.3c0,1.6,0,1.8,0.1,3.3c0.1,1.5,0.1,3.9,0.5,5
	c0.2,0.7,0.8,1,1.1,1.3h16.4c4.1,0,7.5-3.4,7.5-7.5V37.5C63.4,37.8,63.2,38,62.8,38.4z M56.2,0.2H34.8c0.4,0.6,1.6,1.7,1.4,2.3
	c-0.1,0.5,1,1.2,1.2,1.8C37.7,4.8,39,4.4,39.2,5c0.1,0.6,1.3,0.5,1.4,0.8c0.1,0.4,0.1,1.2,0.5,1.1c0.5-0.1,0.8-1.1,1.4-0.8
	c0.6,0.1,1.4-0.2,1.7,0.2c0.2,0.4,0.2,0.6,0,0.8c-0.2,0.2-0.2,0.8,0.5,0.7c0.7-0.1,0.8-0.5,1.7-0.2c0.8,0.2,0.8-0.4,1.4-0.4
	s1.3,0.6,1.4,1c0.1,0.4,0.8,0.8,1.2,0.8s1.3-0.1,1.7,0.2c0.4,0.5,1.1,0.8,0.7,1.6c-0.4,0.6-0.5,1.7-0.5,1.7s0.8,0,1,0.5
	c0.1,0.5,0.7,0.7,0.1,1.9c-0.5,1.2-0.2,1.1,0.1,1.5c0.5,0.4,0.8,0.7,0.8,1.8c0.1,1.1-0.1,1.2,0.8,1.6c1,0.4,1.6,0.6,2.4,1.3
	c0.8,0.7,1.3,1,2.3,1.2c1,0.1,1.8,0,1.9,0.8c0.1,0.8,0.7,0.7,0.8,1.8c0,0.7,0.5,0.7,0.6,1V7.6C63.6,3.4,60.3,0.2,56.2,0.2z
	 M45.4,39.6c-0.2-0.7,0-1.6-0.2-1.8c-0.2-0.2-0.7-0.4-0.8,0.1c-0.1,0.5-0.7,0.7-0.7,1.5c0,0.7-0.1,1-0.4,1.5c-0.2,0.5,0,1,0,1h0.5
	c0.5-0.2,0.7-0.6,1.2-1C45.4,40.5,45.6,40.3,45.4,39.6z M38.9,34.8c-0.7-0.1-0.7-0.5-1.1,0c-0.4,0.5-0.4,0.7,0,1
	c0.4,0.4,0,0.5,0.2,0.7c0.1,0.1,0.2,0,0.2,0c0.4-0.7,0.4-0.6,0.7-1.1C39.4,34.9,39.6,34.9,38.9,34.8z"/>
</svg>
