<?xml version="1.0" encoding="utf-8"?>
<!-- Generator: Adobe Illustrator 22.1.0, SVG Export Plug-In . SVG Version: 6.00 Build 0)  -->
<svg version="1.1" id="图层_2" xmlns="http://www.w3.org/2000/svg" xmlns:xlink="http://www.w3.org/1999/xlink" x="0px" y="0px"
	 viewBox="0 0 64 64" style="enable-background:new 0 0 64 64;" xml:space="preserve">
<style type="text/css">
	.st0{fill:url(#SVGID_1_);}
</style>
<linearGradient id="SVGID_1_" gradientUnits="userSpaceOnUse" x1="32.4941" y1="0.159" x2="32.4941" y2="63.841">
	<stop  offset="0.6923" style="stop-color:#BCD980"/>
	<stop  offset="0.8242" style="stop-color:#9FBF58"/>
</linearGradient>
<path class="st0" d="M21.3,56c-1.6,0-2.9,1.3-2.9,2.9c0,1.6,1.3,2.9,2.9,2.9c1.1,0,2.1-0.6,2.6-1.5l-1.4,0c-0.3,0.3-0.7,0.4-1.1,0.4
	c-0.9,0-1.6-0.7-1.8-1.5l1.7,0l3,0c0-0.1,0-0.2,0-0.3C24.2,57.3,22.9,56,21.3,56z M19.7,58.1c0.3-0.6,0.9-0.9,1.6-1
	c0.7,0,1.3,0.4,1.6,0.9L19.7,58.1z M9.8,58.4l-1.5,0c-0.3-0.1-0.5-0.3-0.5-0.6c0-0.3,0.2-0.6,0.5-0.6h1.4c0.3,0.1,0.5,0.3,0.5,0.6
	h1.1c0,0,0,0,0,0c0-0.9-0.8-1.7-1.7-1.7c0,0,0,0,0,0c0,0,0,0,0,0c-0.5,0-1.1,0-1.2,0c-1,0-1.8,0.8-1.8,1.7c0,0.9,0.7,1.6,1.6,1.7
	l1.5,0c0.3,0.1,0.5,0.3,0.5,0.6c0,0.3-0.2,0.6-0.5,0.6H8.2c-0.3,0-0.6-0.3-0.6-0.6H6.6c0,0,0,0,0,0c0,0.9,0.6,1.6,1.4,1.7
	c0,0,0.1,0,0.2,0c0.5,0,1.3,0,1.3,0c1,0,1.8-0.8,1.8-1.7C11.3,59.3,10.6,58.5,9.8,58.4z M31.4,26.7c0.1,0.3,0.4,0.5,0.4,0.5
	c0.2-0.3,0.1-0.3,0.3-0.6c0.3-0.3,0.4-0.1,0.3-0.5c-0.2-0.4-0.2-0.6-0.5-0.3c-0.3,0.3-0.6,0.2-0.7,0.4
	C31.1,26.4,31.3,26.4,31.4,26.7z M27.7,56c-1.6,0-2.9,1.3-2.9,2.9c0,1.6,1.3,2.9,2.9,2.9c1.1,0,2.1-0.6,2.6-1.6l-1.4,0
	c-0.3,0.3-0.7,0.4-1.1,0.4c-0.9,0-1.6-0.7-1.8-1.5l1.7,0l3,0c0-0.1,0-0.2,0-0.3C30.6,57.3,29.3,56,27.7,56z M26.1,58.1
	c0.3-0.6,0.9-0.9,1.6-1c0.7,0,1.3,0.4,1.6,0.9L26.1,58.1z M12.4,52.8H30c0.1-0.1,0.3-0.3,0.5-0.5c0.5-0.5,1.2-2.1,1.2-3
	c0-0.9,0.5-2.7,0.1-4c-0.4-1.3-0.6-2.4-1-3.3c-0.4-0.9-0.6-1.8-0.4-2.9c0.2-1,0-2.4-0.4-2.3c-0.4,0.1-0.7,0.1-1.3-0.1
	c-0.6-0.2-1.5-1.1-2-1.4c-0.5-0.3-0.8-0.7-1.2-1.1c-0.4-0.4,0.1-0.9-0.4-1.2c-0.4-0.3-1-0.8-1.3-1c-0.2-0.2-0.6-0.3-0.9,0
	c-0.3,0.3-0.6,0.7-1.1,0.6c-0.5-0.1-1-0.6-1.3-0.2C20.1,32.7,20,33,19.7,33c-0.3,0-0.7-0.2-0.7-0.5s0.2-0.7-0.5-0.4
	c-0.7,0.2-1.4,0.4-1.6-0.1c-0.2-0.5-0.5-0.6-0.6-0.9c-0.1-0.3-0.1-0.9,0-1.1c0.1-0.2-0.1-0.5-0.4-0.6c-0.3-0.1-0.1-0.3-0.1-0.7
	c0-0.4-0.6,0.1-0.7-0.4c-0.1-0.5,0.7-1.3,0.4-1.6c-0.3-0.4-0.4,0-0.4,0s-0.7,0.1-1.1,0.1c-0.4,0-1.3-0.6-1.5-0.4
	c-0.3,0.2-0.3-0.1-0.7-0.1c-0.4-0.1-0.8,0.2-1.3-0.1c-0.4-0.3-1.2-0.7-1.2-1c0-0.3-0.5-0.8-0.5-1.1c0-0.3-0.3-0.7-0.5-0.8
	c-0.2-0.1,0.1-1,0.1-1H8c0,0,0,0.1-0.4,0.1c-0.1,0-0.2,0-0.3,0c-0.4-0.2-0.7-0.5-1-0.7c0,0,0,0-0.1,0v24.9C6.2,50,9,52.8,12.4,52.8z
	 M28.8,31.4c0.1,0.1,0.5,0.3,0.5,0.3c0.3,0.1,0.7,0.1,0.6-0.2c-0.1-0.3-0.3,0-0.4-0.3c0-0.3,0.1-0.3-0.4-0.3
	c-0.5-0.1-0.7-0.2-0.7,0.1C28.5,31.3,28.6,31.3,28.8,31.4z M15,56.1c-0.7,0-1.3,0.2-1.8,0.6v-0.6h-1.1v7.8l1.1-0.7v-1.9
	c0.5,0.4,1.1,0.6,1.8,0.6c1.6,0,2.9-1.3,2.9-2.9C17.9,57.4,16.6,56.1,15,56.1z M15,60.8c-1,0-1.8-0.8-1.8-1.8c0-1,0.8-1.8,1.8-1.8
	c1,0,1.8,0.8,1.8,1.8C16.8,60,16,60.8,15,60.8z M6.8,13.6c0.1-0.1,0.2-0.1,0.3-0.2c0.8-0.5,1.8-0.6,2.8-0.7c0.1,0,0.2-0.1,0.3-0.1
	c0.3-0.1,0.6-0.3,0.8-0.4c0.4-0.2,0.7-0.1,1.3,0.2c0.7,0.4,1.3,0,1.4-0.2c0.1-0.2-0.2-0.3-0.1-1.2c0.1-0.9,0.6-1.3,1-1.7
	c0.4-0.4,1.3-0.9,1.5-1.4c0.2-0.5,0.4-0.6,1-0.4c0.5,0.2,1,0,1,0l0.1-0.2c0,0-0.2-0.1,0.1-0.6c0.3-0.4,0.9-1.2,1.1-1
	c0.2,0.1,0.1-0.1,0.5-0.7c0.4-0.6,0.3-1,1.2-1c0.9-0.1,1.2-0.2,1.7-0.4c0.5-0.2,1-0.7,1-1.1c0-0.4-0.2-0.9,0.6-1
	c0.8-0.1,1-0.1,2-0.7c0.3-0.2,0.5-0.4,0.8-0.5H12.4C9,0.2,6.2,2.9,6.2,6.3v7.9c0-0.1,0.1-0.2,0.2-0.2C6.5,13.8,6.7,13.7,6.8,13.6z
	 M57.5,53.5c-0.1-0.1-0.3-0.1-0.5-0.1c-0.2,0-0.3,0-0.5,0.1c-0.1,0.1-0.3,0.2-0.3,0.3c-0.1,0.1-0.1,0.3-0.1,0.5c0,0.2,0,0.3,0.1,0.5
	c0.1,0.1,0.2,0.3,0.3,0.3c0.1,0.1,0.3,0.1,0.5,0.1c0.2,0,0.3,0,0.5-0.1c0.1-0.1,0.3-0.2,0.3-0.3c0.1-0.1,0.1-0.3,0.1-0.5
	c0-0.2,0-0.3-0.1-0.5C57.7,53.7,57.6,53.6,57.5,53.5z M57.7,54.7c-0.1,0.1-0.2,0.2-0.3,0.3c-0.1,0.1-0.2,0.1-0.4,0.1
	c-0.1,0-0.3,0-0.4-0.1c-0.1-0.1-0.2-0.2-0.3-0.3c-0.1-0.1-0.1-0.2-0.1-0.4c0-0.1,0-0.3,0.1-0.4c0.1-0.1,0.2-0.2,0.3-0.3
	c0.1-0.1,0.2-0.1,0.4-0.1c0.1,0,0.3,0,0.4,0.1c0.1,0.1,0.2,0.2,0.3,0.3c0.1,0.1,0.1,0.3,0.1,0.4C57.8,54.5,57.8,54.6,57.7,54.7z
	 M35.7,56.7c-0.5-0.4-1.1-0.6-1.8-0.6c-1.6,0-2.9,1.3-2.9,2.9c0,1.6,1.3,2.9,2.9,2.9c0.7,0,1.3-0.2,1.8-0.6v0.6h1.1v-7.8l-1.1,0.7
	V56.7z M33.9,60.8c-1,0-1.8-0.8-1.8-1.8c0-1,0.8-1.8,1.8-1.8c1,0,1.8,0.8,1.8,1.8C35.7,60,34.9,60.8,33.9,60.8z M57.2,54.4
	C57.2,54.4,57.1,54.4,57.2,54.4c0-0.1,0.1-0.1,0.1-0.1c0.1-0.1,0.1-0.1,0.1-0.2c0-0.1,0-0.1,0-0.1c0,0-0.1-0.1-0.1-0.1
	c-0.1,0-0.1,0-0.3,0h-0.3v1h0.2v-0.4h0.1c0.1,0,0.1,0,0.1,0c0,0,0.1,0.1,0.2,0.2l0.1,0.2h0.2l-0.1-0.2
	C57.3,54.5,57.2,54.5,57.2,54.4z M57,54.3h-0.2V54H57c0.1,0,0.1,0,0.2,0c0,0,0.1,0,0.1,0.1c0,0,0,0,0,0.1c0,0,0,0.1-0.1,0.1
	C57.1,54.3,57.1,54.3,57,54.3z M58.1,31.7c0,0.1-0.1,0.3-0.1,0.4c-0.2,0.4-0.3,0.6-0.7,0.9c-0.6,0.5-0.7,0.1-1.4,0.2
	c-0.7,0.1-0.8,0.4-1.5,1c-0.7,0.6-1.3,0.8-1.5,0.4c-0.2-0.4-0.7-0.1-0.7-0.1s0,0.2-0.7,0.3c-0.7,0.1,0-0.3-0.8-0.3
	c-0.8,0-0.7,0.2-0.7,0.2s0.2,0.3-0.3,0.3c-0.5,0-0.5-0.7-1-0.7c-0.4,0-0.3-0.2-0.8,0.4c-0.5,0.6-1.3,0.2-1.5,0.8
	c-0.3,0.6,0.1,0.4-0.5,0.9c-0.6,0.5-1.3,0.7-1.5,1.4c-0.3,1-0.2,0.7-1.1,0.7c-0.9,0-0.9-0.1-1.5,0.3c-0.7,0.4-0.9,0.7-1.5,0.9
	c-0.6,0.2-1,0.4-1.5,0.6c-0.5,0.1-0.1,1.1-0.4,1.8c-0.4,0.7-0.7,1.5-0.7,2.7c0,1.3,0,1.5,0.1,2.7c0.1,1.2,0.1,3.2,0.4,4.1
	c0.2,0.6,0.7,0.8,0.9,1.1h13.6c3.4,0,6.2-2.8,6.2-6.2V31C58.6,31.2,58.4,31.4,58.1,31.7z M52.6,0.2H34.9c0.3,0.5,1.3,1.4,1.2,1.9
	c-0.1,0.4,0.8,1,1,1.5c0.2,0.4,1.3,0.1,1.5,0.6c0.1,0.5,1.1,0.4,1.2,0.7c0.1,0.3,0.1,1,0.4,0.9c0.4-0.1,0.7-0.9,1.2-0.7
	c0.5,0.1,1.2-0.2,1.4,0.2C43,5.6,43,5.8,42.8,6c-0.2,0.2-0.2,0.7,0.4,0.6c0.6-0.1,0.7-0.4,1.4-0.2c0.7,0.2,0.7-0.3,1.2-0.3
	c0.5,0,1.1,0.5,1.2,0.8c0.1,0.3,0.7,0.7,1,0.7c0.3,0,1.1-0.1,1.4,0.2c0.3,0.4,0.9,0.7,0.6,1.3c-0.3,0.5-0.4,1.4-0.4,1.4
	s0.7,0,0.8,0.4c0.1,0.4,0.6,0.6,0.1,1.6c-0.4,1-0.2,0.9,0.1,1.2c0.4,0.3,0.7,0.6,0.7,1.5c0.1,0.9-0.1,1,0.7,1.3
	c0.8,0.3,1.3,0.5,2,1.1c0.7,0.6,1.1,0.8,1.9,1c0.8,0.1,1.5,0,1.6,0.7c0.1,0.7,0.6,0.6,0.7,1.5c0,0.6,0.4,0.6,0.5,0.8V6.3
	C58.8,2.9,56,0.2,52.6,0.2z M43.5,31.2c-0.2-0.2-0.6-0.3-0.7,0.1c-0.1,0.4-0.6,0.6-0.6,1.2c0,0.6-0.1,0.8-0.3,1.2
	c-0.2,0.4,0,0.8,0,0.8l0.4,0c0.4-0.2,0.6-0.5,1-0.8c0.4-0.3,0.6-0.4,0.4-1C43.5,32.1,43.7,31.4,43.5,31.2z M37.8,30.1
	c0.3-0.6,0.3-0.5,0.6-0.9c0.3-0.4,0.5-0.4-0.1-0.5c-0.6-0.1-0.6-0.4-0.9,0c-0.3,0.4-0.3,0.6,0,0.8c0.3,0.3,0,0.4,0.2,0.6
	C37.7,30.2,37.8,30.1,37.8,30.1z M40.1,54.1L39,54.8V56h-1.5v1.1H39v4.7h1.1v-4.7h1.5V56h-1.5V54.1z M45.2,56.6
	c0.1-0.2,0.3-0.5,0.3-0.7c0-0.1,0-0.2,0.1-0.2c0,0,0,0-0.1,0c-0.3,0.2-1-0.3-1.4,0.2c-0.2,0.2-0.3,0.5-0.4,0.7c0,0,0,0,0,0
	c0,0,0,0,0,0c-0.1,0.2-0.1,0.4-0.1,0.4s0,0,0,0c0,0.1-0.1,0.2-0.1,0.3l0-1.3h-1.1v5.8h1.1l0-4.1c0.1-0.2,0.2-0.4,0.3-0.6
	c0.2,0.1,0.5,0.2,0.9-0.1C44.9,57,45.1,56.8,45.2,56.6z M54.3,56c-1.6,0-2.9,1.3-2.9,2.9c0,1.6,1.3,2.9,2.9,2.9
	c1.1,0,2.1-0.6,2.6-1.6l-1.4,0c-0.3,0.3-0.7,0.4-1.1,0.4c-0.9,0-1.6-0.7-1.8-1.5l1.7,0l3,0c0-0.1,0-0.2,0-0.3
	C57.2,57.3,55.9,56,54.3,56z M52.8,58.1c0.3-0.6,0.9-0.9,1.6-1c0.7,0,1.3,0.4,1.6,0.9L52.8,58.1z M47.9,56c-1.6,0-2.9,1.3-2.9,2.9
	c0,1.6,1.3,2.9,2.9,2.9c1.1,0,2.1-0.6,2.6-1.6l-1.4,0c-0.3,0.3-0.7,0.4-1.1,0.4c-0.9,0-1.6-0.7-1.8-1.5l1.7,0l3,0c0-0.1,0-0.2,0-0.3
	C50.8,57.3,49.5,56,47.9,56z M46.3,58.1c0.3-0.6,0.9-0.9,1.6-1c0.7,0,1.3,0.4,1.6,0.9L46.3,58.1z"/>
</svg>
