<?xml version="1.0" encoding="utf-8"?>
<!-- Generator: Adobe Illustrator 22.1.0, SVG Export Plug-In . SVG Version: 6.00 Build 0)  -->
<svg version="1.1" id="图层_1" xmlns="http://www.w3.org/2000/svg" xmlns:xlink="http://www.w3.org/1999/xlink" x="0px" y="0px"
	 viewBox="0 0 64 64" style="enable-background:new 0 0 64 64;" xml:space="preserve">
<style type="text/css">
	.st0{fill:#FFFFFF;}
	.st1{fill:#1882B4;}
</style>
<g>
	<path class="st0" d="M42.5,11.8c-6.7,0-12.1,5.4-12.1,12V24l-7.6,11h-0.5c-1.9,0-3.6,0.6-5.1,1.6L0.1,29.5C0,30.3,0,31.2,0,32
		c0,3,0.4,6,1.2,8.8l12.2,4.8c0.8,4.2,4.5,7.3,8.9,7.3c5,0,9.1-4,9.1-9v-0.4l10.9-7.7h0.3c6.7,0,12.1-5.4,12.1-12
		C54.6,17.2,49.2,11.8,42.5,11.8z M28.6,46.6c-1.4,3.5-5.4,5.1-8.9,3.7c-1.6-0.6-2.8-1.9-3.5-3.3l3.9,1.6c2.5,1,5.5-0.2,6.6-2.8
		c1.1-2.5-0.1-5.4-2.7-6.5L20,37.6c1.5-0.6,3.3-0.6,5,0.1c1.7,0.7,3,2,3.7,3.7C29.3,43.1,29.3,44.9,28.6,46.6z M42.5,31.8
		c-4.5,0-8.1-3.6-8.1-8c0-4.4,3.7-8,8.1-8c4.5,0,8.1,3.6,8.1,8C50.6,28.3,47,31.9,42.5,31.8z"/>
	<path class="st1" d="M54.7,9.5c-0.4-0.4-0.8-0.8-1.2-1.1c0,0,0,0,0,0c-0.4-0.3-0.8-0.7-1.2-1c-2.2-1.8-4.6-3.3-7.2-4.5
		c-0.5-0.2-0.9-0.4-1.4-0.6c-1-0.4-2-0.7-3-1c-0.8-0.2-1.5-0.4-2.3-0.6c-2.1-0.4-4.3-0.7-6.5-0.7h0c-0.5,0-1,0-1.5,0h0
		c-0.4,0-0.8,0-1.2,0.1c-0.1,0-0.3,0-0.4,0c-0.3,0-0.6,0-0.8,0.1c-0.3,0-0.5,0.1-0.8,0.1c-0.3,0.1-0.7,0.1-1,0.2
		c-0.2,0-0.4,0.1-0.5,0.1c0,0-0.1,0-0.1,0c-0.3,0.1-0.7,0.2-1,0.2c-0.2,0-0.3,0.1-0.5,0.1c-0.3,0.1-0.7,0.2-1,0.3
		c-0.2,0-0.3,0.1-0.5,0.1c-0.3,0.1-0.7,0.2-1,0.3C21,2,20.6,2.2,20.2,2.3c-0.1,0-0.2,0.1-0.3,0.1c-0.4,0.2-0.8,0.3-1.1,0.5
		c-0.1,0-0.1,0-0.2,0.1c-0.4,0.2-0.8,0.4-1.2,0.6c0,0-0.1,0-0.1,0c-0.4,0.2-0.8,0.4-1.1,0.6c-0.1,0-0.2,0.1-0.2,0.1
		c-0.3,0.2-0.7,0.4-1,0.6c-1.4,0.9-2.7,1.8-3.9,2.9c-0.3,0.2-0.6,0.5-0.8,0.7c0,0,0,0,0,0C9.8,8.9,9.6,9.2,9.3,9.5
		c-1.3,1.3-2.4,2.6-3.5,4.1c-0.3,0.4-0.5,0.8-0.8,1.2c-0.3,0.5-0.6,0.9-0.9,1.4c-0.1,0.2-0.3,0.4-0.4,0.7c-0.2,0.3-0.3,0.5-0.4,0.8
		c-0.1,0.2-0.2,0.4-0.3,0.6c-0.1,0.2-0.2,0.5-0.3,0.7c-0.1,0.2-0.2,0.5-0.3,0.7c-0.1,0.3-0.2,0.5-0.3,0.8C2,20.6,2,20.8,1.9,21
		c-0.1,0.3-0.2,0.5-0.3,0.8c-0.4,1.2-0.8,2.5-1,3.8c-0.3,1.3-0.5,2.6-0.6,3.9l0,0l17.2,7.1c1.5-1,3.2-1.6,5.1-1.6h0.5l7.6-11v-0.2
		c0-6.6,5.4-12,12.1-12s12.1,5.4,12.1,12c0,6.6-5.4,12-12.1,12h-0.3l-10.9,7.7v0.4c0,5-4.1,9-9.1,9c-4.4,0-8.1-3.1-8.9-7.3L1.1,40.8
		l0,0C3,47.3,6.9,53,12.1,57.1c0.2,0.2,0.5,0.4,0.7,0.5c0.9,0.7,1.9,1.3,2.9,1.9c1,0.6,2,1.1,3.1,1.6c0.2,0.1,0.5,0.2,0.7,0.3
		c0.2,0.1,0.5,0.2,0.7,0.3c0.2,0.1,0.4,0.2,0.7,0.3c0,0,0.1,0,0.1,0c0.2,0.1,0.5,0.2,0.7,0.3c0.3,0.1,0.5,0.2,0.8,0.2
		c0.3,0.1,0.5,0.2,0.8,0.2c0.5,0.1,1,0.3,1.5,0.4c0.3,0.1,0.5,0.1,0.8,0.2c0.6,0.1,1.1,0.2,1.7,0.3c0.5,0.1,1,0.1,1.5,0.2
		c0.2,0,0.5,0,0.7,0.1c0,0,0.1,0,0.1,0c0.4,0,0.7,0.1,1.1,0.1h0c0.4,0,0.9,0,1.3,0h0c2.2,0,4.4-0.2,6.5-0.7c0.8-0.2,1.6-0.3,2.3-0.6
		c1-0.3,2-0.6,3-1c0.5-0.2,1-0.4,1.4-0.6c0.8-0.4,1.6-0.8,2.3-1.2c0.9-0.5,1.8-1.1,2.7-1.7c0.6-0.4,1.1-0.8,1.7-1.3c0,0,0,0,0,0
		c7.4-5.8,12.2-14.9,12.2-25C64,23.3,60.4,15.3,54.7,9.5z M28.6,41.4c-0.7-1.7-2-3-3.7-3.7c-1.7-0.7-3.5-0.7-5-0.1l4.1,1.7
		c2.6,1.1,3.8,4,2.7,6.5c-1.1,2.6-4.1,3.8-6.6,2.8L16.2,47c0.7,1.4,1.9,2.7,3.5,3.3c3.5,1.4,7.5-0.2,8.9-3.7
		C29.3,44.9,29.3,43.1,28.6,41.4z M42.5,15.8c-4.4,0-8.1,3.6-8.1,8c0,4.4,3.6,8,8.1,8c4.5,0.1,8.1-3.5,8.1-8
		C50.6,19.4,47,15.8,42.5,15.8z M42.5,29.8c-3.3,0-6-2.7-6-6s2.7-6,6-6s6.1,2.7,6.1,6S45.9,29.8,42.5,29.8z"/>
	<path class="st0" d="M48.6,23.8c0,3.3-2.7,6-6.1,6c-3.3,0-6-2.7-6-6s2.7-6,6-6S48.6,20.5,48.6,23.8z"/>
</g>
</svg>
