<?xml version="1.0" encoding="utf-8"?>
<!-- Generator: Adobe Illustrator 22.1.0, SVG Export Plug-In . SVG Version: 6.00 Build 0)  -->
<svg version="1.1" id="图层_1" xmlns="http://www.w3.org/2000/svg" xmlns:xlink="http://www.w3.org/1999/xlink" x="0px" y="0px"
	 viewBox="0 0 64 64" style="enable-background:new 0 0 64 64;" xml:space="preserve">
<style type="text/css">
	.st0{fill:#133C70;}
</style>
<g>
	<path class="st0" d="M31.9,0.1C15.1,0.1,1.3,13.1,0,29.5l17.2,7.1c1.5-1,3.2-1.6,5.1-1.6c0.2,0,0.3,0,0.5,0l7.6-11v-0.2
		c0-6.6,5.4-12,12.1-12s12.1,5.4,12.1,12s-5.4,12-12.1,12c-0.1,0-0.2,0-0.3,0l-10.9,7.7c0,0.1,0,0.3,0,0.4c0,5-4.1,9-9.1,9
		c-4.4,0-8.1-3.1-8.9-7.3L1.1,40.8C4.9,54.2,17.3,64,31.9,64C49.6,64,64,49.7,64,32.1C64,14.4,49.6,0.1,31.9,0.1z M20.1,48.6
		L16.2,47c0.7,1.4,1.9,2.7,3.5,3.3c3.5,1.4,7.5-0.2,8.9-3.7c0.7-1.7,0.7-3.5,0-5.2c-0.7-1.7-2-3-3.7-3.7c-1.7-0.7-3.5-0.7-5-0.1
		l4.1,1.7c2.6,1.1,3.8,4,2.7,6.5C25.6,48.4,22.6,49.6,20.1,48.6z M50.6,23.8c0-4.4-3.6-8-8.1-8c-4.4,0-8.1,3.6-8.1,8s3.6,8,8.1,8
		C47,31.9,50.6,28.3,50.6,23.8z M36.5,23.8c0-3.3,2.7-6,6-6c3.3,0,6.1,2.7,6.1,6s-2.7,6-6.1,6C39.2,29.8,36.5,27.1,36.5,23.8z"/>
</g>
</svg>
