<?xml version="1.0" encoding="utf-8"?>
<!-- Generator: Adobe Illustrator 22.1.0, SVG Export Plug-In . SVG Version: 6.00 Build 0)  -->
<svg version="1.1" id="图层_1" xmlns="http://www.w3.org/2000/svg" xmlns:xlink="http://www.w3.org/1999/xlink" x="0px" y="0px"
	 viewBox="0 0 64 64" style="enable-background:new 0 0 64 64;" xml:space="preserve">
<style type="text/css">
	.st0{fill-rule:evenodd;clip-rule:evenodd;fill:#112659;}
	.st1{fill-rule:evenodd;clip-rule:evenodd;fill:#FEFEFE;}
</style>
<circle class="st0" cx="32" cy="32" r="30.8"/>
<path class="st1" d="M22.6,34.8c0.2,0,0.4,0,0.6,0l7.3-10.7h0c0-6.5,5.3-11.8,11.8-11.8c6.5,0,11.8,5.3,11.8,11.8
	c0,6.5-5.3,11.8-11.8,11.8c-0.1,0-0.2,0-0.3,0l-10.4,7.4l0,0c0,0.2,0,0.3,0,0.5c0,5-4,9-9,9c-4.4,0-8.1-3.2-8.8-7.4L2.4,40.7
	c-1-3.5-1.5-7.2-1.2-11.1l16.2,6.8C18.9,35.4,20.7,34.8,22.6,34.8L22.6,34.8z M42.3,18.2c3.3,0,5.9,2.7,5.9,5.9
	c0,3.3-2.7,5.9-5.9,5.9s-5.9-2.7-5.9-5.9C36.3,20.8,39,18.2,42.3,18.2L42.3,18.2z M42.3,16.3c4.3,0,7.8,3.5,7.8,7.8
	s-3.5,7.8-7.8,7.8s-7.8-3.5-7.8-7.8S38,16.3,42.3,16.3L42.3,16.3z M22.6,37.2c3.7,0,6.6,3,6.6,6.6c0,3.7-3,6.6-6.6,6.6
	c-2.7,0-5-1.6-6-3.8c1.5,0.6,4.2,2,5.8,2c2.7,0,4.9-2.2,4.9-4.9c0-4.1-4-4.8-7.1-6.1C21,37.4,21.8,37.2,22.6,37.2L22.6,37.2z"/>
</svg>
