<?xml version="1.0" encoding="utf-8"?>
<!-- Generator: Adobe Illustrator 22.1.0, SVG Export Plug-In . SVG Version: 6.00 Build 0)  -->
<svg version="1.1" id="图层_1" xmlns="http://www.w3.org/2000/svg" xmlns:xlink="http://www.w3.org/1999/xlink" x="0px" y="0px"
	 viewBox="0 0 64 64" style="enable-background:new 0 0 64 64;" xml:space="preserve">
<style type="text/css">
	.st0{fill:#D4272F;}
	.st1{fill:#E60012;}
</style>
<g>
	<path class="st0" d="M28.6,14c-13.5-0.1-24.7,10.6-24.8,24C3.7,51.7,14.4,62.7,28.1,62.9C41.4,63,52.5,52.1,52.6,38.7
		C52.7,25.3,41.9,14.1,28.6,14z M38.2,34c-3.1-1.8-6.3-3.7-9.4-5.5c-0.4-0.2-0.7-0.2-1.1,0c-1.8,1.1-3.7,2.1-5.5,3.2
		c-0.2,0.1-0.4,0.2-0.5,0.3c0.2,0.3,0.4,0.3,0.6,0.3c7.2,2.3,14.4,4.6,21.6,6.9c0.6,0.2,0.8,0.4,0.8,1c0,2.4,0,4.8,0,7.2
		c0,0.4-0.1,0.7-0.5,0.9c-5.1,3-10.3,5.9-15.4,8.9c-0.3,0.2-0.6,0.2-0.9,0c-5.2-3-10.3-6-15.5-8.9c-0.4-0.2-0.5-0.4-0.5-0.9
		c0-2.5,0-4.9,0-7.4c0-0.5,0.1-0.6,0.6-0.5c1.5,0.5,3,1,4.6,1.5c0.5,0.1,0.7,0.4,0.6,0.8c-0.1,0.6,0.2,0.9,0.7,1.2
		c3.1,1.8,6.3,3.6,9.4,5.4c0.4,0.3,0.7,0.2,1.1,0c1.8-1.1,3.6-2.1,5.3-3.2c0.2-0.1,0.4-0.2,0.6-0.4c-0.2-0.2-0.5-0.2-0.7-0.3
		c-7.1-2.3-14.2-4.5-21.3-6.7c-0.6-0.2-0.8-0.5-0.8-1.1c0-2.4,0-4.7,0-7.1c0-0.5,0.1-0.8,0.5-1c5.1-2.9,10.2-5.9,15.3-8.9
		c0.4-0.2,0.7-0.2,1.1,0c5.1,3,10.2,5.9,15.3,8.9c0.4,0.2,0.6,0.5,0.5,0.9c0,2.4,0,4.9,0,7.3c0,0.5-0.1,0.6-0.6,0.4
		c-1.5-0.5-3.1-1-4.6-1.5c-0.4-0.1-0.6-0.3-0.6-0.8C39,34.6,38.7,34.3,38.2,34z"/>
	<circle class="st0" cx="57.6" cy="56.9" r="6.2"/>
	<circle class="st0" cx="28.2" cy="5.7" r="4"/>
	<circle class="st1" cx="2.8" cy="56.9" r="2.7"/>
</g>
</svg>
