<?xml version="1.0" encoding="utf-8"?>
<!-- Generator: Adobe Illustrator 22.1.0, SVG Export Plug-In . SVG Version: 6.00 Build 0)  -->
<svg version="1.1" id="图层_1" xmlns="http://www.w3.org/2000/svg" xmlns:xlink="http://www.w3.org/1999/xlink" x="0px" y="0px"
	 viewBox="0 0 64 64" style="enable-background:new 0 0 64 64;" xml:space="preserve">
<style type="text/css">
	.st0{fill:url(#SVGID_1_);}
	.st1{fill:url(#SVGID_2_);}
</style>
<linearGradient id="SVGID_1_" gradientUnits="userSpaceOnUse" x1="32.1458" y1="25.021" x2="32.1458" y2="42.909" gradientTransform="matrix(1 0 0 -1 0 66)">
	<stop  offset="0" style="stop-color:#2069B3"/>
	<stop  offset="1" style="stop-color:#2277BD"/>
</linearGradient>
<polygon class="st0" points="25.9,23.1 23.5,28.8 40.9,28.8 38.5,23.1 56.2,32 38.5,41 40.9,35.2 23.5,35.2 25.8,41 8.1,32 "/>
<linearGradient id="SVGID_2_" gradientUnits="userSpaceOnUse" x1="32.1" y1="2.0637" x2="32.1" y2="65.8563" gradientTransform="matrix(1 0 0 -1 0 66)">
	<stop  offset="0" style="stop-color:#1760AD"/>
	<stop  offset="1" style="stop-color:#2984C7"/>
</linearGradient>
<path class="st1" d="M60.3,63.9H3.9c-2.1,0-3.7-1.7-3.7-3.7V3.9c0-2.1,1.7-3.7,3.7-3.7h56.3c2.1,0,3.7,1.7,3.7,3.7v56.3
	C64,62.3,62.3,63.9,60.3,63.9z M31.9,5.8C17.5,5.9,5.9,17.7,5.8,32C5.7,46.7,17.5,58.3,32.1,58.3c14.4,0,26-12,26.3-26.3
	C58.6,17.2,46.7,5.6,31.9,5.8z"/>
</svg>
