<?xml version="1.0" encoding="utf-8"?>
<!-- Generator: Adobe Illustrator 22.1.0, SVG Export Plug-In . SVG Version: 6.00 Build 0)  -->
<svg version="1.1" id="图层_1" xmlns="http://www.w3.org/2000/svg" xmlns:xlink="http://www.w3.org/1999/xlink" x="0px" y="0px"
	 viewBox="0 0 64 64" style="enable-background:new 0 0 64 64;" xml:space="preserve">
<style type="text/css">
	.st0{fill:#474747;}
	.st1{fill:#9CD5F1;}
	.st2{fill:#303030;}
</style>
<path class="st0" d="M59,64H5c-2.8,0-5-2.3-5-5V5c0-2.8,2.3-5,5-5h54c2.8,0,5,2.3,5,5v54C64,61.8,61.8,64,59,64z"/>
<g>
	<polygon class="st1" points="25.7,57.8 25.7,18 9.8,18 9.8,5.8 53.8,5.8 53.8,18.2 38.2,18.2 38.2,57.8 	"/>
	<path class="st2" d="M51.8,7.8v8.3H36.2v39.7h-8.5V16H11.8V7.8H51.8 M55.8,3.8h-4h-40h-4v4V16v4h4h11.8v35.8v4h4h8.5h4v-4V20.2
		h11.7h4v-4V7.8V3.8L55.8,3.8z"/>
</g>
</svg>
