<?xml version="1.0" encoding="utf-8"?>
<!-- Generator: Adobe Illustrator 22.1.0, SVG Export Plug-In . SVG Version: 6.00 Build 0)  -->
<svg version="1.1" id="图层_1" xmlns="http://www.w3.org/2000/svg" xmlns:xlink="http://www.w3.org/1999/xlink" x="0px" y="0px"
	 viewBox="0 0 64 64" style="enable-background:new 0 0 64 64;" xml:space="preserve">
<style type="text/css">
	.st0{fill:#3F444F;}
	.st1{fill:#FFFFFF;}
	.st2{fill:#5C6C7D;}
</style>
<path class="st0" d="M9.7,41.7c-5.2,0-9.4-4.2-9.4-9.3v-0.8c0-5.1,4.2-9.3,9.4-9.3h44.5c5.2,0,9.4,4.2,9.4,9.3v0.8
	c0,5.1-4.2,9.3-9.4,9.3H9.7z"/>
<path class="st1" d="M32.6,40.4h-23c-4.5,0-8.1-3.6-8.1-8.1v-0.7c0-4.5,3.6-8.1,8.1-8.1h21.8"/>
<g>
	<path class="st2" d="M10.2,33.3v-0.7c0-0.3,0.1-0.5,0.4-0.5c0.3,0,0.4,0.2,0.4,0.5c0,0.8-0.1,1.4-0.3,1.8C10.4,34.8,9.9,35,9.2,35
		c-0.6,0-1-0.2-1.3-0.6c-0.2-0.3-0.3-0.8-0.3-1.5v-2.8c0-0.2-0.1-0.2-0.2-0.2H7c-0.1,0-0.2,0-0.3-0.1c-0.1-0.1-0.1-0.2-0.1-0.3
		c0-0.1,0-0.2,0.1-0.3c0.1-0.1,0.2-0.1,0.3-0.1h0.5c0.1,0,0.2-0.1,0.2-0.2v-1.2c0-0.3,0.1-0.4,0.5-0.4c0.3,0,0.4,0.1,0.4,0.4V29
		c0,0.1,0.1,0.2,0.2,0.2H10c0.3,0,0.4,0.1,0.4,0.4c0,0.3-0.2,0.4-0.5,0.4H8.7c-0.1,0-0.2,0.1-0.2,0.2v2.8c0,0.8,0.3,1.2,0.8,1.2
		C9.9,34.3,10.1,33.9,10.2,33.3L10.2,33.3z M13.4,31.5V33c0,0.4,0,0.6,0,0.7c0,0.3,0.1,0.5,0.3,0.5c0,0,0.1,0,0.3-0.1
		c0,0,0.1,0,0.2,0c0.3,0,0.4,0.1,0.4,0.4c0,0.1,0,0.2-0.1,0.3c-0.1,0.1-0.2,0.1-0.4,0.1c-0.1,0-0.3,0-0.6-0.1
		c-0.3,0-0.4-0.1-0.6-0.1c-0.2,0-0.4,0-0.7,0c-0.3,0-0.5,0.1-0.6,0.1c-0.3,0-0.5-0.1-0.5-0.4c0-0.3,0.1-0.4,0.4-0.4
		c0.1,0,0.2,0,0.3,0c0.1,0,0.2,0,0.3,0c0.2,0,0.3-0.2,0.3-0.7v-3c0-0.5-0.2-0.7-0.3-0.7c-0.1,0-0.1,0-0.3,0c-0.1,0-0.2,0-0.3,0
		c-0.3,0-0.4-0.1-0.4-0.4c0-0.3,0.2-0.4,0.5-0.4c0.1,0,0.3,0,0.3,0c0.2,0,0.4,0,0.5,0c0.1,0,0.2,0,0.3,0c0.1,0,0.2,0,0.3,0
		c0.2,0,0.3,0.1,0.3,0.5c0,0,0,0.1,0,0.1c0,0.1,0,0.1,0,0.1c0,0.1,0,0.3,0,0.7C13.4,30.9,13.4,31.2,13.4,31.5L13.4,31.5z M12.8,28.5
		c-0.2,0-0.3-0.1-0.5-0.2c-0.1-0.1-0.2-0.3-0.2-0.5s0.1-0.3,0.2-0.5c0.1-0.1,0.3-0.2,0.5-0.2c0.2,0,0.3,0.1,0.5,0.2
		c0.1,0.1,0.2,0.3,0.2,0.5s-0.1,0.3-0.2,0.5C13.2,28.4,13,28.5,12.8,28.5z M16.9,29.5v0.3c0.5-0.6,1.1-0.9,1.8-0.9
		c0.4,0,0.8,0.1,1.2,0.3c0.4,0.2,0.6,0.5,0.8,0.8c0.1,0.3,0.2,0.6,0.2,1v2.2c0,0.3,0,0.5,0,0.6c0,0.3,0.1,0.4,0.3,0.4
		c0.1,0,0.2,0,0.3,0c0.1,0,0.2,0,0.2,0c0.1,0,0.2,0,0.3,0.1c0.1,0.1,0.1,0.2,0.1,0.3c0,0.1,0,0.2-0.1,0.3c-0.1,0.1-0.2,0.1-0.3,0.1
		c-0.1,0-0.3,0-0.5,0c-0.2,0-0.5,0-0.7,0c-0.2,0-0.4,0-0.5,0c-0.4,0-0.6,0.1-0.6,0.1c-0.3,0-0.5-0.1-0.5-0.4c0-0.2,0.1-0.4,0.4-0.4
		c0.1,0,0.1,0,0.2,0c0.1,0,0.2,0,0.3,0c0.2,0,0.3-0.2,0.3-0.6v-2.2c0-0.4,0-0.7-0.1-0.8c-0.1-0.3-0.2-0.5-0.4-0.7
		c-0.3-0.2-0.5-0.3-0.9-0.3c-0.6,0-1.1,0.2-1.3,0.7c-0.2,0.3-0.3,0.8-0.3,1.5v1.5c0,0.3,0,0.6,0.1,0.7c0,0.1,0.1,0.2,0.3,0.2
		c0.1,0,0.1,0,0.3,0c0.1,0,0.2,0,0.3,0c0.2,0,0.4,0.1,0.4,0.4c0,0.3-0.2,0.4-0.5,0.4c-0.1,0-0.3,0-0.6-0.1c-0.2,0-0.4,0-0.6,0
		c-0.2,0-0.4,0-0.6,0c-0.3,0-0.5,0.1-0.6,0.1c-0.3,0-0.5-0.1-0.5-0.4c0-0.2,0.1-0.4,0.4-0.4c0,0,0.1,0,0.2,0s0.2,0,0.3,0
		c0.2,0,0.4-0.2,0.4-0.7v-3.1c0-0.3,0-0.4-0.1-0.5c-0.1-0.1-0.1-0.1-0.3-0.1c-0.1,0-0.1,0-0.2,0s-0.2,0-0.2,0
		c-0.3,0-0.4-0.1-0.4-0.4c0-0.3,0.2-0.4,0.5-0.4c0,0,0.1,0,0.1,0l0.4,0c0.1,0,0.2,0,0.3,0c0.2,0,0.3,0,0.3,0
		C16.8,29.1,16.9,29.2,16.9,29.5L16.9,29.5z"/>
	<path class="st2" d="M24.1,30.2l1.3,3.9l1.4-3.8c0-0.1,0.1-0.2,0.1-0.3c0-0.1-0.1-0.2-0.3-0.2c-0.1,0-0.2,0-0.2,0
		c-0.1,0-0.2,0-0.2,0c-0.3,0-0.4-0.1-0.4-0.4c0-0.3,0.2-0.4,0.5-0.4c0,0,0.1,0,0.2,0l0.4,0.1c0.1,0,0.2,0,0.3,0c0.1,0,0.3,0,0.6-0.1
		c0.3,0,0.4-0.1,0.6-0.1c0.3,0,0.5,0.1,0.5,0.4c0,0.3-0.1,0.4-0.4,0.4c-0.1,0-0.1,0-0.2,0c-0.1,0-0.2,0-0.2,0
		c-0.1,0-0.3,0.2-0.5,0.6l-1.6,3.9c-0.3,0.9-0.7,1.5-1,1.9c-0.5,0.7-1.2,1-2,1c-0.5,0-0.9-0.1-1.2-0.4c-0.3-0.2-0.5-0.5-0.5-0.9
		c0-0.2,0.1-0.4,0.2-0.6c0.1-0.1,0.3-0.2,0.5-0.2c0.2,0,0.3,0.1,0.4,0.2c0.1,0.1,0.2,0.2,0.2,0.4c0,0.2-0.1,0.4-0.3,0.5
		c0.1,0.2,0.3,0.3,0.7,0.3c0.4,0,0.8-0.2,1.1-0.5c0.3-0.3,0.5-0.6,0.5-1c0-0.2-0.1-0.6-0.3-1.1l-1.3-3.2l-0.1-0.4
		c-0.1-0.3-0.3-0.5-0.5-0.5c0,0-0.1,0-0.2,0c-0.1,0-0.2,0-0.2,0c-0.3,0-0.4-0.1-0.4-0.4c0-0.3,0.2-0.4,0.5-0.4c0.1,0,0.2,0,0.3,0
		l0.5,0.1h0.1c0.1,0,0.1,0,0.1,0c0.3,0,0.6,0,0.9-0.1c0.2,0,0.4,0,0.5,0c0.3,0,0.5,0.1,0.5,0.4s-0.1,0.4-0.4,0.4c0,0-0.1,0-0.2,0
		c-0.1,0-0.2,0-0.2,0c-0.1,0-0.2,0.1-0.2,0.2C24,30,24.1,30.1,24.1,30.2L24.1,30.2z"/>
</g>
<path class="st1" d="M38.2,29.4v0.4c0.4-0.6,1-0.9,1.8-0.9c0.8,0,1.4,0.3,1.9,0.8c0.5,0.5,0.7,1.3,0.7,2.2c0,1-0.2,1.8-0.7,2.4
	c-0.5,0.6-1.1,0.9-2,0.9c-0.7,0-1.2-0.2-1.6-0.7v1c0,0.3,0,0.5,0,0.6c0,0.2,0.2,0.4,0.3,0.4c0.1,0,0.1,0,0.2,0c0.1,0,0.2,0,0.2,0
	c0.2,0,0.4,0.1,0.4,0.4c0,0.3-0.2,0.4-0.5,0.4c-0.1,0-0.3,0-0.5,0c-0.2,0-0.4,0-0.8,0c-0.2,0-0.3,0-0.5,0c-0.3,0-0.5,0.1-0.6,0.1
	c-0.1,0-0.2,0-0.3-0.1c-0.1-0.1-0.1-0.2-0.1-0.3c0-0.2,0.1-0.4,0.4-0.4c0,0,0.1,0,0.2,0c0.1,0,0.2,0,0.3,0c0.1,0,0.2-0.1,0.3-0.2
	c0-0.2,0.1-0.6,0.1-1.3v-4.5c0-0.4-0.1-0.5-0.3-0.5c-0.1,0-0.1,0-0.2,0c-0.1,0-0.2,0-0.3,0c-0.3,0-0.4-0.1-0.4-0.4
	c0-0.2,0.2-0.4,0.5-0.4c0.1,0,0.2,0,0.3,0c0.2,0,0.3,0,0.4,0c0.1,0,0.2,0,0.3,0c0.1,0,0.2,0,0.3,0C38.1,29,38.2,29.2,38.2,29.4
	 M38.4,30.8c-0.1,0.3-0.1,0.7-0.1,1.1c0,0,0,0.1,0,0.2v0.2c0,0.5,0,0.9,0.1,1.1c0.1,0.2,0.3,0.4,0.5,0.6c0.3,0.2,0.6,0.3,0.9,0.3
	c0.6,0,1-0.2,1.3-0.6c0.3-0.4,0.5-1,0.5-1.7c0-1.6-0.6-2.3-1.7-2.3c-0.4,0-0.7,0.1-1,0.3C38.7,30.2,38.5,30.5,38.4,30.8 M44.9,29.4
	v0.3c0.5-0.6,1.1-0.9,1.9-0.9c0.4,0,0.8,0.1,1.2,0.3c0.4,0.2,0.6,0.5,0.8,0.8c0.1,0.3,0.2,0.6,0.2,1v2.2c0,0.3,0,0.5,0,0.6
	c0,0.3,0.1,0.4,0.3,0.4c0.1,0,0.2,0,0.3,0c0.1,0,0.2,0,0.2,0c0.1,0,0.2,0,0.3,0.1s0.1,0.2,0.1,0.3c0,0.1,0,0.2-0.1,0.3
	c-0.1,0.1-0.2,0.1-0.3,0.1c-0.1,0-0.3,0-0.5,0c-0.2,0-0.5,0-0.7,0c-0.2,0-0.4,0-0.5,0c-0.4,0-0.6,0.1-0.6,0.1
	c-0.3,0-0.5-0.1-0.5-0.4c0-0.2,0.1-0.4,0.4-0.4c0.1,0,0.1,0,0.2,0c0.1,0,0.2,0,0.3,0c0.2,0,0.3-0.2,0.3-0.6v-2.2
	c0-0.4,0-0.7-0.1-0.9c-0.1-0.3-0.2-0.5-0.5-0.7c-0.3-0.2-0.5-0.3-0.9-0.3c-0.6,0-1.1,0.2-1.3,0.7c-0.2,0.3-0.3,0.8-0.3,1.6v1.6
	c0,0.3,0,0.6,0.1,0.7c0,0.1,0.1,0.2,0.3,0.2c0.1,0,0.1,0,0.3,0c0.1,0,0.2,0,0.3,0c0.2,0,0.4,0.1,0.4,0.4c0,0.3-0.2,0.4-0.5,0.4
	c-0.1,0-0.3,0-0.6-0.1c-0.2,0-0.4,0-0.6,0c-0.2,0-0.4,0-0.7,0c-0.3,0-0.5,0.1-0.6,0.1c-0.3,0-0.5-0.1-0.5-0.4c0-0.2,0.1-0.4,0.4-0.4
	c0,0,0.1,0,0.2,0s0.2,0,0.3,0c0.2,0,0.4-0.2,0.4-0.7v-3.1c0-0.3-0.1-0.4-0.1-0.5c-0.1-0.1-0.1-0.1-0.3-0.1c-0.1,0-0.1,0-0.2,0
	c-0.1,0-0.2,0-0.2,0c-0.3,0-0.4-0.1-0.4-0.4c0-0.3,0.2-0.4,0.5-0.4c0,0,0.1,0,0.1,0l0.4,0c0.1,0,0.2,0,0.3,0c0.2,0,0.3,0,0.3,0
	C44.8,29,44.9,29.2,44.9,29.4 M53.4,28.8c0.2,0,0.4,0,0.7,0.1c0-0.8,0.5-1.1,1.3-1.1c0.4,0,0.7,0.1,0.9,0.3c0.2,0.2,0.4,0.4,0.4,0.7
	c0,0.2-0.1,0.3-0.2,0.5c-0.1,0.1-0.3,0.2-0.4,0.2c-0.1,0-0.2,0-0.3-0.1c-0.1-0.1-0.1-0.2-0.1-0.3c0-0.1,0.1-0.3,0.3-0.4
	c-0.1-0.2-0.3-0.2-0.5-0.2c-0.4,0-0.6,0.3-0.6,0.8c0.6,0.4,0.9,0.9,0.9,1.6c0,0.5-0.2,1-0.6,1.3c-0.4,0.4-0.9,0.5-1.5,0.5
	c-0.4,0-0.9-0.1-1.3-0.3c-0.1-0.1-0.2-0.1-0.3-0.1c-0.1,0-0.2,0-0.3,0.1s-0.1,0.2-0.1,0.3c0,0.4,0.4,0.6,1.2,0.6h0.4
	c0.7,0,1.3,0.1,1.8,0.2c0.4,0.1,0.8,0.3,1,0.6s0.4,0.6,0.4,0.9c0,0.6-0.3,1-0.8,1.3C55,36.8,54.3,37,53.4,37c-0.9,0-1.6-0.2-2.1-0.5
	c-0.5-0.3-0.8-0.7-0.8-1.3c0-0.6,0.4-1.1,1.1-1.3c-0.6-0.2-1-0.6-1-1.1c0-0.5,0.3-0.9,1-1.1c-0.2-0.3-0.3-0.6-0.3-1
	c0-0.5,0.2-1,0.6-1.3C52.3,29,52.8,28.8,53.4,28.8 M53.4,34.1c-0.6,0-1.1,0.1-1.5,0.3c-0.4,0.2-0.5,0.4-0.5,0.8
	c0,0.3,0.2,0.6,0.5,0.8c0.4,0.2,0.8,0.3,1.4,0.3c0.6,0,1.1-0.1,1.5-0.3c0.4-0.2,0.5-0.4,0.5-0.7c0-0.3-0.2-0.6-0.5-0.8
	C54.5,34.2,54.1,34.1,53.4,34.1 M53.4,29.6c-0.3,0-0.6,0.1-0.9,0.3c-0.2,0.2-0.4,0.5-0.4,0.8v0.1c0,0.3,0.1,0.6,0.3,0.8
	c0.2,0.2,0.5,0.3,0.9,0.3c0.4,0,0.7-0.1,1-0.3c0.2-0.2,0.4-0.5,0.4-0.8c0-0.3-0.1-0.6-0.4-0.8C54.1,29.7,53.8,29.6,53.4,29.6"/>
</svg>
