<?xml version="1.0" encoding="utf-8"?>
<!-- Generator: Adobe Illustrator 22.1.0, SVG Export Plug-In . SVG Version: 6.00 Build 0)  -->
<svg version="1.1" id="图层_1" xmlns="http://www.w3.org/2000/svg" xmlns:xlink="http://www.w3.org/1999/xlink" x="0px" y="0px"
	 viewBox="0 0 64 64" style="enable-background:new 0 0 64 64;" xml:space="preserve">
<style type="text/css">
	.st0{fill:#FFFFFF;}
</style>
<path class="st0" d="M6.3,28.1v9.6H4v-9.6H0.6v-1.8h9.1v1.8H6.3z"/>
<path class="st0" d="M21.9,32c0,1-0.1,1.9-0.4,2.7c-0.3,0.8-0.7,1.4-1.2,1.9c-0.5,0.5-1.1,0.8-1.8,1.1c-0.7,0.2-1.4,0.3-2.2,0.3
	c-1.8,0-3.2-0.5-4.1-1.5c-0.9-1-1.4-2.5-1.4-4.4c0-1,0.1-1.9,0.4-2.7c0.3-0.8,0.7-1.4,1.2-1.9c0.5-0.5,1.1-0.8,1.8-1.1
	c0.7-0.2,1.4-0.3,2.2-0.3c1.8,0,3.2,0.5,4.1,1.5C21.4,28.6,21.9,30.1,21.9,32z M19.1,32.1c0-1.4-0.2-2.4-0.7-3c-0.4-0.7-1.2-1-2.2-1
	c-0.5,0-0.9,0.1-1.3,0.3c-0.4,0.2-0.6,0.4-0.9,0.8c-0.2,0.3-0.4,0.7-0.5,1.2c-0.1,0.5-0.2,1-0.2,1.7c0,1.4,0.2,2.4,0.7,3
	c0.4,0.7,1.2,1,2.2,1c0.5,0,0.9-0.1,1.3-0.3c0.4-0.2,0.7-0.4,0.9-0.8c0.2-0.3,0.4-0.7,0.5-1.2C19.1,33.3,19.1,32.7,19.1,32.1z"/>
<path class="st0" d="M33,29.9c0,0.6-0.1,1.1-0.3,1.6c-0.2,0.5-0.6,0.9-1,1.3c-0.4,0.4-1,0.7-1.7,0.9c-0.7,0.2-1.4,0.3-2.3,0.3h-1.2
	v3.7h-2.5V26.3h3.8c0.8,0,1.6,0.1,2.2,0.2c0.6,0.2,1.2,0.4,1.6,0.7c0.4,0.3,0.8,0.7,1,1.1C32.9,28.8,33,29.4,33,29.9z M30.5,30.1
	c0-0.3-0.1-0.6-0.2-0.8c-0.1-0.2-0.3-0.5-0.5-0.6c-0.2-0.2-0.5-0.3-0.8-0.4c-0.3-0.1-0.7-0.1-1.2-0.1h-1.3v4.2h1.4
	c0.4,0,0.8-0.1,1.1-0.2c0.3-0.1,0.6-0.2,0.8-0.4c0.2-0.2,0.4-0.4,0.5-0.7C30.4,30.7,30.5,30.4,30.5,30.1z"/>
<path class="st0" d="M34.2,37.7v-1.9h2.9v-7.3l-2.5,1.4l-0.7-1.7l3.6-1.9h1.8v9.6h2.5v1.9H34.2z"/>
<path class="st0" d="M52.3,37.2c-0.6,0.2-1.1,0.4-1.6,0.5c-0.5,0.1-1.1,0.1-1.6,0.1c-0.9,0-1.7-0.1-2.4-0.4
	c-0.7-0.2-1.3-0.6-1.8-1.1c-0.5-0.5-0.8-1.1-1.1-1.8c-0.2-0.7-0.4-1.5-0.4-2.5c0-1,0.1-1.8,0.4-2.6c0.3-0.7,0.7-1.4,1.2-1.9
	c0.5-0.5,1.1-0.9,1.8-1.2c0.7-0.3,1.5-0.4,2.4-0.4c0.3,0,0.6,0,0.8,0c0.3,0,0.5,0,0.7,0.1c0.2,0,0.5,0.1,0.7,0.1
	c0.3,0.1,0.5,0.1,0.8,0.2v2.1c-0.5-0.2-1.1-0.4-1.6-0.5c-0.5-0.1-0.9-0.1-1.3-0.1c-0.6,0-1.1,0.1-1.5,0.3c-0.4,0.2-0.8,0.5-1,0.8
	c-0.3,0.4-0.5,0.8-0.6,1.3c-0.1,0.5-0.2,1-0.2,1.6c0,0.6,0.1,1.2,0.2,1.7c0.1,0.5,0.3,0.9,0.6,1.2c0.3,0.3,0.6,0.6,1.1,0.8
	c0.4,0.2,0.9,0.3,1.5,0.3c0.2,0,0.4,0,0.7-0.1c0.2,0,0.5-0.1,0.7-0.1c0.3-0.1,0.5-0.1,0.7-0.2c0.2-0.1,0.5-0.2,0.7-0.3V37.2z"/>
<path class="st0" d="M58.9,32.9v-1.8h4.5v6.1c-0.6,0.2-1.2,0.4-1.8,0.5c-0.6,0.1-1.3,0.2-2.1,0.2c-0.9,0-1.7-0.1-2.4-0.4
	c-0.7-0.2-1.3-0.6-1.8-1.1c-0.5-0.5-0.9-1.1-1.1-1.8c-0.3-0.7-0.4-1.5-0.4-2.5c0-0.9,0.1-1.8,0.4-2.6c0.3-0.8,0.7-1.4,1.2-1.9
	c0.5-0.5,1.2-0.9,1.9-1.2c0.8-0.3,1.6-0.4,2.6-0.4c0.6,0,1.2,0,1.7,0.1c0.6,0.1,1.1,0.2,1.7,0.4v2.1c-0.5-0.2-1-0.4-1.6-0.5
	C61.2,28.1,60.6,28,60,28c-0.6,0-1.1,0.1-1.6,0.3c-0.5,0.2-0.8,0.5-1.1,0.8c-0.3,0.3-0.5,0.8-0.7,1.3c-0.2,0.5-0.2,1.1-0.2,1.7
	c0,0.6,0.1,1.2,0.2,1.6c0.1,0.5,0.3,0.9,0.6,1.2c0.3,0.3,0.6,0.6,1.1,0.8c0.4,0.2,1,0.3,1.6,0.3c0.1,0,0.3,0,0.4,0
	c0.1,0,0.2,0,0.3,0c0.1,0,0.2,0,0.3-0.1c0.1,0,0.2,0,0.3-0.1v-2.9H58.9z"/>
</svg>
