<?xml version="1.0" encoding="utf-8"?>
<!-- Generator: Adobe Illustrator 22.1.0, SVG Export Plug-In . SVG Version: 6.00 Build 0)  -->
<svg version="1.1" id="图层_1" xmlns="http://www.w3.org/2000/svg" xmlns:xlink="http://www.w3.org/1999/xlink" x="0px" y="0px"
	 viewBox="0 0 64 64" style="enable-background:new 0 0 64 64;" xml:space="preserve">
<style type="text/css">
	.st0{fill:#FF7F2F;}
</style>
<g>
	<path class="st0" d="M13.4,28.7c-3.5,0-5.8,1.7-8.4,3.1c0.6-2.2,0.3-4.9,3.1-5.8C10.3,25.2,11.9,26.4,13.4,28.7z"/>
	<path class="st0" d="M21.2,51.3c-0.7,2.7,0,5.1,1.1,8c-2-0.4-3.1-1.3-4.1-2.4c-2.3-2.6-0.3-5.3,2.2-6.4
		C21.1,50.1,21.4,50.6,21.2,51.3z"/>
	<path class="st0" d="M28.7,10.3c-0.9-1.1-2.2-2-3.7-3.4c2.8-0.2,5.2-1.1,6.9,1.1c1.5,2,0.4,4-0.7,6.1
		C30.3,12.7,29.6,11.4,28.7,10.3z"/>
	<path class="st0" d="M43.8,48.9c2.9,1.8,5.7,2.7,8.9,2.3c-1.5,1.8-2.9,3.9-5.6,3.3C44.4,53.9,44.2,51.5,43.8,48.9z"/>
	<path class="st0" d="M50.2,26.8c2.3-2.1,3.7-4.6,4.4-7.6c1.5,2,2.6,4.1,1.4,6.4C54.7,27.8,52.4,26.9,50.2,26.8z"/>
	<path class="st0" d="M62.3,33.1c-3.6,5.2-9.1,7-14.9,7.9c-2.3,0.3-4.7,0.4-7,0.5c-1.5,0-2,0.6-1.8,2.1c0.5,3.2,0.9,6.5,2.2,9.6
		c2.5,5.9,6.7,7,11.8,3.1c1.1-0.8,1.9-2.1,3.6-2.6c-1.5,7.8-9.4,11.9-16.1,8.7c-2.4-1.2-4.4-2.8-6-4.9c-2.6-3.3-4.4-7-5.8-10.9
		c-1.5-4.2-1.5-4.2-5.6-2.1c-2.3,1.2-4.6,2.6-6.5,4.4c-3.8,3.8-3.6,7.9,0.6,11.3c0.4,0.4,5.6,3.7,4,3.7c-1.2,0-2.4-0.3-3.7-0.7
		c-8.2-2.7-11.1-8.6-8-16.6c2.2-5.6,6.3-9.7,11.1-13.1c1.9-1.4,2.2-2.4,0.4-4.1c-2.5-2.5-5-5.1-8.3-6.6c-4-1.8-7.1-0.6-9,3.4
		c-1.1,2.4-1.5,4.9-2.1,7.4c-1.2-4.9-1.9-9.8,1.5-14.1c3.2-4.1,7.8-4.5,12.5-3.8c5.3,0.8,9.9,3.4,14,6.7c1.8,1.4,2.6,1,3.5-0.8
		c1.5-3,3-6,3.6-9.4c0.9-5.4-1.5-8.5-7-8.7c-2-0.1-4,0.2-6.7,0.7c7.7-6.1,17-5.3,20.2,3.4c2.4,6.4,1.4,12.7-0.5,19
		C41.1,30,41,30,44.7,30.6c3.3,0.6,6.7,1.1,10,0.2c4.1-1.1,5.8-3.8,5.1-8c-0.4-2.4-1.5-4.6-2.6-6.9C63.2,18,66,27.6,62.3,33.1z"/>
	<path class="st0" d="M31.2,14.2c-0.9-1.5-1.6-2.8-2.5-3.9c-0.9-1.1-2.2-2-3.7-3.4c2.8-0.2,5.2-1.1,6.9,1.1
		C33.4,10.1,32.2,12,31.2,14.2z"/>
	<path class="st0" d="M22.3,59.3c-2-0.4-3.1-1.3-4.1-2.4c-2.3-2.6-0.3-5.3,2.2-6.4c0.7-0.3,1,0.2,0.9,0.8
		C20.5,54,21.3,56.5,22.3,59.3z"/>
	<path class="st0" d="M52.7,51.2c-1.5,1.8-2.9,3.9-5.6,3.3c-2.7-0.6-2.9-3-3.3-5.6C46.7,50.6,49.5,51.6,52.7,51.2z"/>
	<path class="st0" d="M13.4,28.7c-3.5,0-5.8,1.7-8.4,3.1c0.6-2.2,0.3-4.9,3.1-5.8C10.3,25.2,11.9,26.4,13.4,28.7z"/>
	<path class="st0" d="M55.9,25.5c-1.2,2.3-3.5,1.4-5.7,1.3c2.3-2.1,3.7-4.6,4.4-7.6C56,21.1,57.2,23.2,55.9,25.5z"/>
</g>
</svg>
