<?xml version="1.0" encoding="utf-8"?>
<!-- Generator: Adobe Illustrator 22.1.0, SVG Export Plug-In . SVG Version: 6.00 Build 0)  -->
<svg version="1.1" id="图层_1" xmlns="http://www.w3.org/2000/svg" xmlns:xlink="http://www.w3.org/1999/xlink" x="0px" y="0px"
	 viewBox="0 0 64 64" style="enable-background:new 0 0 64 64;" xml:space="preserve">
<style type="text/css">
	.st0{fill:#069FF5;}
	.st1{fill:#FFFFFF;}
</style>
<path class="st0" d="M4.9,0h54.3C61.8,0,64,2.2,64,4.9v54.3c0,2.7-2.2,4.9-4.9,4.9H4.9C2.2,64,0,61.8,0,59.1V4.9C0,2.2,2.2,0,4.9,0z
	"/>
<path class="st1" d="M53.9,21.9c-1.5,0.7-3.2,1.1-4.8,1.3c1.7-1,3.1-2.7,3.7-4.6c-1.6,1-3.4,1.7-5.3,2c-1.6-1.7-3.8-2.6-6.1-2.6
	c-4.6,0-8.4,3.7-8.4,8.3c0,0.6,0.1,1.3,0.2,1.9c-6.7-0.3-13-3.5-17.3-8.7c-0.7,1.3-1.1,2.7-1.1,4.2c0,2.9,1.5,5.4,3.7,6.9
	c-1.3,0-2.6-0.4-3.8-1l0,0.1c0,4,2.9,7.4,6.7,8.1c-1.2,0.3-2.5,0.4-3.8,0.1c1.1,3.4,4.3,5.7,7.8,5.8c-3,2.3-6.6,3.6-10.4,3.6
	c-0.7,0-1.3,0-2-0.1c3.8,2.4,8.3,3.7,12.8,3.7c15.4,0,23.8-12.7,23.8-23.6c0-0.4,0-0.7,0-1.1C51.3,25,52.8,23.5,53.9,21.9"/>
</svg>
