<?xml version="1.0" encoding="utf-8"?>
<!-- Generator: Adobe Illustrator 22.1.0, SVG Export Plug-In . SVG Version: 6.00 Build 0)  -->
<svg version="1.1" id="图层_1" xmlns="http://www.w3.org/2000/svg" xmlns:xlink="http://www.w3.org/1999/xlink" x="0px" y="0px"
	 viewBox="0 0 64 64" style="enable-background:new 0 0 64 64;" xml:space="preserve">
<style type="text/css">
	.st0{fill:#3E98F0;}
</style>
<path class="st0" d="M56.4,13.4L35.9,1.6c-2.1-1.2-5.6-1.2-7.8,0L7.6,13.4c-2.1,1.2-3.9,4.3-3.9,6.7v23.7c0,2.5,1.8,5.5,3.9,6.7
	l20.5,11.9c2.1,1.2,5.6,1.2,7.8,0l20.5-11.9c2.1-1.2,3.9-4.3,3.9-6.7V20.2C60.3,17.7,58.6,14.7,56.4,13.4L56.4,13.4L56.4,13.4z
	 M38.7,32c0,7.6-6.1,13.7-13.7,13.7c-7.6,0-13.7-6.1-13.7-13.7l0,0V21.6c0-1.8,1.5-3.2,3.2-3.2c1.8,0,3.2,1.5,3.2,3.2V32
	c0,4,3.2,7.2,7.2,7.2c4,0,7.2-3.2,7.2-7.2V21.6c0-1.8,1.5-3.2,3.2-3.2c1.8,0,3.2,1.5,3.2,3.2L38.7,32L38.7,32z M52.7,42.4
	c0,1.8-1.5,3.2-3.2,3.2c-1.8,0-3.2-1.5-3.2-3.2V21.6c0-1.8,1.5-3.2,3.2-3.2c1.8,0,3.2,1.5,3.2,3.2V42.4z"/>
</svg>
