<?xml version="1.0" encoding="utf-8"?>
<!-- Generator: Adobe Illustrator 22.1.0, SVG Export Plug-In . SVG Version: 6.00 Build 0)  -->
<svg version="1.1" id="图层_1" xmlns="http://www.w3.org/2000/svg" xmlns:xlink="http://www.w3.org/1999/xlink" x="0px" y="0px"
	 viewBox="0 0 64 64" style="enable-background:new 0 0 64 64;" xml:space="preserve">
<style type="text/css">
	.st0{fill:#FFFFFF;}
</style>
<path class="st0" d="M59,64H5c-2.8,0-5-2.3-5-5V5c0-2.8,2.3-5,5-5h54c2.8,0,5,2.3,5,5v54C64,61.8,61.8,64,59,64z"/>
<path d="M26.4,14c-2.4,0-4.4,1.7-4.9,4l-0.4,2H16c-2.8,0-5,2.2-5,5v21c0,2.8,2.2,5,5,5h32c2.8,0,5-2.2,5-5V25c0-2.8-2.2-5-5-5h-5.1
	l-0.4-2c-0.5-2.3-2.5-4-4.9-4H26.4z M32,25c5.5,0,10,4.5,10,10s-4.5,10-10,10s-10-4.5-10-10S26.5,25,32,25z M32,27c-4.4,0-8,3.6-8,8
	s3.6,8,8,8s8-3.6,8-8S36.4,27,32,27z"/>
</svg>
