<?xml version="1.0" encoding="utf-8"?>
<!-- Generator: Adobe Illustrator 22.1.0, SVG Export Plug-In . SVG Version: 6.00 Build 0)  -->
<svg version="1.1" id="图层_1" xmlns="http://www.w3.org/2000/svg" xmlns:xlink="http://www.w3.org/1999/xlink" x="0px" y="0px"
	 viewBox="0 0 64 64" style="enable-background:new 0 0 64 64;" xml:space="preserve">
<style type="text/css">
	.st0{fill:#0058AE;}
	.st1{fill:#FCFCFC;}
</style>
<path class="st0" d="M59,64H5c-2.8,0-5-2.3-5-5V5c0-2.8,2.3-5,5-5h54c2.8,0,5,2.3,5,5v54C64,61.8,61.8,64,59,64z"/>
<path class="st1" d="M10.5,31.2c0-0.1,0.1-0.2,0.2-0.3s0.2-0.1,0.4-0.1c0.2,0,0.4,0,0.4,0.2c0.1,0.1,0.1,0.2,0.1,0.3
	c0,0.1,0,0.2-0.1,0.4l-1.5,4.1C10,36,9.9,36.2,9.8,36.4c-0.1,0.1-0.3,0.2-0.4,0.3c-0.1,0-0.2,0.1-0.3,0.1c-0.2,0-0.3,0-0.5-0.1
	c-0.1-0.1-0.3-0.2-0.4-0.3C8.1,36.1,8,35.9,8,35.7l-1.6-4c-0.1-0.1-0.1-0.3-0.1-0.4c0-0.1,0.1-0.3,0.2-0.4c0.1-0.1,0.3-0.1,0.5-0.1
	c0.2,0,0.3,0.1,0.4,0.3L9,35.2c0,0.1,0,0.1,0.1,0.1c0,0,0,0,0,0c0,0,0,0,0,0l0.1-0.2L10.5,31.2z"/>
<path class="st1" d="M13.2,29.1c0.1,0,0.2,0,0.4,0.1c0.1,0.1,0.2,0.2,0.3,0.3c0.1,0.1,0.1,0.2,0.1,0.4c0,0.1,0,0.3-0.1,0.4
	c-0.1,0.1-0.1,0.2-0.3,0.3c-0.1,0.1-0.2,0.1-0.4,0.1c-0.1,0-0.3,0-0.4-0.1c-0.1-0.1-0.2-0.1-0.3-0.3c-0.1-0.1-0.1-0.2-0.1-0.4
	s0-0.3,0.1-0.4c0.1-0.1,0.2-0.2,0.3-0.3C13,29.1,13.1,29.1,13.2,29.1z M12.6,36.2v-4.8c0-0.1,0.1-0.2,0.2-0.3
	c0.1-0.1,0.3-0.2,0.5-0.2c0.2,0,0.4,0.1,0.4,0.2c0.1,0.1,0.1,0.2,0.1,0.3v4.8c0,0.1,0,0.2-0.1,0.3c-0.1,0.1-0.2,0.2-0.4,0.2
	c-0.2,0-0.3-0.1-0.4-0.2C12.7,36.4,12.6,36.3,12.6,36.2z"/>
<path class="st1" d="M20.4,28.5c-0.1-0.1-0.2-0.1-0.4-0.1c-0.2,0-0.3,0-0.4,0.1c-0.1,0.1-0.1,0.2-0.1,0.3v2.7l-0.4-0.3
	c-0.1-0.1-0.3-0.1-0.6-0.2c-0.3-0.1-0.6-0.1-0.8-0.1c-0.2,0-0.5,0.1-0.7,0.1c-0.2,0.1-0.5,0.2-0.7,0.3c-0.2,0.1-0.5,0.3-0.7,0.6
	c-0.2,0.2-0.4,0.5-0.5,0.9c-0.1,0.3-0.1,0.7-0.1,1c0,0.4,0.1,0.7,0.2,1.1c0.1,0.4,0.4,0.7,0.6,0.9c0.3,0.2,0.6,0.4,0.9,0.5
	c0.3,0.1,0.7,0.2,0.9,0.2c0,0,0.4,0,0.4,0c0.5-0.1,1-0.3,1.4-0.6c0.7-0.5,1.1-1.3,1.1-2.2v-4.9C20.6,28.7,20.5,28.6,20.4,28.5z
	 M17.8,35.5c-0.4,0-0.7-0.1-0.9-0.2c-0.2-0.2-0.4-0.3-0.5-0.6c-0.1-0.2-0.2-0.5-0.2-0.9c0-0.1,0-0.4,0.1-0.6
	c0.1-0.3,0.2-0.5,0.4-0.7c0.2-0.2,0.4-0.3,0.6-0.4c0.2-0.1,0.4-0.1,0.6-0.1c0.1,0,0.3,0,0.5,0.1c0.2,0.1,0.4,0.1,0.5,0.3
	c0.2,0.1,0.3,0.3,0.4,0.5c0.1,0.2,0.2,0.5,0.2,0.8c0,0.4-0.1,0.8-0.2,1c-0.1,0.2-0.3,0.4-0.4,0.5C18.5,35.3,18.1,35.5,17.8,35.5z"/>
<path class="st1" d="M22.7,34.1c0,0.1,0,0.2,0,0.2c0,0.1,0,0.2,0.1,0.4c0,0.2,0.1,0.4,0.3,0.6c0.2,0.2,0.4,0.3,0.6,0.4
	c0.3,0.1,0.5,0.1,0.8,0.1c0.2,0,0.4,0,0.6-0.1c0.2-0.1,0.3-0.2,0.5-0.3l0.3-0.3c0.1-0.1,0.2-0.2,0.4-0.2c0.1,0,0.1,0,0.2,0
	c0.1,0,0.2,0.1,0.3,0.1c0.1,0.1,0.1,0.2,0.1,0.4c0,0.1-0.1,0.2-0.1,0.4c-0.1,0.1-0.2,0.3-0.4,0.5c-0.2,0.2-0.5,0.3-0.8,0.5
	c-0.4,0.1-0.7,0.2-1.1,0.2c-0.4,0-0.8-0.1-1.2-0.2c-0.4-0.2-0.7-0.4-0.9-0.6c-0.2-0.2-0.4-0.5-0.5-0.9c-0.1-0.3-0.2-0.7-0.2-1
	s0-0.6,0.1-0.9c0.1-0.3,0.1-0.5,0.2-0.8c0.1-0.2,0.3-0.5,0.5-0.7c0.2-0.2,0.5-0.5,0.8-0.6c0.3-0.2,0.7-0.3,1.1-0.3
	c0.3,0,0.6,0,1,0.1c0.4,0.1,0.7,0.3,1,0.6c0.3,0.3,0.5,0.6,0.6,0.8c0.1,0.2,0.2,0.5,0.2,0.8c0.1,0.3,0.1,0.4,0.1,0.5
	c0,0.2-0.1,0.3-0.2,0.4c-0.1,0.1-0.3,0.1-0.7,0.1H22.7z M25.5,33.1c0.2,0,0.4,0,0.4-0.1c0-0.1,0-0.2,0-0.3c0-0.1-0.1-0.2-0.2-0.4
	c-0.1-0.1-0.2-0.3-0.4-0.4c-0.2-0.1-0.4-0.2-0.7-0.2c-0.2,0-0.4,0-0.6,0.1c-0.2,0.1-0.4,0.2-0.6,0.4c-0.2,0.2-0.3,0.3-0.3,0.5
	l-0.1,0.3H25.5z"/>
<path class="st1" d="M31.8,31.2c0-0.1,0.1-0.2,0.2-0.3s0.2-0.1,0.4-0.1c0.2,0,0.4,0,0.4,0.2c0.1,0.1,0.1,0.2,0.1,0.3
	c0,0.1,0,0.2-0.1,0.4l-1.5,4.1c-0.1,0.3-0.2,0.5-0.4,0.7c-0.1,0.1-0.3,0.2-0.4,0.3c-0.1,0-0.2,0.1-0.3,0.1c-0.2,0-0.3,0-0.5-0.1
	c-0.1-0.1-0.3-0.2-0.4-0.3c-0.1-0.1-0.2-0.3-0.3-0.6l-1.6-4c-0.1-0.1-0.1-0.3-0.1-0.4c0-0.1,0.1-0.3,0.2-0.4
	c0.1-0.1,0.3-0.1,0.5-0.1c0.2,0,0.3,0.1,0.4,0.3l1.6,4.1c0,0.1,0,0.1,0.1,0.1c0,0,0,0,0,0c0,0,0,0,0,0l0.1-0.2L31.8,31.2z"/>
<path class="st1" d="M39.2,33.7c0,0.3,0,0.6-0.1,0.8c-0.1,0.2-0.2,0.5-0.4,0.8c-0.2,0.3-0.4,0.6-0.6,0.7c-0.2,0.2-0.5,0.3-0.9,0.4
	c-0.3,0.1-0.7,0.2-1.1,0.1c-0.5,0-0.9-0.1-1.3-0.3c-0.4-0.2-0.7-0.5-0.9-0.9c-0.2-0.4-0.3-0.7-0.4-1c0-0.3,0-0.5,0-0.7
	c0-0.4,0.1-0.7,0.2-1c0.1-0.3,0.3-0.6,0.5-0.9c0.2-0.3,0.6-0.5,0.9-0.6c0.4-0.1,0.7-0.2,1.1-0.2c0.4,0,0.7,0,1.1,0.2
	c0.4,0.1,0.7,0.3,1,0.6c0.3,0.3,0.5,0.6,0.6,0.9S39.2,33.3,39.2,33.7z M34.7,33.8c0,0.3,0,0.5,0.1,0.7c0.1,0.2,0.2,0.4,0.5,0.7
	c0.2,0.2,0.6,0.3,1.1,0.3c0.5,0,0.9-0.1,1.2-0.5c0.3-0.3,0.5-0.8,0.5-1.4c0-0.3-0.1-0.5-0.1-0.7c-0.1-0.2-0.3-0.4-0.5-0.6
	c-0.2-0.2-0.5-0.3-0.9-0.3c-0.3,0-0.5,0.1-0.7,0.2c-0.2,0.1-0.4,0.2-0.5,0.4c-0.1,0.1-0.2,0.3-0.3,0.6
	C34.8,33.3,34.7,33.5,34.7,33.8z"/>
<path class="st1" d="M53.7,26.9c0,1.6-1.3,3-3,3c-1.3,0-2.4-0.8-2.8-2c-0.4,1.2-1.5,2-2.8,2c-1.6,0-3-1.3-3-3c0-1.6,1.3-3,3-3
	c1.3,0,2.4,0.8,2.8,2c0.4-1.2,1.5-2,2.8-2C52.3,23.9,53.7,25.3,53.7,26.9z"/>
<path class="st1" d="M53.2,29.9H42.9c-0.4,0-0.8,0.4-0.8,0.8v5.9c0,0.4,0.4,0.8,0.8,0.8h10.3c0.4,0,0.8-0.4,0.8-0.8v-5.9
	C54,30.3,53.6,29.9,53.2,29.9z M51.5,36h-8.4v-4.3h8.4V36z M53.2,31.8L52.5,32l-0.4-0.8l1.1-0.2V31.8z"/>
<polygon class="st1" points="54.4,34.5 54.4,32.6 57,31.4 57,35.9 "/>
</svg>
