<?xml version="1.0" encoding="utf-8"?>
<!-- Generator: Adobe Illustrator 22.1.0, SVG Export Plug-In . SVG Version: 6.00 Build 0)  -->
<svg version="1.1" id="图层_1" xmlns="http://www.w3.org/2000/svg" xmlns:xlink="http://www.w3.org/1999/xlink" x="0px" y="0px"
	 viewBox="0 0 64 64" style="enable-background:new 0 0 64 64;" xml:space="preserve">
<style type="text/css">
	.st0{fill:#FFFFFF;}
	.st1{fill:#1AB7EA;}
</style>
<rect class="st0" width="64" height="64"/>
<path class="st1" d="M0,0v64h64V0H0z M57,21.6c-0.5,8.2-12.4,22-15.5,25.2c-3,3.2-8.5,7.6-12.9,6.8c-4.3-0.8-5.7-6.4-6.8-9.3
	c-0.2-0.7-4.1-15.1-5.1-17.9c-0.9-2.8-2.4-3.6-3.1-3.6c-1.1,0-4.2,2.4-4.2,2.4L7,22.1c10.5-9.7,13.6-11,15.4-11c1.8,0,5.6,1,6.4,6.9
	c0.9,5.9,3.2,16.2,3.4,16.9c0.2,0.7,1.3,3.5,2.7,3.3c1.4-0.2,5.3-6.1,6.6-8.6c1.4-2.5,1.8-5.9,0.2-7.5s-6,0.1-6,0.1
	c1.3-6.5,6.2-10.1,9.4-11.3c3.2-1.1,6.6-0.7,8.7,0.6C54.9,12.3,57.4,14,57,21.6z"/>
</svg>
