<?xml version="1.0" encoding="utf-8"?>
<!-- Generator: Adobe Illustrator 22.1.0, SVG Export Plug-In . SVG Version: 6.00 Build 0)  -->
<svg version="1.1" id="图层_1" xmlns="http://www.w3.org/2000/svg" xmlns:xlink="http://www.w3.org/1999/xlink" x="0px" y="0px"
	 viewBox="0 0 16 16" style="enable-background:new 0 0 16 16;" xml:space="preserve">
<style type="text/css">
	.st0{fill:#C7C6C6;}
</style>
<g id="surface1">
	<path class="st0" d="M13.6,1.7c0.6,0,1,0.2,1.3,0.5c0.4,0.4,0.5,1,0.5,1.9c-0.1,1.5-1.2,3.6-3.1,6.1c-2.5,3.3-4.1,4-5,4
		c-0.6,0-1.2-0.7-1.7-2.1c-0.2-0.8-0.4-1.6-0.6-2.3C4.7,9,4.4,8.2,4.2,7.4C3.8,5.8,3.2,4.3,2,4.3c-0.1,0-0.3,0-0.7,0.2
		c0,0,0.1-0.1,0.1-0.1c0.4-0.3,0.8-0.7,1.3-1.1C3.3,2.8,4.2,2.1,4.6,2c0,0,0.1,0,0.1,0c1.1,0,1.4,1.3,1.5,2.1c0.3,1.9,0.6,3,0.7,3.5
		l0,0.1c0.3,1.4,0.7,2.8,1.8,2.8c0.4,0,1.3-0.2,2.2-1.7c0.8-1.3,1-2.4,1.1-2.9C12,5.4,12,4.8,11.6,4.3c-0.4-0.4-0.9-0.5-1.3-0.5
		c0,0-0.1,0-0.1,0C11,2.3,12,1.7,13.6,1.7 M13.6,1c-2.4,0-3.7,1.3-4.5,3.9c0.4-0.2,0.8-0.3,1.2-0.3c0.8,0,1.1,0.3,1,1.2
		c0,0.6-0.3,1.5-1,2.6C9.6,9.4,9,9.7,8.7,9.7C8.3,9.7,8,9.1,7.6,7.5C7.5,7,7.2,6,6.9,4C6.7,2.3,5.9,1.3,4.7,1.3c-0.1,0-0.1,0-0.2,0
		C4,1.4,3.4,1.9,2.3,2.8C1.5,3.5,0.8,4,0,4.7l0.8,1C1.5,5.2,1.9,5,2,5c0.5,0,1,0.8,1.5,2.6c0.4,1.6,0.9,3.2,1.3,4.7
		c0.6,1.7,1.4,2.6,2.4,2.6c1.5,0,3.3-1.4,5.5-4.2c2.1-2.7,3.2-4.9,3.3-6.5C16.1,2.1,15.2,1,13.6,1C13.6,1,13.6,1,13.6,1z"/>
</g>
</svg>
