<?xml version="1.0" encoding="utf-8"?>
<!-- Generator: Adobe Illustrator 22.1.0, SVG Export Plug-In . SVG Version: 6.00 Build 0)  -->
<svg version="1.1" id="图层_1" xmlns="http://www.w3.org/2000/svg" xmlns:xlink="http://www.w3.org/1999/xlink" x="0px" y="0px"
	 viewBox="0 0 64 64" style="enable-background:new 0 0 64 64;" xml:space="preserve">
<style type="text/css">
	.st0{fill:#FFFFFF;}
</style>
<path class="st0" d="M32,0.6C14.6,0.6,0.6,14.6,0.6,32s14,31.4,31.4,31.4s31.4-14,31.4-31.4C63.5,14.6,49.4,0.6,32,0.6z M19.1,7.4
	c2.1-2.4,5.7-4.2,10.5-4.7c0.7,0,1.5-0.1,2.4-0.1c7.9,0,15,3.3,20.1,8.6c-0.7-0.2-1.7-0.6-3.6-0.6c-15.5,0-20.7,30.6-25.4,30.5
	C20.1,41.2,9.6,18.2,19.1,7.4z M32,58.5C16.5,58.5,4.1,46,4.1,30.6c0-8.9,4.2-17,11-22.2C3.8,21.1,16.4,48.2,23.6,49
	c8.9,0.5,12.4-27.9,22.9-31.5c7.9-3,13.9,8.9,10.3,22.2C53.1,51.1,43.8,58.4,32,58.5z M32.6,10.3c4.3,0,7.9-1.1,7.9-2.5
	S37,5.3,32.6,5.3s-7.9,1.1-8.1,2.5C24.7,9.2,28.3,10.3,32.6,10.3z"/>
</svg>
