<?xml version="1.0" encoding="utf-8"?>
<!-- Generator: Adobe Illustrator 22.1.0, SVG Export Plug-In . SVG Version: 6.00 Build 0)  -->
<svg version="1.1" id="图层_1" xmlns="http://www.w3.org/2000/svg" xmlns:xlink="http://www.w3.org/1999/xlink" x="0px" y="0px"
	 viewBox="0 0 64 64" style="enable-background:new 0 0 64 64;" xml:space="preserve">
<style type="text/css">
	.st0{fill:#1878E4;}
</style>
<g>
	<path class="st0" d="M12.6,58.1L0,10.7h8.2l6.7,28.1c0.5,2,0.9,4,1.4,6.1c0.5,2,0.9,4,1.4,6.2c1.1-5.1,2-9.5,3-13l7.5-27.2h7.6
		l7.5,27.2c1.1,3.9,2,8.2,3,13c0.9-4.2,1.6-7,1.9-8.4c0.3-1.4,3-12,7.8-31.8H64L51.3,58.3h-9.2l-7.8-29c-0.6-2.2-1.4-5.7-2.3-10.7
		c-0.9,5.1-1.7,8.7-2.3,10.7l-7.9,29h-9.2V58.1z"/>
</g>
</svg>
