<?xml version="1.0" encoding="utf-8"?>
<!-- Generator: Adobe Illustrator 22.1.0, SVG Export Plug-In . SVG Version: 6.00 Build 0)  -->
<svg version="1.1" id="图层_1" xmlns="http://www.w3.org/2000/svg" xmlns:xlink="http://www.w3.org/1999/xlink" x="0px" y="0px"
	 viewBox="0 0 64 64" style="enable-background:new 0 0 64 64;" xml:space="preserve">
<style type="text/css">
	.st0{fill:#52C6FC;}
	.st1{fill:#5298FC;}
	.st2{fill:#8FDAFC;}
</style>
<path class="st0" d="M64,24v16c0,13.2-10.8,24-24,24H24C10.8,64,0,53.2,0,40V24c0-2.3,0.3-4.4,0.9-6.5C3.7,7.4,13.1,0,24,0h16
	c9.9,0,18.4,6,22.1,14.6C63.3,17.5,64,20.7,64,24z"/>
<path class="st1" d="M64,24v16c0,13.2-10.8,24-24,24H24.6c1.6-8.7,4.3-19,8.5-27.2c0.1-0.3,0.3-0.6,0.5-0.9
	c8.5-15.9,25.9-20.6,28.5-21.3C63.3,17.5,64,20.7,64,24z"/>
<path class="st2" d="M38.9,64H24C10.8,64,0,53.2,0,40V24c0-2.3,0.3-4.4,0.9-6.5c0.4,0.1,20.6,6.8,32.2,19.3
	C39.7,44,43.5,53.1,38.9,64z"/>
</svg>
