<?xml version="1.0" encoding="utf-8"?>
<!-- Generator: Adobe Illustrator 22.1.0, SVG Export Plug-In . SVG Version: 6.00 Build 0)  -->
<svg version="1.1" id="图层_1" xmlns="http://www.w3.org/2000/svg" xmlns:xlink="http://www.w3.org/1999/xlink" x="0px" y="0px"
	 viewBox="0 0 16 16" style="enable-background:new 0 0 16 16;" xml:space="preserve">
<style type="text/css">
	.st0{fill:#C7C6C6;}
</style>
<path class="st0" d="M13.6,13.4H2.4C1.1,13.4,0,12.3,0,11V4.8c0-1.4,1.1-2.5,2.4-2.5h11.1c1.3,0,2.4,1.1,2.4,2.5V11
	C16,12.3,14.9,13.4,13.6,13.4z M2.4,3.2c-0.9,0-1.6,0.7-1.6,1.6V11c0,0.9,0.7,1.6,1.6,1.6h11.1c0.9,0,1.6-0.7,1.6-1.6V4.8
	c0-0.9-0.7-1.6-1.6-1.6H2.4z"/>
<path class="st0" d="M5.6,11.7V4.1L12,7.9C12,7.9,5.6,11.7,5.6,11.7z M6.5,5.6v4.6l3.8-2.3L6.5,5.6z"/>
</svg>
