<?xml version="1.0" encoding="utf-8"?>
<!-- Generator: Adobe Illustrator 22.1.0, SVG Export Plug-In . SVG Version: 6.00 Build 0)  -->
<svg version="1.1" id="图层_1" xmlns="http://www.w3.org/2000/svg" xmlns:xlink="http://www.w3.org/1999/xlink" x="0px" y="0px"
	 viewBox="0 0 64 64" style="enable-background:new 0 0 64 64;" xml:space="preserve">
<style type="text/css">
	.st0{fill:#FF3D00;}
	.st1{fill:#FFFFFF;}
</style>
<g id="surface1">
	<path class="st0" d="M61.8,47.4c-0.6,3.3-3.3,5.7-6.5,6.2c-5.1,0.8-13.7,1.7-23.3,1.7c-9.5,0-18-0.9-23.3-1.7
		c-3.3-0.5-5.9-2.9-6.5-6.2C1.6,43.8,0.9,38.5,0.9,32s0.6-11.8,1.2-15.4c0.6-3.3,3.3-5.7,6.5-6.2C13.8,9.7,22.4,8.7,32,8.7
		s18,0.9,23.3,1.7c3.3,0.5,5.9,2.9,6.5,6.2c0.6,3.6,1.4,8.8,1.4,15.4C63,38.5,62.4,43.8,61.8,47.4z"/>
	<path class="st1" d="M25.8,42.9V21.1L44.4,32L25.8,42.9z"/>
</g>
</svg>
