<?xml version="1.0" encoding="utf-8"?>
<!-- Generator: Adobe Illustrator 22.1.0, SVG Export Plug-In . SVG Version: 6.00 Build 0)  -->
<svg version="1.1" id="图层_2" xmlns="http://www.w3.org/2000/svg" xmlns:xlink="http://www.w3.org/1999/xlink" x="0px" y="0px"
	 viewBox="0 0 64 64" style="enable-background:new 0 0 64 64;" xml:space="preserve">
<style type="text/css">
	.st0{fill:#FFFFFF;}
</style>
<g>
	<path class="st0" d="M37.4,4.6c2.9-0.2,5,3,5.9,5.1c0.5,1.2,0.9,3.1-0.3,3.7c-0.9,0.5-2.1,0.5-3.4,0.7c-3.2,0.4-5.2-0.3-6.3-2.3
		c-0.3-0.5-0.7-1.5-0.5-2.5c0.4-1.9,1.6-3.4,3-4.3C36.1,4.9,36.8,4.6,37.4,4.6"/>
	<path class="st0" d="M28.5,16c1.7,0,3.5,0.3,5.1,0.7c1.8,0.5,3.5,1.1,4.9,1.7c2.7,1.1,4.7,1.9,4.7,1.9s1.4-1,1.9-1.3
		c1.3-0.8,2.5-1.6,4-1.9c0.5-0.1,1.5-0.1,1.9,0c1.9,0.3,3,1.1,3.1,2.7c0.2,2.1-2.5,4.4-3.1,5c-0.6,0.5-3.3,3.1-6.6,3.4
		c-1.6,0.1-3.2-0.4-4.3-0.9c-0.4-0.2-1.3-0.6-1.3-0.6s-1.5,1.4-2.9,2.9c-1.4,1.4-4.8,5.6-4.8,5.6c3.8-0.3,8.1,0.9,10.8,2
		c6.4,2.5,12.6,6.9,16.8,12.8c1.4,2,2.8,4.3,3.9,6.7c0.3,0.7,0.8,2.1,0.3,2.7c-0.5,0.6-1.7-0.1-2.4-0.4c-1.2-0.6-3.8-2.6-5.7-4.1
		c-0.9-0.7-2.2-1.9-2.4-2.9c-0.1-0.7,0.3-1.6,0.4-2.3c0.2-1.1-0.4-2-0.9-2.5c-1.1-1.3-2.9-2.1-4.5-2.8c-3.4-1.3-5.7-1.7-11.4-2.5
		c-5.7-0.7-9.5-0.3-9.9-0.3c-0.4,0.5-1,1.2-1.4,1.7c-1.2,1.3-5.7,5.7-7,6.7c-2.3,1.8-4.9,3.5-7.7,4.8c-5.3,2.6-8.7,2.2-9.1,1.7
		c-0.4-0.4-0.4-1.6,0.4-3.3c0.8-1.7,2.8-3.8,3.7-4.8c0.9-0.9,2.6-2.4,4.8-4.2c3.1-2.4,7.9-4.8,10.2-5.9c3.3-1.6,6.6-2.4,7.4-2.6
		c4.5-6.2,9.3-10.2,9.3-10.2s-1.9-1.2-2.7-1.8c-1.8-1.2-3.5-2.4-5.5-3.3c-1.3-0.6-3.4-1.3-5.2-0.9C21,20,18,21.7,16.8,23.2
		c-0.4,0.5-0.7,1.4-0.9,2.1c-0.1,0.6,0.1,1.5-0.1,1.9c-0.3,0.8-1.5,1.4-2.5,1.8c-1.3,0.6-2.6,1.2-4.1,1.5c-0.5,0.1-1.4,0.4-1.7,0
		C7.3,30.1,7.8,29.3,8,29c0.8-1.4,1.7-2.5,2.7-3.7c3-3.6,6.3-6.2,10.8-8.1C22.7,16.8,24.9,16,28.5,16 M50.9,19.1
		c-0.8,0.1-1.6,0.2-2.3,0.5c-1,0.4-2,0.9-2.9,1.5c2.1,0.6,4.5,1,6.4-0.1c0.5-0.3,0.9-0.7,0.9-1.1C53,19.3,51.7,19,50.9,19.1
		 M22.4,41.8c0,0-1.1,0.2-1.6,0.3c-0.6,0.1-1.9,0.5-2.7,0.7c-2.4,0.6-8.7,3.1-11.5,5.9c-0.9,0.9-1.6,2-2.2,3.3
		c-0.1,0.4-0.4,1.2-0.1,1.7c0.3,0.4,1,0.5,1.7,0.4c1.3-0.3,2.5-0.8,3.6-1.4c4-2.2,7.9-5.4,10.3-8c0.8-0.8,1.8-1.9,2.1-2.2
		C22.2,42.2,22.4,41.8,22.4,41.8"/>
</g>
</svg>
