<?xml version="1.0" encoding="utf-8"?>
<!-- Generator: Adobe Illustrator 22.1.0, SVG Export Plug-In . SVG Version: 6.00 Build 0)  -->
<svg version="1.1" id="图层_2_1_" xmlns="http://www.w3.org/2000/svg" xmlns:xlink="http://www.w3.org/1999/xlink" x="0px"
	 y="0px" viewBox="0 0 64 64" style="enable-background:new 0 0 64 64;" xml:space="preserve">
<style type="text/css">
	.st0{fill:#FE6508;}
	.st1{fill:#FFFFFF;}
</style>
<rect class="st0" width="64" height="64"/>
<path class="st1" d="M37,6.7c2.7-0.2,4.6,2.8,5.5,4.7c0.5,1.1,0.8,2.9-0.3,3.4c-0.8,0.5-1.9,0.5-3.1,0.6c-3,0.4-4.8-0.3-5.8-2.1
	c-0.3-0.5-0.6-1.4-0.5-2.3c0.4-1.8,1.5-3.1,2.8-4C35.8,7,36.4,6.7,37,6.7"/>
<path class="st1" d="M28.8,17.2c1.6,0,3.2,0.3,4.7,0.6c1.7,0.5,3.2,1,4.5,1.6c2.5,1,4.3,1.8,4.3,1.8s1.3-0.9,1.8-1.2
	c1.2-0.7,2.3-1.5,3.7-1.8c0.5-0.1,1.4-0.1,1.8,0c1.8,0.3,2.8,1,2.9,2.5c0.2,1.9-2.3,4.1-2.9,4.6c-0.6,0.5-3.1,2.9-6.1,3.1
	c-1.5,0.1-3-0.4-4-0.8c-0.4-0.2-1.2-0.6-1.2-0.6s-1.4,1.3-2.7,2.7c-1.3,1.3-4.4,5.2-4.4,5.2c3.5-0.3,7.5,0.8,10,1.8
	c5.9,2.3,11.6,6.4,15.5,11.8c1.3,1.8,2.6,4,3.6,6.2c0.3,0.6,0.7,1.9,0.3,2.5S59,57.2,58.3,57c-1.1-0.6-3.5-2.4-5.3-3.8
	c-0.8-0.6-2-1.8-2.2-2.7c-0.1-0.6,0.3-1.5,0.4-2.1c0.2-1-0.4-1.8-0.8-2.3c-1-1.2-2.7-1.9-4.2-2.6c-3.1-1.2-5.3-1.6-10.5-2.3
	c-5.3-0.6-8.8-0.3-9.2-0.3c-0.4,0.5-0.9,1.1-1.3,1.6c-1.1,1.2-5.3,5.3-6.5,6.2c-2.1,1.7-4.5,3.2-7.1,4.4c-4.9,2.4-8,2-8.4,1.6
	c-0.4-0.4-0.4-1.5,0.4-3.1s2.6-3.5,3.4-4.4c0.8-0.8,2.4-2.2,4.4-3.9c2.9-2.2,7.3-4.4,9.4-5.5c3.1-1.5,6.1-2.2,6.8-2.4
	c4.2-5.7,8.6-9.4,8.6-9.4s-1.8-1.1-2.5-1.7c-1.7-1.1-3.2-2.2-5.1-3.1c-1.2-0.6-3.1-1.2-4.8-0.8c-2.1,0.5-4.9,2-6,3.4
	c-0.4,0.5-0.6,1.3-0.8,1.9c-0.1,0.6,0.1,1.4-0.1,1.8c-0.3,0.7-1.4,1.3-2.3,1.7c-1.2,0.6-2.4,1.1-3.8,1.4c-0.5,0.1-1.3,0.4-1.6,0
	c-0.2-0.4,0.3-1.1,0.5-1.4c0.7-1.3,1.6-2.3,2.5-3.4c2.8-3.3,5.8-5.7,10-7.5C23.4,18,25.4,17.2,28.8,17.2 M49.5,20.1
	c-0.7,0.1-1.5,0.2-2.1,0.5c-0.9,0.4-1.8,0.8-2.7,1.4c1.9,0.6,4.2,0.9,5.9-0.1c0.5-0.3,0.8-0.6,0.8-1C51.4,20.3,50.2,20,49.5,20.1
	 M23.1,41.1c0,0-1,0.2-1.5,0.3c-0.6,0.1-1.8,0.5-2.5,0.6c-2.2,0.6-8,2.9-10.6,5.5c-0.8,0.8-1.5,1.8-2,3.1c-0.1,0.4-0.4,1.1-0.1,1.6
	c0.3,0.4,0.9,0.5,1.6,0.4c1.2-0.3,2.3-0.7,3.3-1.3c3.7-2,7.3-5,9.5-7.4c0.7-0.7,1.7-1.8,1.9-2C22.9,41.4,23.1,41.1,23.1,41.1"/>
</svg>
