<?xml version="1.0" encoding="utf-8"?>
<!-- Generator: Adobe Illustrator 22.1.0, SVG Export Plug-In . SVG Version: 6.00 Build 0)  -->
<svg version="1.1" id="图层_1" xmlns="http://www.w3.org/2000/svg" xmlns:xlink="http://www.w3.org/1999/xlink" x="0px" y="0px"
	 viewBox="0 0 64 64" style="enable-background:new 0 0 64 64;" xml:space="preserve">
<style type="text/css">
	.st0{fill:#189384;}
</style>
<g>
	<rect y="30.8" class="st0" width="19.5" height="2.5"/>
</g>
<g>
	<rect x="21.8" y="31.1" class="st0" width="19" height="2.5"/>
</g>
<g>
	<rect x="30.3" y="23.9" class="st0" width="2.5" height="19.1"/>
</g>
<g>
	<g>
		<polygon class="st0" points="29.4,30.3 26.4,30.3 22.7,24.6 25.7,24.6 		"/>
	</g>
</g>
<g>
	<g>
		<polygon class="st0" points="29.7,33.9 23.9,42.1 20.9,42.1 26.7,33.9 		"/>
	</g>
</g>
<g>
	<g>
		<polygon class="st0" points="33.7,30.3 36.7,30.3 40.3,24.7 37.4,24.7 		"/>
	</g>
</g>
<g>
	<g>
		<polygon class="st0" points="33.3,34 39.1,42.2 42.2,42.2 36.4,34 		"/>
	</g>
</g>
<g>
	<g>
		<polygon class="st0" points="52.3,26.3 45.5,42.5 42.8,42.5 49.6,26.3 		"/>
	</g>
</g>
<g>
	<g>
		<polygon class="st0" points="54.2,26.3 61,42.5 63.7,42.5 56.9,26.3 		"/>
	</g>
</g>
</svg>
