<?xml version="1.0" encoding="utf-8"?>
<!-- Generator: Adobe Illustrator 22.1.0, SVG Export Plug-In . SVG Version: 6.00 Build 0)  -->
<svg version="1.1" id="图层_1" xmlns="http://www.w3.org/2000/svg" xmlns:xlink="http://www.w3.org/1999/xlink" x="0px" y="0px"
	 viewBox="0 0 16 16" style="enable-background:new 0 0 16 16;" xml:space="preserve">
<style type="text/css">
	.st0{fill:#6D6D6D;}
</style>
<path class="st0" d="M8,0L2.7,3.1v6.2L8,12.4l5.3-3.1V3.1L8,0z M7.4,10.7L4,8.7V4.6l3.4,2V10.7z M8.1,5.6L4.5,3.4l3.5-2l3.7,2.1
	L8.2,5.6H8.1z M12,8.7l-3.4,2V6.8L12,4.7V8.7z"/>
<path class="st0" d="M7.2,16v-1.2c-3.6,0-6.8-2-6.8-4.5c0-1,0.7-2,1.7-2.7v1.7c-0.4,0.4-0.4,0.5-0.4,1c0,1.2,2.3,3.2,5.5,3.2v-1.4
	l2.1,1.9L7.2,16z M15.6,10.5c0,1.9-2.2,3.5-5.2,4v-1.1c2-0.4,4.1-1.5,4.1-2.9c0-0.6-0.1-0.9-0.6-1.4V7.8
	C14.9,8.5,15.6,9.5,15.6,10.5z"/>
</svg>
