<?xml version="1.0" encoding="utf-8"?>
<!-- Generator: Adobe Illustrator 22.1.0, SVG Export Plug-In . SVG Version: 6.00 Build 0)  -->
<svg version="1.1" id="图层_1" xmlns="http://www.w3.org/2000/svg" xmlns:xlink="http://www.w3.org/1999/xlink" x="0px" y="0px"
	 viewBox="0 0 16 16" style="enable-background:new 0 0 16 16;" xml:space="preserve">
<style type="text/css">
	.st0{fill:#6D6D6D;}
</style>
<path class="st0" d="M14.7,3.8L8.3,0.1C8.1,0,7.9,0,7.7,0.1L1.3,3.8C1.1,3.9,1,4.1,1,4.3v7.4C1,11.9,1.1,12,1.3,12s0.3-0.1,0.3-0.3
	V4.3L8,0.6l6.4,3.7v7.4L8,15.4c-0.1,0.1-0.2,0.3-0.1,0.4C8,16,8.2,16,8.3,16l0,0l6.4-3.7c0.2-0.1,0.3-0.3,0.3-0.5V4.3
	C15,4.1,14.9,3.9,14.7,3.8z"/>
<path class="st0" d="M8.3,14.1v-6l5.3-3c0.1-0.1,0.2-0.3,0.1-0.4c-0.1-0.1-0.3-0.2-0.4-0.1l0,0L8,7.7l-5.1-3c-0.1-0.1-0.3,0-0.4,0.1
	c-0.1,0.1,0,0.3,0.1,0.4l0,0l5.1,3v6c0,0.2,0.1,0.3,0.3,0.3C8.2,14.5,8.3,14.3,8.3,14.1L8.3,14.1z"/>
</svg>
