<?xml version="1.0" encoding="utf-8"?>
<!-- Generator: Adobe Illustrator 22.1.0, SVG Export Plug-In . SVG Version: 6.00 Build 0)  -->
<svg version="1.1" id="图层_1" xmlns="http://www.w3.org/2000/svg" xmlns:xlink="http://www.w3.org/1999/xlink" x="0px" y="0px"
	 viewBox="0 0 16 16" style="enable-background:new 0 0 16 16;" xml:space="preserve">
<style type="text/css">
	.st0{fill:#C7C6C6;}
</style>
<path class="st0" d="M14.9,8.9v4.4H1.1V8.9H0v4.8c0,0.4,0.3,0.7,0.7,0.7h14.6c0.4,0,0.7-0.3,0.7-0.7l0-4.8H14.9z"/>
<path class="st0" d="M7.6,12.3c0.1,0.1,0.2,0.2,0.4,0.2c0.1,0,0.3,0,0.4-0.1c0,0,0.1,0,0.1-0.1l3.5-3.5c0.2-0.2,0.2-0.6,0-0.8
	c-0.2-0.2-0.6-0.2-0.8,0l-2.7,2.6V2.4c0-0.3-0.2-0.5-0.5-0.5S7.4,2.1,7.4,2.4v8.2L4.8,8C4.6,7.8,4.3,7.8,4.1,8
	c-0.2,0.2-0.2,0.6,0,0.8L7.6,12.3z"/>
</svg>
