<?xml version="1.0" encoding="utf-8"?>
<!-- Generator: Adobe Illustrator 22.1.0, SVG Export Plug-In . SVG Version: 6.00 Build 0)  -->
<svg version="1.1" id="图层_1" xmlns="http://www.w3.org/2000/svg" xmlns:xlink="http://www.w3.org/1999/xlink" x="0px" y="0px"
	 viewBox="0 0 16 16" style="enable-background:new 0 0 16 16;" xml:space="preserve">
<style type="text/css">
	.st0{fill:#C7C6C6;}
</style>
<path class="st0" d="M14.8,5.7H1.2c-0.6,0-1.1,0.5-1.1,1.1v6.8c0,0.6,0.5,1.1,1.1,1.1h13.6c0.6,0,1.1-0.5,1.1-1.1V6.9
	C15.9,6.2,15.4,5.7,14.8,5.7z M13.7,3.5H2.3C1.7,3.5,1.2,4,1.2,4.6h13.6C14.8,4,14.3,3.5,13.7,3.5z M12.5,1.2H3.5
	c-0.6,0-1.1,0.5-1.1,1.1h11.4C13.7,1.7,13.2,1.2,12.5,1.2z"/>
</svg>
