<?xml version="1.0" encoding="utf-8"?>
<!-- Generator: Adobe Illustrator 22.1.0, SVG Export Plug-In . SVG Version: 6.00 Build 0)  -->
<svg version="1.1" id="图层_1" xmlns="http://www.w3.org/2000/svg" xmlns:xlink="http://www.w3.org/1999/xlink" x="0px" y="0px"
	 viewBox="0 0 16 16" style="enable-background:new 0 0 16 16;" xml:space="preserve">
<style type="text/css">
	.st0{fill:#C7C6C6;}
</style>
<path class="st0" d="M6.7,11.2c0.1,0.1,0.2,0.2,0.3,0.2s0.3,0,0.3-0.2L9,8.9l3.6,4.8H2.4c-0.3,0-0.4,0.2-0.4,0.4s0.2,0.4,0.4,0.4
	h10.2c0.7,0,1.3-0.5,1.3-1.3V4.9c0-0.7-0.5-1.3-1.3-1.3H1.3C0.6,3.6,0,4.1,0,4.9v8.5c0,0.2,0.1,0.3,0.3,0.4c0.2,0,0.4,0,0.5-0.2
	l3.5-5.8L6.7,11.2z M4,6.8l-3,5.1v-7c0-0.3,0.2-0.4,0.4-0.4h11.4c0.3,0,0.4,0.2,0.4,0.4V13L9.4,8C9.3,7.9,9.2,7.9,9.1,7.9
	c-0.1,0-0.3,0-0.3,0.2L7,10.2L4.7,6.7C4.6,6.6,4.5,6.5,4.3,6.5C4.2,6.5,4,6.6,4,6.8z"/>
<path class="st0" d="M14.7,1.4H3.3c-0.3,0-0.4,0.2-0.4,0.4s0.2,0.4,0.4,0.4h11.4c0.3,0,0.4,0.2,0.4,0.4v8.5c0,0.3,0.2,0.4,0.4,0.4
	s0.4-0.2,0.4-0.4V2.7C16,2,15.4,1.4,14.7,1.4z"/>
</svg>
