<?xml version="1.0" encoding="utf-8"?>
<!-- Generator: Adobe Illustrator 22.1.0, SVG Export Plug-In . SVG Version: 6.00 Build 0)  -->
<svg version="1.1" id="图层_1" xmlns="http://www.w3.org/2000/svg" xmlns:xlink="http://www.w3.org/1999/xlink" x="0px" y="0px"
	 viewBox="0 0 16 16" style="enable-background:new 0 0 16 16;" xml:space="preserve">
<style type="text/css">
	.st0{fill:#6D6D6D;}
</style>
<path class="st0" d="M14.5,12.9c-0.1-0.2-0.3-0.2-0.5-0.2c-0.1,0-0.2,0-0.3,0.1c-0.3,0.2-0.3,0.6-0.1,0.8c0.1,0.1,0.3,0.5,0.2,0.8
	c0,0-0.1,0.1-0.4,0.2c-0.4,0.1-0.9,0.2-1.7,0.2c-0.8,0-2.5,0.1-4,0.1c-1.4,0-2.4,0-2.9-0.1c-0.2,0-0.4,0-0.6-0.1
	c-0.9-0.1-1.7-0.1-2-0.4c0,0-0.1-0.2,0-0.5c0.1-0.4,0.3-0.7,0.3-0.7c0.2-0.2,1.4-0.8,2.3-1.1c0.4-0.2,0.9-0.4,1.3-0.7
	c0.5-0.4,0.7-1,0.6-1.6C6.5,9.1,6.5,9.1,6.5,9.1c0-0.1-0.1-0.2-0.2-0.3c0,0-0.5-0.5-0.8-1C5.2,7.4,5.1,7,5.1,7C5,6.8,5,6.8,4.9,6.7
	c0,0-0.5-0.5-0.5-1.1c0-0.4,0.1-0.5,0.2-0.6C4.6,5,4.8,4.8,4.8,4.5c0,0,0.1-1.6,0.8-2.4c0.6-0.7,1.2-0.9,2.3-0.9
	c1.1,0,1.9,0.5,2.2,0.9C11,3.3,11,4.3,11,4.3c0,0.2,0.1,0.4,0.3,0.6c0,0,0.3,0.3,0.3,0.8c0,0.5-0.2,0.6-0.3,0.7
	c-0.1,0-0.2,0.1-0.3,0.3c0,0-0.3,0.7-0.6,1.1C10,8.2,9.5,8.7,9.5,8.7C9.4,8.8,9.4,8.9,9.3,9c0,0.1-0.1,0.6-0.1,0.8c0,0,0,0,0,0.1
	c0,0.3-0.1,1.1,1,1.6c0.9,0.5,1.6,0.7,1.7,0.7c0.1,0,0.1,0,0.2,0c0.3,0,0.5-0.2,0.6-0.4c0.1-0.3-0.1-0.6-0.4-0.8
	c0,0-0.7-0.3-1.5-0.7c-0.4-0.2-0.4-0.3-0.4-0.5c0-0.1,0-0.1,0-0.2c0-0.1,0-0.2,0-0.4c0.2-0.2,0.5-0.5,0.8-0.9
	c0.3-0.4,0.5-0.9,0.7-1.2c0.2-0.2,0.7-0.6,0.8-1.6c0-0.8-0.3-1.4-0.6-1.6c0-0.5-0.2-1.6-1.1-2.7C10.4,0.6,9.2,0,7.9,0
	C6.5,0,5.5,0.4,4.7,1.3C4,2.2,3.7,3.6,3.6,4.2C3.4,4.4,3.1,4.9,3.1,5.6c0,0.9,0.6,1.6,0.8,1.8C4,7.7,4.2,8,4.5,8.5
	c0.3,0.4,0.7,0.9,0.9,1.1c0,0.1,0,0.2,0,0.3c0.1,0.5-0.2,0.7-1.1,1c-0.5,0.2-2.3,1-2.7,1.4c-0.3,0.3-0.7,1.2-0.7,1.9
	c0,0.5,0.2,0.8,0.4,1c0.6,0.5,1.5,0.6,2.7,0.7c0.2,0,0.4,0,0.6,0.1C5.2,16,6.3,16,7.7,16c1.5,0,3.2,0,4.1-0.1
	c1.5-0.1,2.9-0.2,3.2-1.3C15.1,13.8,14.6,13,14.5,12.9z"/>
</svg>
