<?xml version="1.0" encoding="utf-8"?>
<!-- Generator: Adobe Illustrator 22.1.0, SVG Export Plug-In . SVG Version: 6.00 Build 0)  -->
<svg version="1.1" id="图层_1" xmlns="http://www.w3.org/2000/svg" xmlns:xlink="http://www.w3.org/1999/xlink" x="0px" y="0px"
	 viewBox="0 0 16 16" style="enable-background:new 0 0 16 16;" xml:space="preserve">
<style type="text/css">
	.st0{fill:#C7C6C6;}
</style>
<path class="st0" d="M14.6,4.7H13c-0.3-0.9-0.6-1.7-1.2-2.4c-0.5-0.7-1.1-1.2-1.7-1.6C9.4,0.2,8.7,0,8,0C7.2,0,6.5,0.2,5.8,0.6
	C5.2,1,4.6,1.5,4.1,2.2C3.6,2.9,3.2,3.8,2.9,4.7H1.5C0.7,4.7,0,5.3,0,6.1v8.4C0,15.3,0.7,16,1.5,16h13.1c0.8,0,1.5-0.6,1.5-1.4
	l0-8.4C16,5.3,15.4,4.7,14.6,4.7z M5,2.8c0.8-1.1,1.9-1.8,3-1.8c1.1,0,2.2,0.6,3,1.8c0.4,0.5,0.7,1.1,0.9,1.8l-7.8,0
	C4.3,4,4.6,3.4,5,2.8z M15,14.5c0,0.2-0.2,0.4-0.4,0.4H1.5c-0.2,0-0.4-0.2-0.4-0.4V6.1c0-0.2,0.2-0.4,0.4-0.4h1.3
	C2.6,6.2,2.6,6.8,2.6,7.3c0,0.2,0,0.4,0,0.6H2.5C2.2,7.9,2,8.2,2,8.4v0C2,8.8,2.2,9,2.5,9h1.2C4,9,4.2,8.8,4.2,8.5v0
	c0-0.3-0.2-0.5-0.5-0.5h0c0-0.2,0-0.4,0-0.6c0-0.6,0.1-1.1,0.2-1.6h8.4c0.1,0.5,0.2,1.1,0.2,1.6c0,0.2,0,0.4,0,0.6
	C12,8,11.9,8.2,11.9,8.4v0c0,0.3,0.2,0.5,0.5,0.5h1.2c0.3,0,0.5-0.2,0.5-0.5v0c0-0.3-0.2-0.5-0.5-0.5h-0.2c0-0.2,0-0.4,0-0.6
	c0-0.6,0-1.1-0.1-1.6h1.4c0.2,0,0.4,0.2,0.4,0.4L15,14.5L15,14.5z"/>
</svg>
