<?xml version="1.0" encoding="utf-8"?>
<!-- Generator: Adobe Illustrator 22.1.0, SVG Export Plug-In . SVG Version: 6.00 Build 0)  -->
<svg version="1.1" id="图层_1" xmlns="http://www.w3.org/2000/svg" xmlns:xlink="http://www.w3.org/1999/xlink" x="0px" y="0px"
	 viewBox="0 0 16 16" style="enable-background:new 0 0 16 16;" xml:space="preserve">
<style type="text/css">
	.st0{fill:#6D6D6D;}
</style>
<path class="st0" d="M12.6,13.5H3.5C1.6,13.5,0,12,0,10.1c0-1.9,1.5-3.4,3.4-3.4c0.1,0,0.3,0,0.4,0c0,0,0,0,0,0
	c0-2.3,1.9-4.2,4.2-4.2c2.3,0,4.2,1.9,4.2,4.2c0,0,0,0,0,0c0.1,0,0.3,0,0.4,0c1.9,0,3.4,1.5,3.4,3.4c0,0.6-0.1,1.2-0.4,1.7
	c-0.1,0.2-0.3,0.2-0.5,0.1c-0.2-0.1-0.2-0.3-0.1-0.5c0.2-0.4,0.3-0.8,0.3-1.3c0-1.7-1.6-3-3.4-2.6c-0.1,0-0.3,0-0.3-0.1
	c-0.1-0.1-0.1-0.2-0.1-0.3c0-0.2,0-0.3,0-0.4c0-1.9-1.5-3.4-3.4-3.4c-1.9,0-3.4,1.5-3.4,3.4c0,0.1,0,0.3,0,0.4c0,0.1,0,0.3-0.1,0.3
	C4.4,7.5,4.3,7.5,4.2,7.5C2.4,7,0.8,8.4,0.8,10.1c0,1.5,1.2,2.7,2.7,2.7h9.1c0.2,0,0.4,0.2,0.4,0.4C13,13.3,12.8,13.5,12.6,13.5
	L12.6,13.5z"/>
</svg>
