<?xml version="1.0" encoding="utf-8"?>
<!-- Generator: Adobe Illustrator 22.1.0, SVG Export Plug-In . SVG Version: 6.00 Build 0)  -->
<svg version="1.1" id="图层_1" xmlns="http://www.w3.org/2000/svg" xmlns:xlink="http://www.w3.org/1999/xlink" x="0px" y="0px"
	 viewBox="0 0 64 64" style="enable-background:new 0 0 64 64;" xml:space="preserve">
<style type="text/css">
	.st0{fill:#4D0F0C;}
	.st1{fill:#A96724;}
	.st2{fill:#E8BF6E;}
	.st3{fill:#B76D32;}
	.st4{fill:#632E17;}
</style>
<path class="st0" d="M20.8,41.9c0.1-6.2,1.6-11.9,5.1-17c1.9-2.8,4.2-5.2,7.1-7.1c0.2-0.1,0.3-0.2,0.3-0.4c0-1,0.2-1.3,1.2-1.7
	c5.1-1.9,10-1.2,14.7,1.5c1.3,0.7,2.4,1.6,3.5,2.6c0.2,0.2,0.3,0.2,0.5,0c1.4-1.4,3-2.6,5-3.2c2.8-0.9,4.9,0.6,5.1,3.5
	c0,0.3,0,0.7,0,1c0,0.5-0.2,0.6-0.7,0.6c-0.4,0-0.8-0.2-1.2-0.4c-1.6-0.7-4.2,0-5.2,1.5c-0.2,0.3-0.2,0.5,0,0.8
	C58.7,27,60,30.9,60,35.3c0,2.3-0.2,4.6-1,6.9c-0.5,1.5-1.3,2.9-2.5,4c-0.7,0.6-1.5,0.9-2.4,0.6c-0.1,0-0.2-0.1-0.3,0.1
	c-1.4,2.2-3.6,3.5-5.9,4.6c-2.5,1.1-5.2,1.7-7.9,2c-2.7,0.3-5.3,0.3-8,0c-2.6-0.3-5.2-0.9-7.4-2.4c-2.3-1.6-3.6-3.8-3.8-6.6
	C20.8,43.5,20.8,42.7,20.8,41.9z M54.7,21.7c0,0.2,0.2,0.3,0.3,0.5c0.2,0.2,0.3,0.2,0.5,0c1.2-1.5,2.9-2,4.8-1.8
	c0.6,0.1,1.1,0.3,1.6,0.5c0.4,0.1,0.6,0,0.5-0.3c-0.1-0.4-0.1-0.9-0.3-1.2c-0.2-0.5-0.4-1-0.8-1.4c-0.5-0.6-1.1-1-1.8-0.9
	c-2.4,0.3-4.2,1.6-5.9,3.3c-0.1,0.1-0.2,0.2,0,0.4C54,20.9,54.3,21.4,54.7,21.7z M54.4,22.7c-1.2-1.2-2.4-2.4-3.7-3.4
	c-2-1.5-4.1-2.8-6.5-3.5c-1.8-0.5-3.6-0.5-5.4-0.4c-1.4,0.1-2.8,0.4-4.1,0.9c-0.3,0.1-0.7,0.3-0.7,0.7c-0.1,0.3,0,0.5,0.3,0.5
	c1.4,0,2.5,0.7,3.5,1.5c1.8,1.4,3.4,3.2,5.1,4.8c2.5,2.4,4.6,5.1,6.4,8c0.8,1.2,1.5,2.3,2.2,3.5c0,0.1,0,0.2,0.1,0.2
	c0.9,1.5,1.7,3,2.4,4.6c0.7,1.7,1,3.5,0.7,5.4c-0.1,0.5,0,0.6,0.5,0.6c0.7,0,1.1-0.5,1.5-1c0.6-0.8,1-1.7,1.4-2.6
	c1.2-3,1.5-6,1.2-9.2c-0.2-2.3-0.9-4.4-1.9-6.4C56.5,25.3,55.6,23.9,54.4,22.7z M24.7,49.6c0.1,0.1,0.2,0.2,0.2,0.2
	c2.7,1.8,5.8,2.5,9,2.7c2.4,0.1,4.9,0,7.3-0.4c4-0.7,7.6-2,10.6-4.9c1.5-1.4,2-2.9,1.5-4.9c-0.3-1.4-0.8-2.7-1.5-4
	c-0.4-0.9-0.8-1.8-1.4-2.5c-0.3-0.7-0.8-1.4-1.2-2c-0.8-1.2-1.5-2.3-2.4-3.5c-1-1.4-2.2-2.7-3.3-4c-2.3-2.7-4.9-5.2-7.8-7.4
	c-1.2-0.9-2.3-0.8-3.4-0.1c-1.1,0.7-2.1,1.5-3,2.5c-3,3.1-5.1,6.7-6.5,10.8c-0.6,1.6-1,3.3-1.3,5c-0.5,2.6-0.5,5.1-0.3,7.7
	C21.6,46.8,22.9,48.4,24.7,49.6z"/>
<path class="st1" d="M17.8,50.8c1.7,0,3.4,0,5.1,0c0.6,0,1,0.3,1,0.7c0.1,0.6-0.3,0.9-0.8,1c-0.2,0-0.4,0-0.6,0c-2.9,0-5.9,0-8.8,0
	C7.3,52.6,1.8,47.8,1,41.5c-0.8-6,2.6-11.7,8.3-13.9c0.4-0.2,0.5-0.3,0.5-0.8c0.3-5,4.3-8.5,9.3-8.3c0.4,0,0.5-0.1,0.6-0.4
	c1.7-4,4.7-6.5,8.9-7.4c3.3-0.7,6.4-0.1,9.2,1.7c0.2,0.1,0.4,0.3,0.5,0.5c0.1,0.4,0.1,0.8-0.2,1c-0.3,0.3-0.7,0.3-1.1,0
	c-1.1-0.8-2.4-1.3-3.7-1.6c-5.3-1.1-10.6,1.9-12.3,7c-0.3,0.9-0.5,1-1.5,0.9c-4.3-0.7-8.3,2.8-8.1,7.1c0,0.1,0,0.2,0,0.2
	c0,0.8-0.1,1-0.9,1.3c-2.9,0.9-5.1,2.7-6.6,5.3c-3.6,6.3,0,14.5,7,16.2c0.9,0.2,1.8,0.3,2.8,0.3C15.1,50.8,16.5,50.8,17.8,50.8z"/>
<path class="st2" d="M24.7,49.6c-1.8-1.2-3.1-2.7-3.3-5c-0.2-2.6-0.2-5.2,0.3-7.7c0.3-1.7,0.7-3.3,1.3-5c1.4-4,3.5-7.7,6.5-10.8
	c0.9-0.9,1.9-1.8,3-2.5c1-0.7,2.2-0.8,3.4,0.1c2.9,2.2,5.4,4.7,7.8,7.4c1.1,1.3,2.3,2.6,3.3,4c0.8,1.1,1.6,2.3,2.4,3.5
	c0.4,0.7,0.9,1.3,1.2,2c-0.2,0.2-0.3,0.5-0.4,0.7c-0.3,0.8-0.7,1.5-1.1,2.1c-1.8,2.9-4.4,5-7.2,6.8c-1.9,1.2-3.9,2.2-6,3
	c-3.4,1.3-6.8,1.8-10.4,1.3C25.2,49.6,25,49.4,24.7,49.6z"/>
<path class="st3" d="M51.4,35.3c-0.7-1.2-1.5-2.3-2.2-3.5c-1.9-2.9-4-5.6-6.4-8c-1.7-1.6-3.2-3.4-5.1-4.8c-1-0.8-2.2-1.5-3.5-1.5
	c-0.3,0-0.4-0.2-0.3-0.5c0.1-0.4,0.4-0.6,0.7-0.7c1.3-0.5,2.7-0.8,4.1-0.9c1.8-0.1,3.6-0.1,5.4,0.4c2.4,0.7,4.6,1.9,6.5,3.5
	c1.3,1,2.5,2.2,3.7,3.4c0,0.2,0,0.3,0.1,0.5c0.3,1,0.4,2,0.5,3c0.1,1-0.1,2.1-0.3,3.1C54.4,31.7,53.5,33.8,51.4,35.3z"/>
<path class="st1" d="M24.7,49.6c0.3-0.1,0.5,0,0.7,0.1c3.6,0.5,7.1,0,10.4-1.3c2.1-0.8,4.1-1.7,6-3c2.8-1.8,5.4-3.9,7.2-6.8
	c0.4-0.7,0.8-1.4,1.1-2.1c0.1-0.2,0.2-0.5,0.4-0.7c0.6,0.8,1,1.7,1.4,2.5c0.6,1.3,1.1,2.6,1.5,4c0.5,1.9-0.1,3.5-1.5,4.9
	c-3,2.9-6.6,4.2-10.6,4.9c-2.4,0.4-4.9,0.6-7.3,0.4c-3.2-0.2-6.3-0.9-9-2.7C24.9,49.7,24.8,49.6,24.7,49.6z"/>
<path class="st4" d="M51.4,35.3c2-1.5,3-3.6,3.2-6c0.1-1,0.3-2.1,0.3-3.1c-0.1-1-0.2-2-0.5-3c0-0.1-0.1-0.3-0.1-0.5
	c1.2,1.2,2.1,2.6,2.8,4.2c1,2,1.7,4.1,1.9,6.4c0.3,3.2,0,6.2-1.2,9.2c-0.4,0.9-0.8,1.8-1.4,2.6c-0.4,0.5-0.8,1-1.5,1
	c-0.5,0-0.6-0.1-0.5-0.6c0.4-1.9,0.1-3.7-0.7-5.4c-0.7-1.6-1.5-3.1-2.4-4.6C51.5,35.4,51.5,35.3,51.4,35.3z"/>
<path class="st3" d="M54.7,21.7c-0.4-0.3-0.7-0.8-1.1-1.1c-0.2-0.1-0.1-0.2,0-0.4c1.6-1.7,3.5-2.9,5.9-3.3c0.8-0.1,1.4,0.3,1.8,0.9
	c0.3,0.4,0.6,0.9,0.8,1.4c-0.1,0.2-0.3,0.1-0.5,0.1c-1.8-0.3-3.5,0-5.1,0.9C55.9,20.6,55.2,21,54.7,21.7z"/>
<path class="st4" d="M54.7,21.7c0.4-0.7,1.1-1.1,1.8-1.5c1.6-0.9,3.3-1.1,5.1-0.9c0.2,0,0.3,0.1,0.5-0.1c0.2,0.4,0.2,0.8,0.3,1.2
	c0.1,0.3-0.1,0.4-0.5,0.3c-0.5-0.2-1.1-0.4-1.6-0.5c-1.9-0.2-3.6,0.2-4.8,1.8c-0.2,0.2-0.3,0.3-0.5,0C54.9,22,54.7,21.9,54.7,21.7z"
	/>
</svg>
