<?xml version="1.0" encoding="utf-8"?>
<!-- Generator: Adobe Illustrator 22.1.0, SVG Export Plug-In . SVG Version: 6.00 Build 0)  -->
<svg version="1.1" id="图层_1" xmlns="http://www.w3.org/2000/svg" xmlns:xlink="http://www.w3.org/1999/xlink" x="0px" y="0px"
	 viewBox="0 0 64 64" style="enable-background:new 0 0 64 64;" xml:space="preserve">
<style type="text/css">
	.st0{fill:url(#SVGID_1_);}
	.st1{fill:url(#SVGID_2_);}
	.st2{fill:url(#SVGID_3_);}
</style>
<linearGradient id="SVGID_1_" gradientUnits="userSpaceOnUse" x1="13.9447" y1="47.8166" x2="50.6207" y2="26.6401" gradientTransform="matrix(1 0 0 -1 0 66)">
	<stop  offset="0.21" style="stop-color:#E6E7E7"/>
	<stop  offset="0.52" style="stop-color:#929496"/>
</linearGradient>
<path class="st0" d="M59.5,17.1C37.6,33.2,21.9,40,1.2,41.7l-0.6-0.4C30.8,27.1,39.8,6.2,39.8,6.2s13.5,4.1,24.2,10l-0.8,1.2
	L59.5,17.1z"/>
<linearGradient id="SVGID_2_" gradientUnits="userSpaceOnUse" x1="18.7185" y1="42.3091" x2="48.674" y2="24.308" gradientTransform="matrix(1 0 0 -1 0 66)">
	<stop  offset="0" style="stop-color:#BBBDBF"/>
	<stop  offset="0.57" style="stop-color:#58595B"/>
</linearGradient>
<path class="st1" d="M59.5,17.1C39,35,26.8,43.4,4,49.6l-0.6-0.4C30.5,27.9,39.8,6.2,39.8,6.2s13.5,4.1,24.2,10l-0.8,1.2L59.5,17.1z
	"/>
<linearGradient id="SVGID_3_" gradientUnits="userSpaceOnUse" x1="6.7564" y1="9.4592" x2="55.5573" y2="58.2554" gradientTransform="matrix(1 0 0 -1 0 66)">
	<stop  offset="8.000000e-02" style="stop-color:#58595B"/>
	<stop  offset="1" style="stop-color:#403F41"/>
</linearGradient>
<path class="st2" d="M59.5,17.1C42.7,37.3,30.4,47,8.2,57.8l-0.6-0.4C28.1,34.5,39.8,6.2,39.8,6.2s13.5,4.1,24.2,10l-0.8,1.2
	L59.5,17.1z"/>
</svg>
