<?xml version="1.0" encoding="utf-8"?>
<!-- Generator: Adobe Illustrator 22.1.0, SVG Export Plug-In . SVG Version: 6.00 Build 0)  -->
<svg version="1.1" id="图层_1" xmlns="http://www.w3.org/2000/svg" xmlns:xlink="http://www.w3.org/1999/xlink" x="0px" y="0px"
	 viewBox="0 0 16 16" style="enable-background:new 0 0 16 16;" xml:space="preserve">
<style type="text/css">
	.st0{fill:#C7C6C6;}
</style>
<path class="st0" d="M15.2,3.3L8.8,7.5C8.6,7.6,8.5,7.8,8.5,8c0,0.2,0.1,0.3,0.2,0.4l6.4,4.3c0.2,0.2,0.6,0.1,0.7-0.1
	c0.1-0.1,0.1-0.2,0.1-0.3V3.7c0-0.3-0.2-0.5-0.5-0.5C15.3,3.2,15.2,3.2,15.2,3.3z M14.9,11.3L10,8l4.9-3.3L14.9,11.3L14.9,11.3z
	 M0.9,3.3C0.6,3.1,0.3,3.2,0.1,3.4C0.1,3.5,0,3.6,0,3.7v8.5c0,0.4,0.5,0.7,0.8,0.4l6.4-4.3C7.4,8.3,7.5,8.1,7.5,8
	c0-0.2-0.1-0.3-0.2-0.4C7.2,7.5,0.9,3.3,0.9,3.3z M1.1,11.3V4.7L6,8L1.1,11.3L1.1,11.3z"/>
<path class="st0" d="M8,0.5c-0.3,0-0.5,0.2-0.5,0.5v13.8c0,0.3,0.3,0.5,0.6,0.5c0.3,0,0.5-0.2,0.5-0.5V1.1C8.5,0.8,8.3,0.5,8,0.5z"
	/>
</svg>
