<?xml version="1.0" encoding="utf-8"?>
<!-- Generator: Adobe Illustrator 22.1.0, SVG Export Plug-In . SVG Version: 6.00 Build 0)  -->
<svg version="1.1" id="图层_1" xmlns="http://www.w3.org/2000/svg" xmlns:xlink="http://www.w3.org/1999/xlink" x="0px" y="0px"
	 viewBox="0 0 64 64" style="enable-background:new 0 0 64 64;" xml:space="preserve">
<style type="text/css">
	.st0{fill:#E72F78;}
	.st1{fill:#36081C;}
	.st2{fill:#E7317B;}
</style>
<rect class="st0" width="64" height="64"/>
<rect x="5.1" y="5" class="st1" width="53.5" height="53.2"/>
<path class="st2" d="M44.4,30.8c0,3.3,0,6.7,0,10c0,1.3,0.5,1.8,1.7,1.7c2,0,2,0,2,2.1c0,2.4,0,2.4-2.4,2.4c-1.1,0-2.2,0-3.4,0
	c-1.9,0-2.8-0.8-3.2-2.6c-0.1-0.6-0.2-1.3-0.2-2c0-5.5,0-11,0-16.6c0-1.9,0-1.9-2-1.9c-1.4,0-2.9,0-4.3,0c-0.8,0-1.3,0.2-1.5,1
	c-0.7,2.9-1.5,5.9-2.3,8.8c-0.2,0.6,0,1,0.4,1.4c1.2,1.4,2.7,2.1,4.6,1.9c1.7-0.1,1.7,0.1,1.7,1.7c0,3.1,0.3,2.8-2.8,2.8
	c-1.1,0-2.2,0-3.2-0.1c-0.5,0-0.9-0.4-1.3-0.7c-1.2-1-1.2-1-1.6,0.6c-0.3,1.2-0.6,2.3-1,3.5c-0.6,1.7-1.6,2.3-3.4,2.3
	c-1.8,0-3.6,0-5.4,0c-0.9,0-1.3-0.3-1.3-1.2c0.1-4-0.4-3.3,3.2-3.3c1.4,0,2.1-0.5,2.4-1.8c0.3-1.5,0.7-2.9,1.2-4.4
	c0.3-0.9,0-1.5-0.6-2.1c-1.5-1.5-2.9-3-4.4-4.5c-0.2-0.2-0.6-0.4-0.4-0.8c0.1-0.4,0.5-0.3,0.8-0.3c1.3,0,2.7,0,4,0
	c0.3,0,0.6,0.1,0.9,0.2c1.4,0.6,1.4,0.6,1.9-1c0.2-0.9,0.4-1.8,0.7-2.7c0.4-1.1,0-1.4-1.1-1.4c-2.1,0-4.3,0-6.5,0
	c-1.2,0-1.7-0.3-1.7-1.6c0.1-3.7-0.4-3.2,3.2-3.2c2.1,0,4.2,0,6.3,0c0.9,0,1.4-0.3,1.7-1.2c1.1-3.8,0.2-3.2,4.5-3.3
	c1.9,0,1.9,0,1.5,1.9c-0.7,2.6-0.7,2.6,2.1,2.6c2.4,0,4.8,0,7.3,0c1.1,0,1.5,0.4,1.5,1.5C44.4,24,44.4,27.4,44.4,30.8
	C44.4,30.8,44.4,30.8,44.4,30.8z"/>
</svg>
