<?xml version="1.0" encoding="utf-8"?>
<!-- Generator: Adobe Illustrator 22.1.0, SVG Export Plug-In . SVG Version: 6.00 Build 0)  -->
<svg version="1.1" id="图层_1" xmlns="http://www.w3.org/2000/svg" xmlns:xlink="http://www.w3.org/1999/xlink" x="0px" y="0px"
	 viewBox="0 0 16 16" style="enable-background:new 0 0 16 16;" xml:space="preserve">
<style type="text/css">
	.st0{fill:#6D6D6D;}
</style>
<path class="st0" d="M8.6,8L8.5,7.8L8.4,7.9L8.6,8z"/>
<path class="st0" d="M6.2,8.8H1c-0.5,0-0.9,0.4-0.9,0.9v5.2c0,0.5,0.4,0.9,0.9,0.9h5.2c0.5,0,0.9-0.4,0.9-0.9V9.6
	C7.1,9.2,6.7,8.8,6.2,8.8z M6.2,14.9H1V9.7h5.2V14.9z"/>
<path class="st0" d="M0.9,7.8h5.2C6.7,7.8,7,7.5,7,7V1.7c0-0.5-0.4-0.9-0.9-0.9l-5.2,0C0.4,0.8,0,1.2,0,1.7V7C0,7.5,0.4,7.8,0.9,7.8
	z M0.9,1.7h5.2v5.2H0.9V1.7z"/>
<path class="st0" d="M14.7,8.7H9.4C9,8.7,8.6,9.1,8.6,9.6v5.2c0,0.5,0.4,0.9,0.9,0.9h5.2c0.5,0,0.9-0.4,0.9-0.9V9.6
	C15.6,9.1,15.2,8.7,14.7,8.7z M14.7,14.8H9.5V9.6h5.2L14.7,14.8z"/>
<path class="st0" d="M15.7,3.5l-3.1-3.1c-0.2-0.2-0.4-0.2-0.6-0.2c-0.2,0-0.4,0.1-0.6,0.2L8.4,3.5C8.2,3.7,8.2,3.9,8.2,4.1
	s0.1,0.4,0.2,0.6l3.1,3.1C11.6,8,11.8,8,12.1,8c0.2,0,0.4-0.1,0.6-0.2l3.1-3.1C16,4.4,16,3.9,15.7,3.5z M12.1,7L9.2,4.1l2.9-2.9
	l2.9,2.9L12.1,7z"/>
</svg>
