<?xml version="1.0" encoding="utf-8"?>
<!-- Generator: Adobe Illustrator 22.1.0, SVG Export Plug-In . SVG Version: 6.00 Build 0)  -->
<svg version="1.1" id="图层_1" xmlns="http://www.w3.org/2000/svg" xmlns:xlink="http://www.w3.org/1999/xlink" x="0px" y="0px"
	 viewBox="0 0 16 16" style="enable-background:new 0 0 16 16;" xml:space="preserve">
<style type="text/css">
	.st0{fill:#6D6D6D;}
</style>
<path class="st0" d="M16,0h-4.3v4.3h1.7c0,0.4,0.1,1.2,0,2.1c-0.1,1.1-0.4,2.4-1.2,2.8C11.3,9.7,10,9.1,8.2,7.7
	c-1-0.9-2-1.4-2.8-1.7C4.7,5.7,4,5.7,3.4,6c-1,0.5-1.5,1.7-1.7,3.7c-0.1,0.8-0.1,1.5-0.1,2H0V16h4.3v-4.3H2.5c0-0.5,0-1.2,0-1.9
	c0.1-1.1,0.4-2.5,1.3-3c0.8-0.4,2.1,0.1,3.8,1.5c1.1,0.9,2,1.5,2.8,1.8c0.8,0.3,1.5,0.2,2.1-0.1c0.9-0.5,1.5-1.7,1.7-3.6
	c0.1-0.9,0-1.7,0-2.2H16L16,0L16,0z M3.4,15.1H0.9v-2.5h2.5V15.1z M15.1,3.4h-2.5V0.9h2.5V3.4z"/>
</svg>
