<?xml version="1.0" encoding="utf-8"?>
<!-- Generator: Adobe Illustrator 22.1.0, SVG Export Plug-In . SVG Version: 6.00 Build 0)  -->
<svg version="1.1" id="图层_1" xmlns="http://www.w3.org/2000/svg" xmlns:xlink="http://www.w3.org/1999/xlink" x="0px" y="0px"
	 viewBox="0 0 64 64" style="enable-background:new 0 0 64 64;" xml:space="preserve">
<style type="text/css">
	.st0{fill:#0090FF;}
</style>
<polygon class="st0" points="29.8,2.1 20.1,7.8 20.1,19.2 10.2,24.8 10.2,35.7 0.6,42.1 0.6,52.7 19.9,41.8 19.9,30.4 29.8,24.8 "/>
<polygon class="st0" points="2.7,56.4 12.6,62 22.4,56.3 32.2,62.1 41.7,56.6 52,61.7 61.2,56.4 42.1,45.1 32.2,50.8 22.4,45.1 "/>
<polygon class="st0" points="34.2,1.9 43.9,7.7 43.9,19 53.8,24.7 53.8,35.6 63.4,41.9 63.4,52.5 44.1,41.6 44.1,30.3 34.2,24.7 "/>
</svg>
