<?xml version="1.0" encoding="utf-8"?>
<!-- Generator: Adobe Illustrator 22.1.0, SVG Export Plug-In . SVG Version: 6.00 Build 0)  -->
<svg version="1.1" id="图层_1" xmlns="http://www.w3.org/2000/svg" xmlns:xlink="http://www.w3.org/1999/xlink" x="0px" y="0px"
	 viewBox="0 0 16 16" style="enable-background:new 0 0 16 16;" xml:space="preserve">
<style type="text/css">
	.st0{fill:#6D6D6D;}
</style>
<path class="st0" d="M15.4,13.8H3.3c-0.3,0-0.6-0.3-0.6-0.7V4.4c0-0.4,0.3-0.7,0.6-0.7h12.1C15.7,3.7,16,4,16,4.4v8.7
	C16,13.5,15.7,13.8,15.4,13.8z M3.4,13h11.8V4.5H3.4C3.4,4.5,3.4,13,3.4,13z"/>
<path class="st0" d="M5.8,12.6H4.2c-0.2,0-0.4-0.2-0.4-0.4c0-0.2,0.2-0.4,0.4-0.4h1.7c0.2,0,0.4,0.2,0.4,0.4
	C6.2,12.4,6.1,12.6,5.8,12.6z M8.7,12.6H7.1c-0.2,0-0.4-0.2-0.4-0.4c0-0.2,0.2-0.4,0.4-0.4h1.7c0.2,0,0.4,0.2,0.4,0.4
	C9.1,12.4,8.9,12.6,8.7,12.6z M11.6,12.6H9.9c-0.2,0-0.4-0.2-0.4-0.4c0-0.2,0.2-0.4,0.4-0.4h1.7c0.2,0,0.4,0.2,0.4,0.4
	C12,12.4,11.8,12.6,11.6,12.6z M14.5,12.6h-1.7c-0.2,0-0.4-0.2-0.4-0.4c0-0.2,0.2-0.4,0.4-0.4h1.7c0.2,0,0.4,0.2,0.4,0.4
	C14.8,12.4,14.7,12.6,14.5,12.6z"/>
<path class="st0" d="M5.8,5.7H4.2C4,5.7,3.8,5.5,3.8,5.3S4,5,4.2,5h1.7c0.2,0,0.4,0.2,0.4,0.4S6.1,5.7,5.8,5.7z M8.7,5.7H7.1
	c-0.2,0-0.4-0.2-0.4-0.4S6.8,5,7.1,5h1.7c0.2,0,0.4,0.2,0.4,0.4S8.9,5.7,8.7,5.7z M11.6,5.7H9.9c-0.2,0-0.4-0.2-0.4-0.4S9.7,5,9.9,5
	h1.7C11.8,5,12,5.1,12,5.3S11.8,5.7,11.6,5.7z M14.5,5.7h-1.7c-0.2,0-0.4-0.2-0.4-0.4S12.6,5,12.8,5h1.7c0.2,0,0.4,0.2,0.4,0.4
	S14.7,5.7,14.5,5.7z"/>
<path class="st0" d="M2.4,9.7H1.5c-0.2,0-0.3-0.2-0.3-0.4C1.2,9.2,1.3,9,1.5,9h0.9L2.4,9.7L2.4,9.7z M3.2,2.8H1.6
	c-0.2,0-0.4-0.2-0.4-0.4c0-0.2,0.2-0.4,0.4-0.4h1.7c0.2,0,0.4,0.2,0.4,0.4C3.6,2.6,3.4,2.8,3.2,2.8z M6.1,2.8H4.4
	c-0.2,0-0.4-0.2-0.4-0.4c0-0.2,0.2-0.4,0.4-0.4h1.7c0.2,0,0.4,0.2,0.4,0.4C6.5,2.6,6.3,2.8,6.1,2.8z M9,2.8H7.3
	c-0.2,0-0.4-0.2-0.4-0.4c0-0.2,0.2-0.4,0.4-0.4H9c0.2,0,0.4,0.2,0.4,0.4C9.4,2.6,9.2,2.8,9,2.8z M11.8,2.8h-1.7
	c-0.2,0-0.4-0.2-0.4-0.4c0-0.2,0.2-0.4,0.4-0.4h1.7c0.2,0,0.4,0.2,0.4,0.4C12.2,2.6,12.1,2.8,11.8,2.8z"/>
<path class="st0" d="M2.4,10.1H0.8V1.7h11.8v1.8h0.8V1.5c0-0.4-0.3-0.7-0.6-0.7H0.6C0.3,0.9,0,1.2,0,1.5v8.7c0,0.4,0.3,0.7,0.6,0.7
	h1.8V10.1z"/>
<path class="st0" d="M8.2,7.1L11,8.8l-2.8,1.6V7.1z"/>
</svg>
