<?xml version="1.0" encoding="utf-8"?>
<!-- Generator: Adobe Illustrator 22.1.0, SVG Export Plug-In . SVG Version: 6.00 Build 0)  -->
<svg version="1.1" id="图层_1" xmlns="http://www.w3.org/2000/svg" xmlns:xlink="http://www.w3.org/1999/xlink" x="0px" y="0px"
	 viewBox="0 0 64 64" style="enable-background:new 0 0 64 64;" xml:space="preserve">
<style type="text/css">
	.st0{fill:#37BF4C;}
	.st1{fill:#FFFFFF;}
</style>
<path class="st0" d="M63,32c0,5.5-1.5,10.7-4,15.2c-2.8,5-6.9,9-11.8,11.8c-4.5,2.5-9.7,4-15.2,4s-10.7-1.5-15.2-4
	c-5-2.8-9-6.9-11.8-11.8C2.5,42.7,1,37.5,1,32s1.5-10.7,4-15.2c2.8-5,6.9-9,11.8-11.8c4.5-2.5,9.7-4,15.2-4s10.7,1.5,15.2,4
	c5,2.8,9,6.9,11.8,11.8C61.5,21.3,63,26.5,63,32z"/>
<path class="st1" d="M26.1,15.9C18.9,15.8,13,21,13,27.3c0,3.5,1.9,6.7,4.8,8.8l-1,3.7c0,0-0.4,1.2,0.9,0.7l3.7-2.6
	c1.6,0.5,3.3,0.8,4.9,0.8v0.1h0.3c-0.1-0.8-0.3-1.6-0.3-2.5c0-5.8,5.5-10.7,12.2-10.7h0.7C38.3,20.1,32.7,15.9,26.1,15.9z
	 M21.1,25.2c-0.9,0-1.6-0.7-1.6-1.6c0-0.9,0.7-1.6,1.6-1.6c0.8,0,1.6,0.8,1.6,1.6C22.7,24.5,22,25.2,21.1,25.2z M31.1,25.2
	c-0.8,0.1-1.6-0.7-1.6-1.6c0-0.9,0.7-1.6,1.6-1.6c0.9,0,1.6,0.8,1.6,1.6C32.7,24.5,32,25.2,31.1,25.2z"/>
<path class="st1" d="M51,37.6c0-5.3-4.7-9.5-10.6-9.9c-0.3-0.1-0.5-0.1-0.8-0.1c-6.3,0-11.4,4.4-11.4,9.9c0,0.8,0,1.7,0.3,2.4
	c1.3,4.3,5.7,7.5,11.1,7.5c1.8,0,3.5-0.3,5-1.1l2.6,1.7c0,0,0.8,0.4,0.7-0.4l-0.7-2.7C49.6,43.2,51.1,40.5,51,37.6z M35.5,35.3
	c-0.9,0-1.6-0.7-1.6-1.6c0-0.9,0.7-1.6,1.6-1.6c1,0,1.6,0.7,1.6,1.6C37.1,34.5,36.4,35.3,35.5,35.3z M43.7,35.3
	c-0.8,0-1.6-0.7-1.6-1.6c0-0.9,0.7-1.6,1.6-1.6c1,0,1.7,0.7,1.6,1.6C45.4,34.5,44.5,35.3,43.7,35.3z"/>
</svg>
