<?xml version="1.0" encoding="utf-8"?>
<!-- Generator: Adobe Illustrator 22.1.0, SVG Export Plug-In . SVG Version: 6.00 Build 0)  -->
<svg version="1.1" id="图层_1" xmlns="http://www.w3.org/2000/svg" xmlns:xlink="http://www.w3.org/1999/xlink" x="0px" y="0px"
	 viewBox="0 0 64 64" style="enable-background:new 0 0 64 64;" xml:space="preserve">
<style type="text/css">
	.st0{fill:#D52B2B;}
	.st1{fill:#FFFFFF;}
</style>
<circle class="st0" cx="32" cy="32" r="31"/>
<path class="st1" d="M27,32.7c-6.6,0.8-5.8,6.9-5.8,6.9s-0.1,2,1.7,3c3.9,2.1,7.8,0.9,9.8-1.7C34.7,38.4,33.5,32.1,27,32.7z
	 M25.3,41.5C24,41.6,23,40.9,23,39.9s0.9-2.1,2.1-2.2c1.5-0.2,2.4,0.6,2.4,1.7C27.5,40.4,26.5,41.4,25.3,41.5z M29.1,38.1
	c-0.4,0.3-0.9,0.2-1.2-0.1c-0.2-0.4-0.1-0.9,0.3-1.2c0.5-0.4,1-0.2,1.2,0.1C29.7,37.3,29.5,37.8,29.1,38.1z"/>
<path class="st1" d="M42,31.4c-1.5-0.3-0.8-1.2-0.8-1.2s1.5-2.5-0.3-4.3c-2.2-2.2-7.7,0.3-7.7,0.3c-2.1,0.6-1.5-0.3-1.2-1.9
	c0-1.9-0.6-5.1-6.2-3.2c-5.5,1.8-10.3,8.5-10.3,8.5c-3.4,4.4-2.9,7.8-2.9,7.8c0.9,7.5,8.9,9.6,15.1,10.1c6.5,0.5,15.4-2.2,18.1-7.9
	C48.4,33.9,43.6,31.7,42,31.4z M28.2,45.5c-6.5,0.3-11.8-2.9-11.8-7.3c0-4.4,5.3-7.9,11.8-8.2c6.6-0.3,11.8,2.3,11.8,6.8
	C40,41.2,34.7,45.2,28.2,45.5z"/>
<path class="st1" d="M40.5,23.8c-0.6,0-1.1-0.5-1.1-1.1c0-0.6,0.5-1.1,1.1-1.1c0,0,6.6-1.2,5.9,6c0,0.1,0,0.1,0,0.2
	c-0.1,0.5-0.5,0.9-1,0.9c-0.6,0-1.1-0.5-1.1-1.1C44.2,27.6,45.2,22.8,40.5,23.8z"/>
<path class="st1" d="M51.8,29.5c-0.2,1.2-0.8,1.3-1.5,1.3c-0.9,0-1.5-0.5-1.5-1.4c0-0.7,0.3-1.5,0.3-1.5c0.1-0.3,0.8-2.2-0.5-5.2
	c-2.4-4-7.2-4-7.7-3.8c-0.6,0.2-1.5,0.4-1.5,0.4c-0.9,0-1.5-0.7-1.5-1.6c0-0.7,0.5-1.3,1.2-1.5c0,0,0,0,0.1,0c0.1,0,0.1-0.1,0.1-0.1
	c0.7-0.2,3-0.6,5.3-0.1C48.6,17,54.3,21,51.8,29.5z"/>
</svg>
