<?xml version="1.0" encoding="utf-8"?>
<!-- Generator: Adobe Illustrator 22.1.0, SVG Export Plug-In . SVG Version: 6.00 Build 0)  -->
<svg version="1.1" id="图层_1" xmlns="http://www.w3.org/2000/svg" xmlns:xlink="http://www.w3.org/1999/xlink" x="0px" y="0px"
	 viewBox="0 0 64 64" style="enable-background:new 0 0 64 64;" xml:space="preserve">
<style type="text/css">
	.st0{fill:#00A1E9;}
	.st1{fill:#FFFFFF;}
</style>
<polygon class="st0" points="56,6.5 56,6.6 46.7,12.3 31.9,8.7 17.3,12.3 8,6.5 32,1 "/>
<path class="st1" d="M57.7,7L37.6,19.4c-1.5-1.3-3.5-2-5.6-2c-2.1,0-4.1,0.8-5.6,2L6.3,7L0.1,8.4l10.3,30.3l21,22.9V29.6
	c-1.8-0.3-3.1-1.8-3.1-3.7c0-2.1,1.7-3.8,3.7-3.8c2.1,0,3.8,1.7,3.8,3.8c0,1.9-1.4,3.4-3.2,3.7v31.9l20.9-22.9L63.9,8.4L57.7,7z
	 M17.3,35.3l-6.1-16.7l12,6.6c0,0.3-0.1,0.7-0.1,1c0,3.5,2,6.5,4.9,7.9c0,2,0,13,0,13L17.3,35.3z M46.7,35.3L35.9,47v-13
	c2.9-1.5,4.9-4.4,4.9-7.9c0-0.3,0-0.7-0.1-1l12.1-6.7L46.7,35.3z"/>
</svg>
