<?xml version="1.0" encoding="utf-8"?>
<!-- Generator: Adobe Illustrator 22.1.0, SVG Export Plug-In . SVG Version: 6.00 Build 0)  -->
<svg version="1.1" id="图层_1" xmlns="http://www.w3.org/2000/svg" xmlns:xlink="http://www.w3.org/1999/xlink" x="0px" y="0px"
	 viewBox="0 0 64 64" style="enable-background:new 0 0 64 64;" xml:space="preserve">
<style type="text/css">
	.st0{fill:#E71F19;}
	.st1{fill:#F5AA15;}
	.st2{fill:#040000;}
</style>
<path class="st0" d="M54.5,37.7c-1.5-4.4-6-6-7-6.1v0c-1-0.1-2-0.7-1.3-1.8c0.7-1.2,1.9-4.6-0.5-7c-2.4-2.4-7.7-1.5-11.4,0.1
	c-3.7,1.6-3.5,0.5-3.4-0.6c0.1-1.1,2.1-7.4-4-8.1c-8.1-1-18.4,9-22.1,14.7c-5.5,8.7-4.6,14.6-4.6,14.6h0C0.9,51.5,12.8,58,27.5,58
	c12.6,0,23.2-4.8,26.3-11.3c0,0,0,0,0-0.1c0.3-0.7,0.6-1.4,0.7-2.1C55,42.7,55.3,40.2,54.5,37.7z M25.7,54.4
	c-10.4,0-18.9-5.6-18.9-12.5c0-6.9,8.4-12.5,18.9-12.5c10.4,0,18.9,5.6,18.9,12.5C44.5,48.9,36.1,54.4,25.7,54.4z"/>
<path class="st1" d="M51.3,26.7c0.2,0.1,0.4,0.1,0.6,0.1c0.6,0,1.2-0.4,1.4-0.9c0.4-0.9,0.6-1.9,0.6-2.9c0-4.2-3.4-7.5-7.5-7.5
	c-1,0-2,0.2-2.9,0.6c-0.8,0.3-1.1,1.2-0.8,2c0.3,0.8,1.2,1.1,2,0.8c0.6-0.2,1.1-0.4,1.7-0.4c2.5,0,4.5,2,4.5,4.5
	c0,0.6-0.1,1.2-0.4,1.7C50.2,25.5,50.5,26.4,51.3,26.7C51.3,26.7,51.3,26.7,51.3,26.7z"/>
<path class="st1" d="M46.3,6c-1.7,0-3.4,0.2-5,0.7c-1.2,0.4-1.9,1.6-1.6,2.9c0.4,1.2,1.6,1.9,2.9,1.6c1.2-0.4,2.5-0.5,3.7-0.5
	c7.2,0,13.1,5.9,13.1,13.1c0,1.3-0.2,2.6-0.6,3.8c-0.4,1.2,0.3,2.5,1.5,2.9c0.2,0.1,0.5,0.1,0.7,0.1c1,0,1.9-0.6,2.2-1.6
	c0.5-1.7,0.8-3.4,0.8-5.1C64,14,56.1,6,46.3,6z"/>
<path class="st2" d="M23.9,34c-5.6,0-10.1,3.9-10.1,8.8c0,4.9,4.5,8.8,10.1,8.8c5.6,0,10.1-3.9,10.1-8.8C34,37.9,29.5,34,23.9,34z
	 M20.6,48.5c-1.9,0-3.5-1.6-3.5-3.5s1.6-3.5,3.5-3.5c1.9,0,3.5,1.6,3.5,3.5C24.2,47,22.6,48.5,20.6,48.5z M27.2,42.2
	c-0.4,0.7-1.3,1-1.9,0.7c-0.6-0.4-0.8-1.2-0.4-2c0.4-0.7,1.3-1,1.9-0.7C27.5,40.6,27.7,41.5,27.2,42.2z"/>
</svg>
