<?xml version="1.0" encoding="utf-8"?>
<!-- Generator: Adobe Illustrator 22.1.0, SVG Export Plug-In . SVG Version: 6.00 Build 0)  -->
<svg version="1.1" id="图层_1" xmlns="http://www.w3.org/2000/svg" xmlns:xlink="http://www.w3.org/1999/xlink" x="0px" y="0px"
	 viewBox="0 0 64 64" style="enable-background:new 0 0 64 64;" xml:space="preserve">
<style type="text/css">
	.st0{fill:#20C5FB;}
	.st1{fill:#FFFFFF;}
</style>
<circle class="st0" cx="32" cy="32" r="31"/>
<path class="st1" d="M50.9,20.2c-0.1,0.2-0.1,0.3-0.2,0.3c-1,1.4-2.2,2.6-3.6,3.7C47,24.3,47,24.3,47,24.4v1.4
	c-0.1,1.3-0.2,2.5-0.4,3.8c-0.5,2.4-1.4,4.8-2.6,6.9c-1.2,2.1-2.7,3.9-4.5,5.6c-3,2.7-6.7,4.4-10.7,5c-0.7,0.1-1.4,0.2-2,0.3
	c-0.1,0-0.1-0.1-0.2,0.1h-0.3c-0.1-0.1-0.1-0.1-0.3,0h-2.1c-0.1-0.1-0.1-0.1-0.1,0h-0.4c-0.1-0.1-0.1-0.1-0.2-0.1
	c-1.3-0.1-2.6-0.3-3.8-0.6c-2-0.5-3.9-1.3-5.6-2.3c-0.3-0.1-0.4-0.3-0.7-0.4c4.3,0.4,8.1-0.6,11.5-3.2c-4-0.2-6.5-2.9-7.3-5.4
	c1.1,0.2,2.3,0.2,3.4-0.1c-1.8-0.4-3.3-1.4-4.4-2.8c-1.2-1.4-1.7-3.1-1.7-4.9c0.6,0.3,1.1,0.6,1.7,0.7c0.6,0.2,1.2,0.3,1.8,0.3
	c-4.2-3.1-4.1-7.9-2.4-10.5c1.8,2.1,3.8,3.9,6.2,5.3c2.9,1.7,6.3,2.6,9.6,2.8c0.1,0,0.1,0,0.1-0.1c-0.1-0.4-0.1-0.8-0.2-1.2
	c-0.1-1.7,0.3-3.3,1.3-4.7c1.3-2,3.1-3.2,5.5-3.5c0.1,0,0.1,0,0.1-0.1h0.2c0.1,0.1,0.1,0.1,0.1,0h1.2c0.1,0.1,0.1,0.1,0.1,0h0.2
	c0,0.1,0.1,0.1,0.1,0.1c0.2,0.1,0.4,0.1,0.6,0.1c1.5,0.3,2.9,1.1,3.9,2.1c0.1,0.1,0.1,0.1,0.3,0.1c1.3-0.3,2.6-0.7,3.8-1.3
	c0.3-0.2,0.7-0.4,1.1-0.6c-0.3,0.9-0.8,1.7-1.3,2.4c-0.6,0.8-1.3,1.3-2.1,1.8C48,21.2,49.5,20.8,50.9,20.2z"/>
</svg>
