<?xml version="1.0" encoding="utf-8"?>
<!-- Generator: Adobe Illustrator 22.1.0, SVG Export Plug-In . SVG Version: 6.00 Build 0)  -->
<svg version="1.1" id="图层_1" xmlns="http://www.w3.org/2000/svg" xmlns:xlink="http://www.w3.org/1999/xlink" x="0px" y="0px"
	 viewBox="0 0 16 16" style="enable-background:new 0 0 16 16;" xml:space="preserve">
<style type="text/css">
	.st0{fill:#C7C6C6;}
</style>
<path class="st0" d="M6.6,8.6H0.9C0.4,8.6,0,9,0,9.5v5.7C0,15.6,0.4,16,0.9,16h5.7c0.4,0,0.9-0.4,0.9-0.9V9.5
	C7.5,8.9,7.1,8.6,6.6,8.6z M6.3,14.4c0,0.2-0.2,0.4-0.4,0.4H1.6c-0.2,0-0.4-0.2-0.4-0.4v-4.2c0-0.2,0.2-0.4,0.4-0.4h4.2
	c0.2,0,0.4,0.2,0.4,0.4C6.3,10.1,6.3,14.4,6.3,14.4z M12.3,7.4c2.1,0,3.7-1.6,3.7-3.7S14.4,0,12.3,0S8.6,1.6,8.6,3.7
	S10.2,7.4,12.3,7.4z M10.6,1.9c0.4-0.4,1.1-0.8,1.9-0.8c0.7,0,1.3,0.2,1.9,0.8C14.7,2.3,15,2.9,15,3.7c0,0.7-0.2,1.3-0.8,1.9
	c-0.4,0.4-1.1,0.8-1.9,0.8c-0.7,0-1.3-0.2-1.9-0.8c-0.4-0.4-0.8-1.1-0.8-1.9C9.8,3,10,2.4,10.6,1.9z M6.6,0H0.9C0.4,0,0,0.4,0,0.9
	v5.7C0,7,0.4,7.4,0.9,7.4h5.7C7,7.4,7.4,7,7.4,6.5V0.9C7.5,0.3,7.1,0,6.6,0z M6.3,5.8c0,0.2-0.2,0.4-0.4,0.4H1.6
	c-0.2,0-0.4-0.1-0.4-0.4V1.5c0-0.2,0.2-0.4,0.4-0.4h4.2c0.2,0,0.4,0.2,0.4,0.4C6.3,1.5,6.3,5.8,6.3,5.8z M15.2,8.6H9.5
	C9,8.6,8.6,8.9,8.6,9.5v5.7C8.6,15.6,9,16,9.5,16h5.7c0.4,0,0.9-0.4,0.9-0.9V9.5C16,8.9,15.7,8.6,15.2,8.6z M14.9,14.4
	c0,0.2-0.2,0.4-0.4,0.4h-4.2c-0.2,0-0.4-0.2-0.4-0.4v-4.2c0-0.2,0.2-0.4,0.4-0.4h4.2c0.2,0,0.4,0.2,0.4,0.4
	C14.9,10.1,14.9,14.4,14.9,14.4z"/>
</svg>
