<?xml version="1.0" encoding="utf-8"?>
<!-- Generator: Adobe Illustrator 22.1.0, SVG Export Plug-In . SVG Version: 6.00 Build 0)  -->
<svg version="1.1" id="图层_1" xmlns="http://www.w3.org/2000/svg" xmlns:xlink="http://www.w3.org/1999/xlink" x="0px" y="0px"
	 viewBox="0 0 16 16" style="enable-background:new 0 0 16 16;" xml:space="preserve">
<style type="text/css">
	.st0{fill:#C7C6C6;}
</style>
<path class="st0" d="M15.4,4.3L8.9,0.9c-0.3-0.1-0.6-0.1-0.9,0L0.6,4.3C0.3,4.4,0,4.8,0,5.2C0,5.6,0.3,6,0.6,6.1l2,0.9v5.9
	c0,0.4,0.2,0.7,0.6,0.8c0.7,0.3,2.7,1,5.1,1c1.5,0,3.3-0.3,5-1c0.3-0.1,0.4-0.4,0.4-0.7c0-1.6,0.2-6.1,0.2-6.2c0,0,0,0,0,0l0.7-0.3
	v2.8c0,0.2,0.2,0.3,0.3,0.3c0.2,0,0.3-0.1,0.3-0.3V6.2l0.1-0.1C15.8,5.9,16,5.6,16,5.2C16,4.8,15.8,4.4,15.4,4.3z M13.1,13
	C13.1,13.1,13.1,13.1,13.1,13c-4.4,2-8.5,0.6-9.7,0.1c-0.1,0-0.1-0.1-0.1-0.2V7.4l4.6,2.1c0.1,0.1,0.3,0.1,0.4,0.1
	c0.2,0,0.3,0,0.5-0.1l4.4-2.3C13.3,8.3,13.2,11.7,13.1,13z M8.5,8.9c-0.1,0-0.2,0-0.3,0L3.2,6.5l-0.1,0l-2.2-1
	C0.7,5.4,0.7,5.3,0.7,5.2c0-0.1,0-0.2,0.2-0.3l7.3-3.4c0.1,0,0.2,0,0.3,0l6.6,3.4c0.1,0.1,0.2,0.2,0.2,0.3s-0.1,0.3-0.2,0.3
	l-0.3,0.1L8.5,8.9z"/>
</svg>
