<?xml version="1.0" encoding="utf-8"?>
<!-- Generator: Adobe Illustrator 22.1.0, SVG Export Plug-In . SVG Version: 6.00 Build 0)  -->
<svg version="1.1" id="图层_1" xmlns="http://www.w3.org/2000/svg" xmlns:xlink="http://www.w3.org/1999/xlink" x="0px" y="0px"
	 viewBox="0 0 16 16" style="enable-background:new 0 0 16 16;" xml:space="preserve">
<style type="text/css">
	.st0{fill:#C7C6C6;}
</style>
<path class="st0" d="M9.1,11.9H4.8c-0.2,0-0.4,0.1-0.4,0.4c0,0.2,0.1,0.4,0.4,0.4h4.3c0.2,0,0.4-0.1,0.4-0.4
	C9.5,12.1,9.2,11.9,9.1,11.9z M11.2,9H4.8C4.5,9,4.4,9.2,4.4,9.4c0,0.2,0.1,0.4,0.4,0.4h6.5c0.2,0,0.4-0.1,0.4-0.4
	C11.6,9.2,11.4,9,11.2,9z M4.8,3.9h1.8c0.2,0,0.4-0.1,0.4-0.4c0-0.2-0.1-0.4-0.4-0.4H4.8c-0.2,0-0.4,0.1-0.4,0.4
	C4.4,3.8,4.5,3.9,4.8,3.9z M10.9,0H9.8H3C2.2,0,1.5,0.7,1.5,1.5v13C1.5,15.3,2.2,16,3,16h10.1c0.8,0,1.5-0.7,1.5-1.5V4.7V3.9L10.9,0
	z M13.7,14.4c0,0.4-0.3,0.7-0.7,0.7H3c-0.4,0-0.7-0.3-0.7-0.7v-13C2.3,1,2.6,0.7,3,0.7h6.5v3.6C9.5,4.7,9.8,5,10.2,5h3.6L13.7,14.4
	L13.7,14.4z M10.1,4.3V0.7h0.4l3.2,3.6L10.1,4.3z M4.4,6.4c0,0.2,0.1,0.4,0.4,0.4h6.5c0.2,0,0.4-0.1,0.4-0.4c0-0.2-0.1-0.4-0.4-0.4
	l-6.5,0C4.5,6.1,4.4,6.3,4.4,6.4z"/>
</svg>
