<?xml version="1.0" encoding="utf-8"?>
<!-- Generator: Adobe Illustrator 22.1.0, SVG Export Plug-In . SVG Version: 6.00 Build 0)  -->
<svg version="1.1" id="图层_1" xmlns="http://www.w3.org/2000/svg" xmlns:xlink="http://www.w3.org/1999/xlink" x="0px" y="0px"
	 viewBox="0 0 16 16" style="enable-background:new 0 0 16 16;" xml:space="preserve">
<style type="text/css">
	.st0{fill:#C7C6C6;}
</style>
<path class="st0" d="M12,12V9.5C12,9.2,12.2,9,12.5,9S13,9.2,13,9.5V12h2.5c0.3,0,0.5,0.2,0.5,0.5S15.8,13,15.5,13H13v2.5
	c0,0.3-0.2,0.5-0.5,0.5S12,15.8,12,15.5V13H9.5C9.2,13,9,12.8,9,12.5S9.2,12,9.5,12H12z M10,16h1.5H1c-0.6,0-1-0.4-1-1V5l4-5h8
	c0.6,0,1,0.4,1,1v6c0,0.3-0.2,0.5-0.5,0.5S12,7.3,12,7V1H5v5H1v9h9c0.3,0,0.5,0.2,0.5,0.5S10.3,16,10,16z M1.5,5H4V1.5L1.5,5z"/>
</svg>
