<?xml version="1.0" encoding="utf-8"?>
<!-- Generator: Adobe Illustrator 22.1.0, SVG Export Plug-In . SVG Version: 6.00 Build 0)  -->
<svg version="1.1" id="图层_1" xmlns="http://www.w3.org/2000/svg" xmlns:xlink="http://www.w3.org/1999/xlink" x="0px" y="0px"
	 viewBox="0 0 16 16" style="enable-background:new 0 0 16 16;" xml:space="preserve">
<style type="text/css">
	.st0{fill:#6D6D6D;}
</style>
<path class="st0" d="M14.9,0H5.3C4.6,0,4.1,0.5,4.1,1.1v3.2C1.7,5,0,7.3,0,10c0,3.3,2.7,6,6,6c2.7,0,4.9-1.7,5.7-4.1h3.2
	c0.6,0,1.1-0.5,1.1-1.1V1.1C16,0.5,15.5,0,14.9,0z M10.5,11.9c-0.2,0.6-0.6,1.1-1.1,1.5c-0.4,0.5-1,0.8-1.5,1
	c-0.6,0.3-1.2,0.4-1.9,0.4c-0.7,0-1.3-0.1-1.9-0.4c-0.6-0.3-1.1-0.6-1.5-1s-0.8-1-1-1.5c-0.3-0.6-0.4-1.2-0.4-1.9
	c0-0.7,0.1-1.3,0.4-1.9c0.3-0.6,0.6-1.1,1-1.5c0.5-0.5,1-0.8,1.5-1.1c0,0,0,0,0,0c0.4-0.1,0.7-0.3,1.1-0.3c0.2,0,0.5-0.1,0.8-0.1
	c0.7,0,1.3,0.1,1.9,0.4C8.5,5.7,9,6.1,9.5,6.5c0.5,0.4,0.8,1,1.1,1.5c0.3,0.6,0.4,1.2,0.4,1.9c0,0.3,0,0.5-0.1,0.8
	C10.8,11.1,10.7,11.5,10.5,11.9C10.5,11.9,10.5,11.9,10.5,11.9z M14.9,10.7H12c0-0.2,0.1-0.5,0.1-0.8c0-3.3-2.7-6-6-6
	C5.8,4,5.5,4,5.3,4V1.1h9.6V10.7z"/>
</svg>
