<?xml version="1.0" encoding="utf-8"?>
<!-- Generator: Adobe Illustrator 22.1.0, SVG Export Plug-In . SVG Version: 6.00 Build 0)  -->
<svg version="1.1" id="图层_1" xmlns="http://www.w3.org/2000/svg" xmlns:xlink="http://www.w3.org/1999/xlink" x="0px" y="0px"
	 viewBox="0 0 16 16" style="enable-background:new 0 0 16 16;" xml:space="preserve">
<style type="text/css">
	.st0{fill:#6D6D6D;}
</style>
<path class="st0" d="M11.1,16H1.5c-0.8,0-1.4-0.6-1.4-1.4v-2.3c0-0.1,0.1-0.3,0.2-0.4c0.1-0.1,0.3-0.1,0.4-0.1
	c0.2,0.1,0.4,0.1,0.6,0.1c1.2,0,2.1-0.9,2.1-2.1S2.4,7.7,1.2,7.7c-0.1,0-0.3,0-0.6,0.1c-0.1,0-0.3,0-0.4-0.1
	C0.2,7.6,0.1,7.5,0.1,7.4V5.1c0-0.8,0.6-1.4,1.4-1.4h1.9c0-0.2,0-0.4,0-0.7c0-1.6,1.3-3,3-3s3,1.3,3,3c0,0.2,0,0.4-0.1,0.7h1.9
	c0.8,0,1.4,0.6,1.4,1.4v1.8c0.1,0,0.3,0,0.4,0c1.6,0,3,1.3,3,3s-1.3,3-3,3c-0.1,0-0.3,0-0.4,0v1.8C12.5,15.4,11.9,16,11.1,16z
	 M1,12.8v1.8c0,0.3,0.2,0.5,0.5,0.5h9.5c0.3,0,0.5-0.2,0.5-0.5v-2.4c0-0.1,0.1-0.3,0.2-0.4c0.1-0.1,0.3-0.1,0.4,0
	c0.3,0.1,0.5,0.1,0.7,0.1C14,11.9,15,11,15,9.8S14,7.8,12.9,7.8c-0.2,0-0.5,0-0.7,0.1c-0.1,0-0.3,0-0.4,0c-0.1-0.1-0.2-0.2-0.2-0.4
	V5.1c0-0.3-0.2-0.5-0.5-0.5H8.6c-0.1,0-0.3-0.1-0.4-0.2C8.1,4.2,8.1,4,8.2,3.9C8.3,3.6,8.4,3.3,8.4,3c0-1.2-0.9-2.1-2.1-2.1
	S4.2,1.8,4.2,3c0,0.3,0.1,0.6,0.2,0.9c0.1,0.1,0.1,0.3,0,0.4C4.3,4.5,4.2,4.5,4,4.5H1.5C1.2,4.5,1,4.8,1,5.1v1.8h0.2
	c1.6,0,3,1.3,3,3s-1.3,3-3,3C1.2,12.8,1.1,12.8,1,12.8z"/>
</svg>
