<?xml version="1.0" encoding="utf-8"?>
<!-- Generator: Adobe Illustrator 22.1.0, SVG Export Plug-In . SVG Version: 6.00 Build 0)  -->
<svg version="1.1" id="图层_1" xmlns="http://www.w3.org/2000/svg" xmlns:xlink="http://www.w3.org/1999/xlink" x="0px" y="0px"
	 viewBox="0 0 16 16" style="enable-background:new 0 0 16 16;" xml:space="preserve">
<style type="text/css">
	.st0{fill:#6D6D6D;}
</style>
<path class="st0" d="M14.3,13.7c-1,0-1.6-0.6-2.3-1.4c-0.2-0.3-0.5-0.5-0.8-0.8c-0.8-0.7-1.6-0.8-2.3-0.8c-0.1,0-0.3,0-0.4,0
	c-0.1,0-0.2,0-0.3,0H7.8c-0.1,0-0.2,0-0.3,0c-0.1,0-0.2,0-0.4,0c-0.7,0-1.5,0.1-2.3,0.8C4.5,11.8,4.3,12,4,12.3
	c-0.7,0.7-1.3,1.4-2.3,1.4c-0.4,0-0.7-0.2-1-0.4C0,12.5-0.2,10.7,0.2,7.8c0.4-4,2.3-5.5,3.9-5.5c0.6,0,1,0.2,1.4,0.5
	C6,3.2,6.6,3.6,8,3.6s2-0.4,2.6-0.7C11,2.6,11.4,2.3,12,2.3c1.6,0,3.4,1.4,3.9,5.5c0.3,2.9,0.2,4.6-0.5,5.4
	C15.1,13.5,14.7,13.7,14.3,13.7z M8.9,10.2c0.8,0,1.7,0.1,2.6,0.9c0.3,0.3,0.6,0.6,0.8,0.8c0.7,0.7,1.1,1.2,2,1.2
	c0.3,0,0.5-0.1,0.6-0.3c0.6-0.6,0.7-2.3,0.4-5c-0.4-3.7-2-5-3.4-5c-0.4,0-0.7,0.2-1.1,0.4C10.3,3.6,9.5,4.1,8,4.1S5.7,3.6,5.1,3.3
	C4.7,3,4.4,2.9,4,2.9c-1.4,0-2.9,1.3-3.4,5c-0.3,2.7-0.2,4.4,0.4,5c0.2,0.2,0.4,0.3,0.6,0.3c0.8,0,1.3-0.5,2-1.2
	c0.3-0.3,0.5-0.5,0.8-0.8c1.1-0.9,2.2-0.9,3-0.9c0.1,0,0.2,0,0.3,0h0.4c0.1,0,0.2,0,0.3,0C8.6,10.2,8.8,10.2,8.9,10.2z"/>
<path class="st0" d="M12.8,5.7c0,0.4-0.3,0.8-0.8,0.8c-0.4,0-0.8-0.3-0.8-0.8c0-0.4,0.3-0.8,0.8-0.8C12.4,4.9,12.8,5.2,12.8,5.7z"/>
<path class="st0" d="M12.8,8.7c0,0.4-0.3,0.8-0.8,0.8c-0.4,0-0.8-0.3-0.8-0.8C11.2,8.3,11.6,8,12,8C12.4,8,12.8,8.3,12.8,8.7z"/>
<path class="st0" d="M13.6,8c-0.4,0-0.8-0.3-0.8-0.8s0.3-0.8,0.8-0.8c0.4,0,0.8,0.3,0.8,0.8C14.3,7.6,14,8,13.6,8z"/>
<path class="st0" d="M10.5,8C10,8,9.7,7.6,9.7,7.2s0.3-0.8,0.8-0.8c0.4,0,0.8,0.3,0.8,0.8C11.2,7.6,10.9,8,10.5,8z"/>
<path class="st0" d="M6,6.7H4.7V5.4c0-0.3-0.2-0.5-0.5-0.5S3.7,5.1,3.7,5.4v1.3H2.4c-0.3,0-0.5,0.2-0.5,0.5c0,0.3,0.2,0.5,0.5,0.5
	h1.3V9c0,0.3,0.2,0.5,0.5,0.5c0.3,0,0.5-0.2,0.5-0.5V7.7H6c0.3,0,0.5-0.2,0.5-0.5C6.5,6.9,6.3,6.7,6,6.7z"/>
</svg>
