<?xml version="1.0" encoding="utf-8"?>
<!-- Generator: Adobe Illustrator 22.1.0, SVG Export Plug-In . SVG Version: 6.00 Build 0)  -->
<svg version="1.1" id="图层_1" xmlns="http://www.w3.org/2000/svg" xmlns:xlink="http://www.w3.org/1999/xlink" x="0px" y="0px"
	 viewBox="0 0 16 16" style="enable-background:new 0 0 16 16;" xml:space="preserve">
<style type="text/css">
	.st0{fill:#6D6D6D;}
</style>
<path class="st0" d="M12.2,5.3C11.9,3.9,11,2.7,9.6,2.1C9.4,2,9.1,2.1,9,2.4C8.9,2.7,9,3,9.2,3.1c1,0.4,1.7,1.3,1.9,2.4
	c0,0.2,0,0.4,0,0.6c0,0.3,0.2,0.5,0.5,0.5s0.5-0.2,0.5-0.5C12.3,5.8,12.2,5.6,12.2,5.3z"/>
<path class="st0" d="M14.1,6.1C14.1,2.7,11.4,0,8,0S1.9,2.7,1.9,6.1c0,2.2,1.2,4.3,3.2,5.4l0,2.6c0,1,1,1.9,2.1,1.9h1.6
	c1.2,0,2.1-0.9,2.1-1.9v-2.6C12.9,10.4,14.1,8.4,14.1,6.1z M10.2,10.7C10.2,10.7,10.2,10.7,10.2,10.7C10.1,10.7,10.1,10.8,10.2,10.7
	c-0.1,0.1-0.1,0.1-0.1,0.1c0,0,0,0,0,0c0,0,0,0,0,0c0,0,0,0,0,0c0,0,0,0,0,0c0,0,0,0,0,0c0,0,0,0,0,0c0,0,0,0,0,0c0,0,0,0,0,0.1
	c0,0,0,0,0,0v2.9c0,0.5-0.5,0.9-1.1,0.9H7.2c-0.6,0-1.1-0.4-1.1-0.9l0-2.9c0,0,0,0,0,0c0,0,0,0,0-0.1c0,0,0,0,0,0c0,0,0,0,0,0
	c0,0,0,0,0,0c0,0,0,0,0,0c0,0,0,0,0,0c0,0,0,0,0,0c0,0,0,0,0,0c0,0,0,0,0,0c0,0,0,0,0,0c0,0,0,0,0,0C4.1,9.9,2.9,8.1,2.9,6.1
	C2.9,3.3,5.2,1,8,1s5.1,2.3,5.1,5.1C13.1,8.1,11.9,9.9,10.2,10.7z"/>
<path class="st0" d="M8.9,11.5H7.1c-0.3,0-0.5,0.2-0.5,0.5c0,0.3,0.2,0.5,0.5,0.5h1.8c0.3,0,0.5-0.2,0.5-0.5
	C9.4,11.7,9.2,11.5,8.9,11.5z M8.9,13.1H7.1c-0.3,0-0.5,0.2-0.5,0.5s0.2,0.5,0.5,0.5h1.8c0.3,0,0.5-0.2,0.5-0.5S9.2,13.1,8.9,13.1z"
	/>
</svg>
