<?xml version="1.0" encoding="utf-8"?>
<!-- Generator: Adobe Illustrator 22.1.0, SVG Export Plug-In . SVG Version: 6.00 Build 0)  -->
<svg version="1.1" id="图层_1" xmlns="http://www.w3.org/2000/svg" xmlns:xlink="http://www.w3.org/1999/xlink" x="0px" y="0px"
	 viewBox="0 0 16 16" style="enable-background:new 0 0 16 16;" xml:space="preserve">
<style type="text/css">
	.st0{fill:#6D6D6D;}
</style>
<path class="st0" d="M16,10.1c0-0.6-0.2-1-0.6-1.2C15.7,8.8,16,8.2,16,7.6C16,6.7,15.1,6,13.7,6h-3.6c0.6-1.7,0.5-3.9-0.3-5.1
	C9.4,0.2,8.9,0,8.5,0C7.2,0,7.1,1.2,7.1,1.7c0,1.4-0.2,2.1-0.5,2.7C6.5,4.7,5.2,6,4,6H1.6C0.7,6,0,6.8,0,7.9l0.6,6.5
	c0.1,1,0.6,1.6,1.6,1.6c0,0,0.5,0,0.9,0c0.2,0,0.4,0,0.5,0c0.3,0,0.6-0.2,0.8-0.4c0.2-0.1,0.3-0.2,0.4-0.2c0.1,0,0.3,0.2,0.7,0.3
	C5.7,15.9,6.3,16,6.8,16h5c1.7,0,2.5-0.6,2.5-1.7c0-0.3-0.1-0.5-0.2-0.7c0.7-0.2,1.3-0.6,1.3-1.3c0-0.3-0.1-0.7-0.3-0.8
	C15.3,11.4,16,10.8,16,10.1z M3.5,15.3c-0.3,0-1.4,0-1.4,0c-0.4,0-0.7-0.4-0.8-0.8L0.7,7.7c0-0.5,0.4-1.1,1-1.1v0l2.3,0
	c0,0,0.1,0,0.1,0v8.3C4,15,3.9,15.1,3.8,15.1C3.7,15.2,3.5,15.3,3.5,15.3L3.5,15.3z M14.4,11L14.4,11l-0.1,0.6
	c0.1,0,0.3,0.1,0.3,0.6c0,0.6-0.7,0.8-1.4,0.8h0l0,0.6c0.3,0.1,0.3,0.3,0.3,0.6c0,0.6-0.5,1.1-1.8,1.1H6.7c-0.2,0-0.7-0.1-1-0.3
	c-0.3-0.1-0.7-0.4-0.9-0.5v-8c1.3-0.4,2.4-1.5,2.6-2c0.3-0.7,0.4-1.4,0.4-3c0-0.8,0.3-0.9,0.6-0.9c0.3,0,0.7,0.3,0.9,0.6
	c0.6,1,0.8,3.1,0,4.8L9.2,6.7l4.6,0c0.8,0,1.6,0.4,1.6,0.9l0,0.2c0,0,0,0.5-0.3,0.7c-0.2,0.2-0.4,0.2-0.4,0.2l0,0.6
	c0,0,0.3,0,0.4,0.1c0.2,0.1,0.3,0.4,0.3,0.7C15.3,10.5,14.7,11,14.4,11L14.4,11z"/>
</svg>
