<?xml version="1.0" encoding="utf-8"?>
<!-- Generator: Adobe Illustrator 22.1.0, SVG Export Plug-In . SVG Version: 6.00 Build 0)  -->
<svg version="1.1" id="图层_1" xmlns="http://www.w3.org/2000/svg" xmlns:xlink="http://www.w3.org/1999/xlink" x="0px" y="0px"
	 viewBox="0 0 64 64" style="enable-background:new 0 0 64 64;" xml:space="preserve">
<style type="text/css">
	.st0{fill:#0485DE;}
</style>
<g>
	<path class="st0" d="M7.9,40.5v-2.4l7.6,2L26.2,37v-0.5H5.4l-2.5,4.8H0l5-9.6H0.6v-2.1h5.2l0.9-1.9h2.7l-0.8,1.9h21v2.1H8H7.8
		l-1.4,2.7h22.4v3.9l-9.6,3l9.8,2.4v2.2L15,42.5L1,45.9v-2.4l9.8-2.3L7.9,40.5z M29.9,28.1h-2.7v-1.9H2.8v1.9H0.1v-4h2.5h1.2l-1-2.1
		h2.7l1.1,2.1H14l-1.1-2.4h2.7l1.1,2.4h6.6l1.5-2.5h2.8l-1.5,2.5h0.7h3V28.1z M0.9,18.8L29,18.1v2.1L0.9,20.8V18.8z"/>
	<path class="st0" d="M40.3,26.3l1.7-2.5h2.7L38,34h5.9v2.2H33.7l5.2-7.7h-5.4l3.6-10.2h2.7l-2.9,8H40.3z M34.1,42.9l9.8-2.5v2.3
		l-9.8,2.5V42.9z M45.8,24.7v-2.5l9-4.1l9.2,4v2.6l-9.1-4.1L45.8,24.7z M46.3,33.3h17.2v12.5H46.3V33.3z M46.6,29v-2.2h16.7V29H46.6
		z M60.8,35.5H48.9v8.1h11.8V35.5z"/>
</g>
</svg>
