<?xml version="1.0" encoding="utf-8"?>
<!-- Generator: Adobe Illustrator 22.1.0, SVG Export Plug-In . SVG Version: 6.00 Build 0)  -->
<svg version="1.1" id="图层_1" xmlns="http://www.w3.org/2000/svg" xmlns:xlink="http://www.w3.org/1999/xlink" x="0px" y="0px"
	 viewBox="0 0 64 64" style="enable-background:new 0 0 64 64;" xml:space="preserve">
<style type="text/css">
	.st0{fill:#FFFFFF;}
	.st1{fill:#2C61E4;}
	.st2{fill:#3377F9;}
	.st3{fill:#D2402C;}
</style>
<path class="st0" d="M9.8,0h44.3C59.6,0,64,4.4,64,9.8v44.4c0,5.4-4.4,9.8-9.8,9.8H9.8C4.4,64,0,59.6,0,54.2V9.8C0,4.4,4.4,0,9.8,0z
	"/>
<path class="st1" d="M27.4,10.4c5.6-1.4,11.4,0.8,14.8,5.4c1.6,2.1,2.5,4.6,2.7,7.2c0.1,1,0,2-0.1,3l-0.1,0.1
	c-1.8,0-3.6,0.4-5.2,1.1c-1.5,0.7-2.8,1.6-4,2.7c-0.3,0.4-0.7,0.7-1.1,1.1c-1.3,1.3-2.6,2.5-3.8,3.8c-0.4,0.3-0.7,0.7-1.1,1
	c-1.3-4.7-5-8.2-9.7-9.4c-0.8-0.2-1.7-0.3-2.6-0.3l-0.5,0c-0.1-0.7-0.1-1.3-0.1-2c0-2.2,0.5-4.5,1.5-6.5
	C20,14.1,23.4,11.4,27.4,10.4 M29.8,16.9c-3.6,0.5-6.3,3.4-6.4,7c0,1.4,0.4,2.9,1.1,4.1c2.2,3.4,6.7,4.4,10.1,2.3
	c3.4-2.2,4.4-6.7,2.3-10.1C35.4,17.9,32.6,16.6,29.8,16.9z"/>
<path class="st2" d="M44.7,26.2l0.1-0.1L44.7,26.2c7.4,0,13.3,5.9,13.3,13.2c0,5.1-2.9,9.7-7.4,11.9c-2.9,1.4-6.2,1.7-9.2,0.9
	c-1.9-0.5-3.7-1.5-5.3-2.8c-0.7-0.6-1.1-1.6-1.1-2.5c0-1.8,1.6-3.3,3.4-3.3c0.3,0,0.6,0,0.8,0.1c0.5,0.1,1,0.4,1.4,0.7
	c2.8,2.3,6.9,2,9.2-0.8c2.3-2.8,2-6.9-0.8-9.2c-2.2-1.8-5.3-2-7.7-0.5c-0.6,0.4-1.1,0.8-1.5,1.3L26.5,48.4c-0.6,0.6-1.3,1.2-2,1.8
	c-1.9,1.4-4.2,2.2-6.6,2.4c-5.3,0.5-10.4-2.3-12.9-7c-3.4-6.5-0.9-14.5,5.5-17.9c0.5-0.2,0.9-0.4,1.4-0.6c1.5-0.6,3.2-0.9,4.8-0.9
	l0.5,0c0.8,0.1,1.5,0.5,2,1.1c1.2,1.4,1.1,3.5-0.2,4.7c-0.1,0.1-0.2,0.1-0.2,0.2c-0.5,0.4-1.2,0.6-1.8,0.7c-1.3,0-2.6,0.3-3.8,1
	c-3.1,1.9-3.9,6-2,9c1.7,2.6,5,3.7,7.9,2.6c1-0.4,1.9-1.1,2.6-1.9c2.6-2.6,5.2-5.2,7.8-7.7c0.4-0.3,0.7-0.7,1.1-1
	c1.3-1.3,2.5-2.5,3.8-3.8c0.4-0.4,0.8-0.7,1.1-1.1c1.2-1.1,2.5-2,4-2.6C41.2,26.6,43,26.2,44.7,26.2z"/>
<path class="st3" d="M17.2,26.2c0.9,0,1.7,0.1,2.6,0.3c4.7,1.1,8.4,4.7,9.7,9.4c-2.6,2.6-5.2,5.2-7.8,7.7c0.6-0.8,1.1-1.6,1.4-2.6
	c0.4-1.5,0.2-3.1-0.4-4.5c-0.8-1.7-2.3-2.9-4.1-3.5c-0.5-0.2-1.1-0.2-1.6-0.3c0.7,0,1.3-0.3,1.8-0.7c1.5-1.1,1.8-3.2,0.7-4.7
	c-0.1-0.1-0.1-0.2-0.2-0.2C18.7,26.7,18,26.3,17.2,26.2z"/>
</svg>
