<?xml version="1.0" encoding="utf-8"?>
<!-- Generator: Adobe Illustrator 22.1.0, SVG Export Plug-In . SVG Version: 6.00 Build 0)  -->
<svg version="1.1" id="图层_1" xmlns="http://www.w3.org/2000/svg" xmlns:xlink="http://www.w3.org/1999/xlink" x="0px" y="0px"
	 viewBox="0 0 64 64" style="enable-background:new 0 0 64 64;" xml:space="preserve">
<style type="text/css">
	.st0{fill:#FF8B25;stroke:#FF6500;stroke-width:0.25;stroke-miterlimit:10;}
</style>
<path class="st0" d="M45.8,15.4c0,1.2-1,2.2-2.2,2.2c-0.1,0-31.4,0-31.4,0v12.6l-3.6,2V14.4h36.9C45.5,14.4,45.8,15,45.8,15.4z"/>
<path class="st0" d="M45.5,44.9v5.4H9v-7.4l3-1.7v6.7h31.1v-2.7c0.3-0.5,0.8-0.8,1.4-0.8C44.9,44.4,45.3,44.6,45.5,44.9z"/>
<path class="st0" d="M5.5,43.3L5.5,43.3L5.5,43.3c-0.4,0.2-0.9,0.3-1.4,0.3c-2,0-3.7-1.6-3.7-3.7c0-1.5,0.9-2.8,2.2-3.4l53.4-22.1
	C56.1,14.4,5.9,43.1,5.5,43.3z"/>
<path class="st0" d="M63.5,13.7L33.1,43.6c-0.4,0.5-1,0.8-1.7,0.8c-1.2,0-2.2-1-2.2-2.2c0-0.7,0.4-1.4,0.9-1.8h0L45.5,27l-12.4,8.3
	c-0.3,0.2-0.7,0.3-1.1,0.3c-1.1,0-1.9-0.9-1.9-1.9c0-0.6,0.3-1.2,0.8-1.6L63.5,13.7z"/>
</svg>
