<?xml version="1.0" encoding="utf-8"?>
<!-- Generator: Adobe Illustrator 22.1.0, SVG Export Plug-In . SVG Version: 6.00 Build 0)  -->
<svg version="1.1" id="图层_1" xmlns="http://www.w3.org/2000/svg" xmlns:xlink="http://www.w3.org/1999/xlink" x="0px" y="0px"
	 viewBox="0 0 16 16" style="enable-background:new 0 0 16 16;" xml:space="preserve">
<style type="text/css">
	.st0{fill:#C7C6C6;}
</style>
<path class="st0" d="M13.5,5.3H2.5C2.3,5.3,2.1,5.2,2.1,5s0.2-0.4,0.4-0.4h11.1c0.2,0,0.4,0.2,0.4,0.4S13.7,5.3,13.5,5.3z"/>
<path class="st0" d="M9.7,8.4H2.5C2.3,8.4,2.1,8.2,2.1,8s0.2-0.4,0.4-0.4h7.3c0.2,0,0.4,0.2,0.4,0.4S9.9,8.4,9.7,8.4z"/>
<path class="st0" d="M16,2.3v8.4c0,1-0.8,1.9-1.9,1.9H7.9l-3,3c-0.1,0.1-0.2,0.1-0.3,0.1c-0.1,0-0.2,0-0.3-0.1
	c-0.2-0.1-0.2-0.4,0-0.5L7.5,12h0c0.1-0.1,0.2-0.1,0.3-0.1h6.4c0.6,0,1.2-0.5,1.2-1.2V2.3c0-0.6-0.5-1.2-1.2-1.2H1.9
	c-0.6,0-1.2,0.5-1.2,1.2v8.4c0,0.6,0.5,1.2,1.2,1.2h2.5c0.2,0,0.4,0.2,0.4,0.4c0,0.2-0.2,0.4-0.4,0.4H1.9c-1,0-1.9-0.9-1.9-1.9V2.3
	c0-1,0.8-1.9,1.9-1.9h12.2C15.2,0.4,16,1.3,16,2.3z"/>
</svg>
