<?xml version="1.0" encoding="utf-8"?>
<!-- Generator: Adobe Illustrator 22.1.0, SVG Export Plug-In . SVG Version: 6.00 Build 0)  -->
<svg version="1.1" id="图层_1" xmlns="http://www.w3.org/2000/svg" xmlns:xlink="http://www.w3.org/1999/xlink" x="0px" y="0px"
	 viewBox="0 0 64 64" style="enable-background:new 0 0 64 64;" xml:space="preserve">
<style type="text/css">
	.st0{fill:#F4C91F;}
	.st1{fill:#1E1E1E;}
</style>
<path class="st0" d="M32,64C14.3,64,0,49.7,0,32S14.3,0,32,0s32,14.3,32,32C64,49.7,49.7,64,32,64z"/>
<path class="st1" d="M50.8,29.5l-0.1-0.2l-0.7,0.1v0.1l-0.4,0.1v0.1l-0.4,0.1v0.1h-0.2v0.1l-0.4,0.1v0.1h-0.2v0.1h-0.2V30H48v0.1
	h-0.2v0.1h-0.2v0.1h-0.3v0.1H47v0h-0.3v0.1c-0.2,0.1-0.6,0-0.7,0.1h-0.1l0.1-0.2H46v-0.1l0.1-0.1V30l0.2-0.1v-0.1l0.1-0.1l0.1-0.2
	h0.1v-0.1l0.2-0.1l0.1-0.2l0.1-0.1v-0.1l0.1-0.1v-0.1l0.1-0.1l0.1-0.2l0.1-0.1l0.1-0.2l0.1-0.1V28h0.1v-0.1h0.1v-0.1h0.1v-0.1
	l0.1-0.1v-0.1h0.1v-0.1h0.1v-0.1h0.1v-0.1h0.1v-0.1h0.1V27H48v-0.1H48v-0.1h0.1v-0.1h0.1v-0.1h0.1l0.1-0.2h0v-0.1h0.1V26h0.1
	l0.1-0.2h0.1v-0.2h0.1l0.1-0.2h0.1v-0.2h0.1v-0.1h0.1l0.1-0.3h0.1v-0.1H49c0.2-0.8,0.5-1.6,0.7-2.4V22h0.1v-0.2h0.1v-0.3h0.1v-0.3
	h0.1v-0.3H50v-0.3H50v-0.4h0.1v-0.4h0.1v-0.6c0.1-0.7,0.2-1.5,0.1-2.2v-0.9h-0.1V16h-0.1l-0.1-0.2c-0.6,0-0.8,0.5-1.1,0.8
	c-0.4,0.4-0.8,0.7-1.2,1.1L47.5,18h-0.1l-0.2,0.2l-0.2,0.1L47,18.4h-0.1l-0.2,0.2h-0.1l-0.1,0.1h-0.1l-0.1,0.2h-0.1L46.2,19L46,19.1
	v0.1h-0.1l-0.1,0.1l-0.2,0.1v0.1h-0.1l-0.1,0.1h-0.1l-0.1,0.1l-0.2,0.1L45,19.8l-0.2,0.1l-0.1,0.1L44.4,20l-0.1,0.1h-0.1v0.1h-0.1
	v0.1H44v0.1h-0.1v0.1h-0.1v0.1h-0.1v0.1h-0.1v0.1h-0.1v0.1h-0.1v0.1h-0.1v0.1h-0.1v0.1h-0.1v0.1h-0.1v0.1h-0.2v0.1L42.6,21v0.1h-0.2
	v0.1l-0.2,0.1v0.1l-0.3,0.1v0.1h-0.1v0.1l-0.3,0.1v0.1h-0.1v0L41,21.6v0.1h-0.2v0.1h-0.2v0.1L40,21.9v0.1h-0.2V22h-0.2V22h-0.2v0.1
	h-0.2v0.1h-0.2v0.1h-0.3c-0.4,0.1-0.8,0.2-1.2,0.3c0.1-0.2,0.2-0.4,0.2-0.6h0.1l0-0.4h0.1v-0.1h0.1l0.1-0.6h0.1v-0.2h0.1v-0.2h0.1
	v-0.2h0.1v-0.3h0.1v-0.3h0.1v-0.4c0.2-1.3,0.1-2.6-0.3-3.9v-0.2h-0.1V15H38v-0.2H38v-0.2h-0.1v-0.2h-0.1l-0.1-0.3h-0.1
	c-0.1-0.1-0.1-0.1-0.2-0.2h-0.2L37.3,14h-0.1l-0.1,0.1h-0.1v0.2h-0.1v0.1H37v0.2H37l-0.1,0.2h-0.1L36.8,15l-0.1,0.1l-0.1,0.3h-0.1
	l-0.1,0.2l-0.1,0.1v0.1h-0.1L36.2,16L36.1,16v0.1L36,16.2l-0.1,0.2l-0.3,0.3v0.1L35.3,17c-0.2,0.2-0.3,0.3-0.4,0.5h-0.1l-0.2,0.3
	h-0.1l-0.1,0.2h-0.1l-0.1,0.2H34l-0.1,0.1h-0.1l-0.1,0.1h-0.1l-0.1,0.1h-0.1l-0.1,0.1l-0.2,0.1l-0.1,0.1H33v0.1h-0.1v0.1h-0.1v0.1
	h-0.1v0.1h-0.1V19h-0.1V19h-0.1v0.1h-0.1v0.1l-0.3,0.1v0.1h-0.1v0.1l-0.2,0.1v0.1l-0.3,0.1v0.1h-0.1v0.1l-1.9,0.6h-0.3v0.1h-0.3v0.1
	h-0.3v0H28v0.1l-0.7,0.1l-2.7,0.7c-1.3,0.4-2.6,1-3.8,1.7h-0.1v0.1h-0.1v0.1h-0.1V23h-0.1l-0.1,0.1h-0.1v0.1h-0.1l-0.1,0.1l-0.2,0.1
	l-0.1,0.1h-0.1l-0.1,0.1h-0.1c0,0,0,0.1-0.1,0.1h-0.1v0.1l-0.2,0.1l-0.1,0.1H19L18.9,24h-0.1l-0.1,0.2h-0.1l-0.1,0.2h-0.1l-0.2,0.3
	H18L17.8,25h-0.1L17,25.7L16.6,26v0.1l-0.3,0.3l-0.1,0.2L16,26.7v0.1L15.9,27v0.1l-0.2,0.1v0.1l-0.1,0.1l-0.1,0.2h-0.1v0.1l-0.1,0.1
	l-0.1,0.2h-0.1l-0.1,0.2l-0.1,0.1L15,28.5l-0.1,0.1v0.1h-0.1v0.1h-0.1v0.1h-0.1V29h-0.1v0.1h-0.1v0.1h-0.1l-0.1,0.3h-0.1v0.2h-0.1
	l-0.1,0.2h-0.1v0.2h-0.1v0.1H14L14,30.5h0v0.1h-0.1l-0.1,0.6h-0.1v0.2h-0.1v0.2h-0.1v0.2h-0.1V32h-0.1v0.3h-0.1v0.2h-0.1v0.3h-0.1
	v0.3h-0.1v0.4h-0.1v0.6c-0.1,0.6-0.1,1.2-0.1,1.8h0.1v0.7h0.1v0.4h0.1v0.4h0.1v0.3c0.2,0.7,0.3,1.5,0.6,2.2l0.1,0.3h0.1v0.1h0.1
	l0.1,0.3h0.1l0.1,0.2h0.1v0.2h0.1l0.1,0.2h0v0.1h0.1v0.2h0.1l0.1,0.3h0.1l0.1,0.2l0.1,0.1l0.1,0.3l0.1,0.1l0.1,0.2l0.1,0.1l0.1,0.2
	l0.1,0.1v0.1l0.1,0.1v0.1l0.1,0.1v0.1l0.1,0.1v0.1l0.2,0.1V44l0.2,0.1v0.1l0.2,0.1v0.1l0.3,0.2v0.1l0.4,0.3v0.1l0.3,0.3l0.5,0.6H18
	c0.1,0.1,0.2,0.3,0.3,0.4h0.1l0.2,0.3h0.1L19,47h0.1l0.1,0.1h0.1l0.1,0.1h0.1l0.1,0.2h0.1l0.1,0.1l0.2,0.1v0.1l0.2,0.1l0.1,0.1h0.1
	l0.1,0.1l0.2,0.1l0.1,0.1l0.9,0.4v0.1h0.1v0.1h0.1v0.1l0.3,0.1v0.1h0.2v0.1l0.2,0.1V49l0.3,0.1v0.1h0.1v0.1l0.3,0.1v0.1h0.2v0.1h0.2
	v0.1h0.2v0.1h0.2l0.4,0.1v0.1h0.2v0.1h0.2v0.1h0.3v0.1h0.3v0.1h0.3v0.1H26v0.1h0.4V50h0.7V50H29V50l1.1-0.1v-0.1h0.4v-0.1h0.3v-0.1
	h0.3v-0.1l0.5-0.1v-0.1h0.2v-0.1l0.4-0.1v0h0.2v-0.1h0.2v-0.1h0.2v-0.1h0.2v-0.1h0.2v-0.1h0.1v-0.1l0.3-0.1V49l0.2-0.1v-0.1h0.2
	v-0.1l0.2-0.1v-0.1h0.2v-0.1l0.3-0.1v-0.1h0.1v-0.1h0.1v-0.1l0.3-0.1l0.1-0.1l0.3-0.1l0.1-0.1l0.2-0.1v-0.1l0.2-0.1l0.1-0.1l0.2-0.1
	l0.1-0.2l0.2-0.1v-0.1h0.1l0.1-0.1h0.1l0.1-0.1l0.2-0.1l0.2-0.2h0.1l0.2-0.2h0.1l0.3-0.3h0.1l0.6-0.7l0.5-0.4V45l0.3-0.3v-0.1
	l0.3-0.2v-0.1l0.2-0.1v-0.1l0.2-0.1v-0.1l0.1-0.1v-0.1l0.2-0.1v-0.1l0.1-0.1v-0.1l0.1-0.1v-0.1h0.1V43l0.1-0.1l0.1-0.2l0.1-0.1
	c0-0.1,0-0.1,0.1-0.2l0.1-0.1v-0.1h0.1v-0.1h0.1v-0.1h0.1V42h0.1v-0.1h0.1v-0.1h0.1v-0.1h0.1l0.1-0.3h0.1v-0.2h0.1
	c0-0.1,0-0.1,0.1-0.2h0.1l0.6-1.8v-0.2h0.1v-0.2h0.1c0.1-0.2,0-0.3,0.1-0.4c0.2-0.3,0.5-0.3,0.8-0.4v-0.1l0.3-0.1v-0.1H44v-0.1
	l0.2-0.1v-0.1l0.2-0.1l0.1-0.1h0.1v-0.1h0.1v-0.1h0.1v-0.1H45L45,37l0.2-0.1l0.1-0.1l0.2-0.1l0.1-0.1h0.1l0.1-0.1h0.1l0.1-0.2h0.1
	l0.1-0.1h0.1l0.1-0.1l0.2-0.1l0.2-0.2h0.1l0.2-0.3h0.1c0.2-0.2,0.3-0.4,0.5-0.6l0.7-0.7v-0.1l0.3-0.2v-0.1l0.1-0.1v-0.1l0.1-0.1
	v-0.1l0.2-0.1v-0.1l0.1-0.1l0.1-0.2h0.1V33l0.1-0.1v-0.1l0.1-0.1v-0.1l0.1-0.1v-0.1h0.1v-0.1l0.1-0.1l0.1-0.2h0.1v-0.1l0.1-0.1v-0.1
	H50v-0.1H50v-0.1h0.1v-0.1h0.1v-0.1h0.1v-0.1h0.1l0.1-0.3h0.1l0.1-0.3h0.1v-0.1h0.1v-0.2h0v-0.1h0.1v-0.2h0.1V30h0.1
	C50.9,29.8,50.9,29.6,50.8,29.5z M18.8,38.8l-0.2,0.1V39h-0.1V39h-0.2c-0.3,0.1-0.7,0.1-1.1,0V39h-0.1v-0.1l-0.3-0.1
	c-0.2-0.2-0.4-0.4-0.6-0.6l-0.2-0.2V38l-0.1-0.1l-0.1-0.2h-0.1v-0.1l-0.1-0.1v-0.1l-0.1-0.1l-0.1-0.3h-0.1l-0.1-0.2h-0.1l-0.1-0.3h0
	v-0.2h-0.1v-0.1H15v-0.2H15v-0.2h-0.1v-0.2h-0.1v-0.1h0.1v-0.1c0.1,0,0.3,0.1,0.4,0.2l0.1,0.1l0.2,0.1l0.1,0.2h0.1l0.1,0.2h0.1
	l0.1,0.1h0.1l0.1,0.2h0.1l0.1,0.1l0.2,0.1l0.1,0.1l0.2,0.1l0.1,0.1l0.5,0.2v0.1h0.1v0.1h0.2v0.1h0.1v0.1H18v0.1h0.2v0.1h0.2v0.1
	l0.4,0.1c0.2,0.1,0.4,0.1,0.6,0.2c0,0.1,0,0,0.1,0.1C19.4,38.2,19.1,38.6,18.8,38.8L18.8,38.8z M34.2,34.9L34.2,34.9l-0.1,0.3H34
	v0.1h-0.1v0.1h-0.1l-0.1,0.2h-0.1v0.1h-0.1v0.1h-0.1V36h-0.1v0.1h-0.1v0.1l-0.1,0.1l-0.1,0.2h-0.1l-0.1,0.2l-0.1,0.1v0.1h-0.1L33,37
	l-0.1,0.1v0.1l-0.1,0.1l-0.1,0.2l-0.2,0.2c-0.7,1-1.7,1.7-2.8,2.1l-0.5,0.1c-1,0.2-2,0.2-2.9-0.1v-0.1L26,39.5v-0.1l-0.3-0.1
	l-0.1-0.1l-0.2-0.1l-0.1-0.1h-0.1L25.3,39h-0.1L25,38.8c-0.4-0.2-0.6-0.5-0.8-0.9l0.2-0.1v0h0.3v-0.1H25v-0.1h0.4v-0.1l0.6-0.1v-0.1
	h0.3v-0.1h0.2v-0.1h0.2v-0.1H27c0.7-0.2,1.4-0.4,2-0.7l0.5-0.1v-0.1h0.1v-0.1h0.2v-0.1l0.3-0.1v-0.1h0.1v-0.1h0.2v-0.1h0.1v-0.1h0.2
	v-0.1l0.2-0.1V36h0.2v-0.1l0.2-0.1v-0.1h0.1v-0.1l0.2-0.1v-0.1h0.1v-0.1h0.2v-0.1l0.3-0.1v-0.1h0.1v-0.1h0.2v-0.1l0.3-0.1V35H33V35
	h0.2v-0.1h0.1v0l0.3-0.1v-0.1h0.1v-0.1h0.1v-0.1h0.2v-0.1l0.1,0.1L34.2,34.9z"/>
</svg>
