<?xml version="1.0" encoding="utf-8"?>
<!-- Generator: Adobe Illustrator 22.1.0, SVG Export Plug-In . SVG Version: 6.00 Build 0)  -->
<svg version="1.1" id="图层_1" xmlns="http://www.w3.org/2000/svg" xmlns:xlink="http://www.w3.org/1999/xlink" x="0px" y="0px"
	 viewBox="0 0 16 16" style="enable-background:new 0 0 16 16;" xml:space="preserve">
<style type="text/css">
	.st0{fill:#6D6D6D;}
</style>
<path class="st0" d="M0.4,4.7l7.4,4c0.1,0,0.2,0.1,0.2,0.1c0.1,0,0.2,0,0.2-0.1l7.5-4C15.9,4.6,16,4.5,16,4.3c0-0.2-0.1-0.4-0.3-0.4
	L8.3,0.1C8.2,0,8,0,7.9,0.1L0.4,3.8C0.1,4,0,4.3,0.1,4.5C0.2,4.6,0.3,4.7,0.4,4.7z M8.1,1.1l6.3,3.2L8,7.8L1.7,4.3L8.1,1.1z
	 M15.6,7.5l-1.5-0.8l-1.1,0.6L14.3,8l-6.4,3.5L1.6,8l1.3-0.7L1.8,6.7L0.3,7.5C0,7.6-0.1,7.9,0.1,8.2c0,0.1,0.1,0.2,0.2,0.2l7.4,4
	c0.1,0,0.2,0.1,0.2,0.1c0.1,0,0.2,0,0.2-0.1l7.5-4C15.9,8.3,16,8,15.8,7.7C15.8,7.6,15.7,7.6,15.6,7.5z M15.6,11l-1.4-0.7l-1.1,0.6
	l1.2,0.6l-6.4,3.5l-6.3-3.5l1.2-0.6l-1.1-0.6L0.3,11C0.1,11.1,0,11.3,0,11.4c0,0.2,0.1,0.4,0.3,0.4l7.4,4C7.8,16,7.8,16,7.9,16
	c0.1,0,0.2,0,0.2-0.1l7.5-4c0.2-0.1,0.3-0.3,0.3-0.4C15.9,11.3,15.8,11.1,15.6,11z"/>
</svg>
