<?xml version="1.0" encoding="utf-8"?>
<!-- Generator: Adobe Illustrator 22.1.0, SVG Export Plug-In . SVG Version: 6.00 Build 0)  -->
<svg version="1.1" id="图层_1" xmlns="http://www.w3.org/2000/svg" xmlns:xlink="http://www.w3.org/1999/xlink" x="0px" y="0px"
	 viewBox="0 0 64 64" style="enable-background:new 0 0 64 64;" xml:space="preserve">
<style type="text/css">
	.st0{fill:#D51E2A;}
	.st1{fill:#FFFFFF;}
	.st2{fill:#040000;}
</style>
<rect class="st0" width="64" height="64"/>
<path class="st1" d="M21,25.4c3.4-10.3,11.6-12.8,11.6-12.8s-4.6-1.5-10.7-1.9c-4.8-0.3-11.3,0.7-11.3,0.7S9,29.2,19.3,41.3
	c0.1,0.1,0.2,0.3,0.3,0.4c0,0,0,0,0,0C19.6,38.3,19,31.3,21,25.4L21,25.4z"/>
<path class="st1" d="M53.3,40.9c-0.5-5-1.9-10.1-1.9-10.1s-2.8,7.3-11.5,10.8c-6.4,2.5-13.9,2.8-17.5,2.7c12,10.2,30.2,8.9,30.2,8.9
	S53.8,46.1,53.3,40.9L53.3,40.9z"/>
<path class="st1" d="M20.8,42.5c0,0,15.7,2.4,25-6.8c9.3-9.3,6.8-24.3,6.8-24.3s-16.5-2.2-24.9,6.2C19.2,26.1,20.8,42.5,20.8,42.5
	L20.8,42.5z"/>
<path class="st2" d="M20.8,42.5"/>
</svg>
