<?xml version="1.0" encoding="utf-8"?>
<!-- Generator: Adobe Illustrator 22.1.0, SVG Export Plug-In . SVG Version: 6.00 Build 0)  -->
<svg version="1.1" id="图层_1" xmlns="http://www.w3.org/2000/svg" xmlns:xlink="http://www.w3.org/1999/xlink" x="0px" y="0px"
	 viewBox="0 0 64 64" style="enable-background:new 0 0 64 64;" xml:space="preserve">
<style type="text/css">
	.st0{fill:#171717;}
	.st1{fill:url(#SVGID_1_);}
	.st2{fill:url(#SVGID_2_);}
	.st3{fill:url(#SVGID_3_);}
	.st4{fill:url(#SVGID_4_);}
	.st5{fill:url(#SVGID_5_);}
	.st6{fill:url(#SVGID_6_);}
	.st7{fill:url(#SVGID_7_);}
</style>
<rect class="st0" width="64" height="64"/>
<g>
	<linearGradient id="SVGID_1_" gradientUnits="userSpaceOnUse" x1="8.7617" y1="27.5254" x2="8.7617" y2="36.6016">
		<stop  offset="0" style="stop-color:#6A6A6A"/>
		<stop  offset="1" style="stop-color:#DBDBDB"/>
	</linearGradient>
	<path class="st1" d="M12.2,36.6h-1.2v-4.1H6.5v4.1H5.3v-9.1h1.2v3.9h4.6v-3.9h1.2V36.6z"/>
	<linearGradient id="SVGID_2_" gradientUnits="userSpaceOnUse" x1="17.8027" y1="27.5254" x2="17.8027" y2="36.6016">
		<stop  offset="0" style="stop-color:#6A6A6A"/>
		<stop  offset="1" style="stop-color:#DBDBDB"/>
	</linearGradient>
	<path class="st2" d="M21,36.6h-1.6L16,32.5c-0.1-0.1-0.2-0.3-0.2-0.3h0v4.5h-1.2v-9.1h1.2v4.3h0c0.1-0.1,0.1-0.2,0.2-0.3l3.3-3.9
		h1.4l-3.8,4.4L21,36.6z"/>
	<linearGradient id="SVGID_3_" gradientUnits="userSpaceOnUse" x1="24.4355" y1="27.373" x2="24.4355" y2="36.7539">
		<stop  offset="0" style="stop-color:#6A6A6A"/>
		<stop  offset="1" style="stop-color:#DBDBDB"/>
	</linearGradient>
	<path class="st3" d="M27.8,36.2c-0.7,0.4-1.5,0.5-2.5,0.5c-1.3,0-2.3-0.4-3.1-1.2S21,33.6,21,32.2c0-1.5,0.4-2.6,1.3-3.5
		s2-1.3,3.3-1.3c0.9,0,1.6,0.1,2.2,0.4V29c-0.6-0.4-1.4-0.5-2.1-0.5c-1,0-1.8,0.3-2.5,1s-1,1.6-1,2.7c0,1.1,0.3,1.9,0.9,2.6
		s1.4,1,2.3,1c0.9,0,1.7-0.2,2.3-0.6V36.2z"/>
	<linearGradient id="SVGID_4_" gradientUnits="userSpaceOnUse" x1="32.4424" y1="27.373" x2="32.4424" y2="36.7539">
		<stop  offset="0" style="stop-color:#6A6A6A"/>
		<stop  offset="1" style="stop-color:#DBDBDB"/>
	</linearGradient>
	<path class="st4" d="M36.2,36c-0.9,0.5-1.9,0.8-3.1,0.8c-1.3,0-2.4-0.4-3.2-1.2s-1.2-1.9-1.2-3.3c0-1.4,0.4-2.6,1.3-3.5
		s2-1.4,3.4-1.4c1,0,1.8,0.2,2.5,0.5v1.3c-0.7-0.5-1.6-0.7-2.6-0.7c-1,0-1.8,0.3-2.4,1s-1,1.6-1,2.7c0,1.1,0.3,2,0.9,2.7
		s1.4,0.9,2.4,0.9c0.7,0,1.3-0.1,1.8-0.4v-2.5h-2v-1h3.1V36z"/>
	<linearGradient id="SVGID_5_" gradientUnits="userSpaceOnUse" x1="41.2754" y1="27.5254" x2="41.2754" y2="36.6016">
		<stop  offset="0" style="stop-color:#6A6A6A"/>
		<stop  offset="1" style="stop-color:#DBDBDB"/>
	</linearGradient>
	<path class="st5" d="M45.4,36.6h-1.3l-0.9-2.5h-3.8l-0.9,2.5h-1.3l3.5-9.1h1.3L45.4,36.6z M42.8,33.1l-1.4-3.8
		c0-0.1-0.1-0.3-0.1-0.6h0c0,0.3-0.1,0.5-0.1,0.6l-1.4,3.8H42.8z"/>
	<linearGradient id="SVGID_6_" gradientUnits="userSpaceOnUse" x1="49.9854" y1="27.5254" x2="49.9854" y2="36.6016">
		<stop  offset="0" style="stop-color:#6A6A6A"/>
		<stop  offset="1" style="stop-color:#DBDBDB"/>
	</linearGradient>
	<path class="st6" d="M53.3,36.6h-1.4l-1.5-2.5c-0.3-0.5-0.6-0.8-0.8-1s-0.5-0.3-0.9-0.3h-0.8v3.8h-1.2v-9.1h2.8
		c0.9,0,1.6,0.2,2.1,0.6s0.8,1,0.8,1.8c0,1.3-0.7,2.1-2,2.4v0c0.3,0.1,0.5,0.3,0.6,0.5s0.4,0.5,0.7,1L53.3,36.6z M47.8,28.6v3.2h1.4
		c0.5,0,1-0.2,1.3-0.5s0.5-0.7,0.5-1.2c0-0.5-0.2-0.8-0.5-1.1s-0.7-0.4-1.3-0.4H47.8z"/>
	<linearGradient id="SVGID_7_" gradientUnits="userSpaceOnUse" x1="56.4541" y1="27.5254" x2="56.4541" y2="36.6016">
		<stop  offset="0" style="stop-color:#6A6A6A"/>
		<stop  offset="1" style="stop-color:#DBDBDB"/>
	</linearGradient>
	<path class="st7" d="M59.7,28.6H57v8h-1.2v-8h-2.6v-1h6.4V28.6z"/>
</g>
</svg>
