<?xml version="1.0" encoding="utf-8"?>
<!-- Generator: Adobe Illustrator 22.1.0, SVG Export Plug-In . SVG Version: 6.00 Build 0)  -->
<svg version="1.1" id="图层_1" xmlns="http://www.w3.org/2000/svg" xmlns:xlink="http://www.w3.org/1999/xlink" x="0px" y="0px"
	 viewBox="0 0 64 64" style="enable-background:new 0 0 64 64;" xml:space="preserve">
<style type="text/css">
	.st0{fill:#00A03B;}
	.st1{fill:#95C55F;}
	.st2{fill:#78BE31;}
	.st3{fill:#B8DB7B;}
</style>
<path class="st0" d="M27.9,3.8c0-0.6-0.2-1.2-0.4-1.7c-0.6-1.1-1.8-1.8-3.1-1.8H3.5C1.6,0.3,0,1.9,0,3.8v20.8c0,1.9,1.6,3.5,3.5,3.5
	L32,32L27.9,3.8z M10.3,19.7c-0.7,0-1.4-0.6-1.4-1.4v-8.1c0-0.7,0.6-1.4,1.4-1.4h8.1c0.5,0,1,0.3,1.2,0.7c0.1,0.2,0.2,0.4,0.2,0.7
	l1.6,10.9L10.3,19.7z"/>
<path class="st1" d="M32,32L3.5,35.8c-1.9,0-3.5,1.6-3.5,3.5v20.8c0,1.9,1.6,3.5,3.5,3.5h20.8c1.3,0,2.5-0.7,3.1-1.8
	c0.3-0.5,0.4-1.1,0.4-1.7L32,32z M21.3,42.8l-1.6,10.9c0,0.2-0.1,0.5-0.2,0.7c-0.2,0.4-0.7,0.7-1.2,0.7h-8.1c-0.7,0-1.4-0.6-1.4-1.4
	v-8.1c0-0.7,0.6-1.4,1.4-1.4L21.3,42.8z"/>
<path class="st2" d="M32,32l28.5-3.8c1.9,0,3.5-1.6,3.5-3.5V3.8c0-1.9-1.6-3.5-3.5-3.5H39.6c-1.3,0-2.5,0.7-3.1,1.8
	c-0.3,0.5-0.4,1.1-0.4,1.7L32,32z M42.7,21.2l1.6-10.9c0-0.2,0.1-0.5,0.2-0.7c0.2-0.4,0.7-0.7,1.2-0.7h8.1c0.7,0,1.4,0.6,1.4,1.4
	v8.1c0,0.7-0.6,1.4-1.4,1.4L42.7,21.2z"/>
<path class="st3" d="M32,32l28.5,3.8c1.9,0,3.5,1.6,3.5,3.5v20.8c0,1.9-1.6,3.5-3.5,3.5H39.6c-1.3,0-2.5-0.7-3.1-1.8
	c-0.3-0.5-0.4-1.1-0.4-1.7L32,32z"/>
</svg>
