<?xml version="1.0" encoding="utf-8"?>
<!-- Generator: Adobe Illustrator 22.1.0, SVG Export Plug-In . SVG Version: 6.00 Build 0)  -->
<svg version="1.1" id="图层_1" xmlns="http://www.w3.org/2000/svg" xmlns:xlink="http://www.w3.org/1999/xlink" x="0px" y="0px"
	 viewBox="0 0 64 64" style="enable-background:new 0 0 64 64;" xml:space="preserve">
<style type="text/css">
	.st0{fill:#FFFFFF;}
</style>
<rect class="st0" width="64" height="64"/>
<g>
	<path d="M37.3,26.2c-1-0.3-2-0.3-2.8,0.4c-1.7,1.6-3.4,1.3-5.1,0c-0.5-0.4-1.5-0.5-2.2-0.4c-2.9,0.6-5.7,1.4-8.6,2.1
		c-1.6,0.4-3.1,0.9-4.7,1.4c1.1,4,2.2,7.7,3,11.6c0.4,2.1,1.3,3.6,3.3,4.3c0.9,0.3,1.2,1,1.1,1.9c-0.3,2.1,0.3,3.8,2.1,5.2
		c1.3,1,2.4,2.3,3.6,3.5c1.6,1.7,3.1,3.3,4.8,5.2c3.4-3.4,6.3-6.4,9.4-9.4c1-1,1.5-1.9,1.3-3.3c-0.4-2,0.4-3.2,2.3-3.8
		c0.4-0.1,0.7-0.3,1-0.5c0.3-0.3,0.7-0.7,0.8-1.1c0.9-3,1.7-6.1,2.5-9.2c0.4-1.4,0.7-2.9,1.1-4.3C45.7,28.6,41.5,27.5,37.3,26.2z
		 M41.6,35.8c-1.6,0.2-3.2,0.3-4.8,0.6c-2.3,0.4-3,1.4-3.2,4.6c-0.3,4.4-0.6,8.9-0.9,13.3c-0.1,1.4-0.3,2.8-0.4,4.3
		c-0.1,0-0.2,0-0.3,0c-0.2-1.4-0.3-2.9-0.4-4.3c-0.2-2.7-0.4-5.4-0.6-8.2c-0.2-2.4-0.3-4.8-0.6-7.1c-0.2-1.6-1.6-2.4-3.8-2.6
		c-2.7-0.4-5.4-0.9-8.1-1.4c-0.6-0.1-1.1-0.5-1.6-0.8c10.1,1.7,20.2,1.6,30.3,0C45.5,35.2,43.6,35.5,41.6,35.8z"/>
	<path d="M55.7,35.1c-1.8,1.6-3.7,2.8-6.2,3.4c0.4-1.9,0.8-3.5,1.2-5.1c0.4-1.7,0.9-3.3,2.3-4.7c2.4-2.4,2.4-5.4,1.4-8.5
		c-0.5-1.8-1.3-3.5-1.7-5.3c-0.8-3.2-0.4-6.4,0.2-9.5c0.2-0.9,0.5-1.8,0.6-2.3c0.6,3.2,1,6.8,1.9,10.2c0.5,1.8,1.4,3.6,2.5,5.2
		C61.5,23.9,60.2,30.9,55.7,35.1z"/>
	<path d="M14.7,38.1c-0.3,0-0.7,0-1-0.1c-5.6-1.7-9.7-7.6-9.6-13.4c0.1-2.7,1.5-4.9,2.8-7.1c2-3.4,3-7,3.3-10.9
		c0.1-1.3,0.2-2.7,0.3-4c1.6,5.4,2.2,10.8-0.3,16.2c-1.3,2.8-1.5,5.7,0.1,8.5c1,1.6,2.7,2.7,3,4.9C13.5,34.2,14.2,36,14.7,38.1z"/>
</g>
</svg>
