<?xml version="1.0" encoding="utf-8"?>
<!-- Generator: Adobe Illustrator 22.1.0, SVG Export Plug-In . SVG Version: 6.00 Build 0)  -->
<svg version="1.1" id="图层_1" xmlns="http://www.w3.org/2000/svg" xmlns:xlink="http://www.w3.org/1999/xlink" x="0px" y="0px"
	 viewBox="0 0 16 16" style="enable-background:new 0 0 16 16;" xml:space="preserve">
<style type="text/css">
	.st0{fill:#6D6D6D;}
</style>
<path class="st0" d="M2.1,5.4c-0.2,0-0.3,0.2-0.3,0.3c0,0.2,0.2,0.3,0.3,0.3c0.2,0,0.3-0.2,0.3-0.3C2.4,5.5,2.3,5.4,2.1,5.4z
	 M15.8,4.4c-0.1-0.1-0.2-0.1-0.4,0l-4,2.6V5c0-0.8-0.6-1.4-1.4-1.4H1.4C0.6,3.6,0,4.3,0,5v7c0,0.8,0.6,1.4,1.4,1.4h8.7
	c0.8,0,1.4-0.6,1.4-1.4v-1.7l4,2.7c0.1,0.1,0.2,0.1,0.4,0c0.1-0.1,0.2-0.2,0.2-0.3v-8C16,4.5,15.9,4.4,15.8,4.4z M10.8,7.6
	C10.8,7.6,10.8,7.6,10.8,7.6l0,2.1c0,0,0,0,0,0.1V12c0,0.4-0.3,0.7-0.7,0.7H1.4c-0.4,0-0.7-0.3-0.7-0.7V5c0-0.4,0.3-0.7,0.7-0.7h8.7
	c0.4,0,0.7,0.3,0.7,0.7V7.6z M15.3,12.1l-3.8-2.6V7.8l3.8-2.5V12.1z"/>
</svg>
