<?xml version="1.0" encoding="utf-8"?>
<!-- Generator: Adobe Illustrator 22.1.0, SVG Export Plug-In . SVG Version: 6.00 Build 0)  -->
<svg version="1.1" id="图层_1" xmlns="http://www.w3.org/2000/svg" xmlns:xlink="http://www.w3.org/1999/xlink" x="0px" y="0px"
	 viewBox="0 0 64 64" style="enable-background:new 0 0 64 64;" xml:space="preserve">
<style type="text/css">
	.st0{fill:#FFBA02;}
	.st1{fill:#FFFFFF;}
</style>
<path class="st0" d="M63,32c0,5.3-1.3,10.3-3.7,14.7C56.4,52,52,56.4,46.7,59.3C42.3,61.7,37.3,63,32,63s-10.3-1.3-14.7-3.7
	C12,56.4,7.6,52,4.7,46.7C2.3,42.3,1,37.3,1,32s1.3-10.3,3.7-14.7C7.6,12,12,7.6,17.3,4.7C21.7,2.3,26.7,1,32,1s10.3,1.3,14.7,3.7
	C52,7.6,56.4,12,59.3,17.3C61.7,21.7,63,26.7,63,32z"/>
<path class="st1" d="M50.5,22.2c0-0.6,0-1.1-0.2-1.6c-0.3-1-1.2-1.9-2.2-2.2c-0.6-0.2-1.1-0.2-1.7-0.2H16.3c-1.1,0.1-2.2,0.9-2.6,2
	c-0.2,0.5-0.3,0.9-0.3,1.4v20.3c0,0.4,0,0.7,0.1,1c0.2,0.8,0.7,1.7,1.4,2.1c0.6,0.4,1.2,0.6,1.9,0.6h30.4c0.8,0,1.8-0.3,2.4-0.9
	c0.7-0.6,1-1.6,1-2.5C50.6,35.6,50.6,28.9,50.5,22.2z M44.2,21.5c-3.9,3.1-7.6,6.3-11.5,9.4c-0.4,0.4-1,0.4-1.5,0
	c-3.5-2.9-6.9-5.6-10.6-8.6c-0.3-0.3-0.6-0.5-0.8-0.7H44.2z M47.3,41.2c0,0.3,0,0.7-0.3,0.9c-0.3,0.3-0.6,0.3-0.9,0.3H17.6
	c-0.5,0-0.9-0.5-0.9-0.9V23.3c4.6,3.8,9.3,7.6,13.9,11.3c0.8,0.6,2,0.6,2.9,0c4.6-3.8,9.2-7.5,13.9-11.3L47.3,41.2L47.3,41.2z"/>
</svg>
