<?xml version="1.0" encoding="utf-8"?>
<!-- Generator: Adobe Illustrator 22.1.0, SVG Export Plug-In . SVG Version: 6.00 Build 0)  -->
<svg version="1.1" id="图层_1" xmlns="http://www.w3.org/2000/svg" xmlns:xlink="http://www.w3.org/1999/xlink" x="0px" y="0px"
	 viewBox="0 0 16.2 16" style="enable-background:new 0 0 16.2 16;" xml:space="preserve">
<style type="text/css">
	.st0{fill:#6D6D6D;}
</style>
<path class="st0" d="M2.1,9c0,0.3,0.2,0.5,0.5,0.5S3,9.3,3,9c0-0.3-0.2-0.5-0.5-0.5S2.1,8.7,2.1,9z"/>
<path class="st0" d="M2.8,6.7c0,0.4,0.3,0.7,0.7,0.7s0.7-0.3,0.7-0.7C4.3,6.3,3.9,6,3.6,6S2.8,6.3,2.8,6.7z"/>
<path class="st0" d="M5.5,4.8c0,0.5,0.4,0.9,0.9,0.9s0.9-0.4,0.9-0.9S6.9,3.9,6.4,3.9S5.5,4.3,5.5,4.8z"/>
<path class="st0" d="M9,4.8C9,5.5,9.5,6,10.1,6s1.2-0.5,1.2-1.2s-0.5-1.2-1.2-1.2S9,4.2,9,4.8z"/>
<path class="st0" d="M16,3.7L16,3.7c-0.2-0.2-0.4-0.1-0.6,0l-6.2,7.1l-0.8,1.5l1.4-1l6.2-7.1C16.2,4.1,16.2,3.8,16,3.7z"/>
<path class="st0" d="M15,7.6c-0.2,0-0.4,0.2-0.4,0.4l0,0c0,0-0.6,3.1-3.1,4.7c-2.7,1.8-5.8,1-6.4,0c-0.3-0.6-0.8-1.5-1.1-1.7
	c-0.7-0.6-2.6,0.2-3-0.7C0.3,8.5,2,4,6.3,2.9c3-0.8,5.5,0.2,6.8,1.2v0c0.1,0.1,0.2,0.1,0.3,0.1c0.2,0,0.4-0.2,0.4-0.4
	c0-0.1-0.1-0.3-0.2-0.3C13,3,9.6,0.5,4.9,2.6c-5.2,2.3-5.5,7.1-4.4,8.4s2.7,0.3,3,0.7c0.2,0.3,0.5,0.9,0.9,1.6
	c0.6,0.9,3.3,2.8,7.5,0.3c2.5-1.5,3.4-5,3.5-5.3l0,0c0,0,0,0,0,0C15.4,7.8,15.2,7.6,15,7.6z"/>
</svg>
