<?xml version="1.0" encoding="utf-8"?>
<!-- Generator: Adobe Illustrator 22.1.0, SVG Export Plug-In . SVG Version: 6.00 Build 0)  -->
<svg version="1.1" id="图层_1" xmlns="http://www.w3.org/2000/svg" xmlns:xlink="http://www.w3.org/1999/xlink" x="0px" y="0px"
	 viewBox="0 0 64 64" style="enable-background:new 0 0 64 64;" xml:space="preserve">
<style type="text/css">
	.st0{fill:#EFA33D;}
	.st1{fill:#AF322E;}
</style>
<polygon class="st0" points="64,29.9 64,57 44.6,57 41.1,47.2 52.9,47.2 53,29.9 "/>
<polygon class="st0" points="63.2,7 63.2,16.9 30,16.9 26.4,7 "/>
<path class="st1" d="M44.6,57H18.7C8.4,57,0,48.5,0,38.2V25.8C0,15.5,8.4,7,18.7,7h7.7l3.6,9.9H19.7c-5.4,0-9.9,4.4-9.9,9.9v10.5
	c0,5.4,4.4,9.9,9.9,9.9h21.4L44.6,57z"/>
<polygon class="st1" points="38,16.9 35.6,16.9 32,7 34.4,7 "/>
<polygon class="st1" points="52.6,57 50.3,57 46.7,47.2 49,47.2 "/>
<polygon class="st1" points="38.4,7 41.9,16.9 40.1,16.9 36.6,7 "/>
<polygon class="st1" points="56.1,57 54.5,57 51,47.2 52.9,47.2 "/>
</svg>
